<?xml version="1.0" encoding="UTF-8" standalone="no"?>
<!-- Created with Inkscape (http://www.inkscape.org/) -->

<svg
   width="158.30869mm"
   height="86.28511mm"
   viewBox="0 0 158.30869 86.28511"
   version="1.1"
   id="svg1"
   inkscape:version="1.3.2 (091e20ef0f, 2023-11-25)"
   sodipodi:docname="marz_contour.svg"
   xmlns:inkscape="http://www.inkscape.org/namespaces/inkscape"
   xmlns:sodipodi="http://sodipodi.sourceforge.net/DTD/sodipodi-0.dtd"
   xmlns="http://www.w3.org/2000/svg"
   xmlns:svg="http://www.w3.org/2000/svg">
  <sodipodi:namedview
     id="namedview1"
     pagecolor="#ffffff"
     bordercolor="#000000"
     borderopacity="0.25"
     inkscape:showpageshadow="2"
     inkscape:pageopacity="0.0"
     inkscape:pagecheckerboard="0"
     inkscape:deskcolor="#d1d1d1"
     inkscape:document-units="mm"
     inkscape:zoom="1.0230033"
     inkscape:cx="301.56305"
     inkscape:cy="279.56899"
     inkscape:window-width="1920"
     inkscape:window-height="1021"
     inkscape:window-x="1920"
     inkscape:window-y="0"
     inkscape:window-maximized="1"
     inkscape:current-layer="layer1"
     showgrid="false" />
  <defs
     id="defs1">
    <marker
       style="overflow:visible"
       id="marker4"
       refX="0"
       refY="0"
       orient="auto-start-reverse"
       inkscape:stockid="Triangle arrow"
       markerWidth="1"
       markerHeight="1"
       viewBox="0 0 1 1"
       inkscape:isstock="true"
       inkscape:collect="always"
       preserveAspectRatio="xMidYMid">
      <path
         transform="scale(0.5)"
         style="fill:context-stroke;fill-rule:evenodd;stroke:context-stroke;stroke-width:1pt"
         d="M 5.77,0 -2.88,5 V -5 Z"
         id="path4" />
    </marker>
    <marker
       style="overflow:visible"
       id="Triangle"
       refX="0"
       refY="0"
       orient="auto-start-reverse"
       inkscape:stockid="Triangle arrow"
       markerWidth="1"
       markerHeight="1"
       viewBox="0 0 1 1"
       inkscape:isstock="true"
       inkscape:collect="always"
       preserveAspectRatio="xMidYMid">
      <path
         transform="scale(0.5)"
         style="fill:context-stroke;fill-rule:evenodd;stroke:context-stroke;stroke-width:1pt"
         d="M 5.77,0 -2.88,5 V -5 Z"
         id="path135" />
    </marker>
    <inkscape:path-effect
       effect="rough_hatches"
       id="path-effect18"
       is_visible="true"
       lpeversion="1.2"
       direction="86.369041,85.476616 , 24.073822,0"
       dist_rdm="75;1"
       growth="0"
       do_bend="true"
       bender="86.369041,90.476616 , 5,0"
       bottom_edge_variation="4.9664413;1"
       top_edge_variation="4.9664413;1"
       bottom_tgt_variation="0;1"
       top_tgt_variation="0;1"
       scale_bf="1"
       scale_bb="1"
       scale_tf="1"
       scale_tb="1"
       top_smth_variation="0;1"
       bottom_smth_variation="0;1"
       fat_output="true"
       stroke_width_top="1"
       stroke_width_bottom="1"
       front_thickness="1"
       back_thickness="0.25" />
    <linearGradient
       id="swatch8"
       inkscape:swatch="solid">
      <stop
         style="stop-color:#999999;stop-opacity:1;"
         offset="0"
         id="stop8" />
    </linearGradient>
    <clipPath
       clipPathUnits="userSpaceOnUse"
       id="clipPath120">
      <rect
         style="fill:#999999;fill-opacity:1;stroke:none;stroke-width:1.0357;stroke-dasharray:none"
         id="path121"
         width="96.295288"
         height="49.664413"
         x="56.810822"
         y="52.931091"
         sodipodi:type="rect" />
    </clipPath>
    <clipPath
       clipPathUnits="userSpaceOnUse"
       id="clipPath13295">
      <g
         id="g13299">
        <path
           d="M -5.0620427e-6,1299.9999 H 1299.9998 V 2.236658e-5 H -5.0620427e-6 Z"
           id="path13297"
           style="stroke-width:0.352778" />
      </g>
    </clipPath>
  </defs>
  <g
     inkscape:label="Layer 1"
     inkscape:groupmode="layer"
     id="layer1"
     transform="translate(-25.845661,-37.361108)">
    <rect
       style="fill:#ffffff;fill-opacity:1;stroke:#4d4d4d;stroke-width:0.416501;stroke-linecap:butt;stroke-linejoin:round;stroke-dasharray:none;paint-order:normal"
       id="rect17"
       width="157.89218"
       height="85.868607"
       x="26.053911"
       y="37.569359"
       sodipodi:insensitive="true" />
    <path
       d="m 75.927371,57.595053 c 0.0105,-4.959381 7.73396,-6.481767 11.97876,-6.397613 0.74345,0.01475 1.46673,-0.555297 0.50672,-1.407791 -4.77582,-4.240783 -11.49354,-1.316513 -16.70697,0.652573 -3.182768,1.202098 -6.052154,1.589808 -9.649156,0.188467 -5.747836,-2.239226 -11.641428,-5.677256 -17.178347,-5.590172 -3.068689,0.04826 -6.78674,0.922623 -9.531356,4.382977 -2.045713,2.579223 -2.487253,6.406228 -2.483163,10.624506 l 0.005,5.135264 0.005,5.135264 c 0.0091,9.450413 3.56021,14.96789 13.719137,14.05027 3.435019,-0.310232 7.689822,-2.791907 11.717022,-4.606125 4.2558,-1.917178 6.37768,-1.880918 12.119833,0.838424 3.69681,1.750674 7.81235,2.506749 10.02213,0.463341 0.33567,-0.310412 0.63954,-1.098597 -0.41355,-1.098597 -3.67214,0 -9.19227,-1.999617 -9.39531,-6.323606 0.008,-6.801428 11.44839,-2.332537 11.37655,-8.48314 -0.0554,-4.707968 -6.20879,-2.169588 -6.09223,-7.564042 z"
       style="fill:none;stroke:#008000;stroke-width:0.4;stroke-linecap:butt;stroke-linejoin:miter;stroke-miterlimit:22.9256;stroke-dasharray:none;stroke-opacity:1"
       id="contour"
       clip-path="none"
       sodipodi:nodetypes="cscccccccscccssccc" />
    <path
       style="fill:none;stroke:#999999;stroke-width:0.273501;stroke-linejoin:round;stroke-dasharray:none;paint-order:stroke fill markers"
       d="M 95.664204,64.820414 40.22632,64.753377"
       id="midline"
       inkscape:label="midline" />
    <path
       id="h2_900_2000"
       clip-path="none"
       style="fill:none;fill-opacity:1;fill-rule:nonzero;stroke:#4d4d4d;stroke-width:0.19999;stroke-linecap:butt;stroke-linejoin:miter;stroke-miterlimit:2;stroke-dasharray:none;stroke-opacity:1"
       d="m 728.61959,700.97167 0.42219,0.0501 0.38603,0.21705 0.32452,0.28835 0.17519,0.38602 0.0822,0.40928 -0.0506,0.42271 -0.21549,0.38499 -0.28991,0.32608 -0.38602,0.17363 -0.40876,0.0822 -0.42168,-0.0501 -0.38602,-0.21549 -0.28422,-0.28112 -0.21601,-0.39481 -0.0822,-0.40876 0.0506,-0.42219 0.216,-0.38603 0.28061,-0.28422 0.39429,-0.21549 z m 23.16189,7.28327 0.42168,0.0501 0.38602,0.21704 0.32556,0.28836 0.17467,0.38602 0.0822,0.40876 -0.0506,0.42323 -0.21549,0.38499 -0.2899,0.32608 -0.38551,0.17415 -0.40928,0.0822 -0.42168,-0.0506 -0.38654,-0.21549 -0.28422,-0.2806 -0.21497,-0.39481 -0.0827,-0.40928 0.0506,-0.42168 0.21549,-0.38654 0.2806,-0.28422 0.39533,-0.21549 z m 23.1252,7.33496 0.42168,0.0501 0.38603,0.21704 0.32556,0.28836 0.17466,0.38602 0.0822,0.40876 -0.0506,0.42323 -0.21549,0.38499 -0.28991,0.32608 -0.38551,0.17415 -0.40927,0.0822 -0.42168,-0.0507 -0.38654,-0.21601 -0.28422,-0.28008 -0.21549,-0.39481 -0.0822,-0.40928 0.0501,-0.42219 0.21601,-0.38603 0.2806,-0.28422 0.39532,-0.21549 z m 23.15363,7.38714 0.42168,0.0501 0.38602,0.21704 0.32556,0.28836 0.17415,0.38602 0.0827,0.40876 -0.0506,0.42323 -0.21549,0.38499 -0.2899,0.32608 -0.38603,0.17415 -0.40876,0.0822 -0.42168,-0.0506 -0.38654,-0.21601 -0.28422,-0.28009 -0.21549,-0.3948 -0.0822,-0.40928 0.0501,-0.4222 0.21601,-0.38602 0.2806,-0.28422 0.39481,-0.21549 z m 23.14484,7.38457 0.4222,0.0506 0.3855,0.21652 0.32556,0.28836 0.17519,0.38602 0.0822,0.40928 -0.0512,0.42271 -0.21549,0.38499 -0.2899,0.32608 -0.38551,0.17363 -0.40876,0.0827 -0.4222,-0.0506 -0.38602,-0.21549 -0.28474,-0.28112 -0.21497,-0.39481 -0.0827,-0.40876 0.0506,-0.42219 0.21601,-0.38603 0.28008,-0.28422 0.39533,-0.21549 z m 23.23992,7.43727 0.4222,0.0501 0.38602,0.21653 0.32453,0.28887 0.17519,0.38602 0.0822,0.40928 -0.0506,0.42271 -0.21549,0.38499 -0.28991,0.32608 -0.38602,0.17363 -0.40876,0.0827 -0.42168,-0.0507 -0.38602,-0.21549 -0.28422,-0.28112 -0.21601,-0.39481 -0.0822,-0.40927 0.0507,-0.42117 0.216,-0.38654 0.28061,-0.28422 0.3948,-0.21549 z"
       transform="matrix(-0.38853152,0,0,0.38853152,439.53418,-178.64248)" />
    <path
       id="h1_0_2000"
       clip-path="none"
       style="fill:none;fill-opacity:1;fill-rule:evenodd;stroke:#4d4d4d;stroke-width:0.19999;stroke-linecap:butt;stroke-linejoin:miter;stroke-miterlimit:22.9256;stroke-dasharray:none;stroke-opacity:1"
       d="m 721.67996,694.99529 c 2.74884,0.0279 4.95451,2.31995 4.92631,5.11958 -0.0282,2.79965 -2.27978,5.0462 -5.02863,5.0183 -2.74884,-0.0275 -4.95452,-2.31943 -4.92632,-5.11907 0.0282,-2.79964 2.27979,-5.04671 5.02864,-5.01881 z m 23.16189,7.28328 c 2.74885,0.0275 4.95452,2.31942 4.92632,5.11906 -0.0282,2.8 -2.27997,5.04723 -5.02915,5.01933 -2.74885,-0.0279 -4.954,-2.31959 -4.9258,-5.11958 0.0286,-2.79965 2.27944,-5.04671 5.02863,-5.01881 z m 23.12521,7.33495 c 2.74919,0.0275 4.95451,2.31943 4.92631,5.11907 -0.0286,2.79964 -2.27944,5.04723 -5.02863,5.01933 -2.74884,-0.0279 -4.95452,-2.31994 -4.92632,-5.11959 0.0282,-2.79963 2.2798,-5.04671 5.02864,-5.01881 z m 23.15362,7.38714 c 2.74885,0.0275 4.95452,2.31943 4.92632,5.11907 -0.0286,2.79964 -2.27996,5.04723 -5.02916,5.01933 -2.74883,-0.0279 -4.95399,-2.31994 -4.92579,-5.11958 0.0282,-2.79965 2.27944,-5.04672 5.02863,-5.01882 z m 23.14484,7.38457 c 2.74884,0.0275 4.95452,2.31958 4.92632,5.11958 -0.0282,2.79964 -2.27945,5.0462 -5.02864,5.0183 -2.74885,-0.0275 -4.95451,-2.31959 -4.92631,-5.11959 0.0282,-2.79928 2.27943,-5.04619 5.02863,-5.01829 z m 23.23993,7.43727 c 2.74884,0.0279 4.95451,2.31994 4.92631,5.11958 -0.0282,2.79964 -2.2798,5.04632 -5.02863,5.01882 -2.74885,-0.0279 -4.95452,-2.31995 -4.92632,-5.11959 0.0282,-2.79964 2.2798,-5.04671 5.02864,-5.01881 z"
       transform="matrix(-0.38853152,0,0,0.38853152,439.53418,-178.64248)" />
    <path
       d="m 722.77354,693.81902 -2.28847,12.49186"
       style="fill:none;stroke:#4d4d4d;stroke-width:0.19999;stroke-linecap:butt;stroke-linejoin:miter;stroke-miterlimit:2;stroke-dasharray:0.398639, 0.998361;stroke-dashoffset:0;stroke-opacity:1"
       id="path4140"
       clip-path="none"
       transform="matrix(-0.38853152,0,0,0.38853152,439.53418,-178.64248)" />
    <path
       d="m 715.38284,698.92019 12.49187,2.28846"
       style="fill:none;stroke:#4d4d4d;stroke-width:0.19999;stroke-linecap:butt;stroke-linejoin:miter;stroke-miterlimit:2;stroke-dasharray:0.398639, 0.998361;stroke-dashoffset:0;stroke-opacity:1"
       id="path4142"
       clip-path="none"
       transform="matrix(-0.38853152,0,0,0.38853152,439.53418,-178.64248)" />
    <path
       d="m 745.93516,701.10212 -2.28811,12.49221"
       style="fill:none;stroke:#4d4d4d;stroke-width:0.19999;stroke-linecap:butt;stroke-linejoin:miter;stroke-miterlimit:2;stroke-dasharray:0.398639, 0.998361;stroke-dashoffset:0;stroke-opacity:1"
       id="path4148"
       clip-path="none"
       transform="matrix(-0.38853152,0,0,0.38853152,439.53418,-178.64248)" />
    <path
       d="m 738.54447,706.20364 12.49221,2.28811"
       style="fill:none;stroke:#4d4d4d;stroke-width:0.19999;stroke-linecap:butt;stroke-linejoin:miter;stroke-miterlimit:2;stroke-dasharray:0.398639, 0.998361;stroke-dashoffset:0;stroke-opacity:1"
       id="path4150"
       clip-path="none"
       transform="matrix(-0.38853152,0,0,0.38853152,439.53418,-178.64248)" />
    <path
       d="m 769.06045,708.43707 -2.28812,12.49222"
       style="fill:none;stroke:#4d4d4d;stroke-width:0.19999;stroke-linecap:butt;stroke-linejoin:miter;stroke-miterlimit:2;stroke-dasharray:0.398639, 0.998361;stroke-dashoffset:0;stroke-opacity:1"
       id="path4156"
       clip-path="none"
       transform="matrix(-0.38853152,0,0,0.38853152,439.53418,-178.64248)" />
    <path
       d="m 761.66976,713.53859 12.49221,2.28812"
       style="fill:none;stroke:#4d4d4d;stroke-width:0.19999;stroke-linecap:butt;stroke-linejoin:miter;stroke-miterlimit:2;stroke-dasharray:0.398639, 0.998361;stroke-dashoffset:0;stroke-opacity:1"
       id="path4158"
       clip-path="none"
       transform="matrix(-0.38853152,0,0,0.38853152,439.53418,-178.64248)" />
    <path
       d="m 792.21396,715.82424 -2.28812,12.49221"
       style="fill:none;stroke:#4d4d4d;stroke-width:0.19999;stroke-linecap:butt;stroke-linejoin:miter;stroke-miterlimit:2;stroke-dasharray:0.398639, 0.998361;stroke-dashoffset:0;stroke-opacity:1"
       id="path4164"
       clip-path="none"
       transform="matrix(-0.38853152,0,0,0.38853152,439.53418,-178.64248)" />
    <path
       d="m 784.82327,720.92576 12.49221,2.28811"
       style="fill:none;stroke:#4d4d4d;stroke-width:0.19999;stroke-linecap:butt;stroke-linejoin:miter;stroke-miterlimit:2;stroke-dasharray:0.398639, 0.998361;stroke-dashoffset:0;stroke-opacity:1"
       id="path4166"
       clip-path="none"
       transform="matrix(-0.38853152,0,0,0.38853152,439.53418,-178.64248)" />
    <path
       d="m 815.359,723.20894 -2.28811,12.49186"
       style="fill:none;stroke:#4d4d4d;stroke-width:0.19999;stroke-linecap:butt;stroke-linejoin:miter;stroke-miterlimit:2;stroke-dasharray:0.398639, 0.998361;stroke-dashoffset:0;stroke-opacity:1"
       id="path4172"
       clip-path="none"
       transform="matrix(-0.38853152,0,0,0.38853152,439.53418,-178.64248)" />
    <path
       d="m 807.96831,728.3101 12.49221,2.28812"
       style="fill:none;stroke:#4d4d4d;stroke-width:0.19999;stroke-linecap:butt;stroke-linejoin:miter;stroke-miterlimit:2;stroke-dasharray:0.398639, 0.998361;stroke-dashoffset:0;stroke-opacity:1"
       id="path4174"
       clip-path="none"
       transform="matrix(-0.38853152,0,0,0.38853152,439.53418,-178.64248)" />
    <path
       d="m 838.59894,730.6462 -2.28846,12.49186"
       style="fill:none;stroke:#4d4d4d;stroke-width:0.19999;stroke-linecap:butt;stroke-linejoin:miter;stroke-miterlimit:2;stroke-dasharray:0.398639, 0.998361;stroke-dashoffset:0;stroke-opacity:1"
       id="path4180"
       clip-path="none"
       transform="matrix(-0.38853152,0,0,0.38853152,439.53418,-178.64248)" />
    <path
       d="m 831.2079,735.74736 12.49221,2.28847"
       style="fill:none;stroke:#4d4d4d;stroke-width:0.19999;stroke-linecap:butt;stroke-linejoin:miter;stroke-miterlimit:2;stroke-dasharray:0.398639, 0.998361;stroke-dashoffset:0;stroke-opacity:1"
       id="path4182"
       clip-path="none"
       transform="matrix(-0.38853152,0,0,0.38853152,439.53418,-178.64248)" />
    <path
       style="opacity:0.691454;fill:none;stroke:#4d4d4d;stroke-width:0.155413;stroke-linecap:square"
       d="m 112.84525,84.936468 -3.1727,32.299552"
       id="transition"
       sodipodi:nodetypes="cc" />
    <path
       d="m 853.23428,749.11305 c -2.93052,3.5553 -4.32858,4.40373 -10.35402,2.49802 L 677.29978,699.2465 c -4.59281,-1.45273 -3.84104,-7.31237 1.27741,-7.38046 15.50211,-0.20602 32.56844,-7.26299 42.03276,-14.20389 3.3394,-2.44863 6.3493,-2.09233 9.85485,0.34396 22.71853,15.78716 92.69256,50.41657 109.20009,14.57823 1.05233,-2.28459 3.02119,-2.55764 5.35305,-2.27154 20.57389,3.45261 25.01348,4.05197 39.40152,4.19837 v 42.71 c -21.04178,-0.21414 -25.08671,4.49343 -31.18518,11.89188 z"
       style="fill:none;stroke:#008000;stroke-width:1.0295175;stroke-linecap:butt;stroke-linejoin:round;stroke-miterlimit:22.9256;stroke-dasharray:none;stroke-opacity:1"
       id="contour-3"
       clip-path="none"
       transform="matrix(-0.38853152,0,0,0.38853152,439.52785,-178.64632)"
       sodipodi:nodetypes="ccccccscccc" />
    <path
       style="fill:none;stroke:#666666;stroke-width:0.273501;stroke-linejoin:round;stroke-dasharray:none;paint-order:stroke fill markers"
       d="M 104.99984,99.674588 81.306722,99.607551"
       id="path1"
       inkscape:label="midline"
       sodipodi:nodetypes="cc" />
    <path
       d="m 140.57927,66.98253 v 0.701694 q -0.33602,-0.312962 -0.71817,-0.467796 -0.37885,-0.154834 -0.80711,-0.154834 -0.84335,0 -1.29138,0.517211 -0.44803,0.513917 -0.44803,1.48904 0,0.971829 0.44803,1.48904 0.44803,0.513916 1.29138,0.513916 0.42826,0 0.80711,-0.154834 0.38215,-0.154833 0.71817,-0.467795 v 0.695105 q -0.3492,0.237192 -0.74123,0.355788 -0.38873,0.118596 -0.82358,0.118596 -1.11678,0 -1.75918,-0.681928 -0.64239,-0.685221 -0.64239,-1.867888 0,-1.185961 0.64239,-1.867888 0.6424,-0.685222 1.75918,-0.685222 0.44144,0 0.83017,0.118596 0.39203,0.115302 0.73464,0.349199 z m 2.43122,1.274908 q -0.48756,0 -0.77088,0.382143 -0.28331,0.378849 -0.28331,1.04101 0,0.662162 0.28002,1.044305 0.28331,0.378849 0.77417,0.378849 0.48427,0 0.76758,-0.382143 0.28331,-0.382143 0.28331,-1.041011 0,-0.655572 -0.28331,-1.037715 -0.28331,-0.385438 -0.76758,-0.385438 z m 0,-0.513916 q 0.79064,0 1.24196,0.513916 0.45133,0.513917 0.45133,1.423153 0,0.905943 -0.45133,1.423154 -0.45132,0.513916 -1.24196,0.513916 -0.79394,0 -1.24526,-0.513916 -0.44803,-0.517211 -0.44803,-1.423154 0,-0.909236 0.44803,-1.423153 0.45132,-0.513916 1.24526,-0.513916 z m 5.76509,1.551632 v 2.226971 h -0.60616 V 69.31492 q 0,-0.523799 -0.20425,-0.784052 -0.20425,-0.260252 -0.61275,-0.260252 -0.49085,0 -0.77417,0.312962 -0.28331,0.312962 -0.28331,0.853233 v 2.085314 h -0.60945 v -3.689656 h 0.60945 v 0.573214 q 0.21743,-0.332727 0.51062,-0.497444 0.29649,-0.164717 0.68193,-0.164717 0.63581,0 0.96195,0.39532 0.32614,0.392026 0.32614,1.156312 z m 1.80859,-2.510284 v 1.047599 h 1.24855 v 0.47109 h -1.24855 v 2.002956 q 0,0.451324 0.12189,0.579803 0.12518,0.12848 0.50403,0.12848 h 0.62263 v 0.507327 h -0.62263 q -0.70169,0 -0.96853,-0.260252 -0.26685,-0.263547 -0.26685,-0.955358 v -2.002956 h -0.44473 v -0.47109 h 0.44473 V 66.78487 Z m 3.47552,1.472568 q -0.48756,0 -0.77087,0.382143 -0.28332,0.378849 -0.28332,1.04101 0,0.662162 0.28002,1.044305 0.28332,0.378849 0.77417,0.378849 0.48427,0 0.76758,-0.382143 0.28331,-0.382143 0.28331,-1.041011 0,-0.655572 -0.28331,-1.037715 -0.28331,-0.385438 -0.76758,-0.385438 z m 0,-0.513916 q 0.79064,0 1.24197,0.513916 0.45132,0.513917 0.45132,1.423153 0,0.905943 -0.45132,1.423154 -0.45133,0.513916 -1.24197,0.513916 -0.79393,0 -1.24526,-0.513916 -0.44803,-0.517211 -0.44803,-1.423154 0,-0.909236 0.44803,-1.423153 0.45133,-0.513916 1.24526,-0.513916 z m 2.63547,2.322507 v -2.23356 h 0.60616 v 2.210499 q 0,0.5238 0.20425,0.787347 0.20424,0.260252 0.61274,0.260252 0.49086,0 0.77417,-0.312962 0.28661,-0.312962 0.28661,-0.853233 v -2.091903 h 0.60616 v 3.689656 h -0.60616 v -0.566626 q -0.22072,0.336023 -0.51392,0.50074 -0.2899,0.161422 -0.67534,0.161422 -0.6358,0 -0.96524,-0.39532 -0.32943,-0.395321 -0.32943,-1.156312 z m 1.52528,-2.322507 z m 4.95138,0.655573 q -0.10212,-0.0593 -0.22401,-0.08565 -0.1186,-0.02965 -0.26355,-0.02965 -0.51391,0 -0.79064,0.336022 -0.27343,0.332728 -0.27343,0.958652 v 1.943658 h -0.60945 v -3.689656 h 0.60945 v 0.573214 q 0.19107,-0.336022 0.49745,-0.497444 0.30637,-0.164717 0.74452,-0.164717 0.0626,0 0.13836,0.0099 0.0758,0.0066 0.16801,0.02306 z m 2.98797,-0.457913 v 0.573215 q -0.25696,-0.131774 -0.53369,-0.197661 -0.27672,-0.06589 -0.57321,-0.06589 -0.45132,0 -0.67863,0.138362 -0.22402,0.138362 -0.22402,0.415086 0,0.210838 0.16142,0.332728 0.16143,0.118596 0.64899,0.227309 l 0.20754,0.04612 q 0.64569,0.138362 0.91583,0.392026 0.27343,0.250369 0.27343,0.701693 0,0.513917 -0.4085,0.813701 -0.4052,0.299785 -1.11678,0.299785 -0.29649,0 -0.61934,-0.0593 -0.31955,-0.056 -0.67534,-0.171306 v -0.625923 q 0.33603,0.174599 0.66217,0.263547 0.32614,0.08565 0.64569,0.08565 0.42826,0 0.65886,-0.144951 0.23061,-0.148245 0.23061,-0.415086 0,-0.247075 -0.16801,-0.378848 -0.16472,-0.131774 -0.72805,-0.253664 l -0.21084,-0.04941 q -0.56333,-0.118596 -0.8137,-0.362377 -0.25037,-0.247076 -0.25037,-0.675339 0,-0.520505 0.36897,-0.803818 0.36896,-0.283313 1.04759,-0.283313 0.33603,0 0.63252,0.04941 0.29649,0.04942 0.54686,0.148245 z"
       id="text1"
       style="font-size:6.7468px;fill:#ff0000;stroke-width:0.582243;stroke-linejoin:round"
       aria-label="Contours" />
    <path
       style="fill:none;stroke:#ff0000;stroke-width:0.274;stroke-linejoin:round;stroke-miterlimit:4;stroke-dasharray:none;stroke-dashoffset:0;marker-end:url(#Triangle)"
       d="M 130.99398,67.200968 C 114.55876,56.560563 93.524079,51.573614 93.524079,51.573614"
       id="path2"
       sodipodi:nodetypes="cc" />
    <path
       style="fill:none;stroke:#ff0000;stroke-width:0.274;stroke-linejoin:round;stroke-miterlimit:4;stroke-dasharray:none;stroke-dashoffset:0;marker-end:url(#marker4)"
       d="m 130.99398,71.077605 c -31.404762,12.309657 4.93993,21.13579 4.93993,21.13579"
       id="path3"
       sodipodi:nodetypes="cc" />
  </g>
</svg>
