<?xml version="1.0" encoding="UTF-8" standalone="no"?>
<!-- Created with Inkscape (http://www.inkscape.org/) -->

<svg
   width="158.30869mm"
   height="86.28511mm"
   viewBox="0 0 158.30869 86.28511"
   version="1.1"
   id="svg1"
   inkscape:version="1.3.2 (091e20ef0f, 2023-11-25)"
   sodipodi:docname="marz_ergo.svg"
   xmlns:inkscape="http://www.inkscape.org/namespaces/inkscape"
   xmlns:sodipodi="http://sodipodi.sourceforge.net/DTD/sodipodi-0.dtd"
   xmlns="http://www.w3.org/2000/svg"
   xmlns:svg="http://www.w3.org/2000/svg">
  <sodipodi:namedview
     id="namedview1"
     pagecolor="#ffffff"
     bordercolor="#000000"
     borderopacity="0.25"
     inkscape:showpageshadow="2"
     inkscape:pageopacity="0.0"
     inkscape:pagecheckerboard="0"
     inkscape:deskcolor="#d1d1d1"
     inkscape:document-units="mm"
     inkscape:zoom="1.4467451"
     inkscape:cx="348.02261"
     inkscape:cy="182.47859"
     inkscape:window-width="1920"
     inkscape:window-height="1021"
     inkscape:window-x="1920"
     inkscape:window-y="0"
     inkscape:window-maximized="1"
     inkscape:current-layer="layer1"
     showgrid="false" />
  <defs
     id="defs1">
    <marker
       style="overflow:visible"
       id="marker5"
       refX="0"
       refY="0"
       orient="auto-start-reverse"
       inkscape:stockid="Triangle arrow"
       markerWidth="1"
       markerHeight="1"
       viewBox="0 0 1 1"
       inkscape:isstock="true"
       inkscape:collect="always"
       preserveAspectRatio="xMidYMid">
      <path
         transform="scale(0.5)"
         style="fill:context-stroke;fill-rule:evenodd;stroke:context-stroke;stroke-width:1pt"
         d="M 5.77,0 -2.88,5 V -5 Z"
         id="path5" />
    </marker>
    <marker
       style="overflow:visible"
       id="Triangle"
       refX="0"
       refY="0"
       orient="auto-start-reverse"
       inkscape:stockid="Triangle arrow"
       markerWidth="1"
       markerHeight="1"
       viewBox="0 0 1 1"
       inkscape:isstock="true"
       inkscape:collect="always"
       preserveAspectRatio="xMidYMid">
      <path
         transform="scale(0.5)"
         style="fill:context-stroke;fill-rule:evenodd;stroke:context-stroke;stroke-width:1pt"
         d="M 5.77,0 -2.88,5 V -5 Z"
         id="path135" />
    </marker>
    <inkscape:path-effect
       effect="rough_hatches"
       id="path-effect18"
       is_visible="true"
       lpeversion="1.2"
       direction="86.369041,85.476616 , 24.073822,0"
       dist_rdm="75;1"
       growth="0"
       do_bend="true"
       bender="86.369041,90.476616 , 5,0"
       bottom_edge_variation="4.9664413;1"
       top_edge_variation="4.9664413;1"
       bottom_tgt_variation="0;1"
       top_tgt_variation="0;1"
       scale_bf="1"
       scale_bb="1"
       scale_tf="1"
       scale_tb="1"
       top_smth_variation="0;1"
       bottom_smth_variation="0;1"
       fat_output="true"
       stroke_width_top="1"
       stroke_width_bottom="1"
       front_thickness="1"
       back_thickness="0.25" />
    <linearGradient
       id="swatch8"
       inkscape:swatch="solid">
      <stop
         style="stop-color:#999999;stop-opacity:1;"
         offset="0"
         id="stop8" />
    </linearGradient>
    <clipPath
       clipPathUnits="userSpaceOnUse"
       id="clipPath120">
      <rect
         style="fill:#999999;fill-opacity:1;stroke:none;stroke-width:1.0357;stroke-dasharray:none"
         id="path121"
         width="96.295288"
         height="49.664413"
         x="56.810822"
         y="52.931091"
         sodipodi:type="rect" />
    </clipPath>
  </defs>
  <g
     inkscape:label="Layer 1"
     inkscape:groupmode="layer"
     id="layer1"
     transform="translate(-25.845661,-37.361108)">
    <rect
       style="fill:#ffffff;fill-opacity:1;stroke:#4d4d4d;stroke-width:0.416501;stroke-linecap:butt;stroke-linejoin:round;stroke-dasharray:none;paint-order:normal"
       id="rect17"
       width="157.89218"
       height="85.868607"
       x="26.053911"
       y="37.569359"
       sodipodi:insensitive="true" />
    <path
       d="m 102.32739,76.673469 c 0.0165,-7.82187 12.19792,-10.222958 18.89275,-10.090231 1.17255,0.02327 2.31331,-0.875807 0.79921,-2.22035 -7.53238,-6.688506 -18.12749,-2.076386 -26.350024,1.029231 -5.019822,1.895932 -9.54538,2.507424 -15.218526,0.297245 C 71.385391,62.157689 62.090095,56.735271 53.357339,56.87262 48.517444,56.94873 42.653383,58.327769 38.324612,63.785395 35.098139,67.85331 34.40175,73.889212 34.408199,80.542224 l 0.0079,8.09927 0.0078,8.09927 c 0.01439,14.905066 5.615118,23.607156 21.637643,22.159896 5.417666,-0.48928 12.128284,-4.40335 18.479932,-7.26472 6.712192,-3.02375 10.058793,-2.96654 19.115245,1.32237 5.830551,2.76113 12.321531,3.9536 15.806761,0.73077 0.52942,-0.48958 1.00869,-1.73269 -0.65225,-1.73269 -5.79165,0 -14.49792,-3.15378 -14.818142,-9.97352 0.01302,-10.72712 18.056252,-3.678844 17.942942,-13.379495 -0.0874,-7.425344 -9.79242,-3.421845 -9.6086,-11.929906 z"
       style="fill:none;stroke:#808080;stroke-width:0.3;stroke-linecap:butt;stroke-linejoin:miter;stroke-miterlimit:22.9256;stroke-dasharray:none;stroke-dashoffset:0;stroke-opacity:1"
       id="contour"
       clip-path="none"
       sodipodi:nodetypes="cscccccccscccssccc" />
    <path
       style="fill:none;stroke:#008000;stroke-width:0.486381;stroke-linecap:round;stroke-linejoin:round;stroke-dasharray:none"
       d="m 46.580184,50.163249 c 0,0 5.404749,5.49669 9.309361,6.577394 9.434808,2.611329 14.937192,22.933702 22.687064,23.121294 8.746599,0.211719 18.202969,-15.239105 28.788551,-18.337793 2.05856,-0.602598 2.29979,-2.556155 2.29979,-2.556155"
       id="path1"
       sodipodi:nodetypes="csssc" />
    <path
       style="fill:none;stroke:#fc6f03;stroke-width:0.486381;stroke-linecap:round;stroke-linejoin:round;stroke-dasharray:none;stroke-opacity:1"
       d="M 82.245426,57.63109 76.719023,87.398354"
       id="path2" />
    <path
       style="fill:none;stroke:#ff0000;stroke-width:0.342;stroke-linecap:round;stroke-linejoin:round;stroke-dasharray:none;marker-end:url(#Triangle)"
       d="m 125.16706,48.038191 c -27.576321,-0.962263 -3.53458,6.293547 -41.1592,11.901813"
       id="path3"
       sodipodi:nodetypes="cc" />
    <path
       style="fill:none;stroke:#ff0000;stroke-width:0.342;stroke-linecap:round;stroke-linejoin:round;stroke-dasharray:0.212852, 0.212852;stroke-dashoffset:0;marker-end:url(#marker5)"
       d="M 126.64305,80.391501 94.743585,72.703327"
       id="path4"
       sodipodi:nodetypes="cc" />
    <circle
       style="fill:none;stroke:#cccccc;stroke-width:0.2;stroke-linecap:round;stroke-linejoin:round;stroke-dasharray:0.60000001,0.60000001;stroke-dashoffset:0"
       id="path6"
       cx="80.736923"
       cy="65.926651"
       r="2.6187551" />
    <circle
       style="fill:none;stroke:#cccccc;stroke-width:0.2;stroke-linecap:round;stroke-linejoin:round;stroke-dasharray:0.600001, 0.600001;stroke-dashoffset:0"
       id="path7"
       cx="78.178642"
       cy="79.836838"
       r="2.7847266" />
    <circle
       style="fill:none;stroke:#cccccc;stroke-width:0.2;stroke-linecap:round;stroke-linejoin:round;stroke-dasharray:0.600001, 0.600001;stroke-dashoffset:0"
       id="path8"
       cx="56.38604"
       cy="56.962612"
       r="3.5728779" />
    <circle
       style="fill:none;stroke:#cccccc;stroke-width:0.2;stroke-linecap:round;stroke-linejoin:round;stroke-dasharray:0.600001, 0.600001;stroke-dashoffset:0"
       id="path9"
       cx="106.60034"
       cy="61.884819"
       r="2.9907701" />
    <path
       d="m 129.9435,46.613758 v 0.42891 q -0.2054,-0.191298 -0.43898,-0.28594 -0.23157,-0.09464 -0.49335,-0.09464 -0.5155,0 -0.78936,0.316145 -0.27385,0.314131 -0.27385,0.910175 0,0.594031 0.27385,0.910176 0.27386,0.314131 0.78936,0.314131 0.26178,0 0.49335,-0.09464 0.23358,-0.09464 0.43898,-0.28594 v 0.424882 q -0.21345,0.144984 -0.45308,0.217476 -0.23761,0.07249 -0.50341,0.07249 -0.68264,0 -1.0753,-0.416828 -0.39266,-0.418842 -0.39266,-1.141747 0,-0.724918 0.39266,-1.141746 0.39266,-0.418842 1.0753,-0.418842 0.26983,0 0.50744,0.07249 0.23962,0.07048 0.44905,0.213448 z m 0.57389,1.884788 v -1.365263 h 0.37051 v 1.351167 q 0,0.320173 0.12485,0.481266 0.12485,0.159079 0.37454,0.159079 0.30004,0 0.47321,-0.191298 0.17519,-0.191298 0.17519,-0.521539 v -1.278675 h 0.37051 v 2.255302 h -0.37051 v -0.34635 q -0.13491,0.205393 -0.31413,0.306076 -0.1772,0.09867 -0.4128,0.09867 -0.38864,0 -0.59,-0.24164 -0.20137,-0.241639 -0.20137,-0.706795 z m 0.93232,-1.419632 z m 2.08616,-0.585976 v 0.640345 h 0.76318 v 0.287954 h -0.76318 v 1.224306 q 0,0.275872 0.0745,0.354405 0.0765,0.07853 0.30809,0.07853 h 0.38059 v 0.310104 h -0.38059 q -0.42891,0 -0.59201,-0.15908 -0.16311,-0.161093 -0.16311,-0.583962 V 47.421234 H 132.8915 V 47.13328 h 0.27184 v -0.640345 z m 2.27544,1.761955 q -0.44905,0 -0.62222,0.102697 -0.17318,0.102696 -0.17318,0.350377 0,0.197339 0.12887,0.314131 0.13089,0.114779 0.35441,0.114779 0.30809,0 0.49335,-0.217476 0.18727,-0.219489 0.18727,-0.581948 v -0.08256 z m 0.73901,-0.153039 v 1.286731 h -0.37051 v -0.342323 q -0.12686,0.205394 -0.31615,0.304063 -0.18928,0.09666 -0.46314,0.09666 -0.34635,0 -0.55174,-0.193312 -0.20338,-0.195325 -0.20338,-0.521538 0,-0.380582 0.25372,-0.573894 0.25573,-0.193312 0.76116,-0.193312 h 0.51953 v -0.03625 q 0,-0.255736 -0.16915,-0.394678 -0.16713,-0.140957 -0.4712,-0.140957 -0.19331,0 -0.37655,0.04632 -0.18325,0.04631 -0.35239,0.138942 v -0.342322 q 0.20338,-0.07853 0.39467,-0.116793 0.1913,-0.04027 0.37253,-0.04027 0.48932,0 0.73096,0.253722 0.24164,0.253721 0.24164,0.769218 z m 0.54772,-0.968571 h 0.37051 l 0.46314,1.759941 0.46113,-1.759941 h 0.43697 l 0.46314,1.759941 0.46113,-1.759941 h 0.37051 l -0.59,2.255302 h -0.43697 l -0.48529,-1.848542 -0.4873,1.848542 h -0.43697 z m 4.6133,1.12161 q -0.44905,0 -0.62222,0.102697 -0.17318,0.102696 -0.17318,0.350377 0,0.197339 0.12888,0.314131 0.13088,0.114779 0.3544,0.114779 0.30809,0 0.49335,-0.217476 0.18727,-0.219489 0.18727,-0.581948 v -0.08256 z m 0.73901,-0.153039 v 1.286731 h -0.37051 v -0.342323 q -0.12686,0.205394 -0.31615,0.304063 -0.18928,0.09666 -0.46314,0.09666 -0.34635,0 -0.55174,-0.193312 -0.20338,-0.195325 -0.20338,-0.521538 0,-0.380582 0.25372,-0.573894 0.25573,-0.193312 0.76116,-0.193312 h 0.51953 v -0.03625 q 0,-0.255736 -0.16915,-0.394678 -0.16713,-0.140957 -0.4712,-0.140957 -0.19331,0 -0.37655,0.04632 -0.18325,0.04631 -0.35239,0.138942 v -0.342322 q 0.20338,-0.07853 0.39467,-0.116793 0.1913,-0.04027 0.37253,-0.04027 0.48932,0 0.73096,0.253722 0.24164,0.253721 0.24164,0.769218 z m 1.70155,1.496151 q -0.15707,0.402733 -0.30608,0.525566 -0.14901,0.122834 -0.39871,0.122834 h -0.296 v -0.310104 h 0.21747 q 0.15304,0 0.23761,-0.07249 0.0846,-0.07249 0.18727,-0.342323 l 0.0665,-0.169147 -0.91218,-2.219056 h 0.39266 l 0.70478,1.763968 0.70478,-1.763968 h 0.39267 z m 4.29715,-2.122399 v -1.22028 h 0.37051 v 3.133259 h -0.37051 v -0.338296 q -0.11679,0.201367 -0.29601,0.300036 -0.1772,0.09666 -0.42689,0.09666 -0.40878,0 -0.66653,-0.326213 -0.25573,-0.326214 -0.25573,-0.857821 0,-0.531606 0.25573,-0.85782 0.25775,-0.326213 0.66653,-0.326213 0.24969,0 0.42689,0.09867 0.17922,0.09666 0.29601,0.298022 z m -1.26257,0.787341 q 0,0.408774 0.16714,0.642359 0.16915,0.231571 0.46314,0.231571 0.294,0 0.46314,-0.231571 0.16915,-0.233585 0.16915,-0.642359 0,-0.408773 -0.16915,-0.640344 -0.16914,-0.233585 -0.46314,-0.233585 -0.29399,0 -0.46314,0.233585 -0.16714,0.231571 -0.16714,0.640344 z m 2.39626,-1.129664 h 0.37052 v 2.255302 h -0.37052 z m 0,-0.877957 h 0.37052 v 0.469184 h -0.37052 z m 2.45264,1.224307 q -0.0624,-0.03625 -0.13693,-0.05236 -0.0725,-0.01812 -0.16109,-0.01812 -0.31413,0 -0.48328,0.205393 -0.16713,0.20338 -0.16713,0.585976 v 1.188061 h -0.37253 v -2.255302 h 0.37253 v 0.350377 q 0.11679,-0.205393 0.30406,-0.304063 0.18727,-0.100683 0.45509,-0.100683 0.0383,0 0.0846,0.006 0.0463,0.004 0.1027,0.0141 z m 2.22711,0.688672 v 0.18123 h -1.70356 q 0.0242,0.382596 0.22956,0.583962 0.20741,0.199353 0.57591,0.199353 0.21345,0 0.4128,-0.05236 0.20137,-0.05236 0.3987,-0.157065 v 0.350377 q -0.19935,0.08457 -0.40877,0.128874 -0.20942,0.0443 -0.42488,0.0443 -0.53966,0 -0.85581,-0.314131 -0.31413,-0.314132 -0.31413,-0.849766 0,-0.553757 0.29802,-0.877957 0.30004,-0.326213 0.80748,-0.326213 0.45509,0 0.71888,0.293995 0.2658,0.291981 0.2658,0.795396 z m -0.37051,-0.108737 q -0.004,-0.304063 -0.17116,-0.485293 -0.16512,-0.18123 -0.43898,-0.18123 -0.31011,0 -0.49738,0.175189 -0.18525,0.175189 -0.21344,0.493347 z m 2.60165,-0.839698 v 0.34635 q -0.15706,-0.08659 -0.31614,-0.128874 -0.15707,-0.0443 -0.31816,-0.0443 -0.36045,0 -0.5598,0.229558 -0.19935,0.227544 -0.19935,0.640344 0,0.412801 0.19935,0.642359 0.19935,0.227544 0.5598,0.227544 0.16109,0 0.31816,-0.04229 0.15908,-0.0443 0.31614,-0.130888 v 0.342322 q -0.15505,0.07249 -0.32218,0.108738 -0.16512,0.03625 -0.3524,0.03625 -0.50945,0 -0.80949,-0.320172 -0.30003,-0.320173 -0.30003,-0.863862 0,-0.551743 0.30205,-0.867888 0.30406,-0.316145 0.83164,-0.316145 0.17116,0 0.33427,0.03625 0.1631,0.03423 0.31614,0.10471 z m 1.01086,-0.726932 v 0.640345 h 0.76318 v 0.287954 h -0.76318 v 1.224306 q 0,0.275872 0.0745,0.354405 0.0765,0.07853 0.30809,0.07853 h 0.38058 v 0.310104 h -0.38058 q -0.42891,0 -0.59202,-0.15908 -0.16311,-0.161093 -0.16311,-0.583962 v -1.224306 h -0.27184 V 47.13328 h 0.27184 v -0.640345 z m 1.25048,0.640345 h 0.37052 v 2.255302 h -0.37052 z m 0,-0.877957 h 0.37052 v 0.469184 h -0.37052 z m 2.01971,1.137719 q -0.29802,0 -0.4712,0.233585 -0.17317,0.231571 -0.17317,0.636317 0,0.404747 0.17116,0.638331 0.17317,0.231572 0.47321,0.231572 0.29601,0 0.46918,-0.233585 0.17318,-0.233585 0.17318,-0.636318 0,-0.400718 -0.17318,-0.634303 -0.17317,-0.235599 -0.46918,-0.235599 z m 0,-0.314131 q 0.48328,0 0.75915,0.314131 0.27587,0.314132 0.27587,0.869902 0,0.553758 -0.27587,0.869903 -0.27587,0.314131 -0.75915,0.314131 -0.4853,0 -0.76117,-0.314131 -0.27385,-0.316145 -0.27385,-0.869903 0,-0.55577 0.27385,-0.869902 0.27587,-0.314131 0.76117,-0.314131 z m 3.5239,0.948435 v 1.361236 h -0.37051 v -1.349154 q 0,-0.320172 -0.12485,-0.479252 -0.12484,-0.159079 -0.37454,-0.159079 -0.30003,0 -0.47321,0.191298 -0.17317,0.191298 -0.17317,0.521538 v 1.274649 h -0.37253 v -2.255302 h 0.37253 v 0.350377 q 0.1329,-0.20338 0.31211,-0.304063 0.18123,-0.100683 0.41683,-0.100683 0.38864,0 0.58799,0.24164 0.19935,0.239625 0.19935,0.706795 z m 2.93995,-1.767995 q -0.26983,0.463142 -0.40072,0.916216 -0.13088,0.453074 -0.13088,0.91823 0,0.465156 0.13088,0.922257 0.13291,0.455088 0.40072,0.916216 h -0.32218 q -0.30205,-0.47321 -0.45308,-0.930312 -0.14901,-0.457101 -0.14901,-0.908161 0,-0.449047 0.14901,-0.904134 0.14901,-0.455088 0.45308,-0.930312 z m 1.12161,2.786908 h 1.41963 v 0.342323 h -1.90895 v -0.342323 q 0.23157,-0.239626 0.63028,-0.642358 0.40072,-0.404746 0.50341,-0.521539 0.19533,-0.219489 0.27185,-0.370514 0.0785,-0.153038 0.0785,-0.300035 0,-0.239626 -0.16915,-0.390651 -0.16713,-0.151024 -0.43696,-0.151024 -0.1913,0 -0.40475,0.06645 -0.21143,0.06645 -0.45307,0.201366 V 46.52717 q 0.24566,-0.09867 0.45911,-0.149011 0.21345,-0.05034 0.39065,-0.05034 0.46717,0 0.74506,0.233585 0.27788,0.233585 0.27788,0.624235 0,0.185257 -0.0705,0.352391 -0.0685,0.16512 -0.2517,0.390651 -0.0503,0.0584 -0.32018,0.338295 -0.26983,0.277885 -0.76116,0.779287 z m 2.16267,-2.786908 h 0.32219 q 0.30205,0.475224 0.45106,0.930312 0.15102,0.455087 0.15102,0.904134 0,0.45106 -0.15102,0.908161 -0.14901,0.457102 -0.45106,0.930312 h -0.32219 q 0.26782,-0.461128 0.39871,-0.916216 0.1329,-0.457101 0.1329,-0.922257 0,-0.465156 -0.1329,-0.91823 -0.13089,-0.453074 -0.39871,-0.916216 z"
       id="text1"
       style="font-size:4.12398px;fill:#ff0000;stroke-width:0.343664;stroke-linecap:round;stroke-linejoin:round"
       aria-label="Cutaway direction (2)" />
    <path
       d="m 131.94417,79.127121 v 0.42891 q -0.2054,-0.191298 -0.43898,-0.28594 -0.23157,-0.09464 -0.49335,-0.09464 -0.5155,0 -0.78935,0.316145 -0.27386,0.314132 -0.27386,0.910176 0,0.59403 0.27386,0.910175 0.27385,0.314131 0.78935,0.314131 0.26178,0 0.49335,-0.09464 0.23358,-0.09464 0.43898,-0.28594 v 0.424883 q -0.21345,0.144984 -0.45308,0.217475 -0.23761,0.07249 -0.50341,0.07249 -0.68263,0 -1.0753,-0.416828 -0.39266,-0.418842 -0.39266,-1.141746 0,-0.724919 0.39266,-1.141747 0.39267,-0.418841 1.0753,-0.418841 0.26983,0 0.50744,0.07249 0.23963,0.07048 0.44905,0.213449 z m 0.57389,1.884787 v -1.365263 h 0.37051 v 1.351168 q 0,0.320172 0.12485,0.481265 0.12485,0.159079 0.37454,0.159079 0.30004,0 0.47321,-0.191298 0.17519,-0.191298 0.17519,-0.521538 v -1.278676 h 0.37052 v 2.255302 h -0.37052 v -0.34635 q -0.13491,0.205394 -0.31413,0.306077 -0.1772,0.09867 -0.4128,0.09867 -0.38864,0 -0.59,-0.241639 -0.20137,-0.24164 -0.20137,-0.706796 z m 0.93233,-1.419631 z m 2.08615,-0.585976 v 0.640344 h 0.76318 v 0.287954 h -0.76318 v 1.224307 q 0,0.275871 0.0745,0.354404 0.0765,0.07853 0.30809,0.07853 h 0.38058 v 0.310104 h -0.38058 q -0.42891,0 -0.59202,-0.159079 -0.16311,-0.161093 -0.16311,-0.583962 v -1.224307 h -0.27184 v -0.287954 h 0.27184 v -0.640344 z m 2.27544,1.761954 q -0.44905,0 -0.62222,0.102697 -0.17318,0.102697 -0.17318,0.350377 0,0.197339 0.12888,0.314132 0.13088,0.114778 0.3544,0.114778 0.30809,0 0.49335,-0.217475 0.18727,-0.219489 0.18727,-0.581949 v -0.08256 z m 0.73901,-0.153038 v 1.28673 h -0.37051 v -0.342323 q -0.12686,0.205394 -0.31615,0.304063 -0.18928,0.09666 -0.46314,0.09666 -0.34635,0 -0.55174,-0.193311 -0.20338,-0.195326 -0.20338,-0.521539 0,-0.380582 0.25372,-0.573894 0.25573,-0.193311 0.76116,-0.193311 h 0.51953 v -0.03625 q 0,-0.255735 -0.16915,-0.394678 -0.16713,-0.140956 -0.4712,-0.140956 -0.19331,0 -0.37655,0.04631 -0.18324,0.04631 -0.35239,0.138943 v -0.342323 q 0.20338,-0.07853 0.39468,-0.116792 0.19129,-0.04027 0.37252,-0.04027 0.48932,0 0.73096,0.253721 0.24164,0.253721 0.24164,0.769219 z m 0.54772,-0.968572 h 0.37051 l 0.46315,1.759941 0.46112,-1.759941 h 0.43697 l 0.46314,1.759941 0.46113,-1.759941 h 0.37051 l -0.59,2.255302 h -0.43696 l -0.4853,-1.848542 -0.4873,1.848542 h -0.43697 z m 4.6133,1.12161 q -0.44905,0 -0.62222,0.102697 -0.17318,0.102697 -0.17318,0.350377 0,0.197339 0.12888,0.314132 0.13088,0.114778 0.3544,0.114778 0.30809,0 0.49335,-0.217475 0.18727,-0.219489 0.18727,-0.581949 v -0.08256 z m 0.73901,-0.153038 v 1.28673 h -0.37051 v -0.342323 q -0.12686,0.205394 -0.31615,0.304063 -0.18928,0.09666 -0.46314,0.09666 -0.34635,0 -0.55174,-0.193311 -0.20338,-0.195326 -0.20338,-0.521539 0,-0.380582 0.25372,-0.573894 0.25574,-0.193311 0.76116,-0.193311 h 0.51953 v -0.03625 q 0,-0.255735 -0.16915,-0.394678 -0.16713,-0.140956 -0.4712,-0.140956 -0.19331,0 -0.37655,0.04631 -0.18324,0.04631 -0.35239,0.138943 v -0.342323 q 0.20338,-0.07853 0.39468,-0.116792 0.19129,-0.04027 0.37252,-0.04027 0.48932,0 0.73096,0.253721 0.24164,0.253721 0.24164,0.769219 z m 1.70155,1.496151 q -0.15707,0.402732 -0.30608,0.525566 -0.14901,0.122833 -0.3987,0.122833 h -0.29601 v -0.310104 h 0.21747 q 0.15304,0 0.23761,-0.07249 0.0846,-0.07249 0.18727,-0.342322 l 0.0665,-0.169148 -0.91219,-2.219056 h 0.39266 l 0.70478,1.763968 0.70478,-1.763968 h 0.39267 z m 4.4361,-2.378135 v 0.34635 q -0.15707,-0.08659 -0.31615,-0.128875 -0.15707,-0.0443 -0.31816,-0.0443 -0.36044,0 -0.5598,0.229557 -0.19935,0.227544 -0.19935,0.640345 0,0.412801 0.19935,0.642358 0.19936,0.227544 0.5598,0.227544 0.16109,0 0.31816,-0.04229 0.15908,-0.0443 0.31615,-0.130888 v 0.342323 q -0.15506,0.07249 -0.32219,0.108737 -0.16512,0.03625 -0.35239,0.03625 -0.50946,0 -0.80949,-0.320172 -0.30004,-0.320172 -0.30004,-0.863861 0,-0.551744 0.30205,-0.867888 0.30406,-0.316145 0.83164,-0.316145 0.17116,0 0.33427,0.03625 0.16311,0.03423 0.31615,0.104711 z m 1.5183,0.173175 q -0.29803,0 -0.4712,0.233585 -0.17318,0.231571 -0.17318,0.636317 0,0.404746 0.17117,0.638331 0.17317,0.231571 0.47321,0.231571 0.296,0 0.46918,-0.233585 0.17317,-0.233585 0.17317,-0.636317 0,-0.400719 -0.17317,-0.634304 -0.17318,-0.235598 -0.46918,-0.235598 z m 0,-0.314131 q 0.48328,0 0.75915,0.314131 0.27587,0.314131 0.27587,0.869902 0,0.553757 -0.27587,0.869902 -0.27587,0.314131 -0.75915,0.314131 -0.4853,0 -0.76117,-0.314131 -0.27386,-0.316145 -0.27386,-0.869902 0,-0.555771 0.27386,-0.869902 0.27587,-0.314131 0.76117,-0.314131 z m 3.52391,0.948434 v 1.361236 h -0.37052 v -1.349154 q 0,-0.320172 -0.12485,-0.479251 -0.12484,-0.15908 -0.37454,-0.15908 -0.30003,0 -0.47321,0.191298 -0.17317,0.191298 -0.17317,0.521539 v 1.274648 h -0.37253 v -2.255302 h 0.37253 v 0.350378 q 0.1329,-0.20338 0.31212,-0.304063 0.18123,-0.100683 0.41682,-0.100683 0.38864,0 0.58799,0.241639 0.19936,0.239626 0.19936,0.706795 z m 1.1055,-1.53441 v 0.640344 h 0.76317 v 0.287954 h -0.76317 v 1.224307 q 0,0.275871 0.0745,0.354404 0.0765,0.07853 0.30809,0.07853 h 0.38058 v 0.310104 h -0.38058 q -0.42891,0 -0.59201,-0.159079 -0.16311,-0.161093 -0.16311,-0.583962 V 79.934599 H 156.092 v -0.287954 h 0.27185 v -0.640344 z m 2.12441,0.900107 q -0.29802,0 -0.4712,0.233585 -0.17317,0.231571 -0.17317,0.636317 0,0.404746 0.17116,0.638331 0.17317,0.231571 0.47321,0.231571 0.29601,0 0.46918,-0.233585 0.17318,-0.233585 0.17318,-0.636317 0,-0.400719 -0.17318,-0.634304 -0.17317,-0.235598 -0.46918,-0.235598 z m 0,-0.314131 q 0.48328,0 0.75915,0.314131 0.27587,0.314131 0.27587,0.869902 0,0.553757 -0.27587,0.869902 -0.27587,0.314131 -0.75915,0.314131 -0.48529,0 -0.76117,-0.314131 -0.27385,-0.316145 -0.27385,-0.869902 0,-0.555771 0.27385,-0.869902 0.27588,-0.314131 0.76117,-0.314131 z m 1.61093,1.419631 v -1.365263 h 0.37051 v 1.351168 q 0,0.320172 0.12485,0.481265 0.12485,0.159079 0.37454,0.159079 0.30004,0 0.47321,-0.191298 0.17519,-0.191298 0.17519,-0.521538 v -1.278676 h 0.37051 v 2.255302 h -0.37051 v -0.34635 q -0.13492,0.205394 -0.31413,0.306077 -0.1772,0.09867 -0.4128,0.09867 -0.38864,0 -0.59,-0.241639 -0.20137,-0.24164 -0.20137,-0.706796 z m 0.93232,-1.419631 z m 3.02654,0.400718 q -0.0624,-0.03625 -0.13693,-0.05235 -0.0725,-0.01812 -0.16109,-0.01812 -0.31413,0 -0.48328,0.205394 -0.16713,0.20338 -0.16713,0.585975 v 1.188061 h -0.37253 v -2.255302 h 0.37253 v 0.350378 q 0.11679,-0.205394 0.30406,-0.304063 0.18727,-0.100683 0.45509,-0.100683 0.0383,0 0.0846,0.006 0.0463,0.004 0.1027,0.01409 z m 2.58957,-1.220279 q -0.26983,0.463142 -0.40072,0.916216 -0.13089,0.453074 -0.13089,0.91823 0,0.465156 0.13089,0.922258 0.1329,0.455087 0.40072,0.916216 h -0.32219 q -0.30205,-0.473211 -0.45307,-0.930312 -0.14901,-0.457101 -0.14901,-0.908162 0,-0.449046 0.14901,-0.904134 0.14901,-0.455088 0.45307,-0.930312 z m 0.84171,2.786908 h 0.66451 v -2.293561 l -0.72291,0.144984 v -0.370514 l 0.71888,-0.144984 h 0.40676 v 2.664075 h 0.66451 v 0.342323 h -1.73175 z m 2.44257,-2.786908 h 0.32219 q 0.30205,0.475224 0.45106,0.930312 0.15102,0.455088 0.15102,0.904134 0,0.451061 -0.15102,0.908162 -0.14901,0.457101 -0.45106,0.930312 h -0.32219 q 0.26782,-0.461129 0.39871,-0.916216 0.1329,-0.457102 0.1329,-0.922258 0,-0.465156 -0.1329,-0.91823 -0.13089,-0.453074 -0.39871,-0.916216 z"
       id="text2"
       style="font-size:4.12398px;fill:#ff0000;stroke-width:0.343664;stroke-linecap:round;stroke-linejoin:round"
       aria-label="Cutaway contour (1)" />
  </g>
</svg>
