<?xml version="1.0" encoding="UTF-8" standalone="no"?>
<!-- Created with Inkscape (http://www.inkscape.org/) -->

<svg
   width="158.30869mm"
   height="86.28511mm"
   viewBox="0 0 158.30869 86.28511"
   version="1.1"
   id="svg1"
   inkscape:version="1.3.2 (091e20ef0f, 2023-11-25)"
   sodipodi:docname="marz_midline.svg"
   xmlns:inkscape="http://www.inkscape.org/namespaces/inkscape"
   xmlns:sodipodi="http://sodipodi.sourceforge.net/DTD/sodipodi-0.dtd"
   xmlns="http://www.w3.org/2000/svg"
   xmlns:svg="http://www.w3.org/2000/svg">
  <sodipodi:namedview
     id="namedview1"
     pagecolor="#ffffff"
     bordercolor="#000000"
     borderopacity="0.25"
     inkscape:showpageshadow="2"
     inkscape:pageopacity="0.0"
     inkscape:pagecheckerboard="0"
     inkscape:deskcolor="#d1d1d1"
     inkscape:document-units="mm"
     inkscape:zoom="1.0230033"
     inkscape:cx="295.69797"
     inkscape:cy="173.99748"
     inkscape:window-width="1920"
     inkscape:window-height="1021"
     inkscape:window-x="1920"
     inkscape:window-y="0"
     inkscape:window-maximized="1"
     inkscape:current-layer="layer1"
     showgrid="false" />
  <defs
     id="defs1">
    <marker
       style="overflow:visible"
       id="marker4"
       refX="0"
       refY="0"
       orient="auto-start-reverse"
       inkscape:stockid="Triangle arrow"
       markerWidth="1"
       markerHeight="1"
       viewBox="0 0 1 1"
       inkscape:isstock="true"
       inkscape:collect="always"
       preserveAspectRatio="xMidYMid">
      <path
         transform="scale(0.5)"
         style="fill:context-stroke;fill-rule:evenodd;stroke:context-stroke;stroke-width:1pt"
         d="M 5.77,0 -2.88,5 V -5 Z"
         id="path4" />
    </marker>
    <marker
       style="overflow:visible"
       id="Triangle"
       refX="0"
       refY="0"
       orient="auto-start-reverse"
       inkscape:stockid="Triangle arrow"
       markerWidth="1"
       markerHeight="1"
       viewBox="0 0 1 1"
       inkscape:isstock="true"
       inkscape:collect="always"
       preserveAspectRatio="xMidYMid">
      <path
         transform="scale(0.5)"
         style="fill:context-stroke;fill-rule:evenodd;stroke:context-stroke;stroke-width:1pt"
         d="M 5.77,0 -2.88,5 V -5 Z"
         id="path135" />
    </marker>
    <inkscape:path-effect
       effect="rough_hatches"
       id="path-effect18"
       is_visible="true"
       lpeversion="1.2"
       direction="86.369041,85.476616 , 24.073822,0"
       dist_rdm="75;1"
       growth="0"
       do_bend="true"
       bender="86.369041,90.476616 , 5,0"
       bottom_edge_variation="4.9664413;1"
       top_edge_variation="4.9664413;1"
       bottom_tgt_variation="0;1"
       top_tgt_variation="0;1"
       scale_bf="1"
       scale_bb="1"
       scale_tf="1"
       scale_tb="1"
       top_smth_variation="0;1"
       bottom_smth_variation="0;1"
       fat_output="true"
       stroke_width_top="1"
       stroke_width_bottom="1"
       front_thickness="1"
       back_thickness="0.25" />
    <linearGradient
       id="swatch8"
       inkscape:swatch="solid">
      <stop
         style="stop-color:#999999;stop-opacity:1;"
         offset="0"
         id="stop8" />
    </linearGradient>
    <clipPath
       clipPathUnits="userSpaceOnUse"
       id="clipPath120">
      <rect
         style="fill:#999999;fill-opacity:1;stroke:none;stroke-width:1.0357;stroke-dasharray:none"
         id="path121"
         width="96.295288"
         height="49.664413"
         x="56.810822"
         y="52.931091"
         sodipodi:type="rect" />
    </clipPath>
    <clipPath
       clipPathUnits="userSpaceOnUse"
       id="clipPath13295">
      <g
         id="g13299">
        <path
           d="M -5.0620427e-6,1299.9999 H 1299.9998 V 2.236658e-5 H -5.0620427e-6 Z"
           id="path13297"
           style="stroke-width:0.352778" />
      </g>
    </clipPath>
  </defs>
  <g
     inkscape:label="Layer 1"
     inkscape:groupmode="layer"
     id="layer1"
     transform="translate(-25.845661,-37.361108)">
    <rect
       style="fill:#ffffff;fill-opacity:1;stroke:#4d4d4d;stroke-width:0.416501;stroke-linecap:butt;stroke-linejoin:round;stroke-dasharray:none;paint-order:normal"
       id="rect17"
       width="157.89218"
       height="85.868607"
       x="26.053911"
       y="37.569359"
       sodipodi:insensitive="true" />
    <path
       d="m 75.80781,56.032154 c 0.0105,-4.959381 7.73396,-6.481767 11.97876,-6.397613 0.74345,0.01475 1.46673,-0.555297 0.50672,-1.407791 -4.77582,-4.240783 -11.49354,-1.316513 -16.70697,0.652573 -3.182768,1.202098 -6.052154,1.589808 -9.649156,0.188467 -5.747836,-2.239226 -11.641428,-5.677256 -17.178347,-5.590172 -3.068689,0.04826 -6.78674,0.922623 -9.531356,4.382977 -2.045713,2.579223 -2.487253,6.406228 -2.483163,10.624506 l 0.005,5.135264 0.005,5.135264 c 0.0091,9.450413 3.56021,14.96789 13.719137,14.05027 3.435019,-0.310232 7.689822,-2.791907 11.717022,-4.606125 4.2558,-1.917178 6.37768,-1.880918 12.119833,0.838424 3.69681,1.750674 7.81235,2.506749 10.02213,0.463341 0.33567,-0.310412 0.63954,-1.098597 -0.41355,-1.098597 -3.67214,0 -9.19227,-1.999617 -9.39531,-6.323606 0.008,-6.801428 11.44839,-2.332537 11.37655,-8.48314 -0.0554,-4.707968 -6.20879,-2.169588 -6.09223,-7.564042 z"
       style="fill:none;stroke:#808080;stroke-width:0.155;stroke-linecap:butt;stroke-linejoin:miter;stroke-miterlimit:22.9256;stroke-dasharray:none;stroke-opacity:1"
       id="contour"
       clip-path="none"
       sodipodi:nodetypes="cscccccccscccssccc" />
    <path
       style="fill:none;stroke:#008000;stroke-width:0.4;stroke-linejoin:round;stroke-dasharray:none;paint-order:stroke fill markers"
       d="M 95.544643,63.257515 40.106759,63.190478"
       id="midline"
       inkscape:label="midline" />
    <path
       id="h2_900_2000"
       clip-path="none"
       style="fill:none;fill-opacity:1;fill-rule:nonzero;stroke:#4d4d4d;stroke-width:0.19999;stroke-linecap:butt;stroke-linejoin:miter;stroke-miterlimit:2;stroke-dasharray:none;stroke-opacity:1"
       d="m 728.61959,700.97167 0.42219,0.0501 0.38603,0.21705 0.32452,0.28835 0.17519,0.38602 0.0822,0.40928 -0.0506,0.42271 -0.21549,0.38499 -0.28991,0.32608 -0.38602,0.17363 -0.40876,0.0822 -0.42168,-0.0501 -0.38602,-0.21549 -0.28422,-0.28112 -0.21601,-0.39481 -0.0822,-0.40876 0.0506,-0.42219 0.216,-0.38603 0.28061,-0.28422 0.39429,-0.21549 z m 23.16189,7.28327 0.42168,0.0501 0.38602,0.21704 0.32556,0.28836 0.17467,0.38602 0.0822,0.40876 -0.0506,0.42323 -0.21549,0.38499 -0.2899,0.32608 -0.38551,0.17415 -0.40928,0.0822 -0.42168,-0.0506 -0.38654,-0.21549 -0.28422,-0.2806 -0.21497,-0.39481 -0.0827,-0.40928 0.0506,-0.42168 0.21549,-0.38654 0.2806,-0.28422 0.39533,-0.21549 z m 23.1252,7.33496 0.42168,0.0501 0.38603,0.21704 0.32556,0.28836 0.17466,0.38602 0.0822,0.40876 -0.0506,0.42323 -0.21549,0.38499 -0.28991,0.32608 -0.38551,0.17415 -0.40927,0.0822 -0.42168,-0.0507 -0.38654,-0.21601 -0.28422,-0.28008 -0.21549,-0.39481 -0.0822,-0.40928 0.0501,-0.42219 0.21601,-0.38603 0.2806,-0.28422 0.39532,-0.21549 z m 23.15363,7.38714 0.42168,0.0501 0.38602,0.21704 0.32556,0.28836 0.17415,0.38602 0.0827,0.40876 -0.0506,0.42323 -0.21549,0.38499 -0.2899,0.32608 -0.38603,0.17415 -0.40876,0.0822 -0.42168,-0.0506 -0.38654,-0.21601 -0.28422,-0.28009 -0.21549,-0.3948 -0.0822,-0.40928 0.0501,-0.4222 0.21601,-0.38602 0.2806,-0.28422 0.39481,-0.21549 z m 23.14484,7.38457 0.4222,0.0506 0.3855,0.21652 0.32556,0.28836 0.17519,0.38602 0.0822,0.40928 -0.0512,0.42271 -0.21549,0.38499 -0.2899,0.32608 -0.38551,0.17363 -0.40876,0.0827 -0.4222,-0.0506 -0.38602,-0.21549 -0.28474,-0.28112 -0.21497,-0.39481 -0.0827,-0.40876 0.0506,-0.42219 0.21601,-0.38603 0.28008,-0.28422 0.39533,-0.21549 z m 23.23992,7.43727 0.4222,0.0501 0.38602,0.21653 0.32453,0.28887 0.17519,0.38602 0.0822,0.40928 -0.0506,0.42271 -0.21549,0.38499 -0.28991,0.32608 -0.38602,0.17363 -0.40876,0.0827 -0.42168,-0.0507 -0.38602,-0.21549 -0.28422,-0.28112 -0.21601,-0.39481 -0.0822,-0.40927 0.0507,-0.42117 0.216,-0.38654 0.28061,-0.28422 0.3948,-0.21549 z"
       transform="matrix(-0.38853152,0,0,0.38853152,439.53418,-178.64248)" />
    <path
       id="h1_0_2000"
       clip-path="none"
       style="fill:none;fill-opacity:1;fill-rule:evenodd;stroke:#4d4d4d;stroke-width:0.19999;stroke-linecap:butt;stroke-linejoin:miter;stroke-miterlimit:22.9256;stroke-dasharray:none;stroke-opacity:1"
       d="m 721.67996,694.99529 c 2.74884,0.0279 4.95451,2.31995 4.92631,5.11958 -0.0282,2.79965 -2.27978,5.0462 -5.02863,5.0183 -2.74884,-0.0275 -4.95452,-2.31943 -4.92632,-5.11907 0.0282,-2.79964 2.27979,-5.04671 5.02864,-5.01881 z m 23.16189,7.28328 c 2.74885,0.0275 4.95452,2.31942 4.92632,5.11906 -0.0282,2.8 -2.27997,5.04723 -5.02915,5.01933 -2.74885,-0.0279 -4.954,-2.31959 -4.9258,-5.11958 0.0286,-2.79965 2.27944,-5.04671 5.02863,-5.01881 z m 23.12521,7.33495 c 2.74919,0.0275 4.95451,2.31943 4.92631,5.11907 -0.0286,2.79964 -2.27944,5.04723 -5.02863,5.01933 -2.74884,-0.0279 -4.95452,-2.31994 -4.92632,-5.11959 0.0282,-2.79963 2.2798,-5.04671 5.02864,-5.01881 z m 23.15362,7.38714 c 2.74885,0.0275 4.95452,2.31943 4.92632,5.11907 -0.0286,2.79964 -2.27996,5.04723 -5.02916,5.01933 -2.74883,-0.0279 -4.95399,-2.31994 -4.92579,-5.11958 0.0282,-2.79965 2.27944,-5.04672 5.02863,-5.01882 z m 23.14484,7.38457 c 2.74884,0.0275 4.95452,2.31958 4.92632,5.11958 -0.0282,2.79964 -2.27945,5.0462 -5.02864,5.0183 -2.74885,-0.0275 -4.95451,-2.31959 -4.92631,-5.11959 0.0282,-2.79928 2.27943,-5.04619 5.02863,-5.01829 z m 23.23993,7.43727 c 2.74884,0.0279 4.95451,2.31994 4.92631,5.11958 -0.0282,2.79964 -2.2798,5.04632 -5.02863,5.01882 -2.74885,-0.0279 -4.95452,-2.31995 -4.92632,-5.11959 0.0282,-2.79964 2.2798,-5.04671 5.02864,-5.01881 z"
       transform="matrix(-0.38853152,0,0,0.38853152,439.53418,-178.64248)" />
    <path
       d="m 722.77354,693.81902 -2.28847,12.49186"
       style="fill:none;stroke:#4d4d4d;stroke-width:0.19999;stroke-linecap:butt;stroke-linejoin:miter;stroke-miterlimit:2;stroke-dasharray:0.398639, 0.998361;stroke-dashoffset:0;stroke-opacity:1"
       id="path4140"
       clip-path="none"
       transform="matrix(-0.38853152,0,0,0.38853152,439.53418,-178.64248)" />
    <path
       d="m 715.38284,698.92019 12.49187,2.28846"
       style="fill:none;stroke:#4d4d4d;stroke-width:0.19999;stroke-linecap:butt;stroke-linejoin:miter;stroke-miterlimit:2;stroke-dasharray:0.398639, 0.998361;stroke-dashoffset:0;stroke-opacity:1"
       id="path4142"
       clip-path="none"
       transform="matrix(-0.38853152,0,0,0.38853152,439.53418,-178.64248)" />
    <path
       d="m 745.93516,701.10212 -2.28811,12.49221"
       style="fill:none;stroke:#4d4d4d;stroke-width:0.19999;stroke-linecap:butt;stroke-linejoin:miter;stroke-miterlimit:2;stroke-dasharray:0.398639, 0.998361;stroke-dashoffset:0;stroke-opacity:1"
       id="path4148"
       clip-path="none"
       transform="matrix(-0.38853152,0,0,0.38853152,439.53418,-178.64248)" />
    <path
       d="m 738.54447,706.20364 12.49221,2.28811"
       style="fill:none;stroke:#4d4d4d;stroke-width:0.19999;stroke-linecap:butt;stroke-linejoin:miter;stroke-miterlimit:2;stroke-dasharray:0.398639, 0.998361;stroke-dashoffset:0;stroke-opacity:1"
       id="path4150"
       clip-path="none"
       transform="matrix(-0.38853152,0,0,0.38853152,439.53418,-178.64248)" />
    <path
       d="m 769.06045,708.43707 -2.28812,12.49222"
       style="fill:none;stroke:#4d4d4d;stroke-width:0.19999;stroke-linecap:butt;stroke-linejoin:miter;stroke-miterlimit:2;stroke-dasharray:0.398639, 0.998361;stroke-dashoffset:0;stroke-opacity:1"
       id="path4156"
       clip-path="none"
       transform="matrix(-0.38853152,0,0,0.38853152,439.53418,-178.64248)" />
    <path
       d="m 761.66976,713.53859 12.49221,2.28812"
       style="fill:none;stroke:#4d4d4d;stroke-width:0.19999;stroke-linecap:butt;stroke-linejoin:miter;stroke-miterlimit:2;stroke-dasharray:0.398639, 0.998361;stroke-dashoffset:0;stroke-opacity:1"
       id="path4158"
       clip-path="none"
       transform="matrix(-0.38853152,0,0,0.38853152,439.53418,-178.64248)" />
    <path
       d="m 792.21396,715.82424 -2.28812,12.49221"
       style="fill:none;stroke:#4d4d4d;stroke-width:0.19999;stroke-linecap:butt;stroke-linejoin:miter;stroke-miterlimit:2;stroke-dasharray:0.398639, 0.998361;stroke-dashoffset:0;stroke-opacity:1"
       id="path4164"
       clip-path="none"
       transform="matrix(-0.38853152,0,0,0.38853152,439.53418,-178.64248)" />
    <path
       d="m 784.82327,720.92576 12.49221,2.28811"
       style="fill:none;stroke:#4d4d4d;stroke-width:0.19999;stroke-linecap:butt;stroke-linejoin:miter;stroke-miterlimit:2;stroke-dasharray:0.398639, 0.998361;stroke-dashoffset:0;stroke-opacity:1"
       id="path4166"
       clip-path="none"
       transform="matrix(-0.38853152,0,0,0.38853152,439.53418,-178.64248)" />
    <path
       d="m 815.359,723.20894 -2.28811,12.49186"
       style="fill:none;stroke:#4d4d4d;stroke-width:0.19999;stroke-linecap:butt;stroke-linejoin:miter;stroke-miterlimit:2;stroke-dasharray:0.398639, 0.998361;stroke-dashoffset:0;stroke-opacity:1"
       id="path4172"
       clip-path="none"
       transform="matrix(-0.38853152,0,0,0.38853152,439.53418,-178.64248)" />
    <path
       d="m 807.96831,728.3101 12.49221,2.28812"
       style="fill:none;stroke:#4d4d4d;stroke-width:0.19999;stroke-linecap:butt;stroke-linejoin:miter;stroke-miterlimit:2;stroke-dasharray:0.398639, 0.998361;stroke-dashoffset:0;stroke-opacity:1"
       id="path4174"
       clip-path="none"
       transform="matrix(-0.38853152,0,0,0.38853152,439.53418,-178.64248)" />
    <path
       d="m 838.59894,730.6462 -2.28846,12.49186"
       style="fill:none;stroke:#4d4d4d;stroke-width:0.19999;stroke-linecap:butt;stroke-linejoin:miter;stroke-miterlimit:2;stroke-dasharray:0.398639, 0.998361;stroke-dashoffset:0;stroke-opacity:1"
       id="path4180"
       clip-path="none"
       transform="matrix(-0.38853152,0,0,0.38853152,439.53418,-178.64248)" />
    <path
       d="m 831.2079,735.74736 12.49221,2.28847"
       style="fill:none;stroke:#4d4d4d;stroke-width:0.19999;stroke-linecap:butt;stroke-linejoin:miter;stroke-miterlimit:2;stroke-dasharray:0.398639, 0.998361;stroke-dashoffset:0;stroke-opacity:1"
       id="path4182"
       clip-path="none"
       transform="matrix(-0.38853152,0,0,0.38853152,439.53418,-178.64248)" />
    <path
       style="opacity:0.691454;fill:none;stroke:#4d4d4d;stroke-width:0.155413;stroke-linecap:square"
       d="m 112.84525,84.936468 -3.1727,32.299552"
       id="transition"
       sodipodi:nodetypes="cc" />
    <path
       d="m 853.23428,749.11305 c -2.93052,3.5553 -4.32858,4.40373 -10.35402,2.49802 L 677.29978,699.2465 c -4.59281,-1.45273 -3.84104,-7.31237 1.27741,-7.38046 15.50211,-0.20602 32.56844,-7.26299 42.03276,-14.20389 3.3394,-2.44863 6.3493,-2.09233 9.85485,0.34396 22.71853,15.78716 92.69256,50.41657 109.20009,14.57823 1.05233,-2.28459 3.02119,-2.55764 5.35305,-2.27154 20.57389,3.45261 25.01348,4.05197 39.40152,4.19837 v 42.71 c -21.04178,-0.21414 -25.08671,4.49343 -31.18518,11.89188 z"
       style="fill:none;stroke:#4d4d4d;stroke-width:0.4;stroke-linecap:butt;stroke-linejoin:round;stroke-miterlimit:22.9256;stroke-dasharray:none;stroke-opacity:1"
       id="contour-3"
       clip-path="none"
       transform="matrix(-0.38853152,0,0,0.38853152,439.52785,-178.64632)"
       sodipodi:nodetypes="ccccccscccc" />
    <path
       style="fill:none;stroke:#008000;stroke-width:0.4;stroke-linejoin:round;stroke-dasharray:none;paint-order:stroke fill markers"
       d="M 104.99984,99.674588 81.306722,99.607551"
       id="path1"
       inkscape:label="midline"
       sodipodi:nodetypes="cc" />
    <path
       d="m 136.8962,66.603682 h 0.9916 l 1.25514,3.347045 1.26173,-3.347045 h 0.99159 v 4.918443 h -0.64898 v -4.318874 l -1.26832,3.3734 h -0.66875 l -1.26832,-3.3734 v 4.318874 h -0.64569 z m 5.79474,1.228787 h 0.60616 v 3.689656 h -0.60616 z m 0,-1.43633 h 0.60616 v 0.76758 h -0.60616 z m 4.3024,1.996367 v -1.996367 h 0.60616 v 5.125986 h -0.60616 v -0.553448 q -0.19107,0.329433 -0.48427,0.490856 -0.2899,0.158128 -0.6984,0.158128 -0.66875,0 -1.09042,-0.533682 -0.41838,-0.533683 -0.41838,-1.403388 0,-0.869704 0.41838,-1.403387 0.42167,-0.533682 1.09042,-0.533682 0.4085,0 0.6984,0.161422 0.2932,0.158129 0.48427,0.487562 z m -2.06555,1.288085 q 0,0.668751 0.27343,1.050894 0.27673,0.378848 0.7577,0.378848 0.48097,0 0.7577,-0.378848 0.27672,-0.382143 0.27672,-1.050894 0,-0.66875 -0.27672,-1.047598 -0.27673,-0.382143 -0.7577,-0.382143 -0.48097,0 -0.7577,0.382143 -0.27343,0.378848 -0.27343,1.047598 z m 6.09123,-3.076909 h 0.66545 v 4.358406 h 2.39499 v 0.560037 h -3.06044 z m 3.73248,1.228787 h 0.60616 v 3.689656 h -0.60616 z m 0,-1.43633 h 0.60616 v 0.76758 h -0.60616 z m 4.9415,2.899015 v 2.226971 h -0.60615 V 69.31492 q 0,-0.523799 -0.20425,-0.784052 -0.20425,-0.260252 -0.61275,-0.260252 -0.49085,0 -0.77417,0.312962 -0.28331,0.312962 -0.28331,0.853233 v 2.085314 h -0.60945 v -3.689656 h 0.60945 v 0.573214 q 0.21743,-0.332727 0.51062,-0.497444 0.29649,-0.164717 0.68193,-0.164717 0.63581,0 0.96195,0.39532 0.32613,0.392026 0.32613,1.156312 z m 4.365,0.230604 v 0.29649 h -2.78701 q 0.0395,0.625924 0.37556,0.955357 0.33931,0.32614 0.94218,0.32614 0.3492,0 0.67534,-0.08565 0.32943,-0.08565 0.65227,-0.256958 v 0.573214 q -0.32613,0.138362 -0.66875,0.210838 -0.34261,0.07247 -0.6951,0.07247 -0.88288,0 -1.40009,-0.513916 -0.51392,-0.513917 -0.51392,-1.39021 0,-0.905943 0.48756,-1.436331 0.49086,-0.533682 1.32103,-0.533682 0.74452,0 1.17608,0.480973 0.43485,0.477679 0.43485,1.301263 z m -0.60616,-0.177894 q -0.007,-0.497445 -0.28002,-0.793935 -0.27013,-0.296491 -0.71816,-0.296491 -0.50733,0 -0.8137,0.286608 -0.30308,0.286607 -0.3492,0.807112 z"
       id="text1"
       style="font-size:6.7468px;fill:#ff0000;stroke-width:0.582243;stroke-linejoin:round"
       aria-label="Mid Line" />
    <path
       style="fill:none;stroke:#ff0000;stroke-width:0.274;stroke-linejoin:round;stroke-miterlimit:4;stroke-dasharray:none;stroke-dashoffset:0;marker-end:url(#Triangle)"
       d="M 130.99398,67.200968 C 114.55876,56.560563 97.278972,62.429809 97.278972,62.429809"
       id="path2"
       sodipodi:nodetypes="cc" />
    <path
       style="fill:none;stroke:#ff0000;stroke-width:0.274;stroke-linejoin:round;stroke-miterlimit:4;stroke-dasharray:none;stroke-dashoffset:0;marker-end:url(#marker4)"
       d="M 130.99398,71.077605 C 99.589218,83.387262 87.308088,96.528875 87.308088,96.528875"
       id="path3"
       sodipodi:nodetypes="cc" />
  </g>
</svg>
