<?xml version="1.0" encoding="UTF-8" standalone="no"?>
<!-- Created with Inkscape (http://www.inkscape.org/) -->

<svg
   width="158.30869mm"
   height="86.28511mm"
   viewBox="0 0 158.30869 86.28511"
   version="1.1"
   id="svg1"
   inkscape:version="1.3.2 (091e20ef0f, 2023-11-25)"
   sodipodi:docname="marz_pocket.svg"
   xmlns:inkscape="http://www.inkscape.org/namespaces/inkscape"
   xmlns:sodipodi="http://sodipodi.sourceforge.net/DTD/sodipodi-0.dtd"
   xmlns="http://www.w3.org/2000/svg"
   xmlns:svg="http://www.w3.org/2000/svg">
  <sodipodi:namedview
     id="namedview1"
     pagecolor="#ffffff"
     bordercolor="#000000"
     borderopacity="0.25"
     inkscape:showpageshadow="2"
     inkscape:pageopacity="0.0"
     inkscape:pagecheckerboard="0"
     inkscape:deskcolor="#d1d1d1"
     inkscape:document-units="mm"
     inkscape:zoom="1.4467452"
     inkscape:cx="299.63811"
     inkscape:cy="233.62787"
     inkscape:window-width="1920"
     inkscape:window-height="1021"
     inkscape:window-x="1920"
     inkscape:window-y="0"
     inkscape:window-maximized="1"
     inkscape:current-layer="layer1"
     showgrid="false" />
  <defs
     id="defs1">
    <inkscape:path-effect
       effect="rough_hatches"
       id="path-effect18"
       is_visible="true"
       lpeversion="1.2"
       direction="86.369041,85.476616 , 24.073822,0"
       dist_rdm="75;1"
       growth="0"
       do_bend="true"
       bender="86.369041,90.476616 , 5,0"
       bottom_edge_variation="4.9664413;1"
       top_edge_variation="4.9664413;1"
       bottom_tgt_variation="0;1"
       top_tgt_variation="0;1"
       scale_bf="1"
       scale_bb="1"
       scale_tf="1"
       scale_tb="1"
       top_smth_variation="0;1"
       bottom_smth_variation="0;1"
       fat_output="true"
       stroke_width_top="1"
       stroke_width_bottom="1"
       front_thickness="1"
       back_thickness="0.25" />
    <marker
       style="overflow:visible"
       id="marker16"
       refX="3"
       refY="0"
       orient="auto-start-reverse"
       inkscape:stockid="Triangle arrow"
       markerWidth="1"
       markerHeight="1"
       viewBox="0 0 1 1"
       inkscape:isstock="true"
       inkscape:collect="always"
       preserveAspectRatio="xMidYMid">
      <path
         transform="scale(0.5)"
         style="fill:context-stroke;fill-rule:evenodd;stroke:context-stroke;stroke-width:1pt"
         d="M 5.77,0 -2.88,5 V -5 Z"
         id="path16" />
    </marker>
    <marker
       style="overflow:visible"
       id="marker15"
       refX="4"
       refY="0"
       orient="auto-start-reverse"
       inkscape:stockid="Triangle arrow"
       markerWidth="1"
       markerHeight="1"
       viewBox="0 0 1 1"
       inkscape:isstock="true"
       inkscape:collect="always"
       preserveAspectRatio="xMidYMid">
      <path
         transform="scale(0.5)"
         style="fill:context-stroke;fill-rule:evenodd;stroke:context-stroke;stroke-width:1pt"
         d="M 5.77,0 -2.88,5 V -5 Z"
         id="path15" />
    </marker>
    <marker
       style="overflow:visible"
       id="Triangle"
       refX="0"
       refY="0"
       orient="auto-start-reverse"
       inkscape:stockid="Triangle arrow"
       markerWidth="1"
       markerHeight="1"
       viewBox="0 0 1 1"
       inkscape:isstock="true"
       inkscape:collect="always"
       preserveAspectRatio="xMidYMid">
      <path
         transform="scale(0.5)"
         style="fill:context-stroke;fill-rule:evenodd;stroke:context-stroke;stroke-width:1pt"
         d="M 5.77,0 -2.88,5 V -5 Z"
         id="path135" />
    </marker>
    <marker
       style="overflow:visible"
       id="ConcaveTriangle"
       refX="0"
       refY="0"
       orient="auto-start-reverse"
       inkscape:stockid="Concave triangle arrow"
       markerWidth="1"
       markerHeight="1"
       viewBox="0 0 1 1"
       inkscape:isstock="true"
       inkscape:collect="always"
       preserveAspectRatio="xMidYMid">
      <path
         transform="scale(0.7)"
         d="M -2,-4 9,0 -2,4 c 2,-2.33 2,-5.66 0,-8 z"
         style="fill:context-stroke;fill-rule:evenodd;stroke:none"
         id="path7" />
    </marker>
    <linearGradient
       id="swatch8"
       inkscape:swatch="solid">
      <stop
         style="stop-color:#999999;stop-opacity:1;"
         offset="0"
         id="stop8" />
    </linearGradient>
    <clipPath
       clipPathUnits="userSpaceOnUse"
       id="clipPath120">
      <rect
         style="fill:#999999;fill-opacity:1;stroke:none;stroke-width:1.0357;stroke-dasharray:none"
         id="path121"
         width="96.295288"
         height="49.664413"
         x="56.810822"
         y="52.931091"
         sodipodi:type="rect" />
    </clipPath>
  </defs>
  <g
     inkscape:label="Layer 1"
     inkscape:groupmode="layer"
     id="layer1"
     transform="translate(-25.845661,-37.361108)">
    <rect
       style="fill:#ffffff;fill-opacity:1;stroke:#4d4d4d;stroke-width:0.416501;stroke-linecap:butt;stroke-linejoin:round;stroke-dasharray:none;paint-order:normal"
       id="rect17"
       width="157.89218"
       height="85.868607"
       x="26.053911"
       y="37.569359" />
    <path
       style="fill:#999999;fill-opacity:1;stroke:none;stroke-width:1.0357;stroke-dasharray:none"
       id="rect1"
       width="96.295288"
       height="49.664413"
       x="38.221397"
       y="65.644409"
       sodipodi:type="rect" />
    <rect
       style="fill:none;stroke-width:0.799999;stroke-linejoin:round;stroke-dasharray:none;stroke:#4d4d4d"
       id="rect3"
       width="96.295288"
       height="49.664413"
       x="38.221397"
       y="65.644409" />
    <g
       id="g120"
       transform="translate(-18.589423,12.713314)"
       clip-path="url(#clipPath120)">
      <path
         style="fill:#ffffff;fill-opacity:1;stroke:#4d4d4d;stroke-width:0.7;stroke-linecap:butt;stroke-linejoin:round;stroke-dasharray:none;paint-order:normal"
         d="M -10.81931,118.3987 72.912675,42.608626"
         id="path19"
         sodipodi:nodetypes="cc" />
      <path
         style="fill:#ffffff;fill-opacity:1;stroke:#4d4d4d;stroke-width:0.7;stroke-linecap:butt;stroke-linejoin:round;stroke-dasharray:none;paint-order:normal"
         d="M -7.1151428,118.3987 76.616844,42.608626"
         id="path20"
         sodipodi:nodetypes="cc" />
      <path
         style="fill:#ffffff;fill-opacity:1;stroke:#4d4d4d;stroke-width:0.7;stroke-linecap:butt;stroke-linejoin:round;stroke-dasharray:none;paint-order:normal"
         d="M -3.4109759,118.3987 80.321013,42.608626"
         id="path21"
         sodipodi:nodetypes="cc" />
      <path
         style="fill:#ffffff;fill-opacity:1;stroke:#4d4d4d;stroke-width:0.7;stroke-linecap:butt;stroke-linejoin:round;stroke-dasharray:none;paint-order:normal"
         d="M -0.23597576,118.3987 83.496015,42.608626"
         id="path22"
         sodipodi:nodetypes="cc" />
      <path
         style="fill:#ffffff;fill-opacity:1;stroke:#4d4d4d;stroke-width:0.7;stroke-linecap:butt;stroke-linejoin:round;stroke-dasharray:none;paint-order:normal"
         d="M 2.9390243,118.3987 86.671017,42.608626"
         id="path23"
         sodipodi:nodetypes="cc" />
      <path
         style="fill:#ffffff;fill-opacity:1;stroke:#4d4d4d;stroke-width:0.7;stroke-linecap:butt;stroke-linejoin:round;stroke-dasharray:none;paint-order:normal"
         d="M 6.1140245,118.3987 89.846019,42.608626"
         id="path24"
         sodipodi:nodetypes="cc" />
      <path
         style="fill:#ffffff;fill-opacity:1;stroke:#4d4d4d;stroke-width:0.7;stroke-linecap:butt;stroke-linejoin:round;stroke-dasharray:none;paint-order:normal"
         d="M 8.759858,118.3987 92.491854,42.608626"
         id="path25"
         sodipodi:nodetypes="cc" />
      <path
         style="fill:#999999;fill-opacity:1;stroke:none;stroke-width:0.8;stroke-dasharray:none"
         d="M 70.126921,30.527794 V 60.590569"
         id="path26" />
      <path
         style="fill:#ffffff;fill-opacity:1;stroke:#4d4d4d;stroke-width:0.7;stroke-linecap:butt;stroke-linejoin:round;stroke-dasharray:none;paint-order:normal"
         d="M 11.934859,118.3987 95.666856,42.608626"
         id="path27"
         sodipodi:nodetypes="cc" />
      <path
         style="fill:#ffffff;fill-opacity:1;stroke:#4d4d4d;stroke-width:0.7;stroke-linecap:butt;stroke-linejoin:round;stroke-dasharray:none;paint-order:normal"
         d="M 15.109861,118.3987 98.841858,42.608626"
         id="path28"
         sodipodi:nodetypes="cc" />
      <path
         style="fill:#ffffff;fill-opacity:1;stroke:#4d4d4d;stroke-width:0.7;stroke-linecap:butt;stroke-linejoin:round;stroke-dasharray:none;paint-order:normal"
         d="M 18.81403,118.3987 102.54604,42.608626"
         id="path29"
         sodipodi:nodetypes="cc" />
      <path
         style="fill:#ffffff;fill-opacity:1;stroke:#4d4d4d;stroke-width:0.7;stroke-linecap:butt;stroke-linejoin:round;stroke-dasharray:none;paint-order:normal"
         d="M 22.518199,118.3987 106.25023,42.608626"
         id="path30"
         sodipodi:nodetypes="cc" />
      <path
         style="fill:#ffffff;fill-opacity:1;stroke:#4d4d4d;stroke-width:0.7;stroke-linecap:butt;stroke-linejoin:round;stroke-dasharray:none;paint-order:normal"
         d="M 25.693201,118.3987 109.42525,42.608626"
         id="path31"
         sodipodi:nodetypes="cc" />
      <path
         style="fill:#ffffff;fill-opacity:1;stroke:#4d4d4d;stroke-width:0.7;stroke-linecap:butt;stroke-linejoin:round;stroke-dasharray:none;paint-order:normal"
         d="M 28.868203,118.3987 112.60027,42.608626"
         id="path32"
         sodipodi:nodetypes="cc" />
      <path
         style="fill:#ffffff;fill-opacity:1;stroke:#4d4d4d;stroke-width:0.7;stroke-linecap:butt;stroke-linejoin:round;stroke-dasharray:none;paint-order:normal"
         d="M 32.043205,118.3987 115.77529,42.608626"
         id="path33"
         sodipodi:nodetypes="cc" />
      <path
         style="fill:#ffffff;fill-opacity:1;stroke:#4d4d4d;stroke-width:0.7;stroke-linecap:butt;stroke-linejoin:round;stroke-dasharray:none;paint-order:normal"
         d="m 34.68904,118.3987 83.7321,-75.790074"
         id="path34"
         sodipodi:nodetypes="cc" />
      <path
         style="fill:#999999;fill-opacity:1;stroke:none;stroke-width:0.8;stroke-dasharray:none"
         d="M 96.056104,30.527794 V 60.590569"
         id="path35" />
      <path
         style="fill:#ffffff;fill-opacity:1;stroke:#4d4d4d;stroke-width:0.7;stroke-linecap:butt;stroke-linejoin:round;stroke-dasharray:none;paint-order:normal"
         d="M 37.864042,118.3987 121.59616,42.608626"
         id="path36"
         sodipodi:nodetypes="cc" />
      <path
         style="fill:#ffffff;fill-opacity:1;stroke:#4d4d4d;stroke-width:0.7;stroke-linecap:butt;stroke-linejoin:round;stroke-dasharray:none;paint-order:normal"
         d="M 41.039044,118.3987 124.77118,42.608626"
         id="path37"
         sodipodi:nodetypes="cc" />
      <path
         style="fill:#ffffff;fill-opacity:1;stroke:#4d4d4d;stroke-width:0.7;stroke-linecap:butt;stroke-linejoin:round;stroke-dasharray:none;paint-order:normal"
         d="M 44.743213,118.3987 128.47537,42.608626"
         id="path38"
         sodipodi:nodetypes="cc" />
      <path
         style="fill:#ffffff;fill-opacity:1;stroke:#4d4d4d;stroke-width:0.7;stroke-linecap:butt;stroke-linejoin:round;stroke-dasharray:none;paint-order:normal"
         d="M 48.447382,118.3987 132.17956,42.608626"
         id="path39"
         sodipodi:nodetypes="cc" />
      <path
         style="fill:#ffffff;fill-opacity:1;stroke:#4d4d4d;stroke-width:0.7;stroke-linecap:butt;stroke-linejoin:round;stroke-dasharray:none;paint-order:normal"
         d="M 51.622384,118.3987 135.35458,42.608626"
         id="path40"
         sodipodi:nodetypes="cc" />
      <path
         style="fill:#ffffff;fill-opacity:1;stroke:#4d4d4d;stroke-width:0.7;stroke-linecap:butt;stroke-linejoin:round;stroke-dasharray:none;paint-order:normal"
         d="M 54.797386,118.3987 138.5296,42.608626"
         id="path41"
         sodipodi:nodetypes="cc" />
      <path
         style="fill:#ffffff;fill-opacity:1;stroke:#4d4d4d;stroke-width:0.7;stroke-linecap:butt;stroke-linejoin:round;stroke-dasharray:none;paint-order:normal"
         d="M 57.972388,118.3987 141.70462,42.608626"
         id="path42"
         sodipodi:nodetypes="cc" />
      <path
         style="fill:#ffffff;fill-opacity:1;stroke:#4d4d4d;stroke-width:0.7;stroke-linecap:butt;stroke-linejoin:round;stroke-dasharray:none;paint-order:normal"
         d="M 60.618223,118.3987 144.35047,42.608626"
         id="path43"
         sodipodi:nodetypes="cc" />
      <path
         style="fill:#999999;fill-opacity:1;stroke:none;stroke-width:0.8;stroke-dasharray:none"
         d="M 121.98541,30.527794 V 60.590569"
         id="path44" />
      <path
         style="fill:#ffffff;fill-opacity:1;stroke:#4d4d4d;stroke-width:0.7;stroke-linecap:butt;stroke-linejoin:round;stroke-dasharray:none;paint-order:normal"
         d="M 63.793225,118.3987 147.52549,42.608626"
         id="path45"
         sodipodi:nodetypes="cc" />
      <path
         style="fill:#ffffff;fill-opacity:1;stroke:#4d4d4d;stroke-width:0.7;stroke-linecap:butt;stroke-linejoin:round;stroke-dasharray:none;paint-order:normal"
         d="M 66.968227,118.3987 150.70051,42.608626"
         id="path46"
         sodipodi:nodetypes="cc" />
      <path
         style="fill:#ffffff;fill-opacity:1;stroke:#4d4d4d;stroke-width:0.7;stroke-linecap:butt;stroke-linejoin:round;stroke-dasharray:none;paint-order:normal"
         d="M 70.672396,118.3987 154.4047,42.608626"
         id="path47"
         sodipodi:nodetypes="cc" />
      <path
         style="fill:#ffffff;fill-opacity:1;stroke:#4d4d4d;stroke-width:0.7;stroke-linecap:butt;stroke-linejoin:round;stroke-dasharray:none;paint-order:normal"
         d="M 74.376565,118.3987 158.10889,42.608626"
         id="path48"
         sodipodi:nodetypes="cc" />
      <path
         style="fill:#ffffff;fill-opacity:1;stroke:#4d4d4d;stroke-width:0.7;stroke-linecap:butt;stroke-linejoin:round;stroke-dasharray:none;paint-order:normal"
         d="M 77.551567,118.3987 161.28391,42.608626"
         id="path49"
         sodipodi:nodetypes="cc" />
      <path
         style="fill:#ffffff;fill-opacity:1;stroke:#4d4d4d;stroke-width:0.7;stroke-linecap:butt;stroke-linejoin:round;stroke-dasharray:none;paint-order:normal"
         d="M 80.726569,118.3987 164.45893,42.608626"
         id="path50"
         sodipodi:nodetypes="cc" />
      <path
         style="fill:#ffffff;fill-opacity:1;stroke:#4d4d4d;stroke-width:0.7;stroke-linecap:butt;stroke-linejoin:round;stroke-dasharray:none;paint-order:normal"
         d="M 83.901571,118.3987 167.63395,42.608626"
         id="path51"
         sodipodi:nodetypes="cc" />
      <path
         style="fill:#ffffff;fill-opacity:1;stroke:#4d4d4d;stroke-width:0.7;stroke-linecap:butt;stroke-linejoin:round;stroke-dasharray:none;paint-order:normal"
         d="M 86.547406,118.3987 170.2798,42.608626"
         id="path52"
         sodipodi:nodetypes="cc" />
      <path
         style="fill:#999999;fill-opacity:1;stroke:none;stroke-width:0.8;stroke-dasharray:none"
         d="M 148.97308,30.527794 V 60.590569"
         id="path53" />
      <path
         style="fill:#ffffff;fill-opacity:1;stroke:#4d4d4d;stroke-width:0.7;stroke-linecap:butt;stroke-linejoin:round;stroke-dasharray:none;paint-order:normal"
         d="M 90.780742,118.3987 174.51316,42.608626"
         id="path54"
         sodipodi:nodetypes="cc" />
      <path
         style="fill:#ffffff;fill-opacity:1;stroke:#4d4d4d;stroke-width:0.7;stroke-linecap:butt;stroke-linejoin:round;stroke-dasharray:none;paint-order:normal"
         d="M 93.955746,118.3987 177.68818,42.608626"
         id="path55"
         sodipodi:nodetypes="cc" />
      <path
         style="fill:#ffffff;fill-opacity:1;stroke:#4d4d4d;stroke-width:0.7;stroke-linecap:butt;stroke-linejoin:round;stroke-dasharray:none;paint-order:normal"
         d="M 97.659915,118.3987 181.39237,42.608626"
         id="path56"
         sodipodi:nodetypes="cc" />
      <path
         style="fill:#ffffff;fill-opacity:1;stroke:#4d4d4d;stroke-width:0.7;stroke-linecap:butt;stroke-linejoin:round;stroke-dasharray:none;paint-order:normal"
         d="M 101.36409,118.3987 185.09656,42.608626"
         id="path57"
         sodipodi:nodetypes="cc" />
      <path
         style="fill:#ffffff;fill-opacity:1;stroke:#4d4d4d;stroke-width:0.7;stroke-linecap:butt;stroke-linejoin:round;stroke-dasharray:none;paint-order:normal"
         d="M 104.53911,118.3987 188.27158,42.608626"
         id="path58"
         sodipodi:nodetypes="cc" />
      <path
         style="fill:#ffffff;fill-opacity:1;stroke:#4d4d4d;stroke-width:0.7;stroke-linecap:butt;stroke-linejoin:round;stroke-dasharray:none;paint-order:normal"
         d="M 107.71413,118.3987 191.4466,42.608626"
         id="path59"
         sodipodi:nodetypes="cc" />
      <path
         style="fill:#ffffff;fill-opacity:1;stroke:#4d4d4d;stroke-width:0.7;stroke-linecap:butt;stroke-linejoin:round;stroke-dasharray:none;paint-order:normal"
         d="M 110.88915,118.3987 194.62162,42.608626"
         id="path60"
         sodipodi:nodetypes="cc" />
      <path
         style="fill:#ffffff;fill-opacity:1;stroke:#4d4d4d;stroke-width:0.7;stroke-linecap:butt;stroke-linejoin:round;stroke-dasharray:none;paint-order:normal"
         d="M 113.535,118.3987 197.26747,42.608626"
         id="path61"
         sodipodi:nodetypes="cc" />
      <path
         style="fill:#999999;fill-opacity:1;stroke:none;stroke-width:0.8;stroke-dasharray:none"
         d="M 175.96075,30.527794 V 60.590569"
         id="path62" />
      <path
         style="fill:#ffffff;fill-opacity:1;stroke:#4d4d4d;stroke-width:0.7;stroke-linecap:butt;stroke-linejoin:round;stroke-dasharray:none;paint-order:normal"
         d="M 117.76836,118.3987 201.50083,42.608626"
         id="path63"
         sodipodi:nodetypes="cc" />
      <path
         style="fill:#ffffff;fill-opacity:1;stroke:#4d4d4d;stroke-width:0.7;stroke-linecap:butt;stroke-linejoin:round;stroke-dasharray:none;paint-order:normal"
         d="M 120.94338,118.3987 204.67585,42.608626"
         id="path64"
         sodipodi:nodetypes="cc" />
      <path
         style="fill:#ffffff;fill-opacity:1;stroke:#4d4d4d;stroke-width:0.7;stroke-linecap:butt;stroke-linejoin:round;stroke-dasharray:none;paint-order:normal"
         d="M 124.64757,118.3987 208.38004,42.608626"
         id="path65"
         sodipodi:nodetypes="cc" />
      <path
         style="fill:#ffffff;fill-opacity:1;stroke:#4d4d4d;stroke-width:0.7;stroke-linecap:butt;stroke-linejoin:round;stroke-dasharray:none;paint-order:normal"
         d="M 128.35176,118.3987 212.08423,42.608626"
         id="path66"
         sodipodi:nodetypes="cc" />
      <path
         style="fill:#ffffff;fill-opacity:1;stroke:#4d4d4d;stroke-width:0.7;stroke-linecap:butt;stroke-linejoin:round;stroke-dasharray:none;paint-order:normal"
         d="M 131.52678,118.3987 215.25925,42.608626"
         id="path67"
         sodipodi:nodetypes="cc" />
    </g>
    <rect
       style="fill:#f9f9f9;stroke:#4d4d4d;stroke-width:0.5;stroke-dasharray:none"
       id="rect2"
       width="44.372494"
       height="29.696333"
       x="62.904007"
       y="76.751732" />
    <path
       style="fill:#999999;fill-opacity:1;stroke:none;stroke-width:0.9;stroke-dasharray:none;marker-end:url(#ConcaveTriangle)"
       d="M 43.828938,28.200355 V 62.127127"
       id="path8" />
    <path
       style="fill:#999999;fill-opacity:1;stroke:none;stroke-width:0.8;stroke-dasharray:none"
       d="M 44.197738,30.527794 V 60.590569"
       id="path9" />
    <path
       style="fill:#999999;fill-opacity:1;stroke:#000000;stroke-width:0.616126;stroke-dasharray:none;marker-end:url(#Triangle)"
       d="m 44.169609,45.427079 v 17.08724"
       id="path10" />
    <path
       style="fill:#999999;fill-opacity:1;stroke:#ff0000;stroke-width:0.5;stroke-dasharray:none"
       d="m 107.2765,76.751732 h 41.88386"
       id="path11" />
    <path
       style="fill:#999999;fill-opacity:1;stroke:#ff0000;stroke-width:0.5;stroke-dasharray:none"
       d="m 107.2765,106.44806 41.88386,0.0562"
       id="path12" />
    <path
       style="fill:#999999;fill-opacity:1;stroke:#ff0000;stroke-width:0.5;stroke-dasharray:none"
       d="m 109.37607,65.644407 39.78429,-0.418245"
       id="path13" />
    <path
       style="fill:#999999;fill-opacity:1;stroke:#ff0000;stroke-width:0.4;stroke-linecap:butt;stroke-linejoin:round;stroke-dasharray:none;marker-start:url(#marker16);marker-end:url(#marker15);paint-order:normal"
       d="m 150.74787,65.226162 v 11.52557"
       id="path14" />
    <path
       d="m 156.01441,69.196208 v 0.377085 q -0.22012,-0.105277 -0.41536,-0.156959 -0.19525,-0.05168 -0.37709,-0.05168 -0.31583,0 -0.4881,0.122505 -0.17036,0.122505 -0.17036,0.348373 0,0.189499 0.11293,0.28712 0.11485,0.09571 0.4326,0.155045 l 0.23352,0.04785 q 0.4326,0.08231 0.63741,0.290949 0.20673,0.206727 0.20673,0.555099 0,0.415368 -0.27947,0.629751 -0.27755,0.214383 -0.81542,0.214383 -0.2029,0 -0.4326,-0.04594 -0.22778,-0.04594 -0.47279,-0.135904 v -0.39814 q 0.23544,0.132076 0.46131,0.19907 0.22587,0.067 0.44408,0.067 0.33114,0 0.51107,-0.130161 0.17993,-0.130161 0.17993,-0.371343 0,-0.210554 -0.13016,-0.329231 -0.12825,-0.118676 -0.42302,-0.178015 l -0.23544,-0.04594 q -0.4326,-0.08614 -0.62592,-0.269893 -0.19333,-0.183757 -0.19333,-0.511074 0,-0.378999 0.26606,-0.597211 0.26798,-0.218211 0.73695,-0.218211 0.20098,0 0.40962,0.03637 0.20864,0.03637 0.42685,0.109105 z m 1.10829,0.01149 v 0.608695 h 0.72545 v 0.273722 h -0.72545 v 1.163794 q 0,0.262237 0.0708,0.336888 0.0727,0.07465 0.29286,0.07465 h 0.36177 v 0.294777 h -0.36177 q -0.40771,0 -0.56275,-0.151216 -0.15505,-0.153131 -0.15505,-0.5551 V 70.09011 h -0.25841 v -0.273722 h 0.25841 v -0.608695 z m 2.16297,1.674869 q -0.42685,0 -0.59147,0.09762 -0.16461,0.09762 -0.16461,0.333059 0,0.187586 0.1225,0.298606 0.12442,0.109105 0.33689,0.109105 0.29286,0 0.46896,-0.206726 0.17802,-0.208641 0.17802,-0.553186 v -0.07848 z m 0.70249,-0.145474 v 1.223132 h -0.3522 v -0.325403 q -0.12059,0.195242 -0.30052,0.289035 -0.17993,0.09188 -0.44025,0.09188 -0.32923,0 -0.52448,-0.183757 -0.19332,-0.185671 -0.19332,-0.495761 0,-0.361772 0.24118,-0.545529 0.24309,-0.183757 0.72354,-0.183757 h 0.49385 v -0.03445 q 0,-0.243095 -0.16079,-0.375171 -0.15887,-0.133989 -0.44791,-0.133989 -0.18375,0 -0.35794,0.04403 -0.17419,0.04403 -0.33497,0.132075 v -0.325403 q 0.19332,-0.07465 0.37517,-0.11102 0.18184,-0.03828 0.35411,-0.03828 0.46514,0 0.69483,0.241181 0.2297,0.241181 0.2297,0.7312 z m 1.96773,-0.591468 q -0.0593,-0.03445 -0.13016,-0.04977 -0.0689,-0.01723 -0.15313,-0.01723 -0.29861,0 -0.45939,0.195242 -0.15888,0.193327 -0.15888,0.557013 v 1.12934 h -0.35411 v -2.143832 h 0.35411 v 0.33306 q 0.11102,-0.195242 0.28904,-0.289035 0.17801,-0.09571 0.43259,-0.09571 0.0364,0 0.0804,0.0057 0.044,0.0038 0.0976,0.0134 z m 0.7178,-0.937927 v 0.608695 h 0.72546 v 0.273722 h -0.72546 v 1.163794 q 0,0.262237 0.0708,0.336888 0.0727,0.07465 0.29287,0.07465 h 0.36177 v 0.294777 h -0.36177 q -0.40771,0 -0.56276,-0.151216 -0.15504,-0.153131 -0.15504,-0.5551 V 70.09011 h -0.25841 v -0.273722 h 0.25841 v -0.608695 z m 3.8455,0.934098 V 68.98183 h 0.3522 v 2.978395 h -0.3522 v -0.321574 q -0.11102,0.191413 -0.28138,0.285206 -0.16844,0.09188 -0.4058,0.09188 -0.38856,0 -0.63357,-0.31009 -0.2431,-0.31009 -0.2431,-0.815422 0,-0.505331 0.2431,-0.815421 0.24501,-0.31009 0.63357,-0.31009 0.23736,0 0.4058,0.09379 0.17036,0.09188 0.28138,0.283292 z m -1.20016,0.748427 q 0,0.38857 0.15887,0.61061 0.16079,0.220125 0.44025,0.220125 0.27946,0 0.44025,-0.220125 0.16079,-0.22204 0.16079,-0.61061 0,-0.388569 -0.16079,-0.608695 -0.16079,-0.222039 -0.44025,-0.222039 -0.27946,0 -0.44025,0.222039 -0.15887,0.220126 -0.15887,0.608695 z m 4.11156,-0.08996 v 0.172272 h -1.61936 q 0.023,0.363686 0.21821,0.5551 0.19716,0.189499 0.54745,0.189499 0.20289,0 0.39239,-0.04977 0.19142,-0.04977 0.379,-0.149303 v 0.33306 q -0.1895,0.08039 -0.38857,0.122504 -0.19907,0.04211 -0.40388,0.04211 -0.51299,0 -0.81351,-0.298605 -0.2986,-0.298605 -0.2986,-0.807765 0,-0.526388 0.28329,-0.834563 0.28521,-0.31009 0.76757,-0.31009 0.43259,0 0.68334,0.279463 0.25267,0.27755 0.25267,0.756084 z m -0.3522,-0.103363 q -0.004,-0.289035 -0.1627,-0.461307 -0.15696,-0.172272 -0.41728,-0.172272 -0.29478,0 -0.4728,0.16653 -0.1761,0.166529 -0.20289,0.468963 z m 1.27098,0.941755 v 1.136996 h -0.35411 v -2.959254 h 0.35411 V 70.1418 q 0.11102,-0.191413 0.27947,-0.283292 0.17036,-0.09379 0.4058,-0.09379 0.39048,0 0.63357,0.31009 0.24501,0.31009 0.24501,0.815421 0,0.505332 -0.24501,0.815422 -0.24309,0.31009 -0.63357,0.31009 -0.23544,0 -0.4058,-0.09188 -0.16845,-0.09379 -0.27947,-0.285206 z m 1.19825,-0.748428 q 0,-0.388569 -0.16078,-0.608695 -0.15888,-0.222039 -0.43834,-0.222039 -0.27946,0 -0.44025,0.222039 -0.15888,0.220126 -0.15888,0.608695 0,0.38857 0.15888,0.61061 0.16079,0.220125 0.44025,0.220125 0.27946,0 0.43834,-0.220125 0.16078,-0.22204 0.16078,-0.61061 z m 1.29779,-1.682525 v 0.608695 h 0.72545 v 0.273722 h -0.72545 v 1.163794 q 0,0.262237 0.0708,0.336888 0.0727,0.07465 0.29286,0.07465 h 0.36177 v 0.294777 h -0.36177 q -0.40771,0 -0.56275,-0.151216 -0.15505,-0.153131 -0.15505,-0.5551 V 70.09011 h -0.25841 v -0.273722 h 0.25841 v -0.608695 z m 2.97074,1.458572 v 1.293955 h -0.3522 v -1.282471 q 0,-0.304347 -0.11868,-0.455564 -0.11868,-0.151217 -0.35603,-0.151217 -0.28521,0 -0.44982,0.181843 -0.16462,0.181843 -0.16462,0.495761 v 1.211648 h -0.35411 v -2.978395 h 0.35411 v 1.167623 q 0.12634,-0.193328 0.29669,-0.289035 0.17228,-0.09571 0.39623,-0.09571 0.36943,0 0.55893,0.229696 0.1895,0.227782 0.1895,0.671862 z"
       id="text16"
       style="font-size:3.92015px;fill:#ff0000;stroke-width:0.493878;stroke-linejoin:round"
       aria-label="Start depth" />
    <path
       style="fill:#999999;fill-opacity:1;stroke:#ff0000;stroke-width:0.4;stroke-linecap:butt;stroke-linejoin:round;stroke-dasharray:none;marker-start:url(#marker16);marker-end:url(#marker15);paint-order:normal"
       d="M 150.74787,76.751732 V 106.50426"
       id="path17"
       sodipodi:nodetypes="cc" />
    <path
       d="m 156.44127,88.920426 v 0.407711 q -0.19525,-0.181843 -0.41729,-0.271807 -0.22012,-0.08996 -0.46896,-0.08996 -0.49002,0 -0.75034,0.300519 -0.26032,0.298605 -0.26032,0.865189 0,0.56467 0.26032,0.86519 0.26032,0.298605 0.75034,0.298605 0.24884,0 0.46896,-0.08996 0.22204,-0.08996 0.41729,-0.271807 v 0.403883 q -0.2029,0.137818 -0.43069,0.206727 -0.22586,0.06891 -0.47853,0.06891 -0.64889,0 -1.02215,-0.396226 -0.37325,-0.39814 -0.37325,-1.085315 0,-0.689089 0.37325,-1.085315 0.37326,-0.39814 1.02215,-0.39814 0.25649,0 0.48236,0.06891 0.22778,0.06699 0.42686,0.202898 z m 0.54552,1.791631 v -1.297784 h 0.3522 v 1.284386 q 0,0.304347 0.11868,0.457478 0.11868,0.151217 0.35603,0.151217 0.28521,0 0.44982,-0.181843 0.16653,-0.181843 0.16653,-0.495761 v -1.215477 h 0.3522 v 2.143832 h -0.3522 v -0.329231 q -0.12825,0.195242 -0.2986,0.290949 -0.16845,0.09379 -0.3924,0.09379 -0.36943,0 -0.56084,-0.229696 -0.19142,-0.229696 -0.19142,-0.671862 z m 0.88625,-1.349465 z m 1.98304,-0.557014 v 0.608695 h 0.72546 v 0.273722 h -0.72546 v 1.163794 q 0,0.262237 0.0708,0.336888 0.0727,0.07465 0.29286,0.07465 h 0.36177 v 0.294776 h -0.36177 q -0.40771,0 -0.56276,-0.151216 -0.15504,-0.153131 -0.15504,-0.5551 v -1.163794 h -0.25841 v -0.273722 h 0.25841 v -0.608695 z m 3.8455,0.934098 V 88.57971 h 0.3522 v 2.978395 h -0.3522 v -0.321574 q -0.11102,0.191413 -0.28138,0.285206 -0.16844,0.09188 -0.40579,0.09188 -0.38857,0 -0.63358,-0.31009 -0.2431,-0.31009 -0.2431,-0.815421 0,-0.505332 0.2431,-0.815422 0.24501,-0.31009 0.63358,-0.31009 0.23735,0 0.40579,0.09379 0.17036,0.09188 0.28138,0.283292 z m -1.20016,0.748428 q 0,0.388569 0.15887,0.610609 0.16079,0.220125 0.44025,0.220125 0.27947,0 0.44025,-0.220125 0.16079,-0.22204 0.16079,-0.610609 0,-0.38857 -0.16079,-0.608696 -0.16078,-0.222039 -0.44025,-0.222039 -0.27946,0 -0.44025,0.222039 -0.15887,0.220126 -0.15887,0.608696 z m 4.11156,-0.08997 v 0.172272 h -1.61936 q 0.023,0.363686 0.21821,0.5551 0.19716,0.189499 0.54745,0.189499 0.2029,0 0.3924,-0.04977 0.19141,-0.04977 0.37899,-0.149303 V 91.449 q -0.1895,0.08039 -0.38857,0.122504 -0.19907,0.04211 -0.40388,0.04211 -0.51299,0 -0.81351,-0.298605 -0.2986,-0.298605 -0.2986,-0.807765 0,-0.526387 0.28329,-0.834563 0.28521,-0.31009 0.76757,-0.31009 0.43259,0 0.68335,0.279464 0.25266,0.277549 0.25266,0.756083 z m -0.3522,-0.103363 q -0.004,-0.289035 -0.1627,-0.461307 -0.15696,-0.172272 -0.41728,-0.172272 -0.29478,0 -0.47279,0.16653 -0.1761,0.16653 -0.2029,0.468963 z m 1.27099,0.941755 v 1.136996 h -0.35412 v -2.959254 h 0.35412 v 0.325403 q 0.11102,-0.191413 0.27946,-0.283292 0.17036,-0.09379 0.4058,-0.09379 0.39048,0 0.63358,0.31009 0.24501,0.31009 0.24501,0.815422 0,0.505331 -0.24501,0.815421 -0.2431,0.31009 -0.63358,0.31009 -0.23544,0 -0.4058,-0.09188 -0.16844,-0.09379 -0.27946,-0.285206 z m 1.19825,-0.748427 q 0,-0.38857 -0.16079,-0.608696 -0.15887,-0.222039 -0.43834,-0.222039 -0.27946,0 -0.44025,0.222039 -0.15887,0.220126 -0.15887,0.608696 0,0.388569 0.15887,0.610609 0.16079,0.220125 0.44025,0.220125 0.27947,0 0.43834,-0.220125 0.16079,-0.22204 0.16079,-0.610609 z m 1.29778,-1.682526 v 0.608695 h 0.72546 v 0.273722 h -0.72546 v 1.163794 q 0,0.262237 0.0708,0.336888 0.0727,0.07465 0.29287,0.07465 h 0.36177 v 0.294776 h -0.36177 q -0.40771,0 -0.56276,-0.151216 -0.15504,-0.153131 -0.15504,-0.5551 v -1.163794 h -0.25841 v -0.273722 h 0.25841 v -0.608695 z m 2.97074,1.458572 V 91.5581 h -0.3522 v -1.28247 q 0,-0.304348 -0.11868,-0.455565 -0.11867,-0.151217 -0.35603,-0.151217 -0.2852,0 -0.44982,0.181843 -0.16462,0.181843 -0.16462,0.495762 V 91.5581 h -0.35411 v -2.97839 h 0.35411 v 1.167623 q 0.12634,-0.193328 0.2967,-0.289034 0.17227,-0.09571 0.39622,-0.09571 0.36943,0 0.55893,0.229696 0.1895,0.227782 0.1895,0.671862 z"
       id="text17"
       style="font-size:3.92015px;fill:#ff0000;stroke-width:0.493878;stroke-linejoin:round"
       aria-label="Cut depth" />
    <path
       d="m 47.639654,45.656941 h 4.254719 v 0.572686 H 50.10894 v 4.456843 h -0.683854 v -4.456843 h -1.785432 z m 5.174385,1.691107 q -0.498574,0 -0.788285,0.390774 -0.289712,0.387405 -0.289712,1.064522 0,0.677117 0.286343,1.067891 0.289712,0.387405 0.791654,0.387405 0.495205,0 0.784916,-0.390774 0.289712,-0.390774 0.289712,-1.064522 0,-0.670379 -0.289712,-1.061153 -0.289711,-0.394143 -0.784916,-0.394143 z m 0,-0.525523 q 0.808497,0 1.270015,0.525523 0.461517,0.525524 0.461517,1.455296 0,0.926404 -0.461517,1.455296 -0.461518,0.525523 -1.270015,0.525523 -0.811867,0 -1.273384,-0.525523 -0.458149,-0.528892 -0.458149,-1.455296 0,-0.929772 0.458149,-1.455296 0.461517,-0.525523 1.273384,-0.525523 z m 3.358634,3.297997 v 2.001031 h -0.623217 v -5.208072 h 0.623217 v 0.572686 q 0.195387,-0.336874 0.491836,-0.498574 0.299818,-0.165068 0.714173,-0.165068 0.687223,0 1.115053,0.545736 0.431199,0.545736 0.431199,1.435083 0,0.889348 -0.431199,1.435084 -0.42783,0.545735 -1.115053,0.545735 -0.414355,0 -0.714173,-0.161699 -0.296449,-0.165068 -0.491836,-0.501942 z m 2.108832,-1.317178 q 0,-0.683854 -0.282975,-1.071259 -0.279605,-0.390774 -0.771441,-0.390774 -0.491836,0 -0.77481,0.390774 -0.279606,0.387405 -0.279606,1.071259 0,0.683855 0.279606,1.074628 0.282974,0.387406 0.77481,0.387406 0.491836,0 0.771441,-0.387406 0.282975,-0.390773 0.282975,-1.074628 z"
       id="text1"
       style="font-size:6.89918px;stroke-width:1.52108;stroke-linejoin:round"
       aria-label="Top" />
  </g>
</svg>
