<?xml version="1.0" encoding="UTF-8" standalone="no"?>
<!-- Created with Inkscape (http://www.inkscape.org/) -->

<svg
   width="147.30971mm"
   height="85.807526mm"
   viewBox="0 0 147.30971 85.807525"
   version="1.1"
   id="svg1"
   inkscape:version="1.3.2 (091e20e, 2023-11-25)"
   sodipodi:docname="marz_pocket_paths.svg"
   xmlns:inkscape="http://www.inkscape.org/namespaces/inkscape"
   xmlns:sodipodi="http://sodipodi.sourceforge.net/DTD/sodipodi-0.dtd"
   xmlns="http://www.w3.org/2000/svg"
   xmlns:svg="http://www.w3.org/2000/svg">
  <sodipodi:namedview
     id="namedview1"
     pagecolor="#ffffff"
     bordercolor="#000000"
     borderopacity="0.25"
     inkscape:showpageshadow="2"
     inkscape:pageopacity="0.0"
     inkscape:pagecheckerboard="0"
     inkscape:deskcolor="#d1d1d1"
     inkscape:document-units="mm"
     inkscape:zoom="1.0230033"
     inkscape:cx="390.51682"
     inkscape:cy="225.80572"
     inkscape:window-width="1920"
     inkscape:window-height="1021"
     inkscape:window-x="1920"
     inkscape:window-y="0"
     inkscape:window-maximized="1"
     inkscape:current-layer="layer1"
     showgrid="false"
     showguides="false" />
  <defs
     id="defs1">
    <marker
       style="overflow:visible"
       id="marker4"
       refX="0"
       refY="0"
       orient="auto-start-reverse"
       inkscape:stockid="Triangle arrow"
       markerWidth="1"
       markerHeight="1"
       viewBox="0 0 1 1"
       inkscape:isstock="true"
       inkscape:collect="always"
       preserveAspectRatio="xMidYMid">
      <path
         transform="scale(0.5)"
         style="fill:context-stroke;fill-rule:evenodd;stroke:context-stroke;stroke-width:1pt"
         d="M 5.77,0 -2.88,5 V -5 Z"
         id="path4" />
    </marker>
    <inkscape:path-effect
       effect="rough_hatches"
       id="path-effect18"
       is_visible="true"
       lpeversion="1.2"
       direction="86.369041,85.476616 , 24.073822,0"
       dist_rdm="75;1"
       growth="0"
       do_bend="true"
       bender="86.369041,90.476616 , 5,0"
       bottom_edge_variation="4.9664413;1"
       top_edge_variation="4.9664413;1"
       bottom_tgt_variation="0;1"
       top_tgt_variation="0;1"
       scale_bf="1"
       scale_bb="1"
       scale_tf="1"
       scale_tb="1"
       top_smth_variation="0;1"
       bottom_smth_variation="0;1"
       fat_output="true"
       stroke_width_top="1"
       stroke_width_bottom="1"
       front_thickness="1"
       back_thickness="0.25" />
    <linearGradient
       id="swatch8"
       inkscape:swatch="solid">
      <stop
         style="stop-color:#999999;stop-opacity:1;"
         offset="0"
         id="stop8" />
    </linearGradient>
    <clipPath
       clipPathUnits="userSpaceOnUse"
       id="clipPath120">
      <rect
         style="fill:#999999;fill-opacity:1;stroke:none;stroke-width:1.0357;stroke-dasharray:none"
         id="path121"
         width="96.295288"
         height="49.664413"
         x="56.810822"
         y="52.931091"
         sodipodi:type="rect" />
    </clipPath>
    <clipPath
       clipPathUnits="userSpaceOnUse"
       id="clipPath108">
      <g
         id="g109">
        <rect
           style="fill:#999999;fill-opacity:1;stroke:none;stroke-width:0.516394;stroke-dasharray:none"
           id="rect109"
           width="57.196266"
           height="20.786337"
           x="-91.820328"
           y="67.434738"
           sodipodi:type="rect"
           transform="scale(-1,1)" />
      </g>
    </clipPath>
    <clipPath
       clipPathUnits="userSpaceOnUse"
       id="clipPath109">
      <g
         id="g110">
        <rect
           style="fill:#999999;fill-opacity:1;stroke:none;stroke-width:0.516394;stroke-dasharray:none"
           id="rect110"
           width="57.196266"
           height="20.786337"
           x="-91.820328"
           y="67.434738"
           sodipodi:type="rect"
           transform="scale(-1,1)" />
      </g>
    </clipPath>
    <clipPath
       clipPathUnits="userSpaceOnUse"
       id="clipPath110">
      <g
         id="g111">
        <rect
           style="fill:#999999;fill-opacity:1;stroke:none;stroke-width:0.516394;stroke-dasharray:none"
           id="rect111"
           width="57.196266"
           height="20.786337"
           x="-91.820328"
           y="67.434738"
           sodipodi:type="rect"
           transform="scale(-1,1)" />
      </g>
    </clipPath>
    <clipPath
       clipPathUnits="userSpaceOnUse"
       id="clipPath111">
      <g
         id="g112">
        <rect
           style="fill:#999999;fill-opacity:1;stroke:none;stroke-width:0.516394;stroke-dasharray:none"
           id="rect112"
           width="57.196266"
           height="20.786337"
           x="-91.820328"
           y="67.434738"
           sodipodi:type="rect"
           transform="scale(-1,1)" />
      </g>
    </clipPath>
    <clipPath
       clipPathUnits="userSpaceOnUse"
       id="clipPath112">
      <g
         id="g113">
        <rect
           style="fill:#999999;fill-opacity:1;stroke:none;stroke-width:0.516394;stroke-dasharray:none"
           id="rect113"
           width="57.196266"
           height="20.786337"
           x="-91.820328"
           y="67.434738"
           sodipodi:type="rect"
           transform="scale(-1,1)" />
      </g>
    </clipPath>
    <clipPath
       clipPathUnits="userSpaceOnUse"
       id="clipPath113">
      <g
         id="g114">
        <rect
           style="fill:#999999;fill-opacity:1;stroke:none;stroke-width:0.516394;stroke-dasharray:none"
           id="rect114"
           width="57.196266"
           height="20.786337"
           x="-91.820328"
           y="67.434738"
           sodipodi:type="rect"
           transform="scale(-1,1)" />
      </g>
    </clipPath>
    <clipPath
       clipPathUnits="userSpaceOnUse"
       id="clipPath114">
      <g
         id="g115">
        <rect
           style="fill:#999999;fill-opacity:1;stroke:none;stroke-width:0.516394;stroke-dasharray:none"
           id="rect115"
           width="57.196266"
           height="20.786337"
           x="-91.820328"
           y="67.434738"
           sodipodi:type="rect"
           transform="scale(-1,1)" />
      </g>
    </clipPath>
    <clipPath
       clipPathUnits="userSpaceOnUse"
       id="clipPath115">
      <g
         id="g116">
        <rect
           style="fill:#999999;fill-opacity:1;stroke:none;stroke-width:0.516394;stroke-dasharray:none"
           id="rect116"
           width="57.196266"
           height="20.786337"
           x="-91.820328"
           y="67.434738"
           sodipodi:type="rect"
           transform="scale(-1,1)" />
      </g>
    </clipPath>
    <clipPath
       clipPathUnits="userSpaceOnUse"
       id="clipPath116">
      <g
         id="g117">
        <rect
           style="fill:#999999;fill-opacity:1;stroke:none;stroke-width:0.516394;stroke-dasharray:none"
           id="rect117"
           width="57.196266"
           height="20.786337"
           x="-91.820328"
           y="67.434738"
           sodipodi:type="rect"
           transform="scale(-1,1)" />
      </g>
    </clipPath>
    <clipPath
       clipPathUnits="userSpaceOnUse"
       id="clipPath117">
      <g
         id="g118">
        <rect
           style="fill:#999999;fill-opacity:1;stroke:none;stroke-width:0.516394;stroke-dasharray:none"
           id="rect118"
           width="57.196266"
           height="20.786337"
           x="-91.820328"
           y="67.434738"
           sodipodi:type="rect"
           transform="scale(-1,1)" />
      </g>
    </clipPath>
    <clipPath
       clipPathUnits="userSpaceOnUse"
       id="clipPath118">
      <g
         id="g119">
        <rect
           style="fill:#999999;fill-opacity:1;stroke:none;stroke-width:0.516394;stroke-dasharray:none"
           id="rect119"
           width="57.196266"
           height="20.786337"
           x="-91.820328"
           y="67.434738"
           sodipodi:type="rect"
           transform="scale(-1,1)" />
      </g>
    </clipPath>
    <clipPath
       clipPathUnits="userSpaceOnUse"
       id="clipPath119">
      <g
         id="g120">
        <rect
           style="fill:#999999;fill-opacity:1;stroke:none;stroke-width:0.516394;stroke-dasharray:none"
           id="rect120"
           width="57.196266"
           height="20.786337"
           x="-91.820328"
           y="67.434738"
           sodipodi:type="rect"
           transform="scale(-1,1)" />
      </g>
    </clipPath>
    <clipPath
       clipPathUnits="userSpaceOnUse"
       id="clipPath121">
      <g
         id="g121">
        <rect
           style="fill:#999999;fill-opacity:1;stroke:none;stroke-width:0.516394;stroke-dasharray:none"
           id="rect121"
           width="57.196266"
           height="20.786337"
           x="-91.820328"
           y="67.434738"
           sodipodi:type="rect"
           transform="scale(-1,1)" />
      </g>
    </clipPath>
    <clipPath
       clipPathUnits="userSpaceOnUse"
       id="clipPath122">
      <g
         id="g122">
        <rect
           style="fill:#999999;fill-opacity:1;stroke:none;stroke-width:0.516394;stroke-dasharray:none"
           id="rect122"
           width="57.196266"
           height="20.786337"
           x="-91.820328"
           y="67.434738"
           sodipodi:type="rect"
           transform="scale(-1,1)" />
      </g>
    </clipPath>
    <clipPath
       clipPathUnits="userSpaceOnUse"
       id="clipPath123">
      <g
         id="g123">
        <rect
           style="fill:#999999;fill-opacity:1;stroke:none;stroke-width:0.516394;stroke-dasharray:none"
           id="rect123"
           width="57.196266"
           height="20.786337"
           x="-91.820328"
           y="67.434738"
           sodipodi:type="rect"
           transform="scale(-1,1)" />
      </g>
    </clipPath>
    <clipPath
       clipPathUnits="userSpaceOnUse"
       id="clipPath124">
      <g
         id="g124">
        <rect
           style="fill:#999999;fill-opacity:1;stroke:none;stroke-width:0.516394;stroke-dasharray:none"
           id="rect124"
           width="57.196266"
           height="20.786337"
           x="-91.820328"
           y="67.434738"
           sodipodi:type="rect"
           transform="scale(-1,1)" />
      </g>
    </clipPath>
    <clipPath
       clipPathUnits="userSpaceOnUse"
       id="clipPath125">
      <g
         id="g125">
        <rect
           style="fill:#999999;fill-opacity:1;stroke:none;stroke-width:0.516394;stroke-dasharray:none"
           id="rect125"
           width="57.196266"
           height="20.786337"
           x="-91.820328"
           y="67.434738"
           sodipodi:type="rect"
           transform="scale(-1,1)" />
      </g>
    </clipPath>
    <clipPath
       clipPathUnits="userSpaceOnUse"
       id="clipPath126">
      <g
         id="g126">
        <rect
           style="fill:#999999;fill-opacity:1;stroke:none;stroke-width:0.516394;stroke-dasharray:none"
           id="rect126"
           width="57.196266"
           height="20.786337"
           x="-91.820328"
           y="67.434738"
           sodipodi:type="rect"
           transform="scale(-1,1)" />
      </g>
    </clipPath>
    <clipPath
       clipPathUnits="userSpaceOnUse"
       id="clipPath127">
      <g
         id="g127">
        <rect
           style="fill:#999999;fill-opacity:1;stroke:none;stroke-width:0.516394;stroke-dasharray:none"
           id="rect127"
           width="57.196266"
           height="20.786337"
           x="-91.820328"
           y="67.434738"
           sodipodi:type="rect"
           transform="scale(-1,1)" />
      </g>
    </clipPath>
    <clipPath
       clipPathUnits="userSpaceOnUse"
       id="clipPath128">
      <g
         id="g128">
        <rect
           style="fill:#999999;fill-opacity:1;stroke:none;stroke-width:0.516394;stroke-dasharray:none"
           id="rect128"
           width="57.196266"
           height="20.786337"
           x="-91.820328"
           y="67.434738"
           sodipodi:type="rect"
           transform="scale(-1,1)" />
      </g>
    </clipPath>
    <clipPath
       clipPathUnits="userSpaceOnUse"
       id="clipPath129">
      <g
         id="g129">
        <rect
           style="fill:#999999;fill-opacity:1;stroke:none;stroke-width:0.516394;stroke-dasharray:none"
           id="rect129"
           width="57.196266"
           height="20.786337"
           x="-91.820328"
           y="67.434738"
           sodipodi:type="rect"
           transform="scale(-1,1)" />
      </g>
    </clipPath>
    <clipPath
       clipPathUnits="userSpaceOnUse"
       id="clipPath130">
      <g
         id="g130">
        <rect
           style="fill:#999999;fill-opacity:1;stroke:none;stroke-width:0.516394;stroke-dasharray:none"
           id="rect130"
           width="57.196266"
           height="20.786337"
           x="-91.820328"
           y="67.434738"
           sodipodi:type="rect"
           transform="scale(-1,1)" />
      </g>
    </clipPath>
    <clipPath
       clipPathUnits="userSpaceOnUse"
       id="clipPath131">
      <g
         id="g131">
        <rect
           style="fill:#999999;fill-opacity:1;stroke:none;stroke-width:0.516394;stroke-dasharray:none"
           id="rect131"
           width="57.196266"
           height="20.786337"
           x="-91.820328"
           y="67.434738"
           sodipodi:type="rect"
           transform="scale(-1,1)" />
      </g>
    </clipPath>
    <clipPath
       clipPathUnits="userSpaceOnUse"
       id="clipPath132">
      <g
         id="g132">
        <rect
           style="fill:#999999;fill-opacity:1;stroke:none;stroke-width:0.516394;stroke-dasharray:none"
           id="rect132"
           width="57.196266"
           height="20.786337"
           x="-91.820328"
           y="67.434738"
           sodipodi:type="rect"
           transform="scale(-1,1)" />
      </g>
    </clipPath>
    <clipPath
       clipPathUnits="userSpaceOnUse"
       id="clipPath133">
      <g
         id="g133">
        <rect
           style="fill:#999999;fill-opacity:1;stroke:none;stroke-width:0.516394;stroke-dasharray:none"
           id="rect133"
           width="57.196266"
           height="20.786337"
           x="-91.820328"
           y="67.434738"
           sodipodi:type="rect"
           transform="scale(-1,1)" />
      </g>
    </clipPath>
    <clipPath
       clipPathUnits="userSpaceOnUse"
       id="clipPath134">
      <g
         id="g134">
        <rect
           style="fill:#999999;fill-opacity:1;stroke:none;stroke-width:0.516394;stroke-dasharray:none"
           id="rect134"
           width="57.196266"
           height="20.786337"
           x="-91.820328"
           y="67.434738"
           sodipodi:type="rect"
           transform="scale(-1,1)" />
      </g>
    </clipPath>
    <clipPath
       clipPathUnits="userSpaceOnUse"
       id="clipPath135">
      <g
         id="g135">
        <rect
           style="fill:#999999;fill-opacity:1;stroke:none;stroke-width:0.516394;stroke-dasharray:none"
           id="rect135"
           width="57.196266"
           height="20.786337"
           x="-91.820328"
           y="67.434738"
           sodipodi:type="rect"
           transform="scale(-1,1)" />
      </g>
    </clipPath>
    <clipPath
       clipPathUnits="userSpaceOnUse"
       id="clipPath136">
      <g
         id="g136">
        <rect
           style="fill:#999999;fill-opacity:1;stroke:none;stroke-width:0.516394;stroke-dasharray:none"
           id="rect136"
           width="57.196266"
           height="20.786337"
           x="-91.820328"
           y="67.434738"
           sodipodi:type="rect"
           transform="scale(-1,1)" />
      </g>
    </clipPath>
    <clipPath
       clipPathUnits="userSpaceOnUse"
       id="clipPath137">
      <g
         id="g137">
        <rect
           style="fill:#999999;fill-opacity:1;stroke:none;stroke-width:0.516394;stroke-dasharray:none"
           id="rect137"
           width="57.196266"
           height="20.786337"
           x="-91.820328"
           y="67.434738"
           sodipodi:type="rect"
           transform="scale(-1,1)" />
      </g>
    </clipPath>
    <clipPath
       clipPathUnits="userSpaceOnUse"
       id="clipPath138">
      <g
         id="g138">
        <rect
           style="fill:#999999;fill-opacity:1;stroke:none;stroke-width:0.516394;stroke-dasharray:none"
           id="rect138"
           width="57.196266"
           height="20.786337"
           x="-91.820328"
           y="67.434738"
           sodipodi:type="rect"
           transform="scale(-1,1)" />
      </g>
    </clipPath>
    <clipPath
       clipPathUnits="userSpaceOnUse"
       id="clipPath139">
      <g
         id="g139">
        <rect
           style="fill:#999999;fill-opacity:1;stroke:none;stroke-width:0.516394;stroke-dasharray:none"
           id="rect139"
           width="57.196266"
           height="20.786337"
           x="-91.820328"
           y="67.434738"
           sodipodi:type="rect"
           transform="scale(-1,1)" />
      </g>
    </clipPath>
    <clipPath
       clipPathUnits="userSpaceOnUse"
       id="clipPath140">
      <g
         id="g140">
        <rect
           style="fill:#999999;fill-opacity:1;stroke:none;stroke-width:0.516394;stroke-dasharray:none"
           id="rect140"
           width="57.196266"
           height="20.786337"
           x="-91.820328"
           y="67.434738"
           sodipodi:type="rect"
           transform="scale(-1,1)" />
      </g>
    </clipPath>
    <clipPath
       clipPathUnits="userSpaceOnUse"
       id="clipPath141">
      <g
         id="g141">
        <rect
           style="fill:#999999;fill-opacity:1;stroke:none;stroke-width:0.516394;stroke-dasharray:none"
           id="rect141"
           width="57.196266"
           height="20.786337"
           x="-91.820328"
           y="67.434738"
           sodipodi:type="rect"
           transform="scale(-1,1)" />
      </g>
    </clipPath>
    <clipPath
       clipPathUnits="userSpaceOnUse"
       id="clipPath142">
      <g
         id="g142">
        <rect
           style="fill:#999999;fill-opacity:1;stroke:none;stroke-width:0.516394;stroke-dasharray:none"
           id="rect142"
           width="57.196266"
           height="20.786337"
           x="-91.820328"
           y="67.434738"
           sodipodi:type="rect"
           transform="scale(-1,1)" />
      </g>
    </clipPath>
    <clipPath
       clipPathUnits="userSpaceOnUse"
       id="clipPath143">
      <g
         id="g143">
        <rect
           style="fill:#999999;fill-opacity:1;stroke:none;stroke-width:0.516394;stroke-dasharray:none"
           id="rect143"
           width="57.196266"
           height="20.786337"
           x="-91.820328"
           y="67.434738"
           sodipodi:type="rect"
           transform="scale(-1,1)" />
      </g>
    </clipPath>
    <clipPath
       clipPathUnits="userSpaceOnUse"
       id="clipPath144">
      <g
         id="g144">
        <rect
           style="fill:#999999;fill-opacity:1;stroke:none;stroke-width:0.516394;stroke-dasharray:none"
           id="rect144"
           width="57.196266"
           height="20.786337"
           x="-91.820328"
           y="67.434738"
           sodipodi:type="rect"
           transform="scale(-1,1)" />
      </g>
    </clipPath>
    <clipPath
       clipPathUnits="userSpaceOnUse"
       id="clipPath145">
      <g
         id="g145">
        <rect
           style="fill:#999999;fill-opacity:1;stroke:none;stroke-width:0.516394;stroke-dasharray:none"
           id="rect145"
           width="57.196266"
           height="20.786337"
           x="-91.820328"
           y="67.434738"
           sodipodi:type="rect"
           transform="scale(-1,1)" />
      </g>
    </clipPath>
    <clipPath
       clipPathUnits="userSpaceOnUse"
       id="clipPath146">
      <g
         id="g146">
        <rect
           style="fill:#999999;fill-opacity:1;stroke:none;stroke-width:0.516394;stroke-dasharray:none"
           id="rect146"
           width="57.196266"
           height="20.786337"
           x="-91.820328"
           y="67.434738"
           sodipodi:type="rect"
           transform="scale(-1,1)" />
      </g>
    </clipPath>
    <clipPath
       clipPathUnits="userSpaceOnUse"
       id="clipPath147">
      <g
         id="g147">
        <rect
           style="fill:#999999;fill-opacity:1;stroke:none;stroke-width:0.516394;stroke-dasharray:none"
           id="rect147"
           width="57.196266"
           height="20.786337"
           x="-91.820328"
           y="67.434738"
           sodipodi:type="rect"
           transform="scale(-1,1)" />
      </g>
    </clipPath>
    <clipPath
       clipPathUnits="userSpaceOnUse"
       id="clipPath148">
      <g
         id="g148">
        <rect
           style="fill:#999999;fill-opacity:1;stroke:none;stroke-width:0.516394;stroke-dasharray:none"
           id="rect148"
           width="57.196266"
           height="20.786337"
           x="-91.820328"
           y="67.434738"
           sodipodi:type="rect"
           transform="scale(-1,1)" />
      </g>
    </clipPath>
    <clipPath
       clipPathUnits="userSpaceOnUse"
       id="clipPath149">
      <g
         id="g149">
        <rect
           style="fill:#999999;fill-opacity:1;stroke:none;stroke-width:0.516394;stroke-dasharray:none"
           id="rect149"
           width="57.196266"
           height="20.786337"
           x="-91.820328"
           y="67.434738"
           sodipodi:type="rect"
           transform="scale(-1,1)" />
      </g>
    </clipPath>
    <clipPath
       clipPathUnits="userSpaceOnUse"
       id="clipPath150">
      <g
         id="g150">
        <rect
           style="fill:#999999;fill-opacity:1;stroke:none;stroke-width:0.516394;stroke-dasharray:none"
           id="rect150"
           width="57.196266"
           height="20.786337"
           x="-91.820328"
           y="67.434738"
           sodipodi:type="rect"
           transform="scale(-1,1)" />
      </g>
    </clipPath>
    <clipPath
       clipPathUnits="userSpaceOnUse"
       id="clipPath151">
      <g
         id="g151">
        <rect
           style="fill:#999999;fill-opacity:1;stroke:none;stroke-width:0.516394;stroke-dasharray:none"
           id="rect151"
           width="57.196266"
           height="20.786337"
           x="-91.820328"
           y="67.434738"
           sodipodi:type="rect"
           transform="scale(-1,1)" />
      </g>
    </clipPath>
    <clipPath
       clipPathUnits="userSpaceOnUse"
       id="clipPath152">
      <g
         id="g152">
        <rect
           style="fill:#999999;fill-opacity:1;stroke:none;stroke-width:0.516394;stroke-dasharray:none"
           id="rect152"
           width="57.196266"
           height="20.786337"
           x="-91.820328"
           y="67.434738"
           sodipodi:type="rect"
           transform="scale(-1,1)" />
      </g>
    </clipPath>
    <clipPath
       clipPathUnits="userSpaceOnUse"
       id="clipPath153">
      <g
         id="g153">
        <rect
           style="fill:#999999;fill-opacity:1;stroke:none;stroke-width:0.516394;stroke-dasharray:none"
           id="rect153"
           width="57.196266"
           height="20.786337"
           x="-91.820328"
           y="67.434738"
           sodipodi:type="rect"
           transform="scale(-1,1)" />
      </g>
    </clipPath>
    <clipPath
       clipPathUnits="userSpaceOnUse"
       id="clipPath154">
      <g
         id="g154">
        <rect
           style="fill:#999999;fill-opacity:1;stroke:none;stroke-width:0.516394;stroke-dasharray:none"
           id="rect154"
           width="57.196266"
           height="20.786337"
           x="-91.820328"
           y="67.434738"
           sodipodi:type="rect"
           transform="scale(-1,1)" />
      </g>
    </clipPath>
    <clipPath
       clipPathUnits="userSpaceOnUse"
       id="clipPath155">
      <g
         id="g155">
        <rect
           style="fill:#999999;fill-opacity:1;stroke:none;stroke-width:0.516394;stroke-dasharray:none"
           id="rect155"
           width="57.196266"
           height="20.786337"
           x="-91.820328"
           y="67.434738"
           sodipodi:type="rect"
           transform="scale(-1,1)" />
      </g>
    </clipPath>
    <clipPath
       clipPathUnits="userSpaceOnUse"
       id="clipPath156">
      <g
         id="g156">
        <rect
           style="fill:#999999;fill-opacity:1;stroke:none;stroke-width:0.516394;stroke-dasharray:none"
           id="rect156"
           width="57.196266"
           height="20.786337"
           x="-91.820328"
           y="67.434738"
           sodipodi:type="rect"
           transform="scale(-1,1)" />
      </g>
    </clipPath>
    <clipPath
       clipPathUnits="userSpaceOnUse"
       id="clipPath157">
      <g
         id="g157">
        <rect
           style="fill:#999999;fill-opacity:1;stroke:none;stroke-width:0.516394;stroke-dasharray:none"
           id="rect157"
           width="57.196266"
           height="20.786337"
           x="-91.820328"
           y="67.434738"
           sodipodi:type="rect"
           transform="scale(-1,1)" />
      </g>
    </clipPath>
    <pattern
       patternUnits="userSpaceOnUse"
       width="66.413291"
       height="83.083041"
       patternTransform="translate(346.15287,87.313119)"
       preserveAspectRatio="xMidYMid"
       id="pattern158"
       inkscape:label="pattern158">
      <path
         style="fill:#ff0000;stroke:#4d4d4d;stroke-width:0.755906;stroke-linecap:round;stroke-linejoin:round;stroke-dasharray:none"
         d="M 66.035339,0.37795276 0.37795276,82.705089"
         id="path158" />
    </pattern>
  </defs>
  <g
     inkscape:label="Layer 1"
     inkscape:groupmode="layer"
     id="layer1"
     transform="translate(-36.60585,-37.599899)">
    <rect
       style="fill:#ffffff;fill-opacity:1;stroke:#4d4d4d;stroke-width:0.477582;stroke-linecap:butt;stroke-linejoin:round;stroke-dasharray:none;paint-order:normal"
       id="rect17"
       width="147.30971"
       height="85.807526"
       x="36.60585"
       y="37.599899"
       sodipodi:insensitive="true" />
    <path
       d="m 125.87198,67.01163 c 0.0196,-9.670842 15.0813,-12.639505 23.35869,-12.475413 1.44975,0.02883 2.86013,-1.082826 0.98812,-2.745202 -9.31292,-8.269563 -22.41254,-2.567207 -32.57878,1.272527 -6.20641,2.344103 -11.80173,3.100141 -18.81592,0.367513 -11.208348,-4.366516 -22.700911,-11.070706 -33.497949,-10.90089 -5.983967,0.09412 -13.234201,1.799121 -18.586255,8.546851 -3.98915,5.029509 -4.850158,12.492205 -4.842196,20.717888 l 0.0094,10.013817 0.0094,10.013807 c 0.0183,18.428402 6.94371,29.187532 26.753703,27.398172 6.698324,-0.60496 14.995225,-5.44425 22.848315,-8.982 8.298852,-3.73851 12.436532,-3.66781 23.633772,1.63494 7.20881,3.41383 15.23416,4.88818 19.54324,0.90352 0.65458,-0.6053 1.24714,-2.14227 -0.80641,-2.14227 -7.1607,0 -17.925,-3.89928 -18.32094,-12.3311 0.0141,-13.262851 22.32446,-4.548468 22.18438,-16.542205 -0.10808,-9.180581 -12.10719,-4.230722 -11.87991,-14.749955 z"
       style="fill:none;stroke:#999999;stroke-width:0.780004;stroke-linecap:butt;stroke-linejoin:miter;stroke-miterlimit:22.9256;stroke-dasharray:none;stroke-opacity:1"
       id="path1"
       clip-path="none"
       sodipodi:nodetypes="cscccccccscccssccc" />
    <rect
       style="fill:none;stroke:#008000;stroke-width:0.359492;stroke-linecap:round;stroke-linejoin:round"
       id="rect1"
       width="18.362026"
       height="8.1043053"
       x="71.651138"
       y="-112.18988"
       ry="2.8629181"
       transform="rotate(90)" />
    <rect
       style="fill:none;stroke:#008000;stroke-width:0.359492;stroke-linecap:round;stroke-linejoin:round"
       id="rect2"
       width="18.362026"
       height="8.1043053"
       x="71.651138"
       y="-95.447403"
       ry="2.8629181"
       transform="rotate(90)" />
    <path
       style="fill:none;stroke:#008000;stroke-width:0.483359;stroke-linecap:round;stroke-linejoin:round"
       d="m 80.460292,102.66659 c 0,0 -4.903171,6.66396 -15.241738,6.34908 -9.431991,-0.28728 -13.561952,-12.620875 -13.719171,-13.587192 -0.157283,-0.966316 0.809874,-2.166102 2.704003,-2.015771 1.894097,0.150337 22.634909,2.250628 25.119666,3.679581 2.361473,1.358053 1.13724,5.574302 1.13724,5.574302 z"
       id="path2"
       sodipodi:nodetypes="cszzsc" />
    <path
       style="fill:none;stroke:#ff0000;stroke-width:0.413866;stroke-linecap:round;stroke-linejoin:round;marker-end:url(#marker4)"
       d="M 146.85131,101.92763 115.03643,83.063035"
       id="path3" />
    <path
       style="fill:none;stroke:#ff0000;stroke-width:0.413866;stroke-linecap:round;stroke-linejoin:round;marker-end:url(#marker4)"
       d="M 146.85131,101.92763 98.50585,86.889071"
       id="path5"
       sodipodi:nodetypes="cc" />
    <path
       style="fill:none;stroke:#ff0000;stroke-width:0.413866;stroke-linecap:round;stroke-linejoin:round;marker-end:url(#marker4)"
       d="M 146.85131,101.92763 82.999069,100.93331"
       id="path6"
       sodipodi:nodetypes="cc" />
    <path
       style="font-size:8.96283px;font-family:NATS;-inkscape-font-specification:'NATS, Normal';letter-spacing:0.366332px;word-spacing:0px;fill:#ff0000;stroke-width:0.386749;stroke-linejoin:round;paint-order:stroke fill markers"
       d="m 149.59134,107.94247 v -5.06353 h 1.42296 q 0.48972,0 0.78541,0.0739 0.29568,0.0739 0.51744,0.22176 0.31416,0.20328 0.47124,0.52668 0.16632,0.31416 0.16632,0.71148 0,0.39732 -0.16632,0.71148 -0.16632,0.30492 -0.47124,0.5082 -0.22176,0.14784 -0.5082,0.23101 -0.27721,0.0739 -0.79465,0.0739 h -0.85932 v 2.00508 z m 0.56364,-4.54609 v 2.02356 h 0.70224 0.17556 q 0.31416,0 0.462,-0.0185 0.15709,-0.0185 0.33265,-0.11088 0.28644,-0.14784 0.42504,-0.3696 0.14784,-0.22176 0.14784,-0.5082 0,-0.28644 -0.14784,-0.51744 -0.1386,-0.231 -0.4158,-0.36036 -0.1848,-0.0924 -0.38809,-0.11088 -0.20328,-0.0277 -0.59136,-0.0277 z m 3.53565,2.68885 q 0,-0.87781 0.60984,-1.45069 0.57288,-0.5544 1.3398,-0.5544 0.82237,0 1.39525,0.59136 0.58212,0.59136 0.58212,1.36753 0,0.79464 -0.57288,1.386 -0.56364,0.59136 -1.40449,0.59136 -0.79464,0 -1.37676,-0.58212 -0.57288,-0.58212 -0.57288,-1.34904 z m 0.53592,-0.009 q 0,0.60984 0.42504,1.03488 0.43428,0.42504 1.00716,0.42504 0.55441,0 0.97945,-0.38808 0.44352,-0.44352 0.44352,-1.11804 0,-0.66529 -0.47124,-1.07185 -0.43428,-0.38808 -0.95173,-0.38808 -0.54516,0 -0.96096,0.37884 -0.47124,0.45276 -0.47124,1.12729 z m 7.53659,0.71148 h 0.58212 q -0.25872,0.52668 -0.61908,0.82236 -0.52668,0.4158 -1.26589,0.4158 -0.86856,0 -1.45068,-0.56364 -0.57288,-0.57288 -0.57288,-1.39524 0,-0.80389 0.59136,-1.38601 0.59136,-0.59136 1.4322,-0.59136 0.55441,0 1.03489,0.2772 0.58212,0.33264 0.84084,0.98868 h -0.57288 q -0.21252,-0.39732 -0.59136,-0.59136 -0.33265,-0.1848 -0.71149,-0.1848 -0.57288,0 -1.00716,0.37884 -0.48048,0.43428 -0.48048,1.09957 0,0.61908 0.42504,1.05336 0.43428,0.43428 1.0626,0.43428 0.51745,0 0.86857,-0.26796 0.25872,-0.16632 0.43428,-0.48972 z m 1.56753,1.22892 v -5.05429 h 0.53592 v 3.48349 l 1.69092,-2.18989 h 0.68377 l -1.47841,1.90345 1.56157,1.85724 h -0.69301 l -1.2012,-1.44144 -0.56364,0.72996 v 0.71148 z m 7.42571,-1.7556 h -3.36337 q 0,0.48048 0.43428,0.8778 0.43428,0.39732 0.96096,0.39732 0.47125,0 0.84085,-0.25872 0.3234,-0.22176 0.462,-0.61908 h 0.56364 q -0.21252,0.61908 -0.71148,0.98868 -0.49896,0.3696 -1.15501,0.3696 -0.79464,0 -1.37676,-0.56364 -0.57288,-0.56364 -0.57288,-1.39524 0,-0.80389 0.57288,-1.38601 0.57288,-0.59136 1.37676,-0.59136 0.58213,0 1.05337,0.29568 0.38808,0.26796 0.62832,0.66528 0.14784,0.231 0.22176,0.51744 0.0739,0.2772 0.0739,0.53593 z m -3.36337,-0.49897 h 2.80897 q -0.0924,-0.5544 -0.53592,-0.89628 -0.38808,-0.29568 -0.87781,-0.29568 -0.462,0 -0.85932,0.29568 -0.44352,0.35112 -0.53592,0.89628 z m 4.78306,2.25457 v -3.26173 h -0.78541 v -0.49896 h 0.78541 v -1.2936 h 0.53592 v 1.2936 h 0.8778 v 0.49896 h -0.8778 v 3.26173 z m 1.90016,-1.23816 h 0.53592 q 0,0.47124 0.24024,0.63756 0.17556,0.12012 0.38809,0.12012 0.31416,0 0.48048,-0.16632 0.17556,-0.17556 0.17556,-0.47124 0,-0.30492 -0.24024,-0.48048 -0.0924,-0.0554 -0.48048,-0.21252 -0.43429,-0.14784 -0.62833,-0.30492 -0.36036,-0.28645 -0.36036,-0.75769 0,-0.43428 0.28644,-0.74844 0.28644,-0.31416 0.79465,-0.31416 0.43428,0 0.72996,0.28644 0.30492,0.28644 0.30492,0.76692 l -0.52668,0.0277 q 0,-0.3234 -0.17556,-0.47124 -0.15708,-0.12012 -0.36036,-0.12012 -0.23101,0 -0.37885,0.16632 -0.1386,0.15708 -0.1386,0.36036 0,0.24024 0.22176,0.37884 0.13861,0.10164 0.42505,0.19404 0.47124,0.15708 0.68376,0.34189 0.38808,0.31416 0.38808,0.84084 0,0.51744 -0.30492,0.8316 -0.31416,0.33264 -0.89628,0.33264 -0.45277,0 -0.77617,-0.25872 -0.38808,-0.33264 -0.38808,-0.90552 z"
       id="text1"
       aria-label="Pockets" />
  </g>
</svg>
