<?xml version="1.0" encoding="UTF-8" standalone="no"?>
<!-- Created with Inkscape (http://www.inkscape.org/) -->

<svg
   width="158.30869mm"
   height="86.28511mm"
   viewBox="0 0 158.30869 86.28511"
   version="1.1"
   id="svg1"
   inkscape:version="1.3.2 (091e20ef0f, 2023-11-25)"
   sodipodi:docname="marz_body_contour.svg"
   xmlns:inkscape="http://www.inkscape.org/namespaces/inkscape"
   xmlns:sodipodi="http://sodipodi.sourceforge.net/DTD/sodipodi-0.dtd"
   xmlns="http://www.w3.org/2000/svg"
   xmlns:svg="http://www.w3.org/2000/svg">
  <sodipodi:namedview
     id="namedview1"
     pagecolor="#ffffff"
     bordercolor="#000000"
     borderopacity="0.25"
     inkscape:showpageshadow="2"
     inkscape:pageopacity="0.0"
     inkscape:pagecheckerboard="0"
     inkscape:deskcolor="#d1d1d1"
     inkscape:document-units="mm"
     inkscape:zoom="1.0230033"
     inkscape:cx="452.1002"
     inkscape:cy="364.6127"
     inkscape:window-width="1920"
     inkscape:window-height="1021"
     inkscape:window-x="1920"
     inkscape:window-y="0"
     inkscape:window-maximized="1"
     inkscape:current-layer="layer1"
     showgrid="false" />
  <defs
     id="defs1">
    <marker
       style="overflow:visible"
       id="Triangle"
       refX="0"
       refY="0"
       orient="auto-start-reverse"
       inkscape:stockid="Triangle arrow"
       markerWidth="1"
       markerHeight="1"
       viewBox="0 0 1 1"
       inkscape:isstock="true"
       inkscape:collect="always"
       preserveAspectRatio="xMidYMid">
      <path
         transform="scale(0.5)"
         style="fill:context-stroke;fill-rule:evenodd;stroke:context-stroke;stroke-width:1pt"
         d="M 5.77,0 -2.88,5 V -5 Z"
         id="path135" />
    </marker>
    <inkscape:path-effect
       effect="rough_hatches"
       id="path-effect18"
       is_visible="true"
       lpeversion="1.2"
       direction="86.369041,85.476616 , 24.073822,0"
       dist_rdm="75;1"
       growth="0"
       do_bend="true"
       bender="86.369041,90.476616 , 5,0"
       bottom_edge_variation="4.9664413;1"
       top_edge_variation="4.9664413;1"
       bottom_tgt_variation="0;1"
       top_tgt_variation="0;1"
       scale_bf="1"
       scale_bb="1"
       scale_tf="1"
       scale_tb="1"
       top_smth_variation="0;1"
       bottom_smth_variation="0;1"
       fat_output="true"
       stroke_width_top="1"
       stroke_width_bottom="1"
       front_thickness="1"
       back_thickness="0.25" />
    <linearGradient
       id="swatch8"
       inkscape:swatch="solid">
      <stop
         style="stop-color:#999999;stop-opacity:1;"
         offset="0"
         id="stop8" />
    </linearGradient>
    <clipPath
       clipPathUnits="userSpaceOnUse"
       id="clipPath120">
      <rect
         style="fill:#999999;fill-opacity:1;stroke:none;stroke-width:1.0357;stroke-dasharray:none"
         id="path121"
         width="96.295288"
         height="49.664413"
         x="56.810822"
         y="52.931091"
         sodipodi:type="rect" />
    </clipPath>
    <clipPath
       clipPathUnits="userSpaceOnUse"
       id="clipPath13295">
      <g
         id="g13299">
        <path
           d="M -5.0620427e-6,1299.9999 H 1299.9998 V 2.236658e-5 H -5.0620427e-6 Z"
           id="path13297"
           style="stroke-width:0.352778" />
      </g>
    </clipPath>
  </defs>
  <g
     inkscape:label="Layer 1"
     inkscape:groupmode="layer"
     id="layer1"
     transform="translate(-25.845661,-37.361108)">
    <rect
       style="fill:#ffffff;fill-opacity:1;stroke:#4d4d4d;stroke-width:0.416501;stroke-linecap:butt;stroke-linejoin:round;stroke-dasharray:none;paint-order:normal"
       id="rect17"
       width="157.89218"
       height="85.868607"
       x="26.053911"
       y="37.569359"
       sodipodi:insensitive="true" />
    <path
       d="m 112.89743,67.437271 c 0.0195,-9.197329 14.34287,-12.020642 22.21499,-11.864575 1.37875,0.02735 2.7201,-1.029816 0.93973,-2.610793 -8.85691,-7.864666 -21.31514,-2.441515 -30.98361,1.210217 -5.902539,2.229329 -11.223906,2.948349 -17.89466,0.349518 -10.659543,-4.152715 -21.589395,-10.52865 -31.857786,-10.36715 -5.69098,0.0895 -12.586223,1.711033 -17.6762,8.128369 -3.793839,4.78325 -4.612689,11.880552 -4.605104,19.703481 l 0.0093,9.523509 0.0093,9.523509 c 0.01688,17.526084 6.602522,27.758414 25.442572,26.056664 6.370351,-0.57534 14.261018,-5.17768 21.729587,-8.54221 7.892515,-3.55546 11.827609,-3.48822 22.476611,1.55489 6.85585,3.24668 14.48825,4.64884 18.58635,0.85928 0.62251,-0.57567 1.18605,-2.03738 -0.76694,-2.03738 -6.8101,0 -17.04735,-3.70836 -17.4239,-11.727324 0.0148,-12.613463 21.2314,-4.325764 21.09817,-15.732251 -0.10274,-8.731075 -11.51439,-4.023569 -11.29823,-14.027754 z"
       style="fill:none;stroke:#008000;stroke-width:0.741813;stroke-linecap:butt;stroke-linejoin:miter;stroke-miterlimit:22.9256;stroke-dasharray:none;stroke-opacity:1"
       id="contour"
       clip-path="none"
       sodipodi:nodetypes="cscccccccscccssccc" />
    <path
       style="fill:none;stroke:#fc6f03;stroke-width:0.507216;stroke-linejoin:round;stroke-dasharray:none;stroke-opacity:1;paint-order:stroke fill markers"
       d="M 149.50001,81.895264 46.688706,81.770942"
       id="midline"
       inkscape:label="midline" />
    <path
       d="m 154.84373,45.306676 v 0.701694 c -0.22402,-0.208642 -0.46341,-0.364574 -0.71817,-0.467796 -0.25257,-0.103223 -0.52161,-0.154834 -0.80711,-0.154834 -0.56224,0 -0.9927,0.172403 -1.29138,0.517211 -0.29869,0.342611 -0.44803,0.838958 -0.44803,1.48904 0,0.647886 0.14934,1.144232 0.44803,1.48904 0.29868,0.34261 0.72914,0.513916 1.29138,0.513916 0.2855,0 0.55454,-0.05161 0.80711,-0.154834 0.25476,-0.103222 0.49415,-0.259154 0.71817,-0.467795 v 0.695105 c -0.2328,0.158128 -0.47988,0.276724 -0.74123,0.355788 -0.25916,0.07906 -0.53368,0.118596 -0.82358,0.118596 -0.74452,0 -1.33092,-0.22731 -1.75918,-0.681928 -0.42826,-0.456814 -0.64239,-1.079444 -0.64239,-1.867888 0,-0.790641 0.21413,-1.41327 0.64239,-1.867888 0.42826,-0.456815 1.01466,-0.685222 1.75918,-0.685222 0.29429,0 0.57101,0.03953 0.83017,0.118596 0.26135,0.07687 0.50623,0.193267 0.73464,0.349199 z m 2.43122,1.274908 c -0.32504,0 -0.582,0.127381 -0.77088,0.382143 -0.18888,0.252566 -0.28331,0.599569 -0.28331,1.04101 0,0.441441 0.0933,0.789543 0.28002,1.044305 0.18887,0.252566 0.44693,0.378849 0.77417,0.378849 0.32284,0 0.5787,-0.127381 0.76758,-0.382143 0.18887,-0.254762 0.28331,-0.601766 0.28331,-1.041011 0,-0.437048 -0.0944,-0.782953 -0.28331,-1.037715 -0.18888,-0.256959 -0.44474,-0.385438 -0.76758,-0.385438 z m 0,-0.513916 c 0.52709,0 0.94108,0.171305 1.24196,0.513916 0.30088,0.342611 0.45133,0.816995 0.45133,1.423153 0,0.603962 -0.15045,1.078346 -0.45133,1.423154 -0.30088,0.34261 -0.71487,0.513916 -1.24196,0.513916 -0.5293,0 -0.94438,-0.171306 -1.24526,-0.513916 -0.29869,-0.344808 -0.44803,-0.819192 -0.44803,-1.423154 0,-0.606158 0.14934,-1.080542 0.44803,-1.423153 0.30088,-0.342611 0.71596,-0.513916 1.24526,-0.513916 z m 5.76509,1.551632 v 2.226971 h -0.60616 v -2.207205 c 0,-0.3492 -0.0681,-0.61055 -0.20425,-0.784052 -0.13617,-0.173502 -0.34042,-0.260252 -0.61275,-0.260252 -0.32724,0 -0.58529,0.10432 -0.77417,0.312962 -0.18888,0.208641 -0.28331,0.493052 -0.28331,0.853233 v 2.085314 h -0.60945 v -3.689656 h 0.60945 v 0.573214 c 0.14495,-0.221818 0.31516,-0.387633 0.51062,-0.497444 0.19766,-0.109812 0.42497,-0.164717 0.68193,-0.164717 0.42387,0 0.74452,0.131773 0.96195,0.39532 0.21742,0.26135 0.32614,0.646788 0.32614,1.156312 z m 1.80859,-2.510284 v 1.047599 h 1.24855 v 0.47109 h -1.24855 v 2.002956 c 0,0.300882 0.0406,0.49415 0.12189,0.579803 0.0834,0.08565 0.25146,0.12848 0.50403,0.12848 h 0.62263 v 0.507327 h -0.62263 c -0.4678,0 -0.79064,-0.08675 -0.96853,-0.260252 -0.1779,-0.175698 -0.26685,-0.494151 -0.26685,-0.955358 v -2.002956 h -0.44473 v -0.47109 h 0.44473 v -1.047599 z m 3.47552,1.472568 c -0.32504,0 -0.582,0.127381 -0.77087,0.382143 -0.18888,0.252566 -0.28332,0.599569 -0.28332,1.04101 0,0.441441 0.0933,0.789543 0.28002,1.044305 0.18888,0.252566 0.44693,0.378849 0.77417,0.378849 0.32284,0 0.5787,-0.127381 0.76758,-0.382143 0.18887,-0.254762 0.28331,-0.601766 0.28331,-1.041011 0,-0.437048 -0.0944,-0.782953 -0.28331,-1.037715 -0.18888,-0.256959 -0.44474,-0.385438 -0.76758,-0.385438 z m 0,-0.513916 c 0.52709,0 0.94108,0.171305 1.24197,0.513916 0.30088,0.342611 0.45132,0.816995 0.45132,1.423153 0,0.603962 -0.15044,1.078346 -0.45132,1.423154 -0.30089,0.34261 -0.71488,0.513916 -1.24197,0.513916 -0.52929,0 -0.94438,-0.171306 -1.24526,-0.513916 -0.29869,-0.344808 -0.44803,-0.819192 -0.44803,-1.423154 0,-0.606158 0.14934,-1.080542 0.44803,-1.423153 0.30088,-0.342611 0.71597,-0.513916 1.24526,-0.513916 z m 2.63547,2.322507 v -2.23356 h 0.60616 v 2.210499 c 0,0.3492 0.0681,0.611649 0.20425,0.787347 0.13616,0.173501 0.3404,0.260252 0.61274,0.260252 0.32724,0 0.58529,-0.104321 0.77417,-0.312962 0.19107,-0.208642 0.28661,-0.493053 0.28661,-0.853233 v -2.091903 h 0.60616 v 3.689656 h -0.60616 v -0.566626 c -0.14715,0.224015 -0.31846,0.390928 -0.51392,0.50074 -0.19327,0.107614 -0.41838,0.161422 -0.67534,0.161422 -0.42387,0 -0.74562,-0.131774 -0.96524,-0.39532 -0.21962,-0.263548 -0.32943,-0.648985 -0.32943,-1.156312 z m 6.47666,-1.666934 c -0.0681,-0.03953 -0.14275,-0.06808 -0.22401,-0.08565 -0.0791,-0.01977 -0.16692,-0.02965 -0.26355,-0.02965 -0.34261,0 -0.60616,0.112007 -0.79064,0.336022 -0.18229,0.221818 -0.27343,0.541369 -0.27343,0.958652 v 1.943658 h -0.60945 v -3.689656 h 0.60945 v 0.573214 c 0.12738,-0.224015 0.29319,-0.38983 0.49745,-0.497444 0.20424,-0.109812 0.45242,-0.164717 0.74452,-0.164717 0.0417,0 0.0879,0.0033 0.13836,0.0099 0.0505,0.0044 0.10653,0.01209 0.16801,0.02306 z"
       id="text1"
       style="font-size:6.7468px;fill:#ff0000;stroke-width:0.582243;stroke-linejoin:round"
       aria-label="Contours"
       sodipodi:nodetypes="cccscscsccccscscsccscscssscsssscscscssccsssssccccccscscccccscsccscsccccccscscssscsssscscscssccscscsccccccsssccscsccccccsccc" />
    <path
       style="fill:none;stroke:#ff0000;stroke-width:0.274;stroke-linejoin:round;stroke-miterlimit:4;stroke-dasharray:none;stroke-dashoffset:0;marker-end:url(#Triangle)"
       d="m 163.12565,55.116054 c -0.90166,17.228183 -45.55658,10.73339 -45.55658,10.73339"
       id="path2"
       sodipodi:nodetypes="cc" />
  </g>
</svg>
