<?xml version="1.0" encoding="UTF-8" standalone="no"?>
<!-- Created with Inkscape (http://www.inkscape.org/) -->

<svg
   width="158.30869mm"
   height="86.28511mm"
   viewBox="0 0 158.30869 86.28511"
   version="1.1"
   id="svg1"
   inkscape:version="1.3.2 (091e20ef0f, 2023-11-25)"
   sodipodi:docname="marz_transition.svg"
   xmlns:inkscape="http://www.inkscape.org/namespaces/inkscape"
   xmlns:sodipodi="http://sodipodi.sourceforge.net/DTD/sodipodi-0.dtd"
   xmlns="http://www.w3.org/2000/svg"
   xmlns:svg="http://www.w3.org/2000/svg">
  <sodipodi:namedview
     id="namedview1"
     pagecolor="#ffffff"
     bordercolor="#000000"
     borderopacity="0.25"
     inkscape:showpageshadow="2"
     inkscape:pageopacity="0.0"
     inkscape:pagecheckerboard="0"
     inkscape:deskcolor="#d1d1d1"
     inkscape:document-units="mm"
     inkscape:zoom="1.0230033"
     inkscape:cx="301.56305"
     inkscape:cy="279.56899"
     inkscape:window-width="1920"
     inkscape:window-height="1021"
     inkscape:window-x="1920"
     inkscape:window-y="0"
     inkscape:window-maximized="1"
     inkscape:current-layer="layer1"
     showgrid="false" />
  <defs
     id="defs1">
    <marker
       style="overflow:visible"
       id="Triangle"
       refX="0"
       refY="0"
       orient="auto-start-reverse"
       inkscape:stockid="Triangle arrow"
       markerWidth="1"
       markerHeight="1"
       viewBox="0 0 1 1"
       inkscape:isstock="true"
       inkscape:collect="always"
       preserveAspectRatio="xMidYMid">
      <path
         transform="scale(0.5)"
         style="fill:context-stroke;fill-rule:evenodd;stroke:context-stroke;stroke-width:1pt"
         d="M 5.77,0 -2.88,5 V -5 Z"
         id="path135" />
    </marker>
    <inkscape:path-effect
       effect="rough_hatches"
       id="path-effect18"
       is_visible="true"
       lpeversion="1.2"
       direction="86.369041,85.476616 , 24.073822,0"
       dist_rdm="75;1"
       growth="0"
       do_bend="true"
       bender="86.369041,90.476616 , 5,0"
       bottom_edge_variation="4.9664413;1"
       top_edge_variation="4.9664413;1"
       bottom_tgt_variation="0;1"
       top_tgt_variation="0;1"
       scale_bf="1"
       scale_bb="1"
       scale_tf="1"
       scale_tb="1"
       top_smth_variation="0;1"
       bottom_smth_variation="0;1"
       fat_output="true"
       stroke_width_top="1"
       stroke_width_bottom="1"
       front_thickness="1"
       back_thickness="0.25" />
    <linearGradient
       id="swatch8"
       inkscape:swatch="solid">
      <stop
         style="stop-color:#999999;stop-opacity:1;"
         offset="0"
         id="stop8" />
    </linearGradient>
    <clipPath
       clipPathUnits="userSpaceOnUse"
       id="clipPath120">
      <rect
         style="fill:#999999;fill-opacity:1;stroke:none;stroke-width:1.0357;stroke-dasharray:none"
         id="path121"
         width="96.295288"
         height="49.664413"
         x="56.810822"
         y="52.931091"
         sodipodi:type="rect" />
    </clipPath>
    <clipPath
       clipPathUnits="userSpaceOnUse"
       id="clipPath13295">
      <g
         id="g13299">
        <path
           d="M -5.0620427e-6,1299.9999 H 1299.9998 V 2.236658e-5 H -5.0620427e-6 Z"
           id="path13297"
           style="stroke-width:0.352778" />
      </g>
    </clipPath>
  </defs>
  <g
     inkscape:label="Layer 1"
     inkscape:groupmode="layer"
     id="layer1"
     transform="translate(-25.845661,-37.361108)">
    <rect
       style="fill:#ffffff;fill-opacity:1;stroke:#4d4d4d;stroke-width:0.416501;stroke-linecap:butt;stroke-linejoin:round;stroke-dasharray:none;paint-order:normal"
       id="rect17"
       width="157.89218"
       height="85.868607"
       x="26.053911"
       y="37.569359"
       sodipodi:insensitive="true" />
    <path
       id="h2_900_2000"
       clip-path="none"
       style="fill:none;fill-opacity:1;fill-rule:nonzero;stroke:#4d4d4d;stroke-width:0.19999;stroke-linecap:butt;stroke-linejoin:miter;stroke-miterlimit:2;stroke-dasharray:none;stroke-opacity:1"
       d="m 728.61959,700.97167 0.42219,0.0501 0.38603,0.21705 0.32452,0.28835 0.17519,0.38602 0.0822,0.40928 -0.0506,0.42271 -0.21549,0.38499 -0.28991,0.32608 -0.38602,0.17363 -0.40876,0.0822 -0.42168,-0.0501 -0.38602,-0.21549 -0.28422,-0.28112 -0.21601,-0.39481 -0.0822,-0.40876 0.0506,-0.42219 0.216,-0.38603 0.28061,-0.28422 0.39429,-0.21549 z m 23.16189,7.28327 0.42168,0.0501 0.38602,0.21704 0.32556,0.28836 0.17467,0.38602 0.0822,0.40876 -0.0506,0.42323 -0.21549,0.38499 -0.2899,0.32608 -0.38551,0.17415 -0.40928,0.0822 -0.42168,-0.0506 -0.38654,-0.21549 -0.28422,-0.2806 -0.21497,-0.39481 -0.0827,-0.40928 0.0506,-0.42168 0.21549,-0.38654 0.2806,-0.28422 0.39533,-0.21549 z m 23.1252,7.33496 0.42168,0.0501 0.38603,0.21704 0.32556,0.28836 0.17466,0.38602 0.0822,0.40876 -0.0506,0.42323 -0.21549,0.38499 -0.28991,0.32608 -0.38551,0.17415 -0.40927,0.0822 -0.42168,-0.0507 -0.38654,-0.21601 -0.28422,-0.28008 -0.21549,-0.39481 -0.0822,-0.40928 0.0501,-0.42219 0.21601,-0.38603 0.2806,-0.28422 0.39532,-0.21549 z m 23.15363,7.38714 0.42168,0.0501 0.38602,0.21704 0.32556,0.28836 0.17415,0.38602 0.0827,0.40876 -0.0506,0.42323 -0.21549,0.38499 -0.2899,0.32608 -0.38603,0.17415 -0.40876,0.0822 -0.42168,-0.0506 -0.38654,-0.21601 -0.28422,-0.28009 -0.21549,-0.3948 -0.0822,-0.40928 0.0501,-0.4222 0.21601,-0.38602 0.2806,-0.28422 0.39481,-0.21549 z m 23.14484,7.38457 0.4222,0.0506 0.3855,0.21652 0.32556,0.28836 0.17519,0.38602 0.0822,0.40928 -0.0512,0.42271 -0.21549,0.38499 -0.2899,0.32608 -0.38551,0.17363 -0.40876,0.0827 -0.4222,-0.0506 -0.38602,-0.21549 -0.28474,-0.28112 -0.21497,-0.39481 -0.0827,-0.40876 0.0506,-0.42219 0.21601,-0.38603 0.28008,-0.28422 0.39533,-0.21549 z m 23.23992,7.43727 0.4222,0.0501 0.38602,0.21653 0.32453,0.28887 0.17519,0.38602 0.0822,0.40928 -0.0506,0.42271 -0.21549,0.38499 -0.28991,0.32608 -0.38602,0.17363 -0.40876,0.0827 -0.42168,-0.0507 -0.38602,-0.21549 -0.28422,-0.28112 -0.21601,-0.39481 -0.0822,-0.40927 0.0507,-0.42117 0.216,-0.38654 0.28061,-0.28422 0.3948,-0.21549 z"
       transform="matrix(-0.62422915,0,0,0.62422915,596.01023,-364.39315)" />
    <path
       id="h1_0_2000"
       clip-path="none"
       style="fill:none;fill-opacity:1;fill-rule:evenodd;stroke:#4d4d4d;stroke-width:0.19999;stroke-linecap:butt;stroke-linejoin:miter;stroke-miterlimit:22.9256;stroke-dasharray:none;stroke-opacity:1"
       d="m 721.67996,694.99529 c 2.74884,0.0279 4.95451,2.31995 4.92631,5.11958 -0.0282,2.79965 -2.27978,5.0462 -5.02863,5.0183 -2.74884,-0.0275 -4.95452,-2.31943 -4.92632,-5.11907 0.0282,-2.79964 2.27979,-5.04671 5.02864,-5.01881 z m 23.16189,7.28328 c 2.74885,0.0275 4.95452,2.31942 4.92632,5.11906 -0.0282,2.8 -2.27997,5.04723 -5.02915,5.01933 -2.74885,-0.0279 -4.954,-2.31959 -4.9258,-5.11958 0.0286,-2.79965 2.27944,-5.04671 5.02863,-5.01881 z m 23.12521,7.33495 c 2.74919,0.0275 4.95451,2.31943 4.92631,5.11907 -0.0286,2.79964 -2.27944,5.04723 -5.02863,5.01933 -2.74884,-0.0279 -4.95452,-2.31994 -4.92632,-5.11959 0.0282,-2.79963 2.2798,-5.04671 5.02864,-5.01881 z m 23.15362,7.38714 c 2.74885,0.0275 4.95452,2.31943 4.92632,5.11907 -0.0286,2.79964 -2.27996,5.04723 -5.02916,5.01933 -2.74883,-0.0279 -4.95399,-2.31994 -4.92579,-5.11958 0.0282,-2.79965 2.27944,-5.04672 5.02863,-5.01882 z m 23.14484,7.38457 c 2.74884,0.0275 4.95452,2.31958 4.92632,5.11958 -0.0282,2.79964 -2.27945,5.0462 -5.02864,5.0183 -2.74885,-0.0275 -4.95451,-2.31959 -4.92631,-5.11959 0.0282,-2.79928 2.27943,-5.04619 5.02863,-5.01829 z m 23.23993,7.43727 c 2.74884,0.0279 4.95451,2.31994 4.92631,5.11958 -0.0282,2.79964 -2.2798,5.04632 -5.02863,5.01882 -2.74885,-0.0279 -4.95452,-2.31995 -4.92632,-5.11959 0.0282,-2.79964 2.2798,-5.04671 5.02864,-5.01881 z"
       transform="matrix(-0.62422915,0,0,0.62422915,596.01023,-364.39315)" />
    <path
       d="m 722.77354,693.81902 -2.28847,12.49186"
       style="fill:none;stroke:#4d4d4d;stroke-width:0.19999;stroke-linecap:butt;stroke-linejoin:miter;stroke-miterlimit:2;stroke-dasharray:0.398639, 0.998361;stroke-dashoffset:0;stroke-opacity:1"
       id="path4140"
       clip-path="none"
       transform="matrix(-0.62422915,0,0,0.62422915,596.01023,-364.39315)" />
    <path
       d="m 715.38284,698.92019 12.49187,2.28846"
       style="fill:none;stroke:#4d4d4d;stroke-width:0.19999;stroke-linecap:butt;stroke-linejoin:miter;stroke-miterlimit:2;stroke-dasharray:0.398639, 0.998361;stroke-dashoffset:0;stroke-opacity:1"
       id="path4142"
       clip-path="none"
       transform="matrix(-0.62422915,0,0,0.62422915,596.01023,-364.39315)" />
    <path
       d="m 745.93516,701.10212 -2.28811,12.49221"
       style="fill:none;stroke:#4d4d4d;stroke-width:0.19999;stroke-linecap:butt;stroke-linejoin:miter;stroke-miterlimit:2;stroke-dasharray:0.398639, 0.998361;stroke-dashoffset:0;stroke-opacity:1"
       id="path4148"
       clip-path="none"
       transform="matrix(-0.62422915,0,0,0.62422915,596.01023,-364.39315)" />
    <path
       d="m 738.54447,706.20364 12.49221,2.28811"
       style="fill:none;stroke:#4d4d4d;stroke-width:0.19999;stroke-linecap:butt;stroke-linejoin:miter;stroke-miterlimit:2;stroke-dasharray:0.398639, 0.998361;stroke-dashoffset:0;stroke-opacity:1"
       id="path4150"
       clip-path="none"
       transform="matrix(-0.62422915,0,0,0.62422915,596.01023,-364.39315)" />
    <path
       d="m 769.06045,708.43707 -2.28812,12.49222"
       style="fill:none;stroke:#4d4d4d;stroke-width:0.19999;stroke-linecap:butt;stroke-linejoin:miter;stroke-miterlimit:2;stroke-dasharray:0.398639, 0.998361;stroke-dashoffset:0;stroke-opacity:1"
       id="path4156"
       clip-path="none"
       transform="matrix(-0.62422915,0,0,0.62422915,596.01023,-364.39315)" />
    <path
       d="m 761.66976,713.53859 12.49221,2.28812"
       style="fill:none;stroke:#4d4d4d;stroke-width:0.19999;stroke-linecap:butt;stroke-linejoin:miter;stroke-miterlimit:2;stroke-dasharray:0.398639, 0.998361;stroke-dashoffset:0;stroke-opacity:1"
       id="path4158"
       clip-path="none"
       transform="matrix(-0.62422915,0,0,0.62422915,596.01023,-364.39315)" />
    <path
       d="m 792.21396,715.82424 -2.28812,12.49221"
       style="fill:none;stroke:#4d4d4d;stroke-width:0.19999;stroke-linecap:butt;stroke-linejoin:miter;stroke-miterlimit:2;stroke-dasharray:0.398639, 0.998361;stroke-dashoffset:0;stroke-opacity:1"
       id="path4164"
       clip-path="none"
       transform="matrix(-0.62422915,0,0,0.62422915,596.01023,-364.39315)" />
    <path
       d="m 784.82327,720.92576 12.49221,2.28811"
       style="fill:none;stroke:#4d4d4d;stroke-width:0.19999;stroke-linecap:butt;stroke-linejoin:miter;stroke-miterlimit:2;stroke-dasharray:0.398639, 0.998361;stroke-dashoffset:0;stroke-opacity:1"
       id="path4166"
       clip-path="none"
       transform="matrix(-0.62422915,0,0,0.62422915,596.01023,-364.39315)" />
    <path
       d="m 815.359,723.20894 -2.28811,12.49186"
       style="fill:none;stroke:#4d4d4d;stroke-width:0.19999;stroke-linecap:butt;stroke-linejoin:miter;stroke-miterlimit:2;stroke-dasharray:0.398639, 0.998361;stroke-dashoffset:0;stroke-opacity:1"
       id="path4172"
       clip-path="none"
       transform="matrix(-0.62422915,0,0,0.62422915,596.01023,-364.39315)" />
    <path
       d="m 807.96831,728.3101 12.49221,2.28812"
       style="fill:none;stroke:#4d4d4d;stroke-width:0.19999;stroke-linecap:butt;stroke-linejoin:miter;stroke-miterlimit:2;stroke-dasharray:0.398639, 0.998361;stroke-dashoffset:0;stroke-opacity:1"
       id="path4174"
       clip-path="none"
       transform="matrix(-0.62422915,0,0,0.62422915,596.01023,-364.39315)" />
    <path
       d="m 838.59894,730.6462 -2.28846,12.49186"
       style="fill:none;stroke:#4d4d4d;stroke-width:0.19999;stroke-linecap:butt;stroke-linejoin:miter;stroke-miterlimit:2;stroke-dasharray:0.398639, 0.998361;stroke-dashoffset:0;stroke-opacity:1"
       id="path4180"
       clip-path="none"
       transform="matrix(-0.62422915,0,0,0.62422915,596.01023,-364.39315)" />
    <path
       d="m 831.2079,735.74736 12.49221,2.28847"
       style="fill:none;stroke:#4d4d4d;stroke-width:0.19999;stroke-linecap:butt;stroke-linejoin:miter;stroke-miterlimit:2;stroke-dasharray:0.398639, 0.998361;stroke-dashoffset:0;stroke-opacity:1"
       id="path4182"
       clip-path="none"
       transform="matrix(-0.62422915,0,0,0.62422915,596.01023,-364.39315)" />
    <path
       style="opacity:0.691454;fill:none;stroke:#008000;stroke-width:0.4;stroke-linecap:square;stroke-dasharray:none"
       d="M 71.139681,59.082559 66.042304,110.97622"
       id="transition"
       sodipodi:nodetypes="cc" />
    <path
       d="m 853.23428,749.11305 c -2.93052,3.5553 -4.32858,4.40373 -10.35402,2.49802 L 677.29978,699.2465 c -4.59281,-1.45273 -3.84104,-7.31237 1.27741,-7.38046 15.50211,-0.20602 32.56844,-7.26299 42.03276,-14.20389 3.3394,-2.44863 6.3493,-2.09233 9.85485,0.34396 22.71853,15.78716 92.69256,50.41657 109.20009,14.57823 1.05233,-2.28459 3.02119,-2.55764 5.35305,-2.27154 20.57389,3.45261 25.01348,4.05197 39.40152,4.19837 v 42.71 c -21.04178,-0.21414 -25.08671,4.49343 -31.18518,11.89188 z"
       style="fill:none;stroke:#4d4d4d;stroke-width:0.4;stroke-linecap:butt;stroke-linejoin:round;stroke-miterlimit:22.9256;stroke-dasharray:none;stroke-opacity:1"
       id="contour-3"
       clip-path="none"
       transform="matrix(-0.62422915,0,0,0.62422915,596.00006,-364.39932)"
       sodipodi:nodetypes="ccccccscccc" />
    <path
       d="m 91.684847,47.055361 h 4.160746 v 0.560037 h -1.745998 v 4.358406 h -0.66875 v -4.358406 h -1.745998 z m 5.923216,1.795413 q -0.102125,-0.0593 -0.224015,-0.08565 -0.118596,-0.02965 -0.263547,-0.02965 -0.513916,0 -0.790641,0.336023 -0.27343,0.332727 -0.27343,0.958651 v 1.943658 h -0.609452 v -3.689656 h 0.609452 v 0.573215 q 0.191072,-0.336023 0.497445,-0.497445 0.306373,-0.164717 0.74452,-0.164717 0.06259,0 0.138362,0.0099 0.07577,0.0066 0.168011,0.02306 z m 2.312624,1.268319 q -0.734637,0 -1.01795,0.168011 -0.283313,0.168012 -0.283313,0.573215 0,0.322845 0.210837,0.513916 0.214132,0.187777 0.579803,0.187777 0.504034,0 0.807116,-0.355788 0.30637,-0.359082 0.30637,-0.952063 v -0.135068 z m 1.209023,-0.250369 v 2.10508 h -0.60616 v -0.560037 q -0.20754,0.336023 -0.51721,0.497445 -0.309668,0.158128 -0.757698,0.158128 -0.566626,0 -0.902648,-0.316256 -0.332728,-0.319551 -0.332728,-0.853233 0,-0.62263 0.415086,-0.938886 0.418381,-0.316256 1.245259,-0.316256 h 0.849939 v -0.0593 q 0,-0.418381 -0.27672,-0.64569 -0.273434,-0.230603 -0.770879,-0.230603 -0.316256,0 -0.616041,0.07577 -0.299784,0.07577 -0.576508,0.227309 v -0.560037 q 0.332728,-0.128479 0.645689,-0.191071 0.312962,-0.06589 0.609453,-0.06589 0.800526,0 1.195846,0.415087 0.39532,0.415086 0.39532,1.258436 z m 4.31558,-0.121891 v 2.226971 h -0.60616 v -2.207205 q 0,-0.523799 -0.20425,-0.784052 -0.20425,-0.260252 -0.61275,-0.260252 -0.49085,0 -0.77416,0.312962 -0.28332,0.312962 -0.28332,0.853233 v 2.085314 h -0.60945 v -3.689656 h 0.60945 v 0.573215 q 0.21743,-0.332728 0.51063,-0.497445 0.29649,-0.164717 0.68192,-0.164717 0.63581,0 0.96195,0.39532 0.32614,0.392026 0.32614,1.156312 z m 3.56118,-1.353972 v 0.573215 q -0.25696,-0.131774 -0.53369,-0.19766 -0.27672,-0.06589 -0.57321,-0.06589 -0.45133,0 -0.67863,0.138362 -0.22402,0.138362 -0.22402,0.415086 0,0.210838 0.16142,0.332728 0.16143,0.118596 0.64899,0.227309 l 0.20754,0.04612 q 0.64569,0.138362 0.91583,0.392026 0.27343,0.25037 0.27343,0.701694 0,0.513916 -0.4085,0.813701 -0.4052,0.299784 -1.11678,0.299784 -0.29649,0 -0.61934,-0.0593 -0.31955,-0.056 -0.67534,-0.171305 v -0.625924 q 0.33603,0.1746 0.66217,0.263547 0.32614,0.08565 0.64569,0.08565 0.42826,0 0.65886,-0.14495 0.23061,-0.148245 0.23061,-0.415087 0,-0.247075 -0.16801,-0.378848 -0.16472,-0.131774 -0.72805,-0.253664 l -0.21084,-0.04942 q -0.56333,-0.118596 -0.8137,-0.362377 -0.25037,-0.247075 -0.25037,-0.675339 0,-0.520505 0.36896,-0.803818 0.36897,-0.283313 1.0476,-0.283313 0.33603,0 0.63252,0.04942 0.29649,0.04941 0.54686,0.148245 z m 1.1629,-0.108713 h 0.60615 v 3.689656 h -0.60615 z m 0,-1.43633 h 0.60615 v 0.76758 h -0.60615 z m 2.47404,0.388731 v 1.047599 h 1.24855 v 0.47109 h -1.24855 v 2.002957 q 0,0.451324 0.12189,0.579803 0.12519,0.128479 0.50404,0.128479 h 0.62262 v 0.507327 h -0.62262 q -0.7017,0 -0.96854,-0.260252 -0.26684,-0.263547 -0.26684,-0.955357 v -2.002957 h -0.44474 v -0.47109 h 0.44474 v -1.047599 z m 2.04579,1.047599 h 0.60615 v 3.689656 h -0.60615 z m 0,-1.43633 h 0.60615 v 0.76758 h -0.60615 z m 3.30421,1.8613 q -0.48756,0 -0.77087,0.382143 -0.28331,0.378848 -0.28331,1.04101 0,0.662161 0.28001,1.044304 0.28332,0.378849 0.77417,0.378849 0.48427,0 0.76758,-0.382143 0.28332,-0.382143 0.28332,-1.04101 0,-0.655573 -0.28332,-1.037716 -0.28331,-0.385437 -0.76758,-0.385437 z m 0,-0.513917 q 0.79064,0 1.24197,0.513917 0.45132,0.513916 0.45132,1.423153 0,0.905942 -0.45132,1.423153 -0.45133,0.513916 -1.24197,0.513916 -0.79393,0 -1.24526,-0.513916 -0.44803,-0.517211 -0.44803,-1.423153 0,-0.909237 0.44803,-1.423153 0.45133,-0.513917 1.24526,-0.513917 z m 5.76509,1.551632 v 2.226971 h -0.60616 v -2.207205 q 0,-0.523799 -0.20425,-0.784052 -0.20424,-0.260252 -0.61274,-0.260252 -0.49086,0 -0.77417,0.312962 -0.28331,0.312962 -0.28331,0.853233 v 2.085314 h -0.60946 v -3.689656 h 0.60946 v 0.573215 q 0.21742,-0.332728 0.51062,-0.497445 0.29649,-0.164717 0.68193,-0.164717 0.6358,0 0.96194,0.39532 0.32614,0.392026 0.32614,1.156312 z"
       id="text1"
       style="font-size:6.7468px;fill:#ff0000;stroke-width:0.582243;stroke-linejoin:round"
       aria-label="Transition" />
    <path
       style="fill:none;stroke:#ff0000;stroke-width:0.35;stroke-linejoin:round;stroke-miterlimit:4;stroke-dasharray:none;stroke-dashoffset:0;marker-end:url(#Triangle)"
       d="M 104.00361,56.938655 C 95.577616,69.954142 70.833058,84.587999 70.833058,84.587999"
       id="path4" />
  </g>
</svg>
