<?xml version="1.0" encoding="UTF-8" standalone="no"?>
<!-- Created with Inkscape (http://www.inkscape.org/) -->

<svg
   width="158.30869mm"
   height="86.28511mm"
   viewBox="0 0 158.30869 86.28511"
   version="1.1"
   id="svg1"
   inkscape:version="1.3.2 (091e20ef0f, 2023-11-25)"
   sodipodi:docname="marz_headstock_contour.svg"
   xmlns:inkscape="http://www.inkscape.org/namespaces/inkscape"
   xmlns:sodipodi="http://sodipodi.sourceforge.net/DTD/sodipodi-0.dtd"
   xmlns="http://www.w3.org/2000/svg"
   xmlns:svg="http://www.w3.org/2000/svg">
  <sodipodi:namedview
     id="namedview1"
     pagecolor="#ffffff"
     bordercolor="#000000"
     borderopacity="0.25"
     inkscape:showpageshadow="2"
     inkscape:pageopacity="0.0"
     inkscape:pagecheckerboard="0"
     inkscape:deskcolor="#d1d1d1"
     inkscape:document-units="mm"
     inkscape:zoom="1.0230033"
     inkscape:cx="310.36068"
     inkscape:cy="281.52402"
     inkscape:window-width="1920"
     inkscape:window-height="1021"
     inkscape:window-x="1920"
     inkscape:window-y="0"
     inkscape:window-maximized="1"
     inkscape:current-layer="layer1"
     showgrid="false" />
  <defs
     id="defs1">
    <marker
       style="overflow:visible"
       id="marker4"
       refX="0"
       refY="0"
       orient="auto-start-reverse"
       inkscape:stockid="Triangle arrow"
       markerWidth="1"
       markerHeight="1"
       viewBox="0 0 1 1"
       inkscape:isstock="true"
       inkscape:collect="always"
       preserveAspectRatio="xMidYMid">
      <path
         transform="scale(0.5)"
         style="fill:context-stroke;fill-rule:evenodd;stroke:context-stroke;stroke-width:1pt"
         d="M 5.77,0 -2.88,5 V -5 Z"
         id="path4" />
    </marker>
    <inkscape:path-effect
       effect="rough_hatches"
       id="path-effect18"
       is_visible="true"
       lpeversion="1.2"
       direction="86.369041,85.476616 , 24.073822,0"
       dist_rdm="75;1"
       growth="0"
       do_bend="true"
       bender="86.369041,90.476616 , 5,0"
       bottom_edge_variation="4.9664413;1"
       top_edge_variation="4.9664413;1"
       bottom_tgt_variation="0;1"
       top_tgt_variation="0;1"
       scale_bf="1"
       scale_bb="1"
       scale_tf="1"
       scale_tb="1"
       top_smth_variation="0;1"
       bottom_smth_variation="0;1"
       fat_output="true"
       stroke_width_top="1"
       stroke_width_bottom="1"
       front_thickness="1"
       back_thickness="0.25" />
    <linearGradient
       id="swatch8"
       inkscape:swatch="solid">
      <stop
         style="stop-color:#999999;stop-opacity:1;"
         offset="0"
         id="stop8" />
    </linearGradient>
    <clipPath
       clipPathUnits="userSpaceOnUse"
       id="clipPath120">
      <rect
         style="fill:#999999;fill-opacity:1;stroke:none;stroke-width:1.0357;stroke-dasharray:none"
         id="path121"
         width="96.295288"
         height="49.664413"
         x="56.810822"
         y="52.931091"
         sodipodi:type="rect" />
    </clipPath>
    <clipPath
       clipPathUnits="userSpaceOnUse"
       id="clipPath13295">
      <g
         id="g13299">
        <path
           d="M -5.0620427e-6,1299.9999 H 1299.9998 V 2.236658e-5 H -5.0620427e-6 Z"
           id="path13297"
           style="stroke-width:0.352778" />
      </g>
    </clipPath>
  </defs>
  <g
     inkscape:label="Layer 1"
     inkscape:groupmode="layer"
     id="layer1"
     transform="translate(-25.845661,-37.361108)">
    <rect
       style="fill:#ffffff;fill-opacity:1;stroke:#4d4d4d;stroke-width:0.416501;stroke-linecap:butt;stroke-linejoin:round;stroke-dasharray:none;paint-order:normal"
       id="rect17"
       width="157.89218"
       height="85.868607"
       x="26.053911"
       y="37.569359"
       sodipodi:insensitive="true" />
    <path
       id="h2_900_2000"
       clip-path="none"
       style="fill:none;fill-opacity:1;fill-rule:nonzero;stroke:#4d4d4d;stroke-width:0.117711;stroke-linecap:butt;stroke-linejoin:miter;stroke-miterlimit:2;stroke-dasharray:none;stroke-opacity:1"
       d="m 145.46782,81.515245 -0.2485,0.02949 -0.22721,0.127751 -0.191,0.169718 -0.10312,0.227204 -0.0484,0.240895 0.0298,0.2488 0.12683,0.226598 0.17063,0.191925 0.22721,0.102195 0.24059,0.04838 0.24819,-0.02949 0.22721,-0.126834 0.16728,-0.165462 0.12714,-0.232378 0.0484,-0.240589 -0.0298,-0.248493 -0.12713,-0.227211 -0.16516,-0.167286 -0.23208,-0.126834 z m -13.63267,4.286801 -0.24819,0.02949 -0.22721,0.127746 -0.19162,0.169723 -0.10281,0.227205 -0.0484,0.240588 0.0298,0.249106 0.12683,0.226598 0.17063,0.191925 0.2269,0.102501 0.2409,0.04838 0.24819,-0.02978 0.22751,-0.126834 0.16729,-0.165156 0.12653,-0.232378 0.0487,-0.240895 -0.0298,-0.248193 -0.12683,-0.227511 -0.16516,-0.167286 -0.23268,-0.126834 z m -13.61108,4.317225 -0.24819,0.02949 -0.22721,0.127746 -0.19162,0.169723 -0.1028,0.227204 -0.0484,0.240589 0.0298,0.249106 0.12683,0.226598 0.17064,0.191925 0.2269,0.102501 0.24089,0.04838 0.2482,-0.02984 0.22751,-0.12714 0.16728,-0.16485 0.12684,-0.232378 0.0484,-0.240895 -0.0295,-0.248493 -0.12714,-0.227211 -0.16516,-0.167286 -0.23267,-0.126834 z m -13.6278,4.347937 -0.2482,0.02949 -0.2272,0.127746 -0.19162,0.169723 -0.1025,0.227205 -0.0487,0.240588 0.0298,0.249106 0.12684,0.226598 0.17063,0.191925 0.22721,0.102501 0.24059,0.04838 0.24819,-0.02978 0.22751,-0.12714 0.16729,-0.164856 0.12683,-0.232372 0.0484,-0.240895 -0.0295,-0.248499 -0.12714,-0.227205 -0.16515,-0.167286 -0.23238,-0.126834 z m -13.622639,4.346424 -0.2485,0.02978 -0.226898,0.127439 -0.191619,0.169724 -0.103113,0.227204 -0.04838,0.240895 0.03014,0.2488 0.126834,0.226596 0.17063,0.19193 0.226904,0.1022 0.240589,0.0487 0.248499,-0.0298 0.227205,-0.12683 0.167592,-0.16547 0.126528,-0.232378 0.04868,-0.240589 -0.02978,-0.248493 -0.127139,-0.227211 -0.16485,-0.167286 -0.232684,-0.126834 z m -13.678597,4.377448 -0.2485,0.0295 -0.227204,0.12745 -0.191013,0.17002 -0.103113,0.22721 -0.04838,0.24089 0.02978,0.2488 0.126834,0.2266 0.170636,0.19192 0.227204,0.1022 0.240589,0.0487 0.248193,-0.0298 0.227205,-0.12683 0.167286,-0.16546 0.12714,-0.23238 0.04838,-0.24089 -0.02984,-0.24789 -0.127133,-0.22751 -0.165162,-0.16729 -0.232373,-0.12683 z" />
    <path
       id="h1_0_2000"
       clip-path="none"
       style="fill:none;fill-opacity:1;fill-rule:evenodd;stroke:#4d4d4d;stroke-width:0.117711;stroke-linecap:butt;stroke-linejoin:miter;stroke-miterlimit:22.9256;stroke-dasharray:none;stroke-opacity:1"
       d="m 149.55236,77.997655 c -1.61792,0.01642 -2.91614,1.365481 -2.89954,3.013293 0.0166,1.647823 1.34184,2.970102 2.95976,2.95368 1.61792,-0.01619 2.91614,-1.365174 2.89955,-3.012992 -0.0166,-1.647817 -1.34185,-2.970402 -2.95977,-2.953981 z m -13.63267,4.286808 c -1.61792,0.01619 -2.91614,1.365168 -2.89954,3.012986 0.0166,1.648029 1.34195,2.970708 2.96006,2.954287 1.61793,-0.01642 2.91584,-1.365269 2.89924,-3.013293 -0.0168,-1.647823 -1.34164,-2.970402 -2.95976,-2.95398 z m -13.61108,4.317219 c -1.61813,0.01619 -2.91614,1.365174 -2.89954,3.012992 0.0168,1.647817 1.34164,2.970708 2.95976,2.954287 1.61792,-0.01642 2.91614,-1.365475 2.89955,-3.013299 -0.0166,-1.647811 -1.34185,-2.970402 -2.95977,-2.95398 z m -13.6278,4.347937 c -1.61793,0.01619 -2.91614,1.365174 -2.89955,3.012992 0.0168,1.647817 1.34195,2.970708 2.96008,2.954287 1.61791,-0.01642 2.91582,-1.365475 2.89923,-3.013293 -0.0166,-1.647823 -1.34164,-2.970408 -2.95976,-2.953986 z m -13.622639,4.346424 c -1.617917,0.01619 -2.916141,1.365263 -2.899543,3.013292 0.0166,1.647818 1.341644,2.970105 2.959767,2.953685 1.617924,-0.0162 2.916135,-1.365273 2.899537,-3.013302 -0.0166,-1.647606 -1.341631,-2.970096 -2.959761,-2.953675 z m -13.678603,4.377443 c -1.617917,0.01642 -2.916135,1.365474 -2.899537,3.013294 0.0166,1.64782 1.341849,2.97017 2.959761,2.95398 1.617924,-0.0164 2.916141,-1.36548 2.899543,-3.01329 -0.0166,-1.64782 -1.341849,-2.970406 -2.959767,-2.953984 z" />
    <path
       d="m 148.9087,77.305324 1.34695,7.352483"
       style="fill:none;stroke:#4d4d4d;stroke-width:0.117711;stroke-linecap:butt;stroke-linejoin:miter;stroke-miterlimit:2;stroke-dasharray:0.234632, 0.587617;stroke-dashoffset:0;stroke-opacity:1"
       id="path4140"
       clip-path="none" />
    <path
       d="m 153.25873,80.307781 -7.35249,1.346946"
       style="fill:none;stroke:#4d4d4d;stroke-width:0.117711;stroke-linecap:butt;stroke-linejoin:miter;stroke-miterlimit:2;stroke-dasharray:0.234632, 0.587617;stroke-dashoffset:0;stroke-opacity:1"
       id="path4142"
       clip-path="none" />
    <path
       d="m 135.27619,81.592025 1.34674,7.352689"
       style="fill:none;stroke:#4d4d4d;stroke-width:0.117711;stroke-linecap:butt;stroke-linejoin:miter;stroke-miterlimit:2;stroke-dasharray:0.234632, 0.587617;stroke-dashoffset:0;stroke-opacity:1"
       id="path4148"
       clip-path="none" />
    <path
       d="m 139.62621,84.594688 -7.35269,1.34674"
       style="fill:none;stroke:#4d4d4d;stroke-width:0.117711;stroke-linecap:butt;stroke-linejoin:miter;stroke-miterlimit:2;stroke-dasharray:0.234632, 0.587617;stroke-dashoffset:0;stroke-opacity:1"
       id="path4150"
       clip-path="none" />
    <path
       d="m 121.66506,85.909244 1.34674,7.352695"
       style="fill:none;stroke:#4d4d4d;stroke-width:0.117711;stroke-linecap:butt;stroke-linejoin:miter;stroke-miterlimit:2;stroke-dasharray:0.234632, 0.587617;stroke-dashoffset:0;stroke-opacity:1"
       id="path4156"
       clip-path="none" />
    <path
       d="m 126.01509,88.911907 -7.35269,1.346746"
       style="fill:none;stroke:#4d4d4d;stroke-width:0.117711;stroke-linecap:butt;stroke-linejoin:miter;stroke-miterlimit:2;stroke-dasharray:0.234632, 0.587617;stroke-dashoffset:0;stroke-opacity:1"
       id="path4158"
       clip-path="none" />
    <path
       d="m 108.03732,90.257199 1.34675,7.352689"
       style="fill:none;stroke:#4d4d4d;stroke-width:0.117711;stroke-linecap:butt;stroke-linejoin:miter;stroke-miterlimit:2;stroke-dasharray:0.234632, 0.587617;stroke-dashoffset:0;stroke-opacity:1"
       id="path4164"
       clip-path="none" />
    <path
       d="m 112.38735,93.259862 -7.35269,1.34674"
       style="fill:none;stroke:#4d4d4d;stroke-width:0.117711;stroke-linecap:butt;stroke-linejoin:miter;stroke-miterlimit:2;stroke-dasharray:0.234632, 0.587617;stroke-dashoffset:0;stroke-opacity:1"
       id="path4166"
       clip-path="none" />
    <path
       d="m 94.414569,94.6037 1.34674,7.35248"
       style="fill:none;stroke:#4d4d4d;stroke-width:0.117711;stroke-linecap:butt;stroke-linejoin:miter;stroke-miterlimit:2;stroke-dasharray:0.234632, 0.587617;stroke-dashoffset:0;stroke-opacity:1"
       id="path4172"
       clip-path="none" />
    <path
       d="m 98.764595,97.606151 -7.352689,1.346746"
       style="fill:none;stroke:#4d4d4d;stroke-width:0.117711;stroke-linecap:butt;stroke-linejoin:miter;stroke-miterlimit:2;stroke-dasharray:0.234632, 0.587617;stroke-dashoffset:0;stroke-opacity:1"
       id="path4174"
       clip-path="none" />
    <path
       d="m 80.73596,98.981137 1.346946,7.352483"
       style="fill:none;stroke:#4d4d4d;stroke-width:0.117711;stroke-linecap:butt;stroke-linejoin:miter;stroke-miterlimit:2;stroke-dasharray:0.234632, 0.587617;stroke-dashoffset:0;stroke-opacity:1"
       id="path4180"
       clip-path="none" />
    <path
       d="m 85.086193,101.98359 -7.352689,1.34695"
       style="fill:none;stroke:#4d4d4d;stroke-width:0.117711;stroke-linecap:butt;stroke-linejoin:miter;stroke-miterlimit:2;stroke-dasharray:0.234632, 0.587617;stroke-dashoffset:0;stroke-opacity:1"
       id="path4182"
       clip-path="none" />
    <path
       style="opacity:0.691454;fill:none;stroke:#fc6f03;stroke-width:0.415079;stroke-linecap:square;stroke-dasharray:none;stroke-opacity:1"
       d="M 79.422841,68.228702 74.616554,117.15892"
       id="transition"
       sodipodi:nodetypes="cc" />
    <path
       d="m 72.112274,109.84457 c 1.724851,2.09259 2.547724,2.59196 6.094189,1.47029 L 175.66414,80.494024 c 2.70325,-0.855051 2.26077,-4.303929 -0.75186,-4.344006 -9.12426,-0.121259 -19.16919,-4.274864 -24.73972,-8.360153 -1.96551,-1.441219 -3.73708,-1.231507 -5.80039,0.202449 -13.37171,9.292037 -54.557164,29.674282 -64.273198,8.580483 -0.619383,-1.344669 -1.778218,-1.505381 -3.150709,-1.336988 -12.10942,2.032144 -14.722482,2.384917 -23.191022,2.471085 v 25.138336 c 12.384811,-0.12604 14.765584,2.64475 18.355033,6.99934 z"
       style="fill:none;stroke:#008000;stroke-width:0.605955;stroke-linecap:butt;stroke-linejoin:round;stroke-miterlimit:22.9256;stroke-dasharray:none;stroke-opacity:1"
       id="contour-3"
       clip-path="none"
       sodipodi:nodetypes="ccccccscccc" />
    <path
       style="fill:none;stroke:#fc6f03;stroke-width:0.415079;stroke-linejoin:round;stroke-dasharray:none;stroke-opacity:1;paint-order:stroke fill markers"
       d="M 67.537919,90.555311 31.645487,90.453757"
       id="path1"
       inkscape:label="midline"
       sodipodi:nodetypes="cc" />
    <path
       d="m 153.272,45.660461 v 0.701694 c -0.22401,-0.208641 -0.4634,-0.364573 -0.71817,-0.467796 -0.25257,-0.103223 -0.5216,-0.154834 -0.80711,-0.154834 -0.56223,0 -0.99269,0.172404 -1.29138,0.517211 -0.29869,0.342611 -0.44803,0.838958 -0.44803,1.48904 0,0.647886 0.14934,1.144233 0.44803,1.48904 0.29869,0.342611 0.72915,0.513916 1.29138,0.513916 0.28551,0 0.55454,-0.05161 0.80711,-0.154834 0.25477,-0.103222 0.49416,-0.259154 0.71817,-0.467795 v 0.695105 c -0.2328,0.158128 -0.47988,0.276724 -0.74123,0.355788 -0.25915,0.07906 -0.53368,0.118596 -0.82358,0.118596 -0.74452,0 -1.33091,-0.227309 -1.75918,-0.681928 -0.42826,-0.456814 -0.64239,-1.079443 -0.64239,-1.867888 0,-0.790641 0.21413,-1.41327 0.64239,-1.867888 0.42827,-0.456815 1.01466,-0.685222 1.75918,-0.685222 0.29429,0 0.57102,0.03953 0.83017,0.118596 0.26135,0.07687 0.50623,0.193268 0.73464,0.349199 z m 2.43122,1.274908 c -0.32504,0 -0.582,0.127381 -0.77088,0.382143 -0.18887,0.252566 -0.28331,0.599569 -0.28331,1.04101 0,0.441441 0.0933,0.789543 0.28002,1.044305 0.18887,0.252566 0.44693,0.378849 0.77417,0.378849 0.32285,0 0.57871,-0.127381 0.76758,-0.382143 0.18887,-0.254762 0.28331,-0.601766 0.28331,-1.041011 0,-0.437048 -0.0944,-0.782953 -0.28331,-1.037715 -0.18887,-0.256959 -0.44473,-0.385438 -0.76758,-0.385438 z m 0,-0.513916 c 0.52709,0 0.94108,0.171305 1.24196,0.513916 0.30089,0.342611 0.45133,0.816996 0.45133,1.423153 0,0.603962 -0.15044,1.078347 -0.45133,1.423154 -0.30088,0.342611 -0.71487,0.513916 -1.24196,0.513916 -0.52929,0 -0.94438,-0.171305 -1.24526,-0.513916 -0.29869,-0.344807 -0.44803,-0.819192 -0.44803,-1.423154 0,-0.606157 0.14934,-1.080542 0.44803,-1.423153 0.30088,-0.342611 0.71597,-0.513916 1.24526,-0.513916 z m 5.76509,1.551632 v 2.226971 h -0.60616 v -2.207205 c 0,-0.349199 -0.0681,-0.61055 -0.20425,-0.784052 -0.13617,-0.173501 -0.34042,-0.260252 -0.61275,-0.260252 -0.32723,0 -0.58529,0.104321 -0.77417,0.312962 -0.18887,0.208641 -0.28331,0.493052 -0.28331,0.853233 v 2.085314 h -0.60945 V 46.5104 h 0.60945 v 0.573214 c 0.14495,-0.221818 0.31516,-0.387633 0.51062,-0.497444 0.19766,-0.109811 0.42497,-0.164717 0.68193,-0.164717 0.42387,0 0.74452,0.131773 0.96195,0.39532 0.21743,0.261351 0.32614,0.646788 0.32614,1.156312 z m 1.80859,-2.510284 V 46.5104 h 1.24855 v 0.47109 h -1.24855 v 2.002956 c 0,0.300883 0.0406,0.49415 0.12189,0.579803 0.0834,0.08565 0.25146,0.12848 0.50403,0.12848 h 0.62263 v 0.507327 h -0.62263 c -0.46779,0 -0.79064,-0.08675 -0.96853,-0.260252 -0.1779,-0.175698 -0.26685,-0.494151 -0.26685,-0.955358 V 46.98149 h -0.44473 V 46.5104 h 0.44473 v -1.047599 z m 3.47552,1.472568 c -0.32504,0 -0.582,0.127381 -0.77087,0.382143 -0.18888,0.252566 -0.28332,0.599569 -0.28332,1.04101 0,0.441441 0.0933,0.789543 0.28002,1.044305 0.18888,0.252566 0.44694,0.378849 0.77417,0.378849 0.32285,0 0.57871,-0.127381 0.76758,-0.382143 0.18887,-0.254762 0.28331,-0.601766 0.28331,-1.041011 0,-0.437048 -0.0944,-0.782953 -0.28331,-1.037715 -0.18887,-0.256959 -0.44473,-0.385438 -0.76758,-0.385438 z m 0,-0.513916 c 0.52709,0 0.94108,0.171305 1.24197,0.513916 0.30088,0.342611 0.45132,0.816996 0.45132,1.423153 0,0.603962 -0.15044,1.078347 -0.45132,1.423154 -0.30089,0.342611 -0.71488,0.513916 -1.24197,0.513916 -0.52929,0 -0.94437,-0.171305 -1.24526,-0.513916 -0.29869,-0.344807 -0.44803,-0.819192 -0.44803,-1.423154 0,-0.606157 0.14934,-1.080542 0.44803,-1.423153 0.30089,-0.342611 0.71597,-0.513916 1.24526,-0.513916 z m 2.63547,2.322507 V 46.5104 h 0.60616 v 2.210499 c 0,0.3492 0.0681,0.611649 0.20425,0.787347 0.13616,0.173501 0.34041,0.260252 0.61274,0.260252 0.32724,0 0.5853,-0.104321 0.77417,-0.312962 0.19107,-0.208641 0.28661,-0.493052 0.28661,-0.853233 V 46.5104 h 0.60616 v 3.689656 h -0.60616 V 49.63343 c -0.14715,0.224015 -0.31845,0.390929 -0.51392,0.50074 -0.19327,0.107615 -0.41838,0.161422 -0.67534,0.161422 -0.42387,0 -0.74561,-0.131773 -0.96524,-0.39532 -0.21962,-0.263547 -0.32943,-0.648985 -0.32943,-1.156312 z m 6.47666,-1.666934 c -0.0681,-0.03953 -0.14275,-0.06808 -0.22401,-0.08565 -0.0791,-0.01977 -0.16692,-0.02965 -0.26355,-0.02965 -0.34261,0 -0.60615,0.112007 -0.79064,0.336022 -0.18229,0.221819 -0.27343,0.541369 -0.27343,0.958652 v 1.943658 h -0.60945 v -3.689656 h 0.60945 v 0.573214 c 0.12738,-0.224015 0.2932,-0.389829 0.49745,-0.497444 0.20425,-0.109811 0.45242,-0.164717 0.74452,-0.164717 0.0417,0 0.0879,0.0033 0.13836,0.0099 0.0505,0.0044 0.10654,0.01209 0.16801,0.02306 z"
       id="text1"
       style="font-size:6.7468px;fill:#ff0000;stroke-width:0.582243;stroke-linejoin:round"
       aria-label="Contours"
       sodipodi:nodetypes="cccscscsccccscscsccscscssscsssscscscssccsssssccccccscscccccscsccscsccccccscscssscsssscscscssccscscsccccccsssccscsccccccsccc" />
    <path
       style="fill:none;stroke:#ff0000;stroke-width:0.274;stroke-linejoin:round;stroke-miterlimit:4;stroke-dasharray:none;stroke-dashoffset:0;marker-end:url(#marker4)"
       d="M 144.25558,48.788482 C 112.85081,61.098139 126.45114,74.79223 126.45114,74.79223"
       id="path3"
       sodipodi:nodetypes="cc" />
  </g>
</svg>
