<?xml version="1.0" encoding="UTF-8" standalone="no"?>
<!-- Created with Inkscape (http://www.inkscape.org/) -->

<svg
   width="158.30869mm"
   height="86.28511mm"
   viewBox="0 0 158.30869 86.28511"
   version="1.1"
   id="svg1"
   inkscape:version="1.3.2 (091e20ef0f, 2023-11-25)"
   sodipodi:docname="marz_headstock_pockets.svg"
   xmlns:inkscape="http://www.inkscape.org/namespaces/inkscape"
   xmlns:sodipodi="http://sodipodi.sourceforge.net/DTD/sodipodi-0.dtd"
   xmlns="http://www.w3.org/2000/svg"
   xmlns:svg="http://www.w3.org/2000/svg">
  <sodipodi:namedview
     id="namedview1"
     pagecolor="#ffffff"
     bordercolor="#000000"
     borderopacity="0.25"
     inkscape:showpageshadow="2"
     inkscape:pageopacity="0.0"
     inkscape:pagecheckerboard="0"
     inkscape:deskcolor="#d1d1d1"
     inkscape:document-units="mm"
     inkscape:zoom="2.0460066"
     inkscape:cx="350.43875"
     inkscape:cy="158.84602"
     inkscape:window-width="1920"
     inkscape:window-height="1021"
     inkscape:window-x="1920"
     inkscape:window-y="0"
     inkscape:window-maximized="1"
     inkscape:current-layer="layer1"
     showgrid="false" />
  <defs
     id="defs1">
    <marker
       style="overflow:visible"
       id="marker4"
       refX="0"
       refY="0"
       orient="auto-start-reverse"
       inkscape:stockid="Triangle arrow"
       markerWidth="1"
       markerHeight="1"
       viewBox="0 0 1 1"
       inkscape:isstock="true"
       inkscape:collect="always"
       preserveAspectRatio="xMidYMid">
      <path
         transform="scale(0.5)"
         style="fill:context-stroke;fill-rule:evenodd;stroke:context-stroke;stroke-width:1pt"
         d="M 5.77,0 -2.88,5 V -5 Z"
         id="path4" />
    </marker>
    <inkscape:path-effect
       effect="rough_hatches"
       id="path-effect18"
       is_visible="true"
       lpeversion="1.2"
       direction="86.369041,85.476616 , 24.073822,0"
       dist_rdm="75;1"
       growth="0"
       do_bend="true"
       bender="86.369041,90.476616 , 5,0"
       bottom_edge_variation="4.9664413;1"
       top_edge_variation="4.9664413;1"
       bottom_tgt_variation="0;1"
       top_tgt_variation="0;1"
       scale_bf="1"
       scale_bb="1"
       scale_tf="1"
       scale_tb="1"
       top_smth_variation="0;1"
       bottom_smth_variation="0;1"
       fat_output="true"
       stroke_width_top="1"
       stroke_width_bottom="1"
       front_thickness="1"
       back_thickness="0.25" />
    <linearGradient
       id="swatch8"
       inkscape:swatch="solid">
      <stop
         style="stop-color:#999999;stop-opacity:1;"
         offset="0"
         id="stop8" />
    </linearGradient>
    <clipPath
       clipPathUnits="userSpaceOnUse"
       id="clipPath120">
      <rect
         style="fill:#999999;fill-opacity:1;stroke:none;stroke-width:1.0357;stroke-dasharray:none"
         id="path121"
         width="96.295288"
         height="49.664413"
         x="56.810822"
         y="52.931091"
         sodipodi:type="rect" />
    </clipPath>
    <clipPath
       clipPathUnits="userSpaceOnUse"
       id="clipPath13295">
      <g
         id="g13299">
        <path
           d="M -5.0620427e-6,1299.9999 H 1299.9998 V 2.236658e-5 H -5.0620427e-6 Z"
           id="path13297"
           style="stroke-width:0.352778" />
      </g>
    </clipPath>
  </defs>
  <g
     inkscape:label="Layer 1"
     inkscape:groupmode="layer"
     id="layer1"
     transform="translate(-25.845661,-37.361108)">
    <rect
       style="fill:#ffffff;fill-opacity:1;stroke:#4d4d4d;stroke-width:0.416501;stroke-linecap:butt;stroke-linejoin:round;stroke-dasharray:none;paint-order:normal"
       id="rect17"
       width="157.89218"
       height="85.868607"
       x="26.053911"
       y="37.569359"
       sodipodi:insensitive="true" />
    <path
       id="h2_900_2000"
       clip-path="none"
       style="fill:none;fill-opacity:1;fill-rule:nonzero;stroke:#008000;stroke-width:0.2;stroke-linecap:butt;stroke-linejoin:miter;stroke-miterlimit:2;stroke-dasharray:none;stroke-opacity:1"
       d="m 145.46782,81.515245 -0.2485,0.02949 -0.22721,0.127751 -0.191,0.169718 -0.10312,0.227204 -0.0484,0.240895 0.0298,0.2488 0.12683,0.226598 0.17063,0.191925 0.22721,0.102195 0.24059,0.04838 0.24819,-0.02949 0.22721,-0.126834 0.16728,-0.165462 0.12714,-0.232378 0.0484,-0.240589 -0.0298,-0.248493 -0.12713,-0.227211 -0.16516,-0.167286 -0.23208,-0.126834 z m -13.63267,4.286801 -0.24819,0.02949 -0.22721,0.127746 -0.19162,0.169723 -0.10281,0.227205 -0.0484,0.240588 0.0298,0.249106 0.12683,0.226598 0.17063,0.191925 0.2269,0.102501 0.2409,0.04838 0.24819,-0.02978 0.22751,-0.126834 0.16729,-0.165156 0.12653,-0.232378 0.0487,-0.240895 -0.0298,-0.248193 -0.12683,-0.227511 -0.16516,-0.167286 -0.23268,-0.126834 z m -13.61108,4.317225 -0.24819,0.02949 -0.22721,0.127746 -0.19162,0.169723 -0.1028,0.227204 -0.0484,0.240589 0.0298,0.249106 0.12683,0.226598 0.17064,0.191925 0.2269,0.102501 0.24089,0.04838 0.2482,-0.02984 0.22751,-0.12714 0.16728,-0.16485 0.12684,-0.232378 0.0484,-0.240895 -0.0295,-0.248493 -0.12714,-0.227211 -0.16516,-0.167286 -0.23267,-0.126834 z m -13.6278,4.347937 -0.2482,0.02949 -0.2272,0.127746 -0.19162,0.169723 -0.1025,0.227205 -0.0487,0.240588 0.0298,0.249106 0.12684,0.226598 0.17063,0.191925 0.22721,0.102501 0.24059,0.04838 0.24819,-0.02978 0.22751,-0.12714 0.16729,-0.164856 0.12683,-0.232372 0.0484,-0.240895 -0.0295,-0.248499 -0.12714,-0.227205 -0.16515,-0.167286 -0.23238,-0.126834 z m -13.622639,4.346424 -0.2485,0.02978 -0.226898,0.127439 -0.191619,0.169724 -0.103113,0.227204 -0.04838,0.240895 0.03014,0.2488 0.126834,0.226596 0.17063,0.19193 0.226904,0.1022 0.240589,0.0487 0.248499,-0.0298 0.227205,-0.12683 0.167592,-0.16547 0.126528,-0.232378 0.04868,-0.240589 -0.02978,-0.248493 -0.127139,-0.227211 -0.16485,-0.167286 -0.232684,-0.126834 z m -13.678597,4.377448 -0.2485,0.0295 -0.227204,0.12745 -0.191013,0.17002 -0.103113,0.22721 -0.04838,0.24089 0.02978,0.2488 0.126834,0.2266 0.170636,0.19192 0.227204,0.1022 0.240589,0.0487 0.248193,-0.0298 0.227205,-0.12683 0.167286,-0.16546 0.12714,-0.23238 0.04838,-0.24089 -0.02984,-0.24789 -0.127133,-0.22751 -0.165162,-0.16729 -0.232373,-0.12683 z" />
    <path
       id="h1_0_2000"
       clip-path="none"
       style="fill:none;fill-opacity:1;fill-rule:evenodd;stroke:#008000;stroke-width:0.2;stroke-linecap:butt;stroke-linejoin:miter;stroke-miterlimit:22.9256;stroke-dasharray:none;stroke-opacity:1"
       d="m 149.55236,77.997655 c -1.61792,0.01642 -2.91614,1.365481 -2.89954,3.013293 0.0166,1.647823 1.34184,2.970102 2.95976,2.95368 1.61792,-0.01619 2.91614,-1.365174 2.89955,-3.012992 -0.0166,-1.647817 -1.34185,-2.970402 -2.95977,-2.953981 z m -13.63267,4.286808 c -1.61792,0.01619 -2.91614,1.365168 -2.89954,3.012986 0.0166,1.648029 1.34195,2.970708 2.96006,2.954287 1.61793,-0.01642 2.91584,-1.365269 2.89924,-3.013293 -0.0168,-1.647823 -1.34164,-2.970402 -2.95976,-2.95398 z m -13.61108,4.317219 c -1.61813,0.01619 -2.91614,1.365174 -2.89954,3.012992 0.0168,1.647817 1.34164,2.970708 2.95976,2.954287 1.61792,-0.01642 2.91614,-1.365475 2.89955,-3.013299 -0.0166,-1.647811 -1.34185,-2.970402 -2.95977,-2.95398 z m -13.6278,4.347937 c -1.61793,0.01619 -2.91614,1.365174 -2.89955,3.012992 0.0168,1.647817 1.34195,2.970708 2.96008,2.954287 1.61791,-0.01642 2.91582,-1.365475 2.89923,-3.013293 -0.0166,-1.647823 -1.34164,-2.970408 -2.95976,-2.953986 z m -13.622639,4.346424 c -1.617917,0.01619 -2.916141,1.365263 -2.899543,3.013292 0.0166,1.647818 1.341644,2.970105 2.959767,2.953685 1.617924,-0.0162 2.916135,-1.365273 2.899537,-3.013302 -0.0166,-1.647606 -1.341631,-2.970096 -2.959761,-2.953675 z m -13.678603,4.377443 c -1.617917,0.01642 -2.916135,1.365474 -2.899537,3.013294 0.0166,1.64782 1.341849,2.97017 2.959761,2.95398 1.617924,-0.0164 2.916141,-1.36548 2.899543,-3.01329 -0.0166,-1.64782 -1.341849,-2.970406 -2.959767,-2.953984 z" />
    <path
       d="m 148.9087,77.305324 1.34695,7.352483"
       style="fill:none;stroke:#4d4d4d;stroke-width:0.117711;stroke-linecap:butt;stroke-linejoin:miter;stroke-miterlimit:2;stroke-dasharray:0.234632, 0.587617;stroke-dashoffset:0;stroke-opacity:1"
       id="path4140"
       clip-path="none" />
    <path
       d="m 153.25873,80.307781 -7.35249,1.346946"
       style="fill:none;stroke:#4d4d4d;stroke-width:0.117711;stroke-linecap:butt;stroke-linejoin:miter;stroke-miterlimit:2;stroke-dasharray:0.234632, 0.587617;stroke-dashoffset:0;stroke-opacity:1"
       id="path4142"
       clip-path="none" />
    <path
       d="m 135.27619,81.592025 1.34674,7.352689"
       style="fill:none;stroke:#4d4d4d;stroke-width:0.117711;stroke-linecap:butt;stroke-linejoin:miter;stroke-miterlimit:2;stroke-dasharray:0.234632, 0.587617;stroke-dashoffset:0;stroke-opacity:1"
       id="path4148"
       clip-path="none" />
    <path
       d="m 139.62621,84.594688 -7.35269,1.34674"
       style="fill:none;stroke:#4d4d4d;stroke-width:0.117711;stroke-linecap:butt;stroke-linejoin:miter;stroke-miterlimit:2;stroke-dasharray:0.234632, 0.587617;stroke-dashoffset:0;stroke-opacity:1"
       id="path4150"
       clip-path="none" />
    <path
       d="m 121.66506,85.909244 1.34674,7.352695"
       style="fill:none;stroke:#4d4d4d;stroke-width:0.117711;stroke-linecap:butt;stroke-linejoin:miter;stroke-miterlimit:2;stroke-dasharray:0.234632, 0.587617;stroke-dashoffset:0;stroke-opacity:1"
       id="path4156"
       clip-path="none" />
    <path
       d="m 126.01509,88.911907 -7.35269,1.346746"
       style="fill:none;stroke:#4d4d4d;stroke-width:0.117711;stroke-linecap:butt;stroke-linejoin:miter;stroke-miterlimit:2;stroke-dasharray:0.234632, 0.587617;stroke-dashoffset:0;stroke-opacity:1"
       id="path4158"
       clip-path="none" />
    <path
       d="m 108.03732,90.257199 1.34675,7.352689"
       style="fill:none;stroke:#4d4d4d;stroke-width:0.117711;stroke-linecap:butt;stroke-linejoin:miter;stroke-miterlimit:2;stroke-dasharray:0.234632, 0.587617;stroke-dashoffset:0;stroke-opacity:1"
       id="path4164"
       clip-path="none" />
    <path
       d="m 112.38735,93.259862 -7.35269,1.34674"
       style="fill:none;stroke:#4d4d4d;stroke-width:0.117711;stroke-linecap:butt;stroke-linejoin:miter;stroke-miterlimit:2;stroke-dasharray:0.234632, 0.587617;stroke-dashoffset:0;stroke-opacity:1"
       id="path4166"
       clip-path="none" />
    <path
       d="m 94.414569,94.6037 1.34674,7.35248"
       style="fill:none;stroke:#4d4d4d;stroke-width:0.117711;stroke-linecap:butt;stroke-linejoin:miter;stroke-miterlimit:2;stroke-dasharray:0.234632, 0.587617;stroke-dashoffset:0;stroke-opacity:1"
       id="path4172"
       clip-path="none" />
    <path
       d="m 98.764595,97.606151 -7.352689,1.346746"
       style="fill:none;stroke:#4d4d4d;stroke-width:0.117711;stroke-linecap:butt;stroke-linejoin:miter;stroke-miterlimit:2;stroke-dasharray:0.234632, 0.587617;stroke-dashoffset:0;stroke-opacity:1"
       id="path4174"
       clip-path="none" />
    <path
       d="m 80.73596,98.981137 1.346946,7.352483"
       style="fill:none;stroke:#4d4d4d;stroke-width:0.117711;stroke-linecap:butt;stroke-linejoin:miter;stroke-miterlimit:2;stroke-dasharray:0.234632, 0.587617;stroke-dashoffset:0;stroke-opacity:1"
       id="path4180"
       clip-path="none" />
    <path
       d="m 85.086193,101.98359 -7.352689,1.34695"
       style="fill:none;stroke:#4d4d4d;stroke-width:0.117711;stroke-linecap:butt;stroke-linejoin:miter;stroke-miterlimit:2;stroke-dasharray:0.234632, 0.587617;stroke-dashoffset:0;stroke-opacity:1"
       id="path4182"
       clip-path="none" />
    <path
       d="m 72.112274,109.84457 c 1.724851,2.09259 2.547724,2.59196 6.094189,1.47029 L 175.66414,80.494024 c 2.70325,-0.855051 2.26077,-4.303929 -0.75186,-4.344006 -9.12426,-0.121259 -19.16919,-4.274864 -24.73972,-8.360153 -1.96551,-1.441219 -3.73708,-1.231507 -5.80039,0.202449 -13.37171,9.292037 -54.557164,29.674282 -64.273198,8.580483 -0.619383,-1.344669 -1.778218,-1.505381 -3.150709,-1.336988 -12.10942,2.032144 -14.722482,2.384917 -23.191022,2.471085 v 25.138336 c 12.384811,-0.12604 14.765584,2.64475 18.355033,6.99934 z"
       style="fill:none;stroke:#666666;stroke-width:0.306;stroke-linecap:butt;stroke-linejoin:round;stroke-miterlimit:22.9256;stroke-dasharray:none;stroke-opacity:1"
       id="contour-3"
       clip-path="none"
       sodipodi:nodetypes="ccccccscccc" />
    <path
       style="fill:none;stroke:#fc6f03;stroke-width:0.415079;stroke-linejoin:round;stroke-dasharray:none;stroke-opacity:1;paint-order:stroke fill markers"
       d="M 67.537919,90.555311 31.645487,90.453757"
       id="path1"
       inkscape:label="midline"
       sodipodi:nodetypes="cc" />
    <path
       style="fill:none;stroke:#ff0000;stroke-width:0.274;stroke-linejoin:round;stroke-miterlimit:4;stroke-dasharray:none;stroke-dashoffset:0;marker-end:url(#marker4)"
       d="M 144.25558,48.788482 C 112.85081,61.098139 131.8972,83.062864 131.8972,83.062864"
       id="path3"
       sodipodi:nodetypes="cc" />
    <path
       d="m 62.757339,86.493965 h -1.237206 l 0.824804,-5.850952 h 1.237206 z m 1.791364,-4.562196 h 1.05678 l -0.05155,0.57994 h 0.02578 q 0.06444,-0.03866 0.180425,-0.154651 0.128876,-0.115988 0.309302,-0.231976 0.193313,-0.115988 0.425289,-0.206201 0.244864,-0.09021 0.52839,-0.09021 0.644378,0 0.850579,0.386627 0.206201,0.386627 0.09021,1.198543 l -0.438177,3.080127 H 66.352961 L 66.7267,83.710252 q 0.06444,-0.489727 -0.01289,-0.657266 -0.07733,-0.180425 -0.347964,-0.180425 -0.128876,0 -0.257751,0.06444 -0.128876,0.05155 -0.244864,0.141764 -0.103101,0.07733 -0.206201,0.167538 -0.09021,0.07733 -0.115988,0.128876 l -0.438177,3.118789 h -1.198543 z m 5.013269,4.562196 h -1.198543 l 0.889242,-6.39223 1.224318,-0.167538 z m 3.157456,-0.902129 q 0.219088,0 0.425289,-0.128876 0.219089,-0.141763 0.347964,-0.296414 l 0.322189,-2.371311 q -0.115988,-0.01289 -0.257751,-0.01289 -0.128876,-0.01289 -0.283526,-0.01289 -0.438177,0 -0.695929,0.309302 -0.244863,0.309301 -0.360851,1.121217 -0.103101,0.799029 0.01289,1.095443 0.128876,0.296414 0.489728,0.296414 z m 1.778483,0.902129 h -1.00523 v -0.541277 q -0.257751,0.231976 -0.618603,0.451064 -0.360851,0.206201 -0.811916,0.206201 -0.283526,0 -0.541278,-0.128875 -0.244863,-0.128876 -0.399514,-0.399515 -0.154651,-0.283526 -0.206201,-0.721703 -0.05155,-0.438177 0.03866,-1.05678 0.09021,-0.683041 0.309301,-1.146993 0.219089,-0.463952 0.515503,-0.747479 0.296414,-0.296413 0.657265,-0.425289 0.360852,-0.128876 0.721704,-0.128876 0.463952,0 0.979454,0.05155 0.52839,0.05155 0.992342,0.141763 z m 3.415202,-0.57994 h -0.02578 q -0.03866,0.03866 -0.167538,0.154651 -0.115988,0.1031 -0.283526,0.231976 -0.167539,0.115988 -0.399515,0.206201 -0.231976,0.09021 -0.502614,0.09021 -0.644379,0 -0.850579,-0.386627 -0.206201,-0.399515 -0.103101,-1.211431 l 0.438177,-3.067239 h 1.211431 l -0.399515,2.770825 q -0.02577,0.257751 -0.03866,0.42529 0,0.15465 0.03866,0.244863 0.03866,0.09021 0.128876,0.141764 0.09021,0.03866 0.219089,0.03866 0.128875,0 0.257751,-0.05155 0.128875,-0.06444 0.244863,-0.141763 0.115988,-0.09021 0.206201,-0.167538 0.09021,-0.09021 0.141764,-0.128876 l 0.438177,-3.131677 h 1.198543 l -0.695929,4.935935 q -0.128875,0.90213 -0.592827,1.327419 -0.463952,0.438177 -1.366082,0.438177 -0.476839,0 -0.863466,-0.1031 -0.386627,-0.103101 -0.579941,-0.167539 l 0.231977,-0.824803 q 0.193313,0.06444 0.489727,0.128875 0.309301,0.06444 0.63149,0.06444 0.154651,0 0.283527,-0.02578 0.141763,-0.01289 0.244863,-0.103101 0.103101,-0.09021 0.180426,-0.257751 0.07733,-0.167538 0.128876,-0.451064 z"
       id="text1"
       style="font-size:9.66567px;font-family:Timmana;-inkscape-font-specification:'Timmana, Normal';fill:none;stroke:#008000;stroke-width:0.2;stroke-linecap:round;stroke-linejoin:round"
       aria-label="Inlay" />
    <path
       style="fill:none;stroke:#ff0000;stroke-width:0.274;stroke-linejoin:round;stroke-miterlimit:4;stroke-dasharray:none;stroke-dashoffset:0;marker-end:url(#marker4)"
       d="M 144.25558,48.788482 C 112.85081,61.098139 117.99645,88.878015 117.99645,88.878015"
       id="path2"
       sodipodi:nodetypes="cc" />
    <path
       style="fill:none;stroke:#ff0000;stroke-width:0.274;stroke-linejoin:round;stroke-miterlimit:4;stroke-dasharray:none;stroke-dashoffset:0;marker-end:url(#marker4)"
       d="M 144.25558,48.788482 C 112.85081,61.098139 80.703696,80.874887 80.703696,80.874887"
       id="path5"
       sodipodi:nodetypes="cc" />
    <path
       d="m 147.68164,46.207373 v 1.837162 h 0.8318 q 0.46174,0 0.7139,-0.23906 0.25216,-0.23906 0.25216,-0.681158 0,-0.438824 -0.25216,-0.677884 -0.25216,-0.23906 -0.7139,-0.23906 z m -0.66151,-0.543617 h 1.49331 q 0.82197,0 1.24115,0.373327 0.42244,0.370052 0.42244,1.087234 0,0.72373 -0.42244,1.093783 -0.41918,0.370052 -1.24115,0.370052 h -0.8318 v 1.96488 h -0.66151 z m 5.20038,1.643949 q -0.48467,0 -0.7663,0.379877 -0.28164,0.376602 -0.28164,1.034837 0,0.658235 0.27836,1.038111 0.28163,0.376602 0.76958,0.376602 0.4814,0 0.76303,-0.379876 0.28163,-0.379877 0.28163,-1.034837 0,-0.651685 -0.28163,-1.031562 -0.28163,-0.383152 -0.76303,-0.383152 z m 0,-0.510868 q 0.78595,0 1.2346,0.510868 0.44865,0.510869 0.44865,1.414714 0,0.90057 -0.44865,1.414713 -0.44865,0.510869 -1.2346,0.510869 -0.78923,0 -1.23787,-0.510869 -0.44538,-0.514143 -0.44538,-1.414713 0,-0.903845 0.44538,-1.414714 0.44864,-0.510868 1.23787,-0.510868 z m 5.32155,0.229236 v 0.563265 q -0.25544,-0.140816 -0.51414,-0.209587 -0.25544,-0.07205 -0.51742,-0.07205 -0.58619,0 -0.9104,0.373328 -0.3242,0.370052 -0.3242,1.041386 0,0.671334 0.3242,1.044661 0.32421,0.370052 0.9104,0.370052 0.26198,0 0.51742,-0.06877 0.2587,-0.07205 0.51414,-0.212862 v 0.556716 q -0.25216,0.117892 -0.52397,0.176839 -0.26853,0.05895 -0.57309,0.05895 -0.82852,0 -1.31647,-0.520693 -0.48794,-0.520693 -0.48794,-1.404889 0,-0.897295 0.49122,-1.411439 0.49449,-0.514143 1.35249,-0.514143 0.27836,0 0.54362,0.05895 0.26525,0.05567 0.51414,0.17029 z m 1.02501,-1.56863 h 0.60584 v 3.009541 l 1.79786,-1.581728 h 0.76958 l -1.94523,1.715995 2.0271,1.951781 h -0.78595 l -1.86336,-1.791316 v 1.791316 h -0.60584 z m 6.80504,3.11106 v 0.294732 h -2.77049 q 0.0393,0.622212 0.37333,0.949692 0.33731,0.324205 0.93659,0.324205 0.34713,0 0.67134,-0.08514 0.32748,-0.08515 0.64841,-0.255435 v 0.569815 q -0.32421,0.137542 -0.66479,0.209588 -0.34057,0.07205 -0.69098,0.07205 -0.87764,0 -1.39179,-0.510869 -0.51087,-0.510868 -0.51087,-1.381965 0,-0.90057 0.48467,-1.427813 0.48795,-0.530517 1.3132,-0.530517 0.7401,0 1.1691,0.47812 0.43228,0.474846 0.43228,1.293546 z m -0.60257,-0.176839 q -0.007,-0.494495 -0.27836,-0.789227 -0.26853,-0.294732 -0.7139,-0.294732 -0.50432,0 -0.80888,0.284908 -0.30128,0.284907 -0.34713,0.802326 z m 2.18757,-2.547794 v 1.041386 h 1.24115 v 0.468297 h -1.24115 v 1.991078 q 0,0.448647 0.12117,0.576365 0.12444,0.127717 0.50104,0.127717 h 0.61894 v 0.504319 h -0.61894 q -0.69753,0 -0.96279,-0.258709 -0.26526,-0.261984 -0.26526,-0.949692 v -1.991078 h -0.4421 v -0.468297 h 0.4421 V 45.84387 Z m 4.37186,1.149455 v 0.569815 q -0.25544,-0.130992 -0.53052,-0.196488 -0.27508,-0.0655 -0.56982,-0.0655 -0.44864,0 -0.67461,0.137541 -0.22268,0.137542 -0.22268,0.412625 0,0.209587 0.16046,0.330755 0.16047,0.117893 0.64514,0.225961 l 0.20631,0.04585 q 0.64186,0.137542 0.9104,0.389701 0.2718,0.248885 0.2718,0.697533 0,0.510869 -0.40607,0.808875 -0.4028,0.298007 -1.11016,0.298007 -0.29473,0 -0.61566,-0.05895 -0.31766,-0.05567 -0.67133,-0.17029 v -0.622212 q 0.33403,0.173565 0.65823,0.261984 0.32421,0.08514 0.64186,0.08514 0.42572,0 0.65496,-0.144091 0.22924,-0.147366 0.22924,-0.412625 0,-0.24561 -0.16702,-0.376602 -0.16374,-0.130992 -0.72373,-0.25216 l -0.20959,-0.04912 q -0.55999,-0.117892 -0.80887,-0.360228 -0.24889,-0.24561 -0.24889,-0.671334 0,-0.517418 0.36678,-0.799051 0.36678,-0.281632 1.04139,-0.281632 0.33403,0 0.62876,0.04912 0.29473,0.04912 0.54362,0.147366 z"
       id="text5"
       style="font-size:6.70679px;-inkscape-font-specification:'sans-serif, Normal';fill:#ff0000;stroke-width:0.2;stroke-linecap:round;stroke-linejoin:round"
       aria-label="Pockets" />
  </g>
</svg>
