<?xml version="1.0" encoding="UTF-8" standalone="no"?>
<!-- Created with Inkscape (http://www.inkscape.org/) -->

<svg
   xmlns:dc="http://purl.org/dc/elements/1.1/"
   xmlns:cc="http://creativecommons.org/ns#"
   xmlns:rdf="http://www.w3.org/1999/02/22-rdf-syntax-ns#"
   xmlns:svg="http://www.w3.org/2000/svg"
   xmlns="http://www.w3.org/2000/svg"
   xmlns:sodipodi="http://sodipodi.sourceforge.net/DTD/sodipodi-0.dtd"
   xmlns:inkscape="http://www.inkscape.org/namespaces/inkscape"
   sodipodi:docname="example_custom_headstock-2.svg"
   height="98.199593mm"
   width="205.94521mm"
   inkscape:version="0.92.5 (0.92.5+68)"
   sodipodi:version="0.32"
   id="svg2"
   version="1.1"
   viewBox="0 0 729.72708 347.95131">
  <metadata
     id="metadata7">
    <rdf:RDF>
      <cc:Work
         rdf:about="">
        <dc:format>image/svg+xml</dc:format>
        <dc:type
           rdf:resource="http://purl.org/dc/dcmitype/StillImage" />
        <dc:title />
      </cc:Work>
    </rdf:RDF>
  </metadata>
  <defs
     id="defs5">
    <marker
       inkscape:stockid="Arrow1Lend"
       orient="auto"
       refY="0.0"
       refX="0.0"
       id="Arrow1Lend"
       style="overflow:visible;"
       inkscape:isstock="true">
      <path
         id="path838"
         d="M 0.0,0.0 L 5.0,-5.0 L -12.5,0.0 L 5.0,5.0 L 0.0,0.0 z "
         style="fill-rule:evenodd;stroke:#ff0000;stroke-width:1pt;stroke-opacity:1;fill:#ff0000;fill-opacity:1"
         transform="scale(0.8) rotate(180) translate(12.5,0)" />
    </marker>
  </defs>
  <sodipodi:namedview
     inkscape:current-layer="svg2"
     inkscape:window-y="0"
     inkscape:window-x="0"
     inkscape:cy="161.41319"
     inkscape:cx="518.4149"
     inkscape:zoom="0.95443927"
     id="base"
     pagecolor="#ffffff"
     bordercolor="#666666"
     borderopacity="1.0"
     inkscape:pageopacity="0.0"
     inkscape:pageshadow="2"
     inkscape:window-width="1920"
     inkscape:window-height="1023"
     showgrid="false"
     fit-margin-top="0"
     fit-margin-left="0"
     fit-margin-right="0"
     fit-margin-bottom="0"
     inkscape:snap-bbox="true"
     inkscape:window-maximized="1"
     inkscape:snap-global="false" />
  <path
     style="fill:none;stroke:#000000;stroke-width:0.70866138;stroke-linecap:butt;stroke-linejoin:miter;stroke-miterlimit:4;stroke-dasharray:none;stroke-opacity:1"
     d="M 41.83736,169.41399 H 206.34682"
     id="midline"
     inkscape:connector-curvature="0"
     inkscape:label="ref" />
  <path
     style="font-style:normal;font-variant:normal;font-weight:bold;font-stretch:normal;font-size:37.5px;line-height:1.25;font-family:'Hollowed Ground 5';-inkscape-font-specification:'Hollowed Ground 5, Bold';font-variant-ligatures:normal;font-variant-caps:normal;font-variant-numeric:normal;font-feature-settings:normal;text-align:start;letter-spacing:0px;word-spacing:0px;writing-mode:lr-tb;text-anchor:start;fill:none;fill-opacity:1;stroke:#000000;stroke-width:0.50109929;stroke-miterlimit:4;stroke-dasharray:none"
     d="m 296.56684,146.67995 -19.22974,4.4585 -13.17259,9.31845 6.145,0.13322 7.22169,0.15475 25.708,-9.04932 11.19874,0.24016 -36.34644,25.65903 -18.7207,4.25926 -6.14136,-0.13203 -3.46802,2.36306 31.32202,0.67115 7.22168,0.15659 19.29566,-4.38769 39.4812,-27.88852 24.81444,0.53202 6.70166,-4.72709 -74.80224,-1.60808 z"
     id="h17_0_50"
     inkscape:label="#path964"
     inkscape:connector-curvature="0" />
  <path
     style="font-style:normal;font-variant:normal;font-weight:bold;font-stretch:normal;font-size:37.5px;line-height:1.25;font-family:'Hollowed Ground 5';-inkscape-font-specification:'Hollowed Ground 5, Bold';font-variant-ligatures:normal;font-variant-caps:normal;font-variant-numeric:normal;font-feature-settings:normal;text-align:start;letter-spacing:0px;word-spacing:0px;writing-mode:lr-tb;text-anchor:start;fill:none;fill-opacity:1;stroke:#000000;stroke-width:0.50109929;stroke-miterlimit:4;stroke-dasharray:none"
     d="m 383.60419,158.14968 -18.80858,4.39738 -26.4807,18.63871 5.6433,4.92164 50.22947,1.07941 7.22901,0.15346 18.93312,-4.39359 6.52588,-4.65961 -6.26222,-0.13462 -7.229,-0.1553 -18.81592,4.39684 -23.8513,-0.51252 6.48192,-4.5933 0.0258,10e-4 7.88084,-5.66472 c 3.97346,-2.65728 7.92156,-5.55529 11.803,-8.31625 l 17.34374,0.37336 -6.52956,4.66026 -18.67308,4.27837 -5.37964,4.80624 12.0813,0.25914 28.78784,-6.61827 13.34106,-9.38283 -3.08348,-2.43406 -43.96364,-0.94544 z"
     id="h18_0_50"
     inkscape:label="#path962"
     inkscape:connector-curvature="0" />
  <path
     style="font-style:normal;font-variant:normal;font-weight:bold;font-stretch:normal;font-size:37.5px;line-height:1.25;font-family:'Hollowed Ground 5';-inkscape-font-specification:'Hollowed Ground 5, Bold';font-variant-ligatures:normal;font-variant-caps:normal;font-variant-numeric:normal;font-feature-settings:normal;text-align:start;letter-spacing:0px;word-spacing:0px;writing-mode:lr-tb;text-anchor:start;fill:none;fill-opacity:1;stroke:#000000;stroke-width:0.50109929;stroke-miterlimit:4;stroke-dasharray:none"
     d="m 470.65985,160.01964 -19.0503,4.39221 -6.70166,4.72892 17.32546,14.70457 -11.20606,-0.23885 -5.7605,-4.92485 -6.37938,-0.13786 -7.22902,-0.15529 -6.52952,4.66208 5.6433,4.92162 37.58422,0.80577 7.22168,0.15659 19.29566,-4.38586 6.52952,-4.66208 -17.68064,-14.71363 11.19872,0.24017 5.99854,4.92882 6.5039,0.14162 7.229,0.15347 6.69434,-4.72763 -6.11572,-4.93207 -37.34252,-0.80242 z"
     id="h19_0_50"
     inkscape:label="#path960"
     inkscape:connector-curvature="0" />
  <path
     style="font-style:normal;font-variant:normal;font-weight:bold;font-stretch:normal;font-size:37.5px;line-height:1.25;font-family:'Hollowed Ground 5';-inkscape-font-specification:'Hollowed Ground 5, Bold';font-variant-ligatures:normal;font-variant-caps:normal;font-variant-numeric:normal;font-feature-settings:normal;text-align:start;letter-spacing:0px;word-spacing:0px;writing-mode:lr-tb;text-anchor:start;fill:none;fill-opacity:1;stroke:#000000;stroke-width:0.50109929;stroke-miterlimit:4;stroke-dasharray:none"
     d="m 572.591,152.60724 -38.23242,8.78009 -6.69434,4.72946 12.28638,0.26341 -29.77662,20.93313 3.08716,2.42975 18.79395,0.4044 7.22168,0.15475 38.30568,-8.71056 6.81518,-4.72321 -6.5039,-0.13978 -7.229,-0.15531 -17.44264,4.00923 19.01368,-13.50992 12.52808,0.27043 6.69432,-4.72947 -12.40722,-0.26601 13.17628,-9.3191 -12.40724,-0.26599 z"
     id="h20_0_50"
     inkscape:label="#h20_0_100"
     inkscape:connector-curvature="0" />
  <path
     inkscape:connector-curvature="0"
     style="fill:none;stroke:#231f20;stroke-width:0.65283138;stroke-linecap:butt;stroke-linejoin:miter;stroke-miterlimit:4;stroke-dasharray:none;stroke-opacity:1"
     d="m 147.54055,307.75003 c 212.25688,-25.53565 544.42564,5.63176 544.42564,5.63176 0,0 -8.28861,-57.69525 14.11421,-82.95675 32.38083,-36.51393 7.4368,-58.79819 4.76437,-61.00977 2.65336,-2.19503 27.635,-24.48246 -4.76045,-61.01233 C 683.6815,83.1408 691.96998,25.44619 691.96998,25.44619 c 0,0 -332.15546,28.180293 -544.08215,4.937203 L 147.91,40.80175 v 49.75161 157.72126 49.75161 z"
     id="contour"
     inkscape:label="#path1198"
     sodipodi:nodetypes="cccccccccccc" />
  <path
     inkscape:label="#path842"
     inkscape:connector-curvature="0"
     id="h13_0_1000"
     d="m 317.84231,102.18396 a 17.716535,17.716535 0 0 1 -22.93829,10.079 17.716535,17.716535 0 0 1 -10.079,-22.93829 17.716535,17.716535 0 0 1 22.9383,-10.079 17.716535,17.716535 0 0 1 10.07899,22.93829 z"
     style="opacity:1;fill:none;fill-opacity:1;stroke:#000000;stroke-width:0.35433069;stroke-linecap:round;stroke-linejoin:bevel;stroke-miterlimit:4;stroke-dasharray:none;stroke-opacity:1;paint-order:stroke fill markers" />
  <path
     inkscape:label="#path847"
     inkscape:connector-curvature="0"
     id="h7_500_1000"
     d="m 321.14404,103.46989 a 21.259842,21.259842 0 0 1 -27.52594,12.0948 21.259842,21.259842 0 0 1 -12.09481,-27.52595 21.259842,21.259842 0 0 1 27.52595,-12.09479 21.259842,21.259842 0 0 1 12.0948,27.52594 z"
     style="opacity:1;fill:none;fill-opacity:1;stroke:#000000;stroke-width:0.35433069;stroke-linecap:round;stroke-linejoin:bevel;stroke-miterlimit:4;stroke-dasharray:none;stroke-opacity:1;paint-order:stroke fill markers" />
  <path
     inkscape:label="#path842"
     inkscape:connector-curvature="0"
     id="h5_0_1000"
     d="m 446.80893,98.83817 a 17.716535,17.716535 0 0 1 -22.93829,10.079 17.716535,17.716535 0 0 1 -10.079,-22.93829 17.716535,17.716535 0 0 1 22.93829,-10.07899 17.716535,17.716535 0 0 1 10.079,22.93828 z"
     style="opacity:1;fill:none;fill-opacity:1;stroke:#000000;stroke-width:0.35433069;stroke-linecap:round;stroke-linejoin:bevel;stroke-miterlimit:4;stroke-dasharray:none;stroke-opacity:1;paint-order:stroke fill markers" />
  <path
     inkscape:label="#path847"
     inkscape:connector-curvature="0"
     id="h10_500_1000"
     d="m 450.11066,100.1241 a 21.259842,21.259842 0 0 1 -27.52595,12.0948 21.259842,21.259842 0 0 1 -12.09479,-27.52594 21.259842,21.259842 0 0 1 27.52594,-12.0948 21.259842,21.259842 0 0 1 12.0948,27.52594 z"
     style="opacity:1;fill:none;fill-opacity:1;stroke:#000000;stroke-width:0.35433069;stroke-linecap:round;stroke-linejoin:bevel;stroke-miterlimit:4;stroke-dasharray:none;stroke-opacity:1;paint-order:stroke fill markers" />
  <path
     style="opacity:1;fill:none;fill-opacity:1;stroke:#000000;stroke-width:0.35433069;stroke-linecap:round;stroke-linejoin:bevel;stroke-miterlimit:4;stroke-dasharray:none;stroke-opacity:1;paint-order:stroke fill markers"
     d="m 573.69695,94.0452 a 17.716535,17.716535 0 0 1 -22.93827,10.07899 17.716535,17.716535 0 0 1 -10.07901,-22.93828 17.716535,17.716535 0 0 1 22.9383,-10.079 17.716535,17.716535 0 0 1 10.07898,22.93829 z"
     id="h4_0_1000"
     inkscape:connector-curvature="0"
     inkscape:label="#path842" />
  <path
     style="opacity:1;fill:none;fill-opacity:1;stroke:#000000;stroke-width:0.35433069;stroke-linecap:round;stroke-linejoin:bevel;stroke-miterlimit:4;stroke-dasharray:none;stroke-opacity:1;paint-order:stroke fill markers"
     d="m 576.99868,95.33113 a 21.259842,21.259842 0 0 1 -27.52593,12.09479 21.259842,21.259842 0 0 1 -12.09481,-27.52594 21.259842,21.259842 0 0 1 27.52596,-12.0948 21.259842,21.259842 0 0 1 12.09478,27.52595 z"
     id="h9_500_1000"
     inkscape:connector-curvature="0"
     inkscape:label="#path847" />
  <path
     inkscape:label="#path842"
     inkscape:connector-curvature="0"
     id="h3_0_1000"
     d="m 317.82008,249.5405 a 17.716535,17.716535 0 0 1 -22.93829,10.079 17.716535,17.716535 0 0 1 -10.07899,-22.93829 17.716535,17.716535 0 0 1 22.93827,-10.07899 17.716535,17.716535 0 0 1 10.07901,22.93828 z"
     style="opacity:1;fill:none;fill-opacity:1;stroke:#000000;stroke-width:0.35433069;stroke-linecap:round;stroke-linejoin:bevel;stroke-miterlimit:4;stroke-dasharray:none;stroke-opacity:1;paint-order:stroke fill markers" />
  <path
     inkscape:label="#path847"
     inkscape:connector-curvature="0"
     id="h8_500_1000"
     d="m 321.12181,250.82643 a 21.259842,21.259842 0 0 1 -27.52595,12.0948 21.259842,21.259842 0 0 1 -12.09478,-27.52595 21.259842,21.259842 0 0 1 27.52592,-12.09479 21.259842,21.259842 0 0 1 12.09481,27.52594 z"
     style="opacity:1;fill:none;fill-opacity:1;stroke:#000000;stroke-width:0.35433069;stroke-linecap:round;stroke-linejoin:bevel;stroke-miterlimit:4;stroke-dasharray:none;stroke-opacity:1;paint-order:stroke fill markers" />
  <path
     style="opacity:1;fill:none;fill-opacity:1;stroke:#000000;stroke-width:0.35433069;stroke-linecap:round;stroke-linejoin:bevel;stroke-miterlimit:4;stroke-dasharray:none;stroke-opacity:1;paint-order:stroke fill markers"
     d="m 573.75036,257.82631 a 17.716535,17.716535 0 0 1 -22.93828,10.079 17.716535,17.716535 0 0 1 -10.079,-22.93829 17.716535,17.716535 0 0 1 22.93829,-10.079 17.716535,17.716535 0 0 1 10.07899,22.93829 z"
     id="h1_00_1000"
     inkscape:connector-curvature="0"
     inkscape:label="#path842" />
  <path
     style="opacity:1;fill:none;fill-opacity:1;stroke:#000000;stroke-width:0.35433069;stroke-linecap:round;stroke-linejoin:bevel;stroke-miterlimit:4;stroke-dasharray:none;stroke-opacity:1;paint-order:stroke fill markers"
     d="m 577.05209,259.11223 a 21.259842,21.259842 0 0 1 -27.52594,12.0948 21.259842,21.259842 0 0 1 -12.0948,-27.52595 21.259842,21.259842 0 0 1 27.52595,-12.09479 21.259842,21.259842 0 0 1 12.09479,27.52594 z"
     id="h2_500_1000"
     inkscape:connector-curvature="0"
     inkscape:label="#path847" />
  <path
     style="opacity:1;fill:none;fill-opacity:1;stroke:#000000;stroke-width:0.35433069;stroke-linecap:round;stroke-linejoin:bevel;stroke-miterlimit:4;stroke-dasharray:none;stroke-opacity:1;paint-order:stroke fill markers"
     d="m 446.92856,253.13928 a 17.716535,17.716535 0 0 1 -22.93829,10.079 17.716535,17.716535 0 0 1 -10.079,-22.9383 17.716535,17.716535 0 0 1 22.93829,-10.079 17.716535,17.716535 0 0 1 10.079,22.9383 z"
     id="h6_0_1000"
     inkscape:connector-curvature="0"
     inkscape:label="#path842" />
  <path
     style="opacity:1;fill:none;fill-opacity:1;stroke:#000000;stroke-width:0.35433069;stroke-linecap:round;stroke-linejoin:bevel;stroke-miterlimit:4;stroke-dasharray:none;stroke-opacity:1;paint-order:stroke fill markers"
     d="m 450.23028,254.42521 a 21.259842,21.259842 0 0 1 -27.52594,12.09479 21.259842,21.259842 0 0 1 -12.09481,-27.52594 21.259842,21.259842 0 0 1 27.52596,-12.0948 21.259842,21.259842 0 0 1 12.09479,27.52595 z"
     id="h11_500_1000"
     inkscape:connector-curvature="0"
     inkscape:label="#path847" />
  <text
     xml:space="preserve"
     style="font-style:normal;font-weight:normal;font-size:37.5px;line-height:1.25;font-family:sans-serif;letter-spacing:0px;word-spacing:0px;fill:#ff0000;fill-opacity:1;stroke:none;stroke-width:0.93749994"
     x="231.81148"
     y="-68.52359"
     id="text831"><tspan
       sodipodi:role="line"
       id="tspan829"
       x="231.81148"
       y="-68.52359"
       style="font-size:14.99999905px;fill:#ff0000;stroke-width:0.93749994">Leave some material here to be removed by the Transition Algorithm</tspan></text>
  <path
     style="fill:none;stroke:#ff0000;stroke-width:0.93749994px;stroke-linecap:butt;stroke-linejoin:miter;stroke-opacity:1;marker-end:url(#Arrow1Lend)"
     d="m 234.75825,-56.736561 c 14.58073,58.2603185 -30.4775,19.83627 -36.34333,82.509175"
     id="path833"
     inkscape:connector-curvature="0"
     sodipodi:nodetypes="cc" />
</svg>
