<?xml version="1.0" encoding="UTF-8" standalone="no"?>
<!-- Created with Inkscape (http://www.inkscape.org/) -->

<svg
   xmlns:dc="http://purl.org/dc/elements/1.1/"
   xmlns:cc="http://creativecommons.org/ns#"
   xmlns:rdf="http://www.w3.org/1999/02/22-rdf-syntax-ns#"
   xmlns:svg="http://www.w3.org/2000/svg"
   xmlns="http://www.w3.org/2000/svg"
   xmlns:sodipodi="http://sodipodi.sourceforge.net/DTD/sodipodi-0.dtd"
   xmlns:inkscape="http://www.inkscape.org/namespaces/inkscape"
   width="84.609779mm"
   height="52.909527mm"
   viewBox="0 0 84.609779 52.909527"
   version="1.1"
   id="svg8"
   inkscape:version="0.92.5 (0.92.5+68)"
   sodipodi:docname="example-fret-inlays.svg">
  <defs
     id="defs2" />
  <sodipodi:namedview
     id="base"
     pagecolor="#ffffff"
     bordercolor="#666666"
     borderopacity="1.0"
     inkscape:pageopacity="0.0"
     inkscape:pageshadow="2"
     inkscape:zoom="2.4439251"
     inkscape:cx="208.23909"
     inkscape:cy="49.618809"
     inkscape:document-units="mm"
     inkscape:current-layer="layer1"
     showgrid="false"
     inkscape:window-width="1920"
     inkscape:window-height="1023"
     inkscape:window-x="0"
     inkscape:window-y="0"
     inkscape:window-maximized="1"
     fit-margin-top="10"
     fit-margin-left="10"
     fit-margin-right="10"
     fit-margin-bottom="10" />
  <metadata
     id="metadata5">
    <rdf:RDF>
      <cc:Work
         rdf:about="">
        <dc:format>image/svg+xml</dc:format>
        <dc:type
           rdf:resource="http://purl.org/dc/dcmitype/StillImage" />
        <dc:title></dc:title>
      </cc:Work>
    </rdf:RDF>
  </metadata>
  <g
     inkscape:label="Layer 1"
     inkscape:groupmode="layer"
     id="layer1"
     transform="translate(8.0749915,9.1416004)">
    <rect
       style="opacity:1;fill:#ffffff;fill-opacity:1;stroke:none;stroke-width:0.09999999;stroke-linecap:round;stroke-linejoin:bevel;stroke-miterlimit:4;stroke-dasharray:none;stroke-dashoffset:0;stroke-opacity:1;paint-order:stroke fill markers"
       id="rect817"
       width="64.609779"
       height="36.915207"
       x="1.9250085"
       y="-3.1472809" />
    <path
       id="f12_"
       style="fill:none;stroke:#000000;stroke-width:0.11132052;stroke-miterlimit:4;stroke-dasharray:none"
       d="m 22.368023,14.895175 c -0.297083,-0.201657 -0.404668,-0.283611 -0.416394,-0.317186 -0.01354,-0.03874 -0.001,-0.07481 0.08686,-0.251005 0.163136,-0.326904 0.220856,-0.565397 0.221071,-0.913452 1.89e-4,-0.327605 -0.06774,-0.57772 -0.236676,-0.871305 -0.365965,-0.635986 -0.876917,-1.067776 -1.673939,-1.414584 -0.116738,-0.05076 -0.250399,-0.09741 -0.297025,-0.103639 l -0.08477,-0.01124 1.26e-4,0.09841 c 1.91e-4,0.154023 0.02854,0.362894 0.06726,0.495677 0.01948,0.06679 0.114658,0.38754 0.211514,0.712763 0.131826,0.442655 0.173556,0.60486 0.165983,0.645225 -0.0081,0.04353 -0.07227,0.110541 -0.332086,0.347119 -0.435764,0.396813 -0.464115,0.421716 -0.471576,0.414202 -0.0036,-0.0033 -0.05192,-0.09318 -0.107458,-0.198964 -0.438268,-0.835249 -0.701377,-2.0084 -0.666158,-2.970265 0.01308,-0.357149 0.05795,-0.7767943 0.08811,-0.8238717 0.03424,-0.053434 0.09087,-0.062005 0.2671,-0.040409 0.722579,0.088834 1.466863,0.3109397 2.03147,0.6063287 0.927472,0.485235 1.6964,1.347658 1.990478,2.2325 0.115142,0.346452 0.14089,0.505228 0.142468,0.87853 0.0016,0.357762 -0.01013,0.450325 -0.100277,0.799215 -0.115593,0.447197 -0.359205,0.957846 -0.45696,0.957846 -0.0157,0 -0.208792,-0.122375 -0.429113,-0.271934 z m -6.42107,0.286038 C 15.57416,14.852717 15.381884,14.6723 15.379418,14.648667 c -0.0072,-0.0698 0.02106,-0.10876 0.242571,-0.334274 0.405813,-0.413065 0.65414,-0.755198 0.881091,-1.213916 0.211039,-0.426569 0.290647,-0.67064 0.468603,-1.436692 0.07784,-0.335041 0.100512,-0.462447 0.100512,-0.564762 0,-0.07269 -0.0042,-0.132115 -0.0094,-0.132115 -0.02283,0 -0.718473,0.324744 -0.845428,0.394675 -0.399781,0.220204 -0.740163,0.511563 -0.989761,0.847227 -0.04744,0.06379 -0.107035,0.12675 -0.132417,0.139875 -0.03735,0.01926 -0.156417,0.02382 -0.624301,0.02382 -0.317983,0 -0.57815,-0.0056 -0.57815,-0.01325 0,-0.0078 0.01138,-0.05689 0.02527,-0.110207 0.246635,-0.946892 1.887478,-2.172298 3.338232,-2.4930454 0.249134,-0.055104 0.524809,-0.083824 0.699638,-0.073026 0.07648,0.00445 0.142235,0.0118 0.146123,0.015696 0.0039,0.00334 0.02195,0.09696 0.04014,0.2067779 0.140836,0.8504105 0.04118,1.8719105 -0.275809,2.8269285 -0.232003,0.698993 -0.653489,1.450829 -1.132436,2.020033 -0.18549,0.220437 -0.450823,0.500475 -0.506183,0.534239 -0.08494,0.05176 -0.115363,0.04041 -0.280785,-0.105421 z m 2.821109,0.778665 c 0.0051,-0.01726 0.02447,-0.09162 0.04296,-0.165256 0.130108,-0.51803 0.353359,-1.059827 0.599898,-1.455838 0.320575,-0.514947 0.783002,-0.991053 1.258294,-1.295504 0.262998,-0.168472 0.962162,-0.469928 1.089891,-0.469928 0.116603,0 0.169299,0.08761 0.261804,0.435085 0.05481,0.205898 0.06345,0.502456 0.01671,0.57379 -0.03472,0.05299 -0.13181,0.103974 -0.466535,0.244972 -0.362385,0.152654 -0.644747,0.355035 -0.902195,0.646672 -0.145658,0.165 -0.187502,0.235154 -0.450115,0.754664 -0.131063,0.259277 -0.255201,0.487295 -0.275858,0.506698 -0.0231,0.02171 -0.11102,0.05444 -0.228391,0.08494 -0.104953,0.02739 -0.258601,0.06891 -0.341434,0.09251 -0.119222,0.03384 -0.194192,0.04353 -0.359777,0.04664 -0.115046,0.0022 -0.219393,0.01002 -0.231884,0.01792 -0.0169,0.01002 -0.02033,0.0056 -0.01337,-0.01737 z m 5.842735,1.047003 c -0.604946,-0.06067 -1.236119,-0.210942 -1.77379,-0.422284 -0.285848,-0.112367 -0.801945,-0.374026 -1.057113,-0.535952 -0.379833,-0.241043 -0.810556,-0.585223 -1.100719,-0.879566 -0.193048,-0.195824 -0.198794,-0.173883 0.149214,-0.569794 0.155236,-0.17661 0.304393,-0.332559 0.331459,-0.346552 0.02732,-0.01414 0.0668,-0.02104 0.08876,-0.01547 0.02175,0.0056 0.120717,0.0826 0.219923,0.171412 0.530383,0.474871 1.039641,0.817682 1.572099,1.058302 0.450662,0.203649 0.864145,0.320091 1.427929,0.402134 0.45274,0.0659 0.436564,0.07859 0.308095,-0.242278 -0.191371,-0.477999 -0.376833,-0.796999 -0.658981,-1.133454 -0.138324,-0.164944 -0.317756,-0.333795 -0.48964,-0.460778 -0.06248,-0.0462 -0.09939,-0.08739 -0.111009,-0.1241 -0.01901,-0.06 -0.0453,-0.437134 -0.0632,-0.906828 l -0.01142,-0.299653 0.05181,0.01002 c 0.07419,0.0148 0.342547,0.143002 0.528139,0.25223 0.815585,0.479992 1.538436,1.441768 1.884767,2.507728 0.08832,0.271845 0.145465,0.522561 0.217259,0.953249 0.07442,0.446462 0.07378,0.478411 -0.01035,0.512798 -0.02608,0.01113 -0.126493,0.03139 -0.223131,0.04597 -0.207317,0.03139 -1.044626,0.0462 -1.28014,0.02249 z m -13.161187,0.0067 c -0.10856,-0.01002 -0.466968,-0.05521 -0.533635,-0.06735 l -0.05672,-0.01002 0.0095,-0.202692 c 0.0052,-0.111477 0.02921,-0.308113 0.05338,-0.436956 0.195247,-1.040947 0.562475,-1.836421 1.1793,-2.554538 0.445061,-0.518153 0.984525,-0.88708 1.585154,-1.084051 0.792883,-0.260033 1.553964,-0.202358 2.326728,0.176321 0.245714,0.120415 0.322654,0.175474 0.322654,0.230912 0,0.02048 -0.09761,0.182098 -0.216889,0.359254 -0.366349,0.544045 -0.336105,0.524564 -0.611393,0.393807 -0.529691,-0.251607 -1.049956,-0.272947 -1.589761,-0.06523 -0.508253,0.195613 -0.998675,0.643399 -1.349832,1.232474 -0.175604,0.294577 -0.352203,0.692892 -0.375202,0.846259 l -0.0113,0.07536 0.140245,-0.01158 c 0.520946,-0.04297 1.04718,-0.173058 1.587724,-0.392594 0.115046,-0.04675 0.213479,-0.08494 0.218742,-0.08494 0.01024,-2.2e-5 0.706382,0.733513 0.756781,0.797433 l 0.03006,0.03807 -0.150439,0.07559 c -0.655407,0.329164 -1.408834,0.561022 -2.126918,0.654532 -0.200883,0.02616 -1.008874,0.04664 -1.188105,0.03017 z m 5.509159,0.04353 c -0.209704,-0.04731 -1.053013,-0.404383 -1.350067,-0.571597 -0.827753,-0.465932 -1.41586,-1.120119 -1.723804,-1.917485 -0.0725,-0.187731 -0.142748,-0.427805 -0.142748,-0.487862 0,-0.06791 0.05811,-0.110319 0.230445,-0.168027 0.179492,-0.06011 0.660594,-0.145764 0.725454,-0.129155 0.07969,0.02037 0.1148,0.06679 0.16689,0.220827 0.111187,0.328685 0.292351,0.649177 0.506068,0.895262 0.293217,0.337635 0.749158,0.648442 1.264797,0.862166 0.08555,0.03551 0.185486,0.08616 0.222072,0.112656 0.131851,0.09551 0.198907,0.320971 0.265001,0.890988 0.01813,0.156449 0.03298,0.293875 0.03298,0.305385 0,0.02683 -0.0281,0.02505 -0.19709,-0.01314 z m 1.69206,0.185338 c -0.01991,-0.0089 -0.04048,-0.02883 -0.04573,-0.04553 -0.01035,-0.03306 -0.07673,-0.877997 -0.07695,-0.980022 l -1.27e-4,-0.06278 h 0.121988 c 0.126834,0 0.689574,-0.07893 0.965714,-0.135521 0.251579,-0.05154 0.418466,-0.108204 0.79433,-0.269919 0.192985,-0.08305 0.377844,-0.154557 0.410799,-0.158977 0.05458,-0.0078 0.07848,0.0056 0.26827,0.147099 0.233125,0.173571 0.63198,0.47879 0.664873,0.508779 0.0423,0.03852 -0.344564,0.282866 -0.755583,0.477131 -0.544642,0.257418 -1.139619,0.427738 -1.717367,0.491614 -0.307832,0.03406 -0.586548,0.04642 -0.630231,0.02816 z m -1.291451,0.08572 c -0.02597,-0.02594 -0.03244,-0.06958 -0.04154,-0.280294 -0.02696,-0.62365 -0.194953,-1.247268 -0.498709,-1.851326 -0.06395,-0.127173 -0.06461,-0.220749 -0.0021,-0.302636 0.02531,-0.03317 0.169522,-0.222552 0.320473,-0.420837 0.150949,-0.198284 0.27996,-0.360522 0.286689,-0.360522 0.02445,0 0.151533,0.140119 0.218009,0.240363 0.401041,0.604715 0.832177,2.145647 0.776668,2.775922 l -0.01142,0.129688 -0.06102,6.01e-4 c -0.188797,0.0022 -0.743818,0.05154 -0.822401,0.07358 -0.117229,0.03284 -0.127483,0.03262 -0.164625,-0.0045 z m -1.24206,1.741343 c -0.03207,-0.01636 -0.110853,-0.07147 -0.17506,-0.122542 -0.180511,-0.143525 -0.599927,-0.443968 -0.669794,-0.479814 l -0.06267,-0.03217 0.224195,-0.137871 c 0.847367,-0.521069 1.754125,-0.798034 2.820706,-0.861565 l 0.153365,-0.0089 0.0094,0.06245 c 0.04131,0.276687 0.11183,0.934046 0.103684,0.966507 -0.01578,0.0629 -0.06038,0.07581 -0.318969,0.09217 -0.370049,0.02349 -0.660234,0.07069 -0.979299,0.159377 -0.29422,0.08182 -0.716388,0.244672 -0.860809,0.332114 -0.111608,0.06757 -0.160043,0.07358 -0.244667,0.0305 z m 3.259239,1.205078 c -0.299384,-0.551827 -0.392416,-0.763114 -0.532039,-1.208295 -0.08102,-0.258309 -0.141921,-0.526981 -0.18399,-0.811583 -0.03553,-0.240407 -0.06032,-0.680368 -0.04236,-0.751936 0.01586,-0.06323 0.08512,-0.08716 0.286376,-0.0993 0.09204,-0.0056 0.284058,-0.02293 0.426714,-0.03863 0.142656,-0.0157 0.279498,-0.02349 0.304093,-0.01725 0.06021,0.01514 0.07545,0.07214 0.08814,0.32923 0.02956,0.599083 0.17562,1.171025 0.426952,1.671856 0.09869,0.196637 0.120755,0.307156 0.08056,0.403359 -0.01345,0.03217 -0.07917,0.126271 -0.146049,0.209049 -0.06687,0.08282 -0.207772,0.269117 -0.313106,0.414068 -0.105331,0.144961 -0.192965,0.263473 -0.194734,0.263351 -0.0018,-1.12e-4 -0.09202,-0.163898 -0.200563,-0.363963 z m 2.905143,0.63177 c -0.04692,-0.01892 -0.05823,-0.0413 -0.131262,-0.259543 -0.173712,-0.519199 -0.47405,-0.918896 -0.960627,-1.278405 -0.259263,-0.191561 -0.677938,-0.424521 -0.854517,-0.475461 -0.136839,-0.03952 -0.224614,-0.112111 -0.290307,-0.240208 -0.0275,-0.05366 -0.178241,-0.891399 -0.178241,-0.990597 0,-0.03284 0.01002,-0.05711 0.02607,-0.06334 0.08192,-0.03139 0.72767,0.183412 1.139555,0.379147 0.946441,0.449746 1.675067,1.153347 2.048168,1.977842 0.101369,0.224011 0.201567,0.527537 0.205178,0.621559 0.0046,0.117988 -0.03531,0.145763 -0.301125,0.209883 -0.235724,0.05689 -0.618365,0.136546 -0.647716,0.134865 -0.01024,-5.79e-4 -0.03507,-0.0078 -0.05517,-0.01581 z m -8.991364,0.960374 c -0.681667,-0.35538 -1.206317,-0.835116 -1.609445,-1.47168 -0.370223,-0.5846 -0.56406,-1.123424 -0.759122,-2.110169 -0.09328,-0.471855 -0.0939,-0.496 -0.01378,-0.538146 0.117169,-0.06167 0.973283,-0.105866 1.386683,-0.07158 1.475277,0.122285 2.717058,0.645369 3.806954,1.603628 0.341137,0.29993 0.403685,0.379102 0.378564,0.47919 -0.01218,0.04854 -0.578815,0.678309 -0.638397,0.709535 -0.02413,0.01269 -0.05858,0.01737 -0.07903,0.01113 -0.01993,-0.0067 -0.142368,-0.114037 -0.272086,-0.239362 -0.129717,-0.125324 -0.316646,-0.29186 -0.415396,-0.370096 -0.524427,-0.415448 -1.199422,-0.749566 -1.810054,-0.895963 -0.182813,-0.04386 -0.943112,-0.175163 -1.011637,-0.174751 -0.09343,5.68e-4 -0.09275,0.0128 0.01587,0.285893 0.271695,0.682996 0.645633,1.203453 1.110291,1.545318 0.157167,0.11564 0.179301,0.156539 0.157289,0.29068 -0.02154,0.131292 -0.0037,0.664027 0.02869,0.854508 0.02691,0.158476 0.02328,0.219914 -0.01297,0.219045 -0.01091,-2.56e-4 -0.128978,-0.05744 -0.26243,-0.126972 z m 1.911101,0.24378 c -0.02112,-0.0089 -0.04962,-0.0423 -0.06333,-0.07503 -0.03095,-0.07403 -0.193956,-0.79966 -0.196124,-0.872986 -0.0024,-0.08316 0.04165,-0.114727 0.253491,-0.181319 0.648487,-0.203828 1.100077,-0.600285 1.552725,-1.363153 0.125453,-0.211431 0.160952,-0.286395 0.233027,-0.492037 0.03375,-0.09629 0.122783,-0.200922 0.206958,-0.243191 0.07816,-0.0393 0.148623,-0.05432 0.635221,-0.135878 0.502681,-0.08427 0.47725,-0.09373 0.412045,0.154124 -0.09993,0.379925 -0.196556,0.637521 -0.385055,1.026553 -0.406286,0.838533 -1.05239,1.528186 -1.740404,1.857728 -0.177457,0.08505 -0.819416,0.343257 -0.84942,0.34172 -0.01141,-5.67e-4 -0.03802,-0.0078 -0.05913,-0.01647 z m 6.790242,0.04253 c -0.31894,-0.04353 -0.64737,-0.145786 -1.002453,-0.312009 -0.210826,-0.09874 -0.285787,-0.152465 -0.285787,-0.204975 0,-0.02115 0.04053,-0.105532 0.09008,-0.187408 0.09194,-0.152008 0.393116,-0.593817 0.4409,-0.646772 0.03988,-0.04419 0.104697,-0.03562 0.228976,0.03039 0.598113,0.317409 1.245179,0.322496 1.847368,0.01458 0.460864,-0.235687 0.905285,-0.687827 1.20409,-1.224982 0.144378,-0.259555 0.302042,-0.624241 0.320585,-0.741539 l 0.01368,-0.0865 -0.211196,0.0089 c -0.230069,0.01002 -0.209822,0.0045 -1.24655,0.312088 -0.22285,0.06612 -0.431107,0.118523 -0.471025,0.118523 -0.06965,0 -0.07622,-0.0056 -0.246441,-0.188255 -0.09618,-0.103528 -0.258843,-0.281785 -0.361462,-0.3961 l -0.186578,-0.207858 0.0711,-0.04063 c 0.58749,-0.335999 1.401113,-0.591791 2.229764,-0.700996 0.31934,-0.04208 1.103473,-0.04197 1.421498,2e-4 0.279111,0.03696 0.299205,0.04375 0.326155,0.10876 0.01744,0.04208 0.01498,0.09184 -0.01475,0.298439 -0.103717,0.720778 -0.242889,1.200369 -0.504141,1.737224 -0.458143,0.941449 -1.067556,1.597471 -1.850943,1.992492 -0.545088,0.274851 -1.235768,0.395511 -1.812865,0.316685 z m -3.004782,2.845809 c -0.02892,-0.01236 -0.06015,-0.04308 -0.07119,-0.07002 -0.0539,-0.131603 -0.09148,-0.791589 -0.06936,-1.218002 0.07673,-1.479072 0.594976,-2.782078 1.54463,-3.88365 0.157125,-0.182265 0.366394,-0.393207 0.416223,-0.419556 0.06027,-0.03184 0.130592,-0.03017 0.181181,0.0045 0.03618,0.02471 0.574373,0.497424 0.68449,0.601242 l 0.0407,0.0384 -0.191522,0.197383 c -0.887133,0.914275 -1.380992,1.904371 -1.528613,3.064587 -0.03297,0.259187 -0.03313,0.327549 -7.97e-4,0.354377 0.02114,0.01759 0.06891,0.0033 0.280292,-0.0836 0.676531,-0.278212 1.116255,-0.58598 1.470872,-1.029481 0.07359,-0.09206 0.153883,-0.180473 0.178426,-0.196537 0.03896,-0.02549 0.09237,-0.02939 0.421135,-0.03028 0.269892,-7.9e-4 0.435745,-0.01002 0.585686,-0.03139 0.19912,-0.02883 0.251008,-0.02549 0.251008,0.01603 0,0.01815 -0.286252,0.510983 -0.398143,0.685534 -0.191079,0.298094 -0.575168,0.709223 -0.887845,0.950354 -0.219226,0.169063 -0.41307,0.286205 -0.780645,0.471777 -0.383803,0.193764 -0.570216,0.258542 -1.0626,0.369216 -0.207082,0.04653 -0.504527,0.114538 -0.660988,0.151085 -0.156462,0.03651 -0.299536,0.06958 -0.317943,0.07336 -0.01841,0.0033 -0.05665,-0.0033 -0.08499,-0.01514 z m -1.14495,-0.0045 c -1.298421,-0.164109 -2.34471,-0.643043 -3.137406,-1.436146 -0.3278,-0.327962 -0.543357,-0.623707 -0.719403,-0.987012 -0.220145,-0.454299 -0.308916,-0.840671 -0.309596,-1.347513 -5.7e-4,-0.421259 0.03615,-0.613209 0.190035,-0.993714 0.04872,-0.120471 0.124725,-0.311274 0.168878,-0.423997 0.04415,-0.112712 0.09858,-0.22469 0.120963,-0.248835 0.07574,-0.08171 0.123834,-0.05733 0.685674,0.348455 0.265105,0.191449 0.268023,0.198719 0.16686,0.416027 -0.27106,0.582262 -0.29376,1.102452 -0.07186,1.646743 0.190694,0.467735 0.612543,0.944053 1.116171,1.26027 0.297278,0.186662 0.778463,0.410361 0.940437,0.4372 l 0.07948,0.01314 -1.27e-4,-0.07703 c -7.03e-4,-0.393072 -0.182258,-1.152211 -0.395566,-1.654 -0.04006,-0.09429 -0.07285,-0.189434 -0.07285,-0.211531 0,-0.03028 0.06904,-0.105309 0.280292,-0.304673 0.154161,-0.145474 0.325474,-0.307412 0.380696,-0.359855 0.157689,-0.14977 0.158781,-0.149503 0.260353,0.06345 0.34273,0.718518 0.536804,1.349884 0.625341,2.034382 0.03814,0.294833 0.06483,0.785177 0.05307,0.974411 -0.01797,0.288665 -0.08021,0.784932 -0.103093,0.821902 -0.031,0.05009 -0.06021,0.05332 -0.258348,0.02828 z"
       inkscape:label="#path835"
       inkscape:connector-curvature="0" />
    <path
       style="opacity:1;fill:none;fill-opacity:1;stroke:#000000;stroke-width:0.1;stroke-linecap:round;stroke-linejoin:bevel;stroke-miterlimit:4;stroke-dasharray:none;stroke-dashoffset:0;stroke-opacity:1;paint-order:stroke fill markers"
       d="m 57.091358,17.347866 a 2.9464993,2.9604638 0 0 1 -2.9465,2.96046 2.9464993,2.9604638 0 0 1 -2.946499,-2.96046 2.9464993,2.9604638 0 0 1 2.946499,-2.96046 2.9464993,2.9604638 0 0 1 2.9465,2.96046 z"
       id="f3_"
       inkscape:label="#path836"
       inkscape:connector-curvature="0" />
    <path
       inkscape:connector-curvature="0"
       inkscape:label="#path836"
       id="f5_"
       d="m 47.586622,17.347866 c -2e-6,1.63502 -1.319195,2.96046 -2.9465,2.96046 -1.627305,0 -0.18443,-1.374171 -0.184432,-3.009191 2e-6,-1.63502 -1.491604,-2.765536 0.135701,-2.765536 1.627305,0 2.995232,1.179247 2.995231,2.814267 z"
       style="opacity:1;fill:none;fill-opacity:1;stroke:#000000;stroke-width:0.1;stroke-linecap:round;stroke-linejoin:bevel;stroke-miterlimit:4;stroke-dasharray:none;stroke-dashoffset:0;stroke-opacity:1;paint-order:stroke fill markers"
       sodipodi:nodetypes="cscsc" />
    <path
       style="opacity:1;fill:none;fill-opacity:1;stroke:#000000;stroke-width:0.1;stroke-linecap:round;stroke-linejoin:bevel;stroke-miterlimit:4;stroke-dasharray:none;stroke-dashoffset:0;stroke-opacity:1;paint-order:stroke fill markers"
       d="m 39.75176,17.347866 c -2e-6,1.63502 -1.319195,2.96046 -2.9465,2.96046 -1.627305,0 0.01397,-1.3813 0.01397,-3.01632 2e-6,-1.63502 -1.64127,-2.9046 -0.01397,-2.9046 1.627305,0 2.946498,1.32544 2.9465,2.96046 z"
       id="f7_"
       inkscape:label="#path836"
       inkscape:connector-curvature="0"
       sodipodi:nodetypes="cscsc" />
    <path
       inkscape:connector-curvature="0"
       inkscape:label="#path836"
       id="f9_"
       d="m 32.129346,17.347866 c -2e-6,1.63502 -1.319195,2.96046 -2.9465,2.96046 -1.627305,0 0.349114,-1.3813 0.349112,-3.01632 2e-6,-1.63502 -1.976417,-2.9046 -0.349112,-2.9046 1.627305,0 2.946498,1.32544 2.9465,2.96046 z"
       style="opacity:1;fill:none;fill-opacity:1;stroke:#000000;stroke-width:0.1;stroke-linecap:round;stroke-linejoin:bevel;stroke-miterlimit:4;stroke-dasharray:none;stroke-dashoffset:0;stroke-opacity:1;paint-order:stroke fill markers"
       sodipodi:nodetypes="cscsc" />
    <text
       xml:space="preserve"
       style="font-style:normal;font-variant:normal;font-weight:normal;font-stretch:normal;font-size:4.93888903px;line-height:1.25;font-family:sans-serif;-inkscape-font-specification:'sans-serif, Normal';font-variant-ligatures:normal;font-variant-caps:normal;font-variant-numeric:normal;font-feature-settings:normal;text-align:start;letter-spacing:0px;word-spacing:0px;writing-mode:lr-tb;text-anchor:start;fill:#000000;fill-opacity:1;stroke:none;stroke-width:0.26458332"
       x="9.1578159"
       y="5.4344616"
       id="text820"><tspan
         sodipodi:role="line"
         id="tspan818"
         x="9.1578159"
         y="5.4344616"
         style="font-style:normal;font-variant:normal;font-weight:normal;font-stretch:normal;font-size:4.93888903px;font-family:sans-serif;-inkscape-font-specification:'sans-serif, Normal';font-variant-ligatures:normal;font-variant-caps:normal;font-variant-numeric:normal;font-feature-settings:normal;text-align:start;writing-mode:lr-tb;text-anchor:start;stroke-width:0.26458332">Example Fret Inlays</tspan></text>
  </g>
</svg>
