<?xml version="1.0" encoding="UTF-8" standalone="no"?>
<svg
   width="598.92438mm"
   height="469.80777mm"
   viewBox="0 0 2263.6512 1775.6515"
   version="1.1"
   id="svg38"
   sodipodi:docname="example_custom_body.svg"
   inkscape:version="1.3.2 (091e20e, 2023-11-25)"
   xmlns:inkscape="http://www.inkscape.org/namespaces/inkscape"
   xmlns:sodipodi="http://sodipodi.sourceforge.net/DTD/sodipodi-0.dtd"
   xmlns="http://www.w3.org/2000/svg"
   xmlns:svg="http://www.w3.org/2000/svg"
   xmlns:rdf="http://www.w3.org/1999/02/22-rdf-syntax-ns#"
   xmlns:cc="http://creativecommons.org/ns#"
   xmlns:dc="http://purl.org/dc/elements/1.1/">
  <metadata
     id="metadata44">
    <rdf:RDF>
      <cc:Work
         rdf:about="">
        <dc:format>image/svg+xml</dc:format>
        <dc:type
           rdf:resource="http://purl.org/dc/dcmitype/StillImage" />
      </cc:Work>
    </rdf:RDF>
  </metadata>
  <defs
     id="defs42">
    <marker
       style="overflow:visible"
       id="ConcaveTriangle"
       refX="0"
       refY="0"
       orient="auto-start-reverse"
       inkscape:stockid="Concave triangle arrow"
       markerWidth="1"
       markerHeight="1"
       viewBox="0 0 1 1"
       inkscape:isstock="true"
       inkscape:collect="always"
       preserveAspectRatio="xMidYMid">
      <path
         transform="scale(0.7)"
         d="M -2,-4 9,0 -2,4 c 2,-2.33 2,-5.66 0,-8 z"
         style="fill:context-stroke;fill-rule:evenodd;stroke:none"
         id="path7" />
    </marker>
    <marker
       inkscape:isstock="true"
       style="overflow:visible"
       id="marker4433"
       refX="0"
       refY="0"
       orient="auto"
       inkscape:stockid="Arrow1Lend">
      <path
         transform="matrix(-0.8,0,0,-0.8,-10,0)"
         style="fill:#008000;fill-opacity:1;fill-rule:evenodd;stroke:#008000;stroke-width:1pt;stroke-opacity:1"
         d="M 0,0 5,-5 -12.5,0 5,5 Z"
         id="path4431"
         inkscape:connector-curvature="0" />
    </marker>
    <marker
       inkscape:stockid="Arrow1Lend"
       orient="auto"
       refY="0"
       refX="0"
       id="marker2245"
       style="overflow:visible"
       inkscape:isstock="true"
       inkscape:collect="always">
      <path
         inkscape:connector-curvature="0"
         id="path2243"
         d="M 0,0 5,-5 -12.5,0 5,5 Z"
         style="fill:#ff0000;fill-opacity:1;fill-rule:evenodd;stroke:#ff0000;stroke-width:1pt;stroke-opacity:1"
         transform="matrix(-0.8,0,0,-0.8,-10,0)" />
    </marker>
    <marker
       inkscape:isstock="true"
       style="overflow:visible"
       id="marker2193"
       refX="0"
       refY="0"
       orient="auto"
       inkscape:stockid="Arrow1Lend"
       inkscape:collect="always">
      <path
         transform="matrix(-0.8,0,0,-0.8,-10,0)"
         style="fill:#ff6600;fill-opacity:1;fill-rule:evenodd;stroke:#ff6600;stroke-width:1pt;stroke-opacity:1"
         d="M 0,0 5,-5 -12.5,0 5,5 Z"
         id="path2191"
         inkscape:connector-curvature="0" />
    </marker>
    <marker
       inkscape:stockid="Arrow1Lend"
       orient="auto"
       refY="0"
       refX="0"
       id="marker2147"
       style="overflow:visible"
       inkscape:isstock="true"
       inkscape:collect="always">
      <path
         inkscape:connector-curvature="0"
         id="path2145"
         d="M 0,0 5,-5 -12.5,0 5,5 Z"
         style="fill:#ff6600;fill-opacity:1;fill-rule:evenodd;stroke:#ff6600;stroke-width:1pt;stroke-opacity:1"
         transform="matrix(-0.8,0,0,-0.8,-10,0)" />
    </marker>
    <marker
       inkscape:stockid="Arrow1Lend"
       orient="auto"
       refY="0"
       refX="0"
       id="Arrow1Lend"
       style="overflow:visible"
       inkscape:isstock="true"
       inkscape:collect="always">
      <path
         id="path855"
         d="M 0,0 5,-5 -12.5,0 5,5 Z"
         style="fill:#000000;fill-opacity:1;fill-rule:evenodd;stroke:#000000;stroke-width:1pt;stroke-opacity:1"
         transform="matrix(-0.8,0,0,-0.8,-10,0)"
         inkscape:connector-curvature="0" />
    </marker>
    <marker
       inkscape:isstock="true"
       style="overflow:visible"
       id="marker5376"
       refX="0"
       refY="0"
       orient="auto"
       inkscape:stockid="Arrow1Lend"
       inkscape:collect="always">
      <path
         transform="matrix(-0.8,0,0,-0.8,-10,0)"
         style="fill:#000000;fill-opacity:1;fill-rule:evenodd;stroke:#000000;stroke-width:1pt;stroke-opacity:1"
         d="M 0,0 5,-5 -12.5,0 5,5 Z"
         id="path5374"
         inkscape:connector-curvature="0" />
    </marker>
    <marker
       inkscape:stockid="Arrow1Lstart"
       orient="auto"
       refY="0"
       refX="0"
       id="Arrow1Lstart"
       style="overflow:visible"
       inkscape:isstock="true">
      <path
         id="path852"
         d="M 0,0 5,-5 -12.5,0 5,5 Z"
         style="fill:#008000;fill-opacity:1;fill-rule:evenodd;stroke:#008000;stroke-width:1pt;stroke-opacity:1"
         transform="matrix(0.8,0,0,0.8,10,0)"
         inkscape:connector-curvature="0" />
    </marker>
    <clipPath
       clipPathUnits="userSpaceOnUse"
       id="clipPath1666">
      <path
         d="M 0,0 V 14670 H 11002 V 0 Z"
         id="path1666" />
    </clipPath>
    <clipPath
       clipPathUnits="userSpaceOnUse"
       id="clipPath1664">
      <path
         d="M 0,0 V 14670 H 11002 V 0 Z"
         id="path1664" />
    </clipPath>
    <clipPath
       clipPathUnits="userSpaceOnUse"
       id="clipPath1668">
      <path
         d="M 0,0 V 14670 H 11002 V 0 Z"
         id="path1668" />
    </clipPath>
    <clipPath
       clipPathUnits="userSpaceOnUse"
       id="clipPath1442">
      <path
         d="M 0,0 V 14670 H 11002 V 0 Z"
         id="path1442" />
    </clipPath>
    <clipPath
       clipPathUnits="userSpaceOnUse"
       id="clipPath1444">
      <path
         d="M 0,0 V 14670 H 11002 V 0 Z"
         id="path1444" />
    </clipPath>
    <clipPath
       clipPathUnits="userSpaceOnUse"
       id="clipPath1630">
      <path
         d="M 0,0 V 14670 H 11002 V 0 Z"
         id="path1630" />
    </clipPath>
    <clipPath
       clipPathUnits="userSpaceOnUse"
       id="clipPath1626">
      <path
         d="M 0,0 V 14670 H 11002 V 0 Z"
         id="path1626" />
    </clipPath>
  </defs>
  <sodipodi:namedview
     pagecolor="#ffffff"
     bordercolor="#666666"
     borderopacity="1"
     objecttolerance="10"
     gridtolerance="10"
     guidetolerance="10"
     inkscape:pageopacity="0"
     inkscape:pageshadow="2"
     inkscape:window-width="1920"
     inkscape:window-height="1021"
     id="namedview40"
     showgrid="false"
     fit-margin-top="20"
     fit-margin-left="20"
     fit-margin-right="20"
     fit-margin-bottom="20"
     inkscape:zoom="0.3151299"
     inkscape:cx="1194.7454"
     inkscape:cy="910.73556"
     inkscape:window-x="1920"
     inkscape:window-y="0"
     inkscape:window-maximized="1"
     inkscape:current-layer="svg38"
     inkscape:snap-global="true"
     showguides="false"
     units="mm"
     inkscape:showpageshadow="2"
     inkscape:pagecheckerboard="0"
     inkscape:deskcolor="#d1d1d1"
     inkscape:document-units="mm" />
  <rect
     style="fill:#ffffff;stroke:none;stroke-width:7.55906;stroke-linecap:round;stroke-linejoin:round;paint-order:markers fill stroke"
     id="rect1"
     width="2263.6514"
     height="1775.6515"
     x="-1.7763568e-15"
     y="0" />
  <path
     style="clip-rule:evenodd;fill:none;fill-rule:evenodd;stroke:#000000;stroke-width:2;stroke-linecap:round;stroke-miterlimit:4;stroke-dasharray:none"
     d="m 1818.4369,771.82509 c 0.5166,96.98485 1.0331,193.96971 1.5497,290.95461 -88.2988,10.9288 -193.819,-19.2037 -264.782,49.2287 -43.2686,69.1018 -16.0099,169.7337 58.5816,204.9088 83.2387,61.1993 -51.3491,111.007 -106.2667,86.167 -105.9025,-15.6627 -190.2832,-107.485 -300.6603,-98.531 -106.5447,23.533 -169.475,123.2165 -255.40297,182.326 -169.5182,134.8509 -420.30222,157.0977 -606.81081,43.687 C 182.23287,1437.3056 82.956188,1256.5803 73.880253,1071.4084 61.857981,904.77182 62.29459,727.58467 136.12393,574.07984 225.95002,396.15856 418.44102,274.21589 619.19449,281.22301 c 154.48481,-0.17273 299.41283,74.03318 409.27071,179.23054 63.9805,57.21932 143.3639,128.5451 236.6341,99.80714 105.6601,-30.67936 199.7664,-119.65403 317.1083,-93.08217 96.4199,15.04481 167.8485,91.05422 202.0785,178.8228 18.0929,39.59018 33.3174,81.8235 34.1508,125.82377 z"
     id="contour"
     inkscape:connector-curvature="0" />
  <path
     style="fill:none;stroke:#0000ff;stroke-width:2;stroke-linecap:butt;stroke-linejoin:miter;stroke-miterlimit:4;stroke-dasharray:none;stroke-opacity:1"
     d="m 1686.8344,928.85514 h 317.7732"
     id="midline"
     inkscape:connector-curvature="0"
     inkscape:label="#path851" />
  <path
     style="opacity:1;fill:#ffffff;fill-opacity:1;stroke:#008000;stroke-width:2;stroke-linecap:round;stroke-linejoin:bevel;stroke-miterlimit:4;stroke-dasharray:none;stroke-dashoffset:0;stroke-opacity:1;paint-order:stroke fill markers"
     d="m 1008.3597,767.73675 c -9.02058,0 -16.28318,7.26254 -16.28318,16.28321 v 10.83789 h -17.2109 c -10.1126,0 -18.2539,8.14127 -18.2539,18.2539 v 230.51955 c 0,10.1127 8.1413,18.2539 18.2539,18.2539 h 17.2109 v 9.7951 c 0,9.0206 7.2626,16.2812 16.28318,16.2812 h 49.3164 c 9.0207,0 16.2814,-7.2606 16.2814,-16.2812 v -9.7951 h 16.6894 c 10.1127,0 18.254,-8.1412 18.254,-18.2539 V 813.11175 c 0,-10.11263 -8.1413,-18.2539 -18.254,-18.2539 h -16.6894 v -10.83789 c 0,-9.02067 -7.2607,-16.28321 -16.2814,-16.28321 z"
     id="h7_0_3000"
     inkscape:label="#rect2360"
     inkscape:connector-curvature="0" />
  <path
     id="h8_0_3000"
     d="m 1396.3846,767.73675 c -9.0206,0 -16.2832,7.26254 -16.2832,16.28321 v 10.83789 h -17.2109 c -10.1126,0 -18.2539,8.14127 -18.2539,18.2539 v 230.51955 c 0,10.1127 8.1413,18.2539 18.2539,18.2539 h 17.2109 v 9.7951 c 0,9.0206 7.2626,16.2812 16.2832,16.2812 h 49.3164 c 9.0207,0 16.2813,-7.2606 16.2813,-16.2812 v -9.7951 h 16.6894 c 10.1127,0 18.254,-8.1412 18.254,-18.2539 V 813.11175 c 0,-10.11263 -8.1413,-18.2539 -18.254,-18.2539 h -16.6894 v -10.83789 c 0,-9.02067 -7.2606,-16.28321 -16.2813,-16.28321 z"
     style="opacity:1;fill:#ffffff;fill-opacity:1;stroke:#008000;stroke-width:2;stroke-linecap:round;stroke-linejoin:bevel;stroke-miterlimit:4;stroke-dasharray:none;stroke-dashoffset:0;stroke-opacity:1;paint-order:stroke fill markers"
     inkscape:connector-curvature="0"
     inkscape:label="#path2367" />
  <path
     style="opacity:1;fill:#ffffff;fill-opacity:1;stroke:#ff6600;stroke-width:2;stroke-linecap:round;stroke-linejoin:bevel;stroke-miterlimit:4;stroke-dasharray:none;stroke-dashoffset:0;stroke-opacity:1;paint-order:stroke fill markers"
     d="M 1687.4395,640.18115 A 103.44378,103.44378 0 0 1 1583.9957,743.62493 103.44378,103.44378 0 0 1 1480.5519,640.18115 103.44378,103.44378 0 0 1 1583.9957,536.73737 103.44378,103.44378 0 0 1 1687.4395,640.18115 Z"
     id="hb6_3800_1000"
     inkscape:label="#circle2373"
     inkscape:connector-curvature="0" />
  <path
     style="opacity:1;fill:#ffffff;fill-opacity:1;stroke:#ff6600;stroke-width:2;stroke-linecap:round;stroke-linejoin:bevel;stroke-miterlimit:4;stroke-dasharray:none;stroke-dashoffset:0;stroke-opacity:1;paint-order:stroke fill markers"
     d="m 1663.2842,640.18115 a 79.28846,79.28846 0 0 1 -79.2885,79.28846 79.28846,79.28846 0 0 1 -79.2885,-79.28846 79.28846,79.28846 0 0 1 79.2885,-79.28846 79.28846,79.28846 0 0 1 79.2885,79.28846 z"
     id="hb4_0_5000"
     inkscape:label="#path2369"
     inkscape:connector-curvature="0" />
  <path
     style="opacity:1;fill:#ffffff;fill-opacity:1;stroke:#ff0000;stroke-width:2;stroke-linecap:round;stroke-linejoin:bevel;stroke-miterlimit:4;stroke-dasharray:none;stroke-dashoffset:0;stroke-opacity:1;paint-order:stroke fill markers"
     d="m 1607.7822,640.18115 a 23.786541,23.786541 0 0 1 -23.7865,23.78654 23.786541,23.786541 0 0 1 -23.7865,-23.78654 23.786541,23.786541 0 0 1 23.7865,-23.78654 23.786541,23.786541 0 0 1 23.7865,23.78654 z"
     id="ht5_0_1000"
     inkscape:label="#circle2371"
     inkscape:connector-curvature="0" />
  <path
     style="fill:none;stroke:#ff6600;stroke-width:2;stroke-linecap:butt;stroke-linejoin:miter;stroke-miterlimit:4;stroke-dasharray:none;stroke-opacity:1"
     d="M 1512.636,625.98308 735.24022,1306.02 l 28.0276,41.3038 783.29628,-678.56183 z"
     id="hb3_0_1000"
     inkscape:connector-curvature="0"
     sodipodi:nodetypes="ccccc"
     inkscape:label="#path2375" />
  <path
     style="fill:none;stroke:#ff6600;stroke-width:2;stroke-linecap:butt;stroke-linejoin:miter;stroke-miterlimit:4;stroke-dasharray:none;stroke-opacity:1"
     d="m 477.31814,1136.9866 h 203.92158 c 45.3397,0.4373 88.3051,5.755 109.0016,56.8478 l 70.4077,172.1077 c 24.3809,62.378 16.6953,124.1916 -72.4938,126.2124 l -218.0032,-11.9954 c -75.93289,-6.5239 -82.44185,-26.1633 -100.13542,-57.8908 l -93.87696,-167.4139 c -19.55252,-41.913 -1.11466,-117.169 101.1785,-117.8678 z"
     id="hb2_3800_1000"
     inkscape:connector-curvature="0"
     sodipodi:nodetypes="ccccccccc"
     inkscape:label="#path2377" />
  <path
     style="opacity:1;fill:none;fill-opacity:1;stroke:#ff6600;stroke-width:2;stroke-linecap:round;stroke-linejoin:bevel;stroke-miterlimit:4;stroke-dasharray:none;stroke-dashoffset:0;stroke-opacity:1;paint-order:stroke fill markers"
     d="m 472.6664,1153.3443 a 70.806442,70.806442 0 0 0 -70.80665,70.8067 70.806442,70.806442 0 0 0 59.79883,69.8574 l 24.05469,73.207 a 70.806442,70.806442 0 0 0 -2.7207,19.1992 70.806442,70.806442 0 0 0 70.80665,70.8067 70.806442,70.806442 0 0 0 58.9687,-31.6895 l 102.3516,9.9434 a 70.806442,70.806442 0 0 0 61.4238,35.7597 70.806442,70.806442 0 0 0 70.8067,-70.8066 70.806442,70.806442 0 0 0 -54.8457,-68.9121 l -29.4121,-71.3594 a 70.806442,70.806442 0 0 0 9.0273,-34.5312 70.806442,70.806442 0 0 0 -70.8066,-70.8067 70.806442,70.806442 0 0 0 -59.8086,33.0586 l -108.38089,-0.459 a 70.806442,70.806442 0 0 0 -60.45703,-34.0742 z"
     id="hb1_0_5000"
     inkscape:label="#path2391"
     inkscape:connector-curvature="0" />
  <path
     style="opacity:1;fill:#ffffff;fill-opacity:1;stroke:#ff0000;stroke-width:2;stroke-linecap:round;stroke-linejoin:bevel;stroke-miterlimit:4;stroke-dasharray:none;stroke-dashoffset:0;stroke-opacity:1;paint-order:stroke fill markers"
     d="m 487.47187,1221.3536 a 18.897638,18.897638 0 0 1 -18.89764,18.8976 18.897638,18.897638 0 0 1 -18.89764,-18.8976 18.897638,18.897638 0 0 1 18.89764,-18.8976 18.897638,18.897638 0 0 1 18.89764,18.8976 z"
     id="ht4_0_1000"
     inkscape:label="#path2379"
     inkscape:connector-curvature="0" />
  <path
     style="opacity:1;fill:#ffffff;fill-opacity:1;stroke:#ff0000;stroke-width:2;stroke-linecap:round;stroke-linejoin:bevel;stroke-miterlimit:4;stroke-dasharray:none;stroke-dashoffset:0;stroke-opacity:1;paint-order:stroke fill markers"
     d="m 713.81962,1221.3536 a 18.897638,18.897638 0 0 1 -18.8976,18.8976 18.897638,18.897638 0 0 1 -18.8976,-18.8976 18.897638,18.897638 0 0 1 18.8976,-18.8976 18.897638,18.897638 0 0 1 18.8976,18.8976 z"
     id="ht3_0_1000"
     inkscape:label="#circle2381"
     inkscape:connector-curvature="0" />
  <path
     style="opacity:1;fill:#ffffff;fill-opacity:1;stroke:#ff0000;stroke-width:2;stroke-linecap:round;stroke-linejoin:bevel;stroke-miterlimit:4;stroke-dasharray:none;stroke-dashoffset:0;stroke-opacity:1;paint-order:stroke fill markers"
     d="m 579.26262,1377.8151 a 18.897638,18.897638 0 0 1 -18.8976,18.8977 18.897638,18.897638 0 0 1 -18.89765,-18.8977 18.897638,18.897638 0 0 1 18.89765,-18.8976 18.897638,18.897638 0 0 1 18.8976,18.8976 z"
     id="ht2_0_1000"
     inkscape:label="#circle2383"
     inkscape:connector-curvature="0" />
  <path
     style="opacity:1;fill:#ffffff;fill-opacity:1;stroke:#ff0000;stroke-width:2;stroke-linecap:round;stroke-linejoin:bevel;stroke-miterlimit:4;stroke-dasharray:none;stroke-dashoffset:0;stroke-opacity:1;paint-order:stroke fill markers"
     d="m 812.82592,1388.7674 a 18.897638,18.897638 0 0 1 -18.8977,18.8976 18.897638,18.897638 0 0 1 -18.8976,-18.8976 18.897638,18.897638 0 0 1 18.8976,-18.8976 18.897638,18.897638 0 0 1 18.8977,18.8976 z"
     id="ht1_0_1000"
     inkscape:label="#circle2385"
     inkscape:connector-curvature="0" />
  <text
     xml:space="preserve"
     style="font-style:normal;font-variant:normal;font-weight:normal;font-stretch:normal;font-size:48px;line-height:1.25;font-family:sans-serif;-inkscape-font-specification:'sans-serif, Normal';font-variant-ligatures:normal;font-variant-caps:normal;font-variant-numeric:normal;font-feature-settings:normal;text-align:start;letter-spacing:0px;word-spacing:0px;writing-mode:lr-tb;text-anchor:start;fill:#000000;fill-opacity:1;stroke:none;stroke-width:1"
     x="1388.6818"
     y="384.4111"
     id="text836"><tspan
       sodipodi:role="line"
       id="tspan834"
       x="1388.6818"
       y="384.4111"
       style="font-style:normal;font-variant:normal;font-weight:normal;font-stretch:normal;font-size:48px;font-family:sans-serif;-inkscape-font-specification:'sans-serif, Normal';font-variant-ligatures:normal;font-variant-caps:normal;font-variant-numeric:normal;font-feature-settings:normal;text-align:start;writing-mode:lr-tb;text-anchor:start;stroke-width:1">Contour</tspan></text>
  <path
     style="fill:none;stroke:#000000;stroke-width:1px;stroke-linecap:butt;stroke-linejoin:miter;stroke-opacity:1;marker-end:url(#Arrow1Lend)"
     d="m 1592.5399,369.56461 c 66.8052,5.84546 27.5572,100.20781 27.5572,100.20781"
     id="path850"
     inkscape:connector-curvature="0"
     sodipodi:nodetypes="cc" />
  <text
     id="text844"
     y="1177.2683"
     x="1762.6106"
     style="font-style:normal;font-variant:normal;font-weight:normal;font-stretch:normal;font-size:48px;line-height:1.25;font-family:sans-serif;-inkscape-font-specification:'sans-serif, Normal';font-variant-ligatures:normal;font-variant-caps:normal;font-variant-numeric:normal;font-feature-settings:normal;text-align:start;letter-spacing:0px;word-spacing:0px;writing-mode:lr-tb;text-anchor:start;fill:#0000ff;fill-opacity:1;stroke:none;stroke-width:1"
     xml:space="preserve"><tspan
       style="font-style:normal;font-variant:normal;font-weight:normal;font-stretch:normal;font-size:48px;font-family:sans-serif;-inkscape-font-specification:'sans-serif, Normal';font-variant-ligatures:normal;font-variant-caps:normal;font-variant-numeric:normal;font-feature-settings:normal;text-align:start;writing-mode:lr-tb;text-anchor:start;fill:#0000ff;stroke-width:1"
       y="1177.2683"
       x="1762.6106"
       id="tspan842"
       sodipodi:role="line">Midline Reference</tspan></text>
  <path
     style="fill:none;stroke:#0000ff;stroke-width:1px;stroke-linecap:butt;stroke-linejoin:miter;stroke-opacity:1;marker-end:url(#marker5376)"
     d="m 1949.6727,1117.1577 c 85.5405,-64.8547 -14.7339,-71.4378 -15.0312,-177.03398"
     id="path5366"
     inkscape:connector-curvature="0"
     sodipodi:nodetypes="cc" />
  <text
     id="text1674"
     y="114.63522"
     x="590.4649"
     style="font-style:normal;font-weight:normal;font-size:60.7582px;line-height:1.25;font-family:sans-serif;letter-spacing:0px;word-spacing:0px;fill:#000000;fill-opacity:1;stroke:none;stroke-width:1"
     xml:space="preserve"><tspan
       style="stroke-width:1"
       y="114.63522"
       x="590.4649"
       id="tspan1672"
       sodipodi:role="line">Example Custom Body Template</tspan></text>
  <text
     id="text840"
     y="1701.194"
     x="1124.0332"
     style="font-style:normal;font-variant:normal;font-weight:normal;font-stretch:normal;font-size:48px;line-height:1.25;font-family:sans-serif;-inkscape-font-specification:'sans-serif, Normal';font-variant-ligatures:normal;font-variant-caps:normal;font-variant-numeric:normal;font-feature-settings:normal;text-align:start;letter-spacing:0px;word-spacing:0px;writing-mode:lr-tb;text-anchor:start;fill:#008000;fill-opacity:1;stroke:none;stroke-width:1"
     xml:space="preserve"><tspan
       style="font-style:normal;font-variant:normal;font-weight:normal;font-stretch:normal;font-size:48px;font-family:sans-serif;-inkscape-font-specification:'sans-serif, Normal';font-variant-ligatures:normal;font-variant-caps:normal;font-variant-numeric:normal;font-feature-settings:normal;text-align:start;writing-mode:lr-tb;text-anchor:start;fill:#008000;stroke-width:1"
       y="1701.194"
       x="1124.0332"
       id="tspan838"
       sodipodi:role="line">Pockets/Holes</tspan></text>
  <path
     style="fill:none;stroke:#ff0000;stroke-width:1px;stroke-linecap:butt;stroke-linejoin:miter;stroke-opacity:1;marker-end:url(#marker2245)"
     d="M 1217.5241,1647.7649 C 1078.8099,1449.3 851.10542,1527.963 803.30002,1417.6405"
     id="path2131"
     inkscape:connector-curvature="0"
     sodipodi:nodetypes="cc" />
  <path
     style="fill:none;stroke:#ff6600;stroke-width:1px;stroke-linecap:butt;stroke-linejoin:miter;stroke-opacity:1;marker-end:url(#marker2193)"
     d="m 1217.5241,1647.7649 c -28.7656,-359.5694 -358.13118,-326.489 -358.13118,-326.489"
     id="path2133"
     inkscape:connector-curvature="0"
     sodipodi:nodetypes="cc" />
  <path
     style="fill:none;stroke:#ff6600;stroke-width:1px;stroke-linecap:butt;stroke-linejoin:miter;stroke-opacity:1;marker-end:url(#marker2147)"
     d="m 1217.5241,1647.7649 c 101.9662,-178.9794 -9.8286,-434.6676 -191.291,-513.4651"
     id="path2135"
     inkscape:connector-curvature="0"
     sodipodi:nodetypes="cc" />
  <path
     style="fill:none;stroke:#008000;stroke-width:1px;stroke-linecap:butt;stroke-linejoin:miter;stroke-opacity:1;marker-end:url(#marker4433)"
     d="m 1217.5241,1647.7649 c 302.0384,-153.8957 234.4394,-546.5455 234.4394,-546.5455"
     id="path2137"
     inkscape:connector-curvature="0"
     sodipodi:nodetypes="cc" />
  <path
     id="path1441"
     d="m 4304.21,11590.8 1.02,-8.6 3.06,-7.7 4.59,-7.1 6.11,-6.1 7.64,-4.6 8.15,-2.5 8.66,-0.6 8.15,1.1 8.15,3 7.13,4.6 6.11,6.1 4.08,7.7 2.55,8.1 1.01,8.2 -1.01,8.6 -3.06,8.2 -4.59,7.1 -6.62,5.6 -7.13,4.6 -8.15,2.5 -8.66,1 -8.15,-1.5 -8.15,-2.5 -7.13,-5.1 -6.11,-6.1 -4.08,-7.2 -3.05,-8.1 z"
     style="fill:none;stroke:#000000;stroke-width:1.01875;stroke-linecap:round;stroke-linejoin:round;stroke-miterlimit:10;stroke-dasharray:none;stroke-opacity:1"
     transform="matrix(0,-0.31411067,-0.31411067,0,4516.4933,2153.3355)"
     clip-path="url(#clipPath1442)" />
  <path
     id="path1443"
     d="m 3414.34,11572 1.02,-8.7 3.05,-8.1 4.59,-7.2 6.11,-5.6 7.13,-4.5 8.15,-2.6 8.66,-1 8.66,1 8.15,3.1 7.13,5.1 5.6,6.1 4.59,7.1 2.55,8.1 1.02,8.7 -1.54,8.2 -3.05,8.1 -4.59,7.1 -6.11,6.2 -7.13,4 -8.15,3.1 -8.66,0.5 -8.66,-1 -7.64,-3.1 -7.13,-4.6 -6.11,-6.1 -4.59,-7.6 -2.54,-8.2 z"
     style="fill:none;stroke:#000000;stroke-width:1.01875;stroke-linecap:round;stroke-linejoin:round;stroke-miterlimit:10;stroke-dasharray:none;stroke-opacity:1"
     transform="matrix(0,-0.31411067,-0.31411067,0,4516.4933,2153.3355)"
     clip-path="url(#clipPath1444)" />
  <path
     style="fill:#000000;stroke:#ff0000;stroke-width:2.64567;stroke-linecap:round;stroke-linejoin:round;stroke-dasharray:none;paint-order:markers fill stroke"
     d="M 881.44759,1068.8542 875.38526,789.33657"
     id="bridge" />
  <text
     id="text1"
     y="662.45178"
     x="405.63867"
     style="font-style:normal;font-variant:normal;font-weight:normal;font-stretch:normal;font-size:48px;line-height:1.25;font-family:sans-serif;-inkscape-font-specification:'sans-serif, Normal';font-variant-ligatures:normal;font-variant-caps:normal;font-variant-numeric:normal;font-feature-settings:normal;text-align:start;letter-spacing:0px;word-spacing:0px;writing-mode:lr-tb;text-anchor:start;fill:#ff0000;fill-opacity:1;stroke:none;stroke-width:1"
     xml:space="preserve"><tspan
       style="font-style:normal;font-variant:normal;font-weight:normal;font-stretch:normal;font-size:48px;font-family:sans-serif;-inkscape-font-specification:'sans-serif, Normal';font-variant-ligatures:normal;font-variant-caps:normal;font-variant-numeric:normal;font-feature-settings:normal;text-align:start;writing-mode:lr-tb;text-anchor:start;fill:#ff0000;stroke-width:1"
       y="662.45178"
       x="405.63867"
       id="tspan1"
       sodipodi:role="line">Bridge reference</tspan></text>
  <path
     style="fill:none;stroke:#ff0000;stroke-width:2.64567;stroke-linecap:round;stroke-linejoin:round;stroke-dasharray:none;marker-end:url(#ConcaveTriangle);paint-order:markers fill stroke"
     d="m 560.365,699.53456 c 8.94386,209.35 286.98502,229.5608 286.98502,229.5608"
     id="path1"
     sodipodi:nodetypes="cc" />
</svg>
