<?xml version="1.0" encoding="UTF-8" standalone="no"?>
<svg
   xmlns:dc="http://purl.org/dc/elements/1.1/"
   xmlns:cc="http://creativecommons.org/ns#"
   xmlns:rdf="http://www.w3.org/1999/02/22-rdf-syntax-ns#"
   xmlns:svg="http://www.w3.org/2000/svg"
   xmlns="http://www.w3.org/2000/svg"
   xmlns:xlink="http://www.w3.org/1999/xlink"
   xmlns:sodipodi="http://sodipodi.sourceforge.net/DTD/sodipodi-0.dtd"
   xmlns:inkscape="http://www.inkscape.org/namespaces/inkscape"
   width="566"
   height="250"
   version="1.1"
   viewBox="0 0 566 250"
   id="svg50"
   sodipodi:docname="logo.svg"
   inkscape:version="0.92.4 (unknown)">
  <metadata
     id="metadata54">
    <rdf:RDF>
      <cc:Work
         rdf:about="">
        <dc:format>image/svg+xml</dc:format>
        <dc:type
           rdf:resource="http://purl.org/dc/dcmitype/StillImage" />
        <dc:title></dc:title>
      </cc:Work>
    </rdf:RDF>
  </metadata>
  <sodipodi:namedview
     pagecolor="#ffffff"
     bordercolor="#666666"
     borderopacity="1"
     objecttolerance="10"
     gridtolerance="10"
     guidetolerance="10"
     inkscape:pageopacity="0"
     inkscape:pageshadow="2"
     inkscape:window-width="1920"
     inkscape:window-height="1023"
     id="namedview52"
     showgrid="false"
     inkscape:zoom="1.1448763"
     inkscape:cx="331.63966"
     inkscape:cy="-55.280209"
     inkscape:window-x="0"
     inkscape:window-y="0"
     inkscape:window-maximized="1"
     inkscape:current-layer="svg50"
     inkscape:snap-bbox="true"
     inkscape:bbox-nodes="true"
     borderlayer="true"
     inkscape:snap-global="false" />
  <defs
     id="defs18">
    <linearGradient
       inkscape:collect="always"
       id="linearGradient1100">
      <stop
         style="stop-color:#000000;stop-opacity:1;"
         offset="0"
         id="stop1096" />
      <stop
         style="stop-color:#000000;stop-opacity:0;"
         offset="1"
         id="stop1098" />
    </linearGradient>
    <filter
       id="filter1682"
       style="color-interpolation-filters:sRGB">
      <feFlood
         flood-color="rgb(0,0,0)"
         flood-opacity=".93333"
         result="flood"
         id="feFlood2" />
      <feComposite
         in="flood"
         in2="SourceGraphic"
         operator="in"
         result="composite1"
         id="feComposite4" />
      <feGaussianBlur
         in="composite1"
         result="blur"
         stdDeviation="0.5"
         id="feGaussianBlur6" />
      <feOffset
         dx="1.5"
         dy="1.5"
         result="offset"
         id="feOffset8" />
      <feComposite
         in="SourceGraphic"
         in2="offset"
         result="composite2"
         id="feComposite10" />
    </filter>
    <linearGradient
       id="linearGradient903"
       x1="203.07001"
       x2="228.03"
       y1="181.45"
       y2="182.8"
       gradientTransform="translate(-40.842571,-91.349564)"
       gradientUnits="userSpaceOnUse">
      <stop
         stop-color="#00224d"
         offset="0"
         id="stop13" />
      <stop
         stop-color="#2d9921"
         offset="1"
         id="stop15" />
    </linearGradient>
    <linearGradient
       inkscape:collect="always"
       xlink:href="#linearGradient1100"
       id="linearGradient1102"
       x1="-69.50323"
       y1="50.844407"
       x2="637.60354"
       y2="50.844407"
       gradientUnits="userSpaceOnUse" />
    <linearGradient
       inkscape:collect="always"
       xlink:href="#linearGradient1100"
       id="linearGradient1104"
       x1="-163.79723"
       y1="263.05508"
       x2="708.31422"
       y2="121.55509"
       gradientUnits="userSpaceOnUse" />
    <linearGradient
       inkscape:collect="always"
       xlink:href="#linearGradient1100"
       id="linearGradient1106"
       x1="-73.870514"
       y1="-59.211151"
       x2="579.08191"
       y2="75.301193"
       gradientUnits="userSpaceOnUse" />
    <linearGradient
       inkscape:collect="always"
       xlink:href="#linearGradient1100"
       id="linearGradient1108"
       x1="-155.06267"
       y1="166.97484"
       x2="708.31422"
       y2="121.55509"
       gradientUnits="userSpaceOnUse" />
    <linearGradient
       inkscape:collect="always"
       xlink:href="#linearGradient1100"
       id="linearGradient1110"
       x1="-69.50323"
       y1="50.844407"
       x2="637.60354"
       y2="50.844407"
       gradientUnits="userSpaceOnUse" />
    <linearGradient
       inkscape:collect="always"
       xlink:href="#linearGradient1100"
       id="linearGradient1112"
       x1="-33.652168"
       y1="236.85139"
       x2="708.31422"
       y2="121.55509"
       gradientUnits="userSpaceOnUse" />
    <linearGradient
       inkscape:collect="always"
       xlink:href="#linearGradient1100"
       id="linearGradient1157"
       gradientUnits="userSpaceOnUse"
       x1="-69.50323"
       y1="50.844407"
       x2="637.60354"
       y2="50.844407" />
    <linearGradient
       inkscape:collect="always"
       xlink:href="#linearGradient1100"
       id="linearGradient1159"
       gradientUnits="userSpaceOnUse"
       x1="-69.50323"
       y1="50.844407"
       x2="637.60354"
       y2="50.844407" />
    <linearGradient
       inkscape:collect="always"
       xlink:href="#linearGradient1100"
       id="linearGradient1161"
       gradientUnits="userSpaceOnUse"
       x1="-69.50323"
       y1="50.844407"
       x2="637.60354"
       y2="50.844407" />
    <linearGradient
       inkscape:collect="always"
       xlink:href="#linearGradient1100"
       id="linearGradient1163"
       gradientUnits="userSpaceOnUse"
       x1="-69.50323"
       y1="50.844407"
       x2="637.60354"
       y2="50.844407" />
    <linearGradient
       inkscape:collect="always"
       xlink:href="#linearGradient1100"
       id="linearGradient1165"
       gradientUnits="userSpaceOnUse"
       x1="-69.50323"
       y1="50.844407"
       x2="637.60354"
       y2="50.844407" />
    <linearGradient
       inkscape:collect="always"
       xlink:href="#linearGradient1100"
       id="linearGradient1167"
       gradientUnits="userSpaceOnUse"
       x1="-73.870514"
       y1="-59.211151"
       x2="579.08191"
       y2="75.301193" />
    <linearGradient
       inkscape:collect="always"
       xlink:href="#linearGradient1100"
       id="linearGradient1169"
       gradientUnits="userSpaceOnUse"
       x1="-73.870514"
       y1="-59.211151"
       x2="579.08191"
       y2="75.301193" />
    <linearGradient
       inkscape:collect="always"
       xlink:href="#linearGradient1100"
       id="linearGradient1171"
       gradientUnits="userSpaceOnUse"
       x1="-73.870514"
       y1="-59.211151"
       x2="579.08191"
       y2="75.301193" />
    <linearGradient
       inkscape:collect="always"
       xlink:href="#linearGradient1100"
       id="linearGradient1173"
       gradientUnits="userSpaceOnUse"
       x1="-73.870514"
       y1="-59.211151"
       x2="579.08191"
       y2="75.301193" />
    <linearGradient
       inkscape:collect="always"
       xlink:href="#linearGradient1100"
       id="linearGradient1175"
       gradientUnits="userSpaceOnUse"
       x1="-73.870514"
       y1="-59.211151"
       x2="579.08191"
       y2="75.301193" />
    <linearGradient
       inkscape:collect="always"
       xlink:href="#linearGradient1100"
       id="linearGradient1177"
       gradientUnits="userSpaceOnUse"
       x1="-155.06267"
       y1="166.97484"
       x2="708.31422"
       y2="121.55509" />
    <linearGradient
       inkscape:collect="always"
       xlink:href="#linearGradient1100"
       id="linearGradient1179"
       gradientUnits="userSpaceOnUse"
       x1="-155.06267"
       y1="166.97484"
       x2="708.31422"
       y2="121.55509" />
    <linearGradient
       inkscape:collect="always"
       xlink:href="#linearGradient1100"
       id="linearGradient1181"
       gradientUnits="userSpaceOnUse"
       x1="-155.06267"
       y1="166.97484"
       x2="708.31422"
       y2="121.55509" />
    <linearGradient
       inkscape:collect="always"
       xlink:href="#linearGradient1100"
       id="linearGradient1183"
       gradientUnits="userSpaceOnUse"
       x1="-155.06267"
       y1="166.97484"
       x2="708.31422"
       y2="121.55509" />
    <linearGradient
       inkscape:collect="always"
       xlink:href="#linearGradient1100"
       id="linearGradient1185"
       gradientUnits="userSpaceOnUse"
       x1="-155.06267"
       y1="166.97484"
       x2="708.31422"
       y2="121.55509" />
    <linearGradient
       inkscape:collect="always"
       xlink:href="#linearGradient1100"
       id="linearGradient1187"
       gradientUnits="userSpaceOnUse"
       x1="-155.06267"
       y1="166.97484"
       x2="708.31422"
       y2="121.55509" />
    <linearGradient
       inkscape:collect="always"
       xlink:href="#linearGradient1100"
       id="linearGradient1189"
       gradientUnits="userSpaceOnUse"
       x1="-163.79723"
       y1="263.05508"
       x2="708.31422"
       y2="121.55509" />
    <linearGradient
       inkscape:collect="always"
       xlink:href="#linearGradient1100"
       id="linearGradient1191"
       gradientUnits="userSpaceOnUse"
       x1="-163.79723"
       y1="263.05508"
       x2="708.31422"
       y2="121.55509" />
    <linearGradient
       inkscape:collect="always"
       xlink:href="#linearGradient1100"
       id="linearGradient1193"
       gradientUnits="userSpaceOnUse"
       x1="-163.79723"
       y1="263.05508"
       x2="708.31422"
       y2="121.55509" />
    <linearGradient
       inkscape:collect="always"
       xlink:href="#linearGradient1100"
       id="linearGradient1195"
       gradientUnits="userSpaceOnUse"
       x1="-163.79723"
       y1="263.05508"
       x2="708.31422"
       y2="121.55509" />
    <linearGradient
       inkscape:collect="always"
       xlink:href="#linearGradient1100"
       id="linearGradient1197"
       gradientUnits="userSpaceOnUse"
       x1="-163.79723"
       y1="263.05508"
       x2="708.31422"
       y2="121.55509" />
    <linearGradient
       inkscape:collect="always"
       xlink:href="#linearGradient1100"
       id="linearGradient1199"
       gradientUnits="userSpaceOnUse"
       x1="-163.79723"
       y1="263.05508"
       x2="708.31422"
       y2="121.55509" />
    <linearGradient
       inkscape:collect="always"
       xlink:href="#linearGradient1100"
       id="linearGradient1201"
       gradientUnits="userSpaceOnUse"
       x1="-69.50323"
       y1="50.844407"
       x2="637.60354"
       y2="50.844407" />
    <linearGradient
       inkscape:collect="always"
       xlink:href="#linearGradient1100"
       id="linearGradient1203"
       gradientUnits="userSpaceOnUse"
       x1="-69.50323"
       y1="50.844407"
       x2="637.60354"
       y2="50.844407" />
    <linearGradient
       inkscape:collect="always"
       xlink:href="#linearGradient1100"
       id="linearGradient1205"
       gradientUnits="userSpaceOnUse"
       x1="-69.50323"
       y1="50.844407"
       x2="637.60354"
       y2="50.844407" />
    <linearGradient
       inkscape:collect="always"
       xlink:href="#linearGradient1100"
       id="linearGradient1207"
       gradientUnits="userSpaceOnUse"
       x1="-69.50323"
       y1="50.844407"
       x2="637.60354"
       y2="50.844407" />
    <linearGradient
       inkscape:collect="always"
       xlink:href="#linearGradient1100"
       id="linearGradient1209"
       gradientUnits="userSpaceOnUse"
       x1="-69.50323"
       y1="50.844407"
       x2="637.60354"
       y2="50.844407" />
    <linearGradient
       inkscape:collect="always"
       xlink:href="#linearGradient1100"
       id="linearGradient1211"
       gradientUnits="userSpaceOnUse"
       x1="-33.652168"
       y1="236.85139"
       x2="708.31422"
       y2="121.55509" />
    <linearGradient
       inkscape:collect="always"
       xlink:href="#linearGradient1100"
       id="linearGradient1213"
       gradientUnits="userSpaceOnUse"
       x1="-33.652168"
       y1="236.85139"
       x2="708.31422"
       y2="121.55509" />
    <linearGradient
       inkscape:collect="always"
       xlink:href="#linearGradient1100"
       id="linearGradient1215"
       gradientUnits="userSpaceOnUse"
       x1="-33.652168"
       y1="236.85139"
       x2="708.31422"
       y2="121.55509" />
    <linearGradient
       inkscape:collect="always"
       xlink:href="#linearGradient1100"
       id="linearGradient1217"
       gradientUnits="userSpaceOnUse"
       x1="-33.652168"
       y1="236.85139"
       x2="708.31422"
       y2="121.55509" />
    <linearGradient
       inkscape:collect="always"
       xlink:href="#linearGradient1100"
       id="linearGradient1219"
       gradientUnits="userSpaceOnUse"
       x1="-33.652168"
       y1="236.85139"
       x2="708.31422"
       y2="121.55509" />
    <linearGradient
       inkscape:collect="always"
       xlink:href="#linearGradient1100"
       id="linearGradient1221"
       gradientUnits="userSpaceOnUse"
       x1="-33.652168"
       y1="236.85139"
       x2="708.31422"
       y2="121.55509" />
    <clipPath
       clipPathUnits="userSpaceOnUse"
       id="clipPath1278">
      <rect
         style="opacity:1;fill:#00ccff;fill-opacity:1;stroke:none;stroke-width:3.42285943;stroke-linecap:round;stroke-linejoin:round;stroke-miterlimit:4;stroke-dasharray:none;paint-order:stroke fill markers"
         id="rect1280"
         width="566"
         height="250"
         x="0"
         y="0" />
    </clipPath>
  </defs>
  <g
     id="g1276"
     clip-path="url(#clipPath1278)">
    <rect
       y="-102.00309"
       x="-176.43828"
       height="577.35492"
       width="980.89197"
       id="rect1155"
       style="opacity:1;fill:#00ccff;fill-opacity:1;stroke:none;stroke-width:3.4000001;stroke-linecap:round;stroke-linejoin:round;stroke-miterlimit:4;stroke-dasharray:none;paint-order:stroke fill markers" />
    <g
       transform="matrix(0.89655549,0.18456703,-0.77445929,1.0442733,124.18814,-53.055866)"
       id="g1153">
      <g
         id="g1003"
         style="fill:url(#linearGradient1110);fill-opacity:1">
        <rect
           transform="rotate(45)"
           y="-14.901371"
           x="-13.193781"
           height="100"
           width="100"
           id="rect988"
           style="opacity:1;fill:url(#linearGradient1157);fill-opacity:1;stroke:none;stroke-width:2.78248882;stroke-linecap:round;stroke-linejoin:round;stroke-miterlimit:4;stroke-dasharray:none;paint-order:stroke fill markers" />
        <rect
           style="opacity:1;fill:url(#linearGradient1159);fill-opacity:1;stroke:none;stroke-width:2.78248882;stroke-linecap:round;stroke-linejoin:round;stroke-miterlimit:4;stroke-dasharray:none;paint-order:stroke fill markers"
           id="rect990"
           width="100"
           height="100"
           x="86.806221"
           y="-114.90137"
           transform="rotate(45)" />
        <rect
           transform="rotate(45)"
           y="-214.90137"
           x="186.80621"
           height="100"
           width="100"
           id="rect992"
           style="opacity:1;fill:url(#linearGradient1161);fill-opacity:1;stroke:none;stroke-width:2.78248882;stroke-linecap:round;stroke-linejoin:round;stroke-miterlimit:4;stroke-dasharray:none;paint-order:stroke fill markers" />
        <rect
           style="opacity:1;fill:url(#linearGradient1163);fill-opacity:1;stroke:none;stroke-width:2.78248882;stroke-linecap:round;stroke-linejoin:round;stroke-miterlimit:4;stroke-dasharray:none;paint-order:stroke fill markers"
           id="rect994"
           width="100"
           height="100"
           x="286.80621"
           y="-314.90137"
           transform="rotate(45)" />
        <rect
           transform="rotate(45)"
           y="-414.90137"
           x="386.80621"
           height="100"
           width="100"
           id="rect996"
           style="opacity:1;fill:url(#linearGradient1165);fill-opacity:1;stroke:none;stroke-width:2.78248882;stroke-linecap:round;stroke-linejoin:round;stroke-miterlimit:4;stroke-dasharray:none;paint-order:stroke fill markers" />
      </g>
      <g
         id="g1015"
         transform="translate(-1.3486991e-6,141.42136)"
         style="fill:url(#linearGradient1106);fill-opacity:1">
        <rect
           style="opacity:1;fill:url(#linearGradient1167);fill-opacity:1;stroke:none;stroke-width:2.78248882;stroke-linecap:round;stroke-linejoin:round;stroke-miterlimit:4;stroke-dasharray:none;paint-order:stroke fill markers"
           id="rect1005"
           width="100"
           height="100"
           x="-13.193781"
           y="-14.901371"
           transform="rotate(45)" />
        <rect
           transform="rotate(45)"
           y="-114.90137"
           x="86.806221"
           height="100"
           width="100"
           id="rect1007"
           style="opacity:1;fill:url(#linearGradient1169);fill-opacity:1;stroke:none;stroke-width:2.78248882;stroke-linecap:round;stroke-linejoin:round;stroke-miterlimit:4;stroke-dasharray:none;paint-order:stroke fill markers" />
        <rect
           style="opacity:1;fill:url(#linearGradient1171);fill-opacity:1;stroke:none;stroke-width:2.78248882;stroke-linecap:round;stroke-linejoin:round;stroke-miterlimit:4;stroke-dasharray:none;paint-order:stroke fill markers"
           id="rect1009"
           width="100"
           height="100"
           x="186.80621"
           y="-214.90137"
           transform="rotate(45)" />
        <rect
           transform="rotate(45)"
           y="-314.90137"
           x="286.80621"
           height="100"
           width="100"
           id="rect1011"
           style="opacity:1;fill:url(#linearGradient1173);fill-opacity:1;stroke:none;stroke-width:2.78248882;stroke-linecap:round;stroke-linejoin:round;stroke-miterlimit:4;stroke-dasharray:none;paint-order:stroke fill markers" />
        <rect
           style="opacity:1;fill:url(#linearGradient1175);fill-opacity:1;stroke:none;stroke-width:2.78248882;stroke-linecap:round;stroke-linejoin:round;stroke-miterlimit:4;stroke-dasharray:none;paint-order:stroke fill markers"
           id="rect1013"
           width="100"
           height="100"
           x="386.80621"
           y="-414.90137"
           transform="rotate(45)" />
      </g>
      <g
         id="g1042"
         style="fill:url(#linearGradient1108);fill-opacity:1">
        <rect
           transform="rotate(45)"
           y="-14.901368"
           x="86.806221"
           height="100"
           width="100"
           id="rect1017"
           style="opacity:1;fill:url(#linearGradient1177);fill-opacity:1;stroke:none;stroke-width:2.78248882;stroke-linecap:round;stroke-linejoin:round;stroke-miterlimit:4;stroke-dasharray:none;paint-order:stroke fill markers" />
        <rect
           style="opacity:1;fill:url(#linearGradient1179);fill-opacity:1;stroke:none;stroke-width:2.78248882;stroke-linecap:round;stroke-linejoin:round;stroke-miterlimit:4;stroke-dasharray:none;paint-order:stroke fill markers"
           id="rect1019"
           width="100"
           height="100"
           x="186.80623"
           y="-114.90137"
           transform="rotate(45)" />
        <rect
           transform="rotate(45)"
           y="-214.90137"
           x="286.80621"
           height="100"
           width="100"
           id="rect1021"
           style="opacity:1;fill:url(#linearGradient1181);fill-opacity:1;stroke:none;stroke-width:2.78248882;stroke-linecap:round;stroke-linejoin:round;stroke-miterlimit:4;stroke-dasharray:none;paint-order:stroke fill markers" />
        <rect
           style="opacity:1;fill:url(#linearGradient1183);fill-opacity:1;stroke:none;stroke-width:2.78248882;stroke-linecap:round;stroke-linejoin:round;stroke-miterlimit:4;stroke-dasharray:none;paint-order:stroke fill markers"
           id="rect1023"
           width="100"
           height="100"
           x="386.80621"
           y="-314.90137"
           transform="rotate(45)" />
        <rect
           transform="rotate(45)"
           y="-414.90137"
           x="486.80621"
           height="100"
           width="100"
           id="rect1025"
           style="opacity:1;fill:url(#linearGradient1185);fill-opacity:1;stroke:none;stroke-width:2.78248882;stroke-linecap:round;stroke-linejoin:round;stroke-miterlimit:4;stroke-dasharray:none;paint-order:stroke fill markers" />
        <rect
           style="opacity:1;fill:url(#linearGradient1187);fill-opacity:1;stroke:none;stroke-width:2.78248882;stroke-linecap:round;stroke-linejoin:round;stroke-miterlimit:4;stroke-dasharray:none;paint-order:stroke fill markers"
           id="rect1034"
           width="100"
           height="100"
           x="-13.193771"
           y="85.098633"
           transform="rotate(45)" />
      </g>
      <g
         id="g1056"
         transform="translate(0,141.42136)"
         style="fill:url(#linearGradient1104);fill-opacity:1">
        <rect
           style="opacity:1;fill:url(#linearGradient1189);fill-opacity:1;stroke:none;stroke-width:2.78248882;stroke-linecap:round;stroke-linejoin:round;stroke-miterlimit:4;stroke-dasharray:none;paint-order:stroke fill markers"
           id="rect1044"
           width="100"
           height="100"
           x="86.806221"
           y="-14.901368"
           transform="rotate(45)" />
        <rect
           transform="rotate(45)"
           y="-114.90137"
           x="186.80623"
           height="100"
           width="100"
           id="rect1046"
           style="opacity:1;fill:url(#linearGradient1191);fill-opacity:1;stroke:none;stroke-width:2.78248882;stroke-linecap:round;stroke-linejoin:round;stroke-miterlimit:4;stroke-dasharray:none;paint-order:stroke fill markers" />
        <rect
           style="opacity:1;fill:url(#linearGradient1193);fill-opacity:1;stroke:none;stroke-width:2.78248882;stroke-linecap:round;stroke-linejoin:round;stroke-miterlimit:4;stroke-dasharray:none;paint-order:stroke fill markers"
           id="rect1048"
           width="100"
           height="100"
           x="286.80621"
           y="-214.90137"
           transform="rotate(45)" />
        <rect
           transform="rotate(45)"
           y="-314.90137"
           x="386.80621"
           height="100"
           width="100"
           id="rect1050"
           style="opacity:1;fill:url(#linearGradient1195);fill-opacity:1;stroke:none;stroke-width:2.78248882;stroke-linecap:round;stroke-linejoin:round;stroke-miterlimit:4;stroke-dasharray:none;paint-order:stroke fill markers" />
        <rect
           style="opacity:1;fill:url(#linearGradient1197);fill-opacity:1;stroke:none;stroke-width:2.78248882;stroke-linecap:round;stroke-linejoin:round;stroke-miterlimit:4;stroke-dasharray:none;paint-order:stroke fill markers"
           id="rect1052"
           width="100"
           height="100"
           x="486.80621"
           y="-414.90137"
           transform="rotate(45)" />
        <rect
           transform="rotate(45)"
           y="85.098633"
           x="-13.193771"
           height="100"
           width="100"
           id="rect1054"
           style="opacity:1;fill:url(#linearGradient1199);fill-opacity:1;stroke:none;stroke-width:2.78248882;stroke-linecap:round;stroke-linejoin:round;stroke-miterlimit:4;stroke-dasharray:none;paint-order:stroke fill markers" />
      </g>
      <g
         transform="translate(4.0460975e-6,282.84273)"
         id="g1068"
         style="fill:url(#linearGradient1102);fill-opacity:1">
        <rect
           transform="rotate(45)"
           y="-14.901371"
           x="-13.193781"
           height="100"
           width="100"
           id="rect1058"
           style="opacity:1;fill:url(#linearGradient1201);fill-opacity:1;stroke:none;stroke-width:2.78248882;stroke-linecap:round;stroke-linejoin:round;stroke-miterlimit:4;stroke-dasharray:none;paint-order:stroke fill markers" />
        <rect
           style="opacity:1;fill:url(#linearGradient1203);fill-opacity:1;stroke:none;stroke-width:2.78248882;stroke-linecap:round;stroke-linejoin:round;stroke-miterlimit:4;stroke-dasharray:none;paint-order:stroke fill markers"
           id="rect1060"
           width="100"
           height="100"
           x="86.806221"
           y="-114.90137"
           transform="rotate(45)" />
        <rect
           transform="rotate(45)"
           y="-214.90137"
           x="186.80621"
           height="100"
           width="100"
           id="rect1062"
           style="opacity:1;fill:url(#linearGradient1205);fill-opacity:1;stroke:none;stroke-width:2.78248882;stroke-linecap:round;stroke-linejoin:round;stroke-miterlimit:4;stroke-dasharray:none;paint-order:stroke fill markers" />
        <rect
           style="opacity:1;fill:url(#linearGradient1207);fill-opacity:1;stroke:none;stroke-width:2.78248882;stroke-linecap:round;stroke-linejoin:round;stroke-miterlimit:4;stroke-dasharray:none;paint-order:stroke fill markers"
           id="rect1064"
           width="100"
           height="100"
           x="286.80621"
           y="-314.90137"
           transform="rotate(45)" />
        <rect
           transform="rotate(45)"
           y="-414.90137"
           x="386.80621"
           height="100"
           width="100"
           id="rect1066"
           style="opacity:1;fill:url(#linearGradient1209);fill-opacity:1;stroke:none;stroke-width:2.78248882;stroke-linecap:round;stroke-linejoin:round;stroke-miterlimit:4;stroke-dasharray:none;paint-order:stroke fill markers" />
      </g>
      <g
         id="g1082"
         transform="translate(8.0921949e-6,-141.42135)"
         style="fill:url(#linearGradient1112);fill-opacity:1">
        <rect
           style="opacity:1;fill:url(#linearGradient1211);fill-opacity:1;stroke:none;stroke-width:2.78248882;stroke-linecap:round;stroke-linejoin:round;stroke-miterlimit:4;stroke-dasharray:none;paint-order:stroke fill markers"
           id="rect1070"
           width="100"
           height="100"
           x="86.806221"
           y="-14.901368"
           transform="rotate(45)" />
        <rect
           transform="rotate(45)"
           y="-114.90137"
           x="186.80623"
           height="100"
           width="100"
           id="rect1072"
           style="opacity:1;fill:url(#linearGradient1213);fill-opacity:1;stroke:none;stroke-width:2.78248882;stroke-linecap:round;stroke-linejoin:round;stroke-miterlimit:4;stroke-dasharray:none;paint-order:stroke fill markers" />
        <rect
           style="opacity:1;fill:url(#linearGradient1215);fill-opacity:1;stroke:none;stroke-width:2.78248882;stroke-linecap:round;stroke-linejoin:round;stroke-miterlimit:4;stroke-dasharray:none;paint-order:stroke fill markers"
           id="rect1074"
           width="100"
           height="100"
           x="286.80621"
           y="-214.90137"
           transform="rotate(45)" />
        <rect
           transform="rotate(45)"
           y="-314.90137"
           x="386.80621"
           height="100"
           width="100"
           id="rect1076"
           style="opacity:1;fill:url(#linearGradient1217);fill-opacity:1;stroke:none;stroke-width:2.78248882;stroke-linecap:round;stroke-linejoin:round;stroke-miterlimit:4;stroke-dasharray:none;paint-order:stroke fill markers" />
        <rect
           style="opacity:1;fill:url(#linearGradient1219);fill-opacity:1;stroke:none;stroke-width:2.78248882;stroke-linecap:round;stroke-linejoin:round;stroke-miterlimit:4;stroke-dasharray:none;paint-order:stroke fill markers"
           id="rect1078"
           width="100"
           height="100"
           x="486.80621"
           y="-414.90137"
           transform="rotate(45)" />
        <rect
           transform="rotate(45)"
           y="85.098633"
           x="-13.193771"
           height="100"
           width="100"
           id="rect1080"
           style="opacity:1;fill:url(#linearGradient1221);fill-opacity:1;stroke:none;stroke-width:2.78248882;stroke-linecap:round;stroke-linejoin:round;stroke-miterlimit:4;stroke-dasharray:none;paint-order:stroke fill markers" />
      </g>
    </g>
    <g
       transform="translate(131.86562,26.605938)"
       id="g840">
      <path
         inkscape:connector-curvature="0"
         id="path22"
         style="font-variant-ligatures:normal;font-variant-caps:normal;font-variant-numeric:normal;font-feature-settings:normal;fill:#ffffff"
         d="m 118.3919,25.908 c -2.9276,0 -9.7971,7.0969 -20.61,21.301 -24.499,32.247 -51.088,80.239 -75.232,111.63 6.406,1.4554 14.535,-3.9844 20.971,-7.4409 4.3684,-9.8592 15.783,-30.606 20.941,-40.143 l 8.2558,-13.458 c 6.1288,-10.108 12.258,-19.499 18.386,-28.169 6.1287,-8.714 12.315,-16.774 18.561,-24.18 -2.4593,6.9275 -4.5644,13.567 -6.3211,19.928 -1.7176,6.3611 -3.1477,12.617 -4.2798,18.761 -1.9128,10.239 -3.3716,17.953 -4.3863,23.138 0,1.3505 0.8192,2.8101 2.4588,4.3786 1.6394,1.5242 3.0413,2.2867 4.2116,2.2867 1.6394,0 3.4354,-0.78656 5.3873,-2.3544 1.9908,-1.6127 4.039,-3.945 6.1469,-6.9949 2.9277,-4.3134 6.951,-10.304 12.065,-17.973 10.93,-16.426 18.389,-26.706 22.371,-30.846 -1.2878,3.7034 -3.0842,8.8274 -5.3873,15.363 -6.1564,17.078 -18.726,62.713 11.23,40.349 0.2041,1.4964 0.50335,2.9731 1.032,4.4116 0.91336,2.3535 1.944,4.2782 3.1037,5.7686 1.1601,1.4898 2.1261,2.2355 2.899,2.2355 1.6167,0 3.674,-1.3308 6.1691,-3.9977 2.4954,-2.7065 6.3126,-7.2395 11.444,-13.594 -2.0034,5.884 -3.005,10.376 -3.005,13.475 0,1.9612 0.27995,3.432 0.84233,4.4126 0.59765,1.0194 1.5816,1.5244 2.9523,1.5244 3.8307,0 12.822,-9.4493 19.085,-16.532 4.8708,-5.5083 6.172,-6.5502 7.7845,-9.3948 -1.2855,-0.76798 -2.5711,-0.56141 -3.8566,0.43977 -0.6994,1.3783 -0.68957,1.9032 -3.929,5.3759 -3.5753,3.8333 -9.0895,7.707 -11.55,7.707 -2.3899,0 -3.5822,-1.4505 -3.5822,-4.3532 0,-1.7652 0.33438,-3.2644 1.0025,-4.4804 0.70334,-1.2161 1.9015,-3.0908 3.5884,-5.6405 1.7222,-2.5887 2.5802,-4.3523 2.5802,-5.2937 -0.2129,-1.4095 -0.57417,-3.1516 -1.2144,-4.0054 -0.71804,-0.92438 -1.9074,0.0151 -2.7161,0.5581 -0.8091,0.53921 -0.7818,0.45311 -1.2532,1.0759 -5.455,8.1677 -12.478,17.117 -20.86,22.723 -0.98386,0.54906 -1.6697,0.82165 -2.0562,0.82165 -0.66814,0 -1.1922,-0.39163 -1.5782,-1.1767 -0.38621,-0.82439 -0.58446,-1.862 -0.58446,-3.1171 0,-3.4518 1.9316,-6.8056 5.7976,-10.061 3.901,-3.2558 10.425,-7.2146 19.563,-11.882 l 2.7394,-1.3555 c 1.2305,-0.47038 2.0884,-0.86418 2.5802,-1.1772 0.49191,-0.35237 0.74259,-0.88472 0.74259,-1.5911 0,-0.43103 -0.1988,-1.0966 -0.58498,-1.9988 -0.35096,-0.90143 -0.83958,-1.6875 -1.4718,-2.3544 -0.63288,-0.70639 -1.319,-1.0594 -2.0567,-1.0594 -2.7413,0 -6.6222,1.3197 -11.648,3.947 -9.9819,5.8569 -18.408,13.314 -22.27,22.806 -1.21,1.7427 -2.391,2.4572 -3.513,2.6086 -2.0744,0.23071 -2.3964,-2.1958 -2.4055,-3.591 0,-1.2194 0.81562,-6.3922 1.4397,-9.1369 0.62408,-2.7885 1.6582,-6.7826 3.1032,-11.967 0.66372,-2.2657 1.5753,-5.4014 2.7471,-9.4098 3.6304,-12.112 5.4482,-19.779 5.4482,-23.003 0,-3.3112 -0.46668,-5.8606 -1.4035,-7.6471 -0.89721,-1.7863 -2.7358,-2.3239 -4.4535,-2.3239 -6.9771,1.6563 -17.986,16.164 -21.779,21.084 -5.426,7.1889 -12.568,17.71 -21.43,31.566 2.3421,-11.197 5.1514,-22.745 8.4305,-34.64 3.3181,-11.894 4.978,-18.407 4.978,-19.539 -0.80471,-3.801 -1.0566,-8.9015 -3.1636,-12.611 -0.66356,-0.78341 -1.4823,-1.1767 -2.4588,-1.1767 z" />
      <path
         inkscape:connector-curvature="0"
         id="path24"
         style="font-variant-ligatures:normal;font-variant-caps:normal;font-variant-numeric:normal;font-feature-settings:normal;fill:#ffffff"
         d="m 222.8819,83.187 c -1.8978,0 -6.472,0.62477 -13.712,1.8805 l -6.7427,1.1302 c -0.83142,1.2207 -1.5714,2.4928 -2.218,3.8158 -1.0543,2.1574 -1.5782,3.9411 -1.5782,5.3532 -0.16652,4.4907 4.5508,2.183 8.3855,1.401 0.73862,-0.16393 1.793,-0.36856 3.1636,-0.64389 1.3715,-0.27535 2.6709,-0.52622 3.9011,-0.76223 1.2305,-0.27534 2.3397,-0.53397 3.3238,-0.76998 -1.8627,2.5106 -3.5507,5.0474 -5.0617,7.597 -1.4762,2.5105 -2.6039,4.8386 -3.377,6.996 -0.77238,2.1574 -1.1607,4.081 -1.1607,5.7676 0,2.8636 0.48719,5.06 1.4718,6.5898 0.98386,1.4898 2.2193,2.2355 3.6954,2.2355 1.2658,0 2.7082,-0.56416 4.3248,-1.7027 1.6167,-1.1767 3.3691,-2.7476 5.2669,-4.7088 5.2859,-6.2572 11.265,-11.837 15.41,-18.615 -1.0003,-0.4785 -2.0303,-0.60008 -3.1109,-0.11472 -1.3007,2.5625 -2.1073,3.8052 -5.0762,6.7329 -3.6257,3.5752 -9.0338,7.2926 -11.178,7.2926 -2.0385,0 -3.0582,-0.91827 -3.0582,-2.7616 0,-1.3341 0.63287,-3.3168 1.897,-5.9449 1.2658,-2.6282 2.827,-5.0567 4.6896,-7.2926 1.5815,-1.8436 2.692,-3.2423 3.3243,-4.1837 0.66666,-0.98009 1.0015,-1.8779 1.0015,-2.7022 0,-1.2948 -0.19879,-2.5932 -0.58498,-3.8876 -0.3862,-1.2948 -0.87482,-2.1116 -1.4717,-2.4644 -0.28047,-0.16393 -0.78783,-0.23771 -1.526,-0.23771 z" />
      <path
         inkscape:connector-curvature="0"
         id="path26"
         style="font-variant-ligatures:normal;font-variant-caps:normal;font-variant-numeric:normal;font-feature-settings:normal;fill:#ffffff;stroke-width:0.18521"
         d="m 257.56869,83.53826 c -8.57578,1.76809 -13.37735,2.63424 -20.92873,3.5227 -0.65303,0.75654 -1.26962,1.54685 -1.84488,2.37476 -1.29956,1.92211 -1.95082,3.48417 -1.95082,4.70007 0,1.4519 0.98365,2.33791 2.95114,2.65147 0,5e-5 0,-4e-5 0.002,0 v -0.001 c 3.90997,0.14223 8.14017,-0.55752 11.44394,-1.18903 2.84668,-0.58838 5.32034,-1.11222 7.42896,-1.5826 -2.38625,1.84663 -4.5495,3.54621 -6.50365,5.10846 l -7.1704,1.87858 3.66771,0.96078 c -6.49883,5.3485 -9.76149,8.56856 -9.76149,9.64278 0,1.37346 0.92962,2.41143 2.79259,3.11708 38.55332,-4.80676 -15.14073,44.21148 -6.06229,36.0715 14.79809,-9.39941 43.92626,-38.98485 12.0205,-42.77981 2.42218,-2.14899 4.44356,-3.86792 6.0697,-5.15939 l 7.07558,-1.85358 -3.50269,-0.91774 c 0.85363,-0.64308 1.73251,-1.29287 2.64331,-1.95267 2.03843,-1.45212 3.266,-2.40958 3.68754,-2.8802 0.45669,-0.5097 0.68983,-1.04421 0.68983,-1.59165 0,-0.58838 -0.37626,-3.1169 -1.11489,-7.58861 -0.28048,-1.68666 -0.82291,-2.5322 -1.63216,-2.5322 z" />
      <path
         d="m 173.34629,140.80334 c -0.4836,0.0273 -0.83102,0.20408 -1.04218,0.53104 -0.20434,0.32693 -0.30674,0.70861 -0.30674,1.14454 v 4.98585 c 0,0.92635 0.3544,1.38943 1.06279,1.38943 h 1.83908 c 0.59264,0.0137 0.87851,0.34077 0.85804,0.98104 l 0.0307,4.61802 c 0,0.40869 -0.0954,0.73547 -0.28613,0.98067 -0.19071,0.24522 -0.48692,0.3679 -0.88879,0.3679 h -1.00128 c -0.39505,0 -0.64705,-0.11568 -0.75603,-0.34727 -0.10898,-0.23158 -0.1635,-0.572 -0.1635,-1.02156 v -2.88131 h -0.71515 v 3.43287 c -0.0136,0.38142 0.0884,0.72884 0.30639,1.04215 0.21795,0.31331 0.47695,0.48351 0.77666,0.51078 h 2.16603 c 0.48362,-0.0272 0.82733,-0.20446 1.03167,-0.53139 0.21116,-0.32695 0.31688,-0.70824 0.31688,-1.14419 v -5.8443 c 0,-0.6539 -0.259,-0.98069 -0.77666,-0.98069 h -2.16566 c -0.57215,0 -0.85841,-0.3135 -0.85841,-0.94014 v -0.65403 l 0.0101,-3.55548 c 0,-0.40869 0.0648,-0.73545 0.19425,-0.98067 0.13623,-0.2452 0.32706,-0.36788 0.57226,-0.36788 h 1.40969 c 0.39507,0 0.64705,0.11568 0.75603,0.34727 0.10897,0.23158 0.1635,0.57235 0.1635,1.02191 v 2.88131 h 0.71515 v -3.43286 c 0.0136,-0.38144 -0.0682,-0.72884 -0.24525,-1.04218 -0.1771,-0.3133 -0.45636,-0.48351 -0.83778,-0.51077 z m 8.65394,0 c -0.62666,5.20385 -0.64027,10.44862 -0.0409,15.73415 h 0.69454 c 0.79014,-5.2583 0.80376,-10.50308 0.0409,-15.73415 z m 7.61176,0 c -0.4836,0.0273 -0.83102,0.2041 -1.04218,0.53104 -0.20432,0.32693 -0.30674,0.70861 -0.30674,1.14454 v 12.38295 c 0,0.40869 0.0954,0.78337 0.28613,1.12393 0.19753,0.34057 0.53831,0.52441 1.02191,0.55165 h 2.16603 c 0.29971,-0.0273 0.55834,-0.19747 0.77629,-0.51077 0.21798,-0.31332 0.32003,-0.66074 0.3064,-1.04216 v -3.43287 l -0.0203,-2.9428 h -2.00249 v 0.77666 h 1.3077 v 5.04734 c 0,0.44956 -0.0542,0.78998 -0.16315,1.02157 -0.10898,0.23158 -0.36133,0.34726 -0.7564,0.34726 h -1.00128 c -0.49042,0 -0.80357,-0.12268 -0.9398,-0.3679 -0.13624,-0.2452 -0.20438,-0.58561 -0.20438,-1.02154 v -7.9694 l 0.0102,-3.55548 c 0,-0.40868 0.0648,-0.73545 0.19427,-0.98067 0.13622,-0.2452 0.32706,-0.36788 0.57226,-0.36788 h 1.40969 c 0.39507,0 0.64707,0.11568 0.75604,0.34727 0.10898,0.23159 0.16351,0.57235 0.16351,1.02191 v 2.88132 h 0.71515 v -3.43287 c 0.0135,-0.38144 -0.0678,-0.72884 -0.24489,-1.04218 -0.17709,-0.31332 -0.45635,-0.48353 -0.83779,-0.51077 z m 27.10548,0.0102 v 15.72396 h 0.7459 v -6.98835 h 0.87865 c 0.19755,0 0.33718,0.0236 0.41891,0.0713 0.1158,0.0817 0.22816,0.22137 0.33714,0.41889 0.11579,0.19753 0.24511,0.54861 0.38814,1.05266 0.14304,0.49723 0.32688,1.21894 0.55165,2.16566 l 0.7564,3.27989 h 0.94992 l -1.0013,-4.29132 c -0.19752,-0.83098 -0.40531,-1.5258 -0.62327,-2.08435 -0.10218,-0.25883 -0.25175,-0.52078 -0.44928,-0.78642 0.54493,-0.20435 0.94648,-0.68806 1.20531,-1.45094 0.26567,-0.76288 0.39865,-1.70304 0.39865,-2.82019 0,-0.86502 -0.0818,-1.65491 -0.24526,-2.37013 -0.15667,-0.71521 -0.36777,-1.21256 -0.63342,-1.49181 -0.25883,-0.2861 -0.6438,-0.42903 -1.15465,-0.42903 z m -18.0739,0.0307 -0.83778,0.0203 v 15.67302 h 0.7969 v -12.50575 l 3.14672,12.50575 h 0.65402 v -15.69321 h -0.77666 v 11.89252 z m -36.23078,0.0203 v 15.67302 h 4.6284 l -0.0308,-0.77664 h -3.8007 v -6.88611 h 3.39231 v -0.8074 h -3.39231 v -6.48772 h 3.67809 l 0.0105,-0.71515 z m 44.75044,0 v 15.67302 h 4.62803 l -0.0304,-0.77664 H 207.96 v -6.88611 h 3.39194 v -0.8074 H 207.96 v -6.48772 h 3.67809 l 0.0102,-0.71515 z m -54.35543,0.0409 v 15.6321 h 2.02286 c 0.34057,0 0.64377,-0.0921 0.90942,-0.276 0.26565,-0.18392 0.48707,-0.44953 0.66415,-0.79693 0.1839,-0.34738 0.35412,-0.81709 0.51077,-1.40968 0.16347,-0.5994 0.29278,-1.35574 0.38814,-2.26846 0.0954,-0.91955 0.14325,-1.97508 0.14325,-3.16709 0,-1.38952 -0.0718,-2.62591 -0.21488,-3.70883 -0.14304,-1.08983 -0.36409,-1.97878 -0.66379,-2.66665 -0.22477,-0.54491 -0.50072,-0.9229 -0.82767,-1.13404 -0.22477,-0.13622 -0.55856,-0.20438 -1.00128,-0.20438 z m 64.66422,0.38815 h 1.31818 c 0.76286,0.0817 1.2429,0.45308 1.44043,1.11377 0.19754,0.66072 0.29626,1.53938 0.29626,2.63591 -0.0409,0.79692 -0.12265,1.46779 -0.24525,2.01268 -0.12261,0.54491 -0.27219,0.97409 -0.44929,1.28741 -0.17708,0.31332 -0.49723,0.51079 -0.9604,0.59253 h -1.39993 z m -63.94931,0.31687 h 1.1543 c 0.40187,0.007 0.73234,0.1225 0.99117,0.34727 0.20434,0.40189 0.4088,1.107 0.61316,2.1151 0.20436,1.0081 0.33367,2.51663 0.38814,4.52616 -0.0818,1.39634 -0.14991,2.44181 -0.20438,3.13672 -0.0545,0.69476 -0.19743,1.42347 -0.42902,2.1864 -0.23158,0.76286 -0.44269,1.25358 -0.6334,1.47155 -0.19073,0.21796 -0.42576,0.38448 -0.70502,0.50029 h -1.17493 z"
         style="font-variant-ligatures:normal;font-variant-caps:normal;font-variant-numeric:normal;fill:#ffffff;stroke-width:0.26459101"
         id="path30"
         inkscape:connector-curvature="0" />
      <path
         inkscape:connector-curvature="0"
         id="path32"
         style="color:#000000;font-variant-ligatures:normal;font-variant-position:normal;font-variant-caps:normal;font-variant-numeric:normal;font-variant-alternates:normal;font-feature-settings:normal;text-indent:0;text-decoration:none;text-decoration-line:none;text-decoration-style:solid;text-decoration-color:#000000;text-transform:none;text-orientation:mixed;dominant-baseline:auto;white-space:normal;shape-padding:0;isolation:auto;mix-blend-mode:normal;solid-color:#000000;fill:#ffffff;stroke-width:1.03004849;color-rendering:auto;image-rendering:auto;shape-rendering:auto"
         dominant-baseline="auto"
         d="M 221.94213,136.177 H 78.55859" />
      <path
         inkscape:connector-curvature="0"
         id="path34"
         style="color:#000000;font-variant-ligatures:normal;font-variant-position:normal;font-variant-caps:normal;font-variant-numeric:normal;font-variant-alternates:normal;font-feature-settings:normal;text-indent:0;text-decoration:none;text-decoration-line:none;text-decoration-style:solid;text-decoration-color:#000000;text-transform:none;text-orientation:mixed;dominant-baseline:auto;white-space:normal;shape-padding:0;isolation:auto;mix-blend-mode:normal;solid-color:#000000;fill:#ffffff;stroke-width:1.03004849;color-rendering:auto;image-rendering:auto;shape-rendering:auto"
         dominant-baseline="auto"
         d="m 78.566017,135.037 v 2.2656 H 221.94956 v -2.2656 z" />
      <path
         d="m 264.2619,70.647 q -0.67591,0 -1.2589,0.24251 -0.58304,0.2425 -1.068,0.7275 -0.48501,0.485 -0.73267,1.0784 -0.24766,0.5882 -0.24766,1.259 0,0.66559 0.24766,1.2538 0.24766,0.58304 0.73267,1.068 0.485,0.485 1.068,0.73267 0.58303,0.2425 1.2589,0.2425 0.68107,0 1.2641,-0.2425 0.58819,-0.24767 1.0732,-0.73267 0.47984,-0.47984 0.71718,-1.0629 0.24251,-0.58304 0.24251,-1.2589 0,-0.68623 -0.24251,-1.2693 -0.2425,-0.5882 -0.71718,-1.068 -0.48501,-0.485 -1.0732,-0.7275 -0.58304,-0.24251 -1.2641,-0.24251 z m 0,-0.53144 q 0.78426,0 1.4602,0.28378 0.68107,0.28378 1.2435,0.84618 0.56243,0.5624 0.84102,1.2383 0.27862,0.6759 0.27862,1.4705 0,0.78426 -0.27862,1.4602 -0.27862,0.67075 -0.84102,1.2331 -0.5624,0.5624 -1.2435,0.84618 -0.67591,0.28378 -1.4602,0.28378 -0.78429,0 -1.4653,-0.28378 -0.67591,-0.28378 -1.2383,-0.84618 -0.5624,-0.56239 -0.84102,-1.2331 -0.27862,-0.67591 -0.27862,-1.4602 0,-0.79459 0.27862,-1.4705 0.27862,-0.67591 0.84102,-1.2383 0.56239,-0.5624 1.2383,-0.84618 0.68107,-0.28378 1.4653,-0.28378 z m -0.13931,2.1361 h -0.63463 v 1.4241 h 0.63463 q 0.56756,0 0.78942,-0.15995 0.22703,-0.15995 0.22703,-0.54692 0,-0.39213 -0.22703,-0.55208 -0.22702,-0.16511 -0.78942,-0.16511 z m 0.0361,-0.53144 q 0.90809,0 1.357,0.30958 0.44889,0.30442 0.44889,0.92873 0,0.44373 -0.27346,0.73266 -0.2683,0.28894 -0.76363,0.37666 0.12383,0.0413 0.2941,0.2425 0.17543,0.19606 0.41277,0.57272 l 0.70687,1.1506 h -0.88746 l -0.66559,-1.0784 q -0.30441,-0.49532 -0.49532,-0.62431 -0.18575,-0.13415 -0.46436,-0.13415 h -0.34054 v 1.8368 h -0.79974 v -4.3134 z"
         id="path36"
         inkscape:connector-curvature="0"
         style="fill:#ffffff;stroke-width:0.26458001px" />
      <rect
         id="rect44"
         style="fill:url(#linearGradient903);stroke:#000000;stroke-width:0.1016;stroke-linecap:square;stroke-dasharray:0.4064, 0.4064;paint-order:markers stroke fill"
         ry="0"
         height="38.98"
         width="38.98"
         y="71.965431"
         x="148.15643"
         transform="rotate(24.18)" />
      <path
         inkscape:connector-curvature="0"
         id="path46"
         style="color:#000000;font-variant-ligatures:normal;font-variant-position:normal;font-variant-caps:normal;font-variant-numeric:normal;font-variant-alternates:normal;font-feature-settings:normal;text-indent:0;text-decoration:none;text-decoration-line:none;text-decoration-style:solid;text-decoration-color:#000000;text-transform:none;text-orientation:mixed;dominant-baseline:auto;white-space:normal;shape-padding:0;isolation:auto;mix-blend-mode:normal;solid-color:#000000;fill:#ffffff;paint-order:markers fill stroke;color-rendering:auto;image-rendering:auto;shape-rendering:auto"
         dominant-baseline="auto"
         d="m 104.8719,124.197 -0.33275,0.7411 -16.964,37.781 38.522,17.297 17.297,-38.522 z m 0.81452,2.1467 35.56,15.966 -15.966,35.56 -35.56,-15.966 0.29604,-0.65932 2.7838,-0.82329 c 9.3166,-2.7561 9.7386,-2.8484 11.472,-2.5121 0.98986,0.1921 2.4272,0.82448 3.1944,1.4056 1.7264,1.3078 1.9605,1.2462 8.6802,-2.2805 6.4241,-3.3715 6.4783,-3.3869 7.6649,-2.1632 2.753,2.839 5.9404,2.5422 7.9122,-0.73643 1.4305,-2.3786 0.41711,-5.7079 -2.0314,-6.6744 -1.4898,-0.58793 -1.5502,-0.77197 -0.53844,-1.6402 0.81979,-0.70341 0.84164,-1.4316 0.15474,-1.7837 -0.15848,-0.0813 -0.35472,-0.1423 -0.58763,-0.17871 -1.5706,-0.2447 -2.1386,0.46204 -1.5145,1.8837 0.29223,0.66548 0.47222,1.2273 0.40035,1.2485 -0.52294,0.1547 -3.7506,-0.19873 -3.8013,-0.41624 -0.035,-0.15033 0.29383,-0.58014 0.73045,-0.95474 0.43656,-0.37458 0.75705,-0.83737 0.71244,-1.0289 -0.15607,-0.66987 -1.5231,-1.1939 -2.2481,-0.86166 -0.6138,0.28134 -0.6672,0.55261 -0.33281,1.6864 0.44333,1.5031 0.45305,1.4936 -1.541,1.5126 -1.5938,0.0152 -1.8839,-0.36551 -0.96054,-1.2618 0.84686,-0.82202 0.51802,-1.8945 -0.63572,-2.0743 -0.7263,-0.11313 -1.0756,0.0157 -1.4905,0.54998 -0.46432,0.5979 -0.45106,0.78911 0.0946,1.333 0.94214,0.9392 0.59202,1.3751 -1.0962,1.3627 -2.0044,-0.015 -2.167,-0.16721 -1.2711,-1.1977 0.96021,-1.1045 0.78224,-1.93 -0.4581,-2.1232 -1.8944,-0.29513 -2.2719,0.6234 -0.98946,2.409 0.47815,0.66574 0.0729,0.84214 -1.9871,0.86185 -1.5424,0.0147 -1.9916,-0.52079 -0.95912,-1.1429 1.4472,-0.87192 0.21078,-2.709 -1.3438,-1.9965 -0.61629,0.28248 -0.66735,0.55163 -0.32515,1.7081 0.34057,1.1509 0.30006,1.3716 -0.25273,1.3666 -0.36264,-0.003 -1.1254,0.016 -1.6952,0.0433 -0.95292,0.0456 -1.7198,-0.83866 -0.92992,-1.0724 0.18912,-0.0559 0.44135,-0.49419 0.56097,-0.97433 0.2606,-1.0462 -0.50702,-1.7834 -1.5391,-1.4781 -0.69815,0.20652 -0.94273,1.8596 -0.3599,2.4343 0.69308,0.68347 0.0355,1.1335 -1.5164,1.0375 -2.3118,-0.14291 -3.0518,0.19501 -3.9276,1.7942 l -0.78341,1.431 -4.7736,1.3483 z" />
    </g>
  </g>
</svg>
