<?xml version="1.0" encoding="UTF-8" standalone="no"?>
<svg
   id="bridge"
   version="1.1"
   height="64"
   width="64"
   xmlns="http://www.w3.org/2000/svg"
   xmlns:svg="http://www.w3.org/2000/svg">
  <path
     id="path11"
     style="color:#000000;fill:#fcaf3e;stroke-width:7.60479;stroke-linejoin:round;-inkscape-stroke:none"
     d="M 40.726159,2.993288 12.232293,30.896859 a 7.2617111,7.411617 0 0 0 -7.1150639,1.831808 h -0.00631 a 7.2617111,7.411617 0 0 0 0,10.448872 L 20.473324,58.850848 c 2.816347,2.874485 7.422461,2.874485 10.238801,0 2.087067,-2.130157 2.623731,-5.261979 1.617538,-7.91123 L 60.999999,22.851186 59.502199,21.305072 31.228904,48.992269 C 31.067927,48.788288 30.897519,48.591186 30.712133,48.401971 L 28.180792,45.820218 56.311239,18.273765 54.796635,16.727651 26.672491,44.278304 23.592867,41.135661 51.605675,13.694243 50.105777,12.15023 22.086667,39.597949 19.009144,36.455307 46.914817,9.1168226 45.417017,7.5707086 17.494541,34.913393 15.356031,32.728667 A 7.2617111,7.411617 0 0 0 14.320386,31.865281 L 42.226057,4.5394014 Z" />
</svg>
