<?xml version="1.0" encoding="UTF-8" standalone="no"?>
<!-- Created with Inkscape (http://www.inkscape.org/) -->

<svg
   xmlns:dc="http://purl.org/dc/elements/1.1/"
   xmlns:cc="http://creativecommons.org/ns#"
   xmlns:rdf="http://www.w3.org/1999/02/22-rdf-syntax-ns#"
   xmlns:svg="http://www.w3.org/2000/svg"
   xmlns="http://www.w3.org/2000/svg"
   xmlns:xlink="http://www.w3.org/1999/xlink"
   xmlns:sodipodi="http://sodipodi.sourceforge.net/DTD/sodipodi-0.dtd"
   xmlns:inkscape="http://www.inkscape.org/namespaces/inkscape"
   width="128"
   height="128"
   viewBox="0 0 33.866666 33.866668"
   version="1.1"
   id="svg8"
   inkscape:version="0.92.5 (0.92.5+68)"
   sodipodi:docname="create_instrument.svg">
  <defs
     id="defs2">
    <linearGradient
       inkscape:collect="always"
       id="linearGradient842">
      <stop
         style="stop-color:#2b0000;stop-opacity:1;"
         offset="0"
         id="stop838" />
      <stop
         style="stop-color:#2b0000;stop-opacity:0;"
         offset="1"
         id="stop840" />
    </linearGradient>
    <linearGradient
       inkscape:collect="always"
       id="linearGradient834">
      <stop
         style="stop-color:#ffffff;stop-opacity:1"
         offset="0"
         id="stop830" />
      <stop
         style="stop-color:#ffffff;stop-opacity:0;"
         offset="1"
         id="stop832" />
    </linearGradient>
    <radialGradient
       inkscape:collect="always"
       xlink:href="#linearGradient834"
       id="radialGradient836"
       cx="54.696442"
       cy="117.64249"
       fx="54.696442"
       fy="117.64249"
       r="57.928517"
       gradientTransform="matrix(0.80593934,-0.37693198,0.1934199,0.41356191,-10.511055,84.409254)"
       gradientUnits="userSpaceOnUse" />
    <linearGradient
       inkscape:collect="always"
       xlink:href="#linearGradient842"
       id="linearGradient844"
       x1="59.175072"
       y1="82.722115"
       x2="145.02373"
       y2="-3.1265624"
       gradientUnits="userSpaceOnUse" />
  </defs>
  <sodipodi:namedview
     id="base"
     pagecolor="#ffffff"
     bordercolor="#666666"
     borderopacity="1.0"
     inkscape:pageopacity="0.0"
     inkscape:pageshadow="2"
     inkscape:zoom="4.4613387"
     inkscape:cx="79.304524"
     inkscape:cy="54.999945"
     inkscape:document-units="px"
     inkscape:current-layer="layer1"
     showgrid="false"
     units="px"
     inkscape:window-width="1920"
     inkscape:window-height="1023"
     inkscape:window-x="0"
     inkscape:window-y="0"
     inkscape:window-maximized="1" />
  <metadata
     id="metadata5">
    <rdf:RDF>
      <cc:Work
         rdf:about="">
        <dc:format>image/svg+xml</dc:format>
        <dc:type
           rdf:resource="http://purl.org/dc/dcmitype/StillImage" />
        <dc:title />
      </cc:Work>
    </rdf:RDF>
  </metadata>
  <g
     inkscape:label="Layer 1"
     inkscape:groupmode="layer"
     id="layer1"
     transform="translate(0,-263.13332)">
    <path
       style="fill:none;stroke:#000000;stroke-width:1.55000007;stroke-miterlimit:4;stroke-dasharray:none"
       d="M 4.722871,290.61645 C 0.58075089,286.72884 0.03734033,282.4298 3.5881136,281.639 c 0.6013908,-0.13393 1.7820445,-0.2514 2.6236914,-0.26104 1.7745474,-0.0203 2.5688095,-0.14502 2.8270039,-0.44402 0.1012333,-0.11721 0.2168464,-0.66105 0.2569479,-1.20853 0.1090392,-1.48859 0.5021953,-2.0819 1.5320752,-2.31202 1.043168,-0.2331 2.435489,0.16867 3.99854,1.15383 l 1.095303,0.69032 2.412584,-2.5642 c 7.291236,-7.74946 7.348452,-7.81711 7.239048,-8.5614 -0.05486,-0.3731 -0.277395,-0.8406 -0.494547,-1.03895 -0.533208,-0.48692 -0.1002,-0.76756 0.447095,-0.28977 0.330489,0.28858 0.438334,0.28677 0.695925,-0.0118 0.237045,-0.27445 0.229296,-0.3614 -0.0348,-0.39124 -0.530867,-0.0599 -0.660858,-0.24181 -0.393932,-0.55078 0.20192,-0.2338 0.301105,-0.22114 0.559501,0.0715 0.340554,0.38556 0.465325,0.31367 0.617566,-0.35547 0.04891,-0.21498 0.0268,-0.33506 -0.04923,-0.26681 -0.220673,0.19828 -0.718756,-0.28239 -0.525065,-0.50669 0.249484,-0.28888 0.521929,-0.21668 0.708219,0.18774 0.134793,0.29261 0.173193,0.29948 0.239099,0.0425 0.273524,-1.06339 0.308904,-1.08625 1.040406,-0.67203 0.889952,0.50391 2.411504,1.66239 3.120753,2.37553 0.57855,0.58191 0.562501,0.62142 -0.434926,1.07337 -0.192423,0.0872 -0.149512,0.16888 0.18162,0.3462 0.326969,0.17493 0.386767,0.28618 0.247071,0.44791 -0.2487,0.28796 -0.528445,0.23964 -0.694089,-0.11987 -0.101968,-0.22115 -0.240453,-0.23263 -0.561832,-0.0463 -0.234623,0.1361 -0.401986,0.31538 -0.371959,0.39834 0.03008,0.0828 0.104802,0.0929 0.166082,0.0216 0.06137,-0.0711 0.238009,-0.0328 0.392592,0.085 0.174878,0.13303 0.190785,0.31847 0.04206,0.49068 -0.260936,0.30214 -0.477838,0.21671 -0.648931,-0.25558 -0.08569,-0.23642 -0.176819,-0.22682 -0.410392,0.0437 -0.311513,0.36072 -0.220253,0.78873 0.140674,0.66035 0.159111,-0.0564 0.234431,-0.003 0.329137,0.23677 0.16232,0.41081 -0.340502,0.56465 -0.707198,0.21638 -0.17344,-0.16462 -0.604099,-0.25778 -1.076424,-0.23186 -0.772975,0.0419 -0.812275,0.0755 -2.159179,1.84202 -0.754521,0.98962 -2.997866,3.78122 -4.985192,6.20358 -3.976928,4.84749 -3.943811,4.78156 -3.006696,5.98222 0.686209,0.87922 0.74435,0.91205 1.946019,1.09926 1.218058,0.18981 1.221255,0.19149 1.413597,0.72236 0.219676,0.60636 -0.417919,1.16219 -1.671255,1.45684 -1.086987,0.25556 -1.468879,0.46074 -1.859536,0.99905 -0.09957,0.137 -0.01245,1.10449 0.19335,2.14983 0.489266,2.48485 0.33847,3.50944 -0.654996,4.4504 -1.610335,1.52521 -4.20818,1.29589 -7.6403941,-0.67447 -1.5568345,-0.89397 -3.5131983,-2.35936 -4.9506949,-3.70834 z"
       id="path854"
       inkscape:connector-curvature="0" />
    <path
       inkscape:connector-curvature="0"
       id="path2964"
       d="M 4.722871,290.61645 C 0.58075089,286.72884 0.03734033,282.4298 3.5881136,281.639 c 0.6013908,-0.13393 1.7820445,-0.2514 2.6236914,-0.26104 1.7745474,-0.0203 2.5688095,-0.14502 2.8270039,-0.44402 0.1012333,-0.11721 0.2168464,-0.66105 0.2569479,-1.20853 0.1090392,-1.48859 0.5021953,-2.0819 1.5320752,-2.31202 1.043168,-0.2331 2.435489,0.16867 3.99854,1.15383 l 1.095303,0.69032 2.412584,-2.5642 c 7.291236,-7.74946 7.348452,-7.81711 7.239048,-8.5614 -0.05486,-0.3731 -0.277395,-0.8406 -0.494547,-1.03895 -0.533208,-0.48692 -0.1002,-0.76756 0.447095,-0.28977 0.330489,0.28858 0.438334,0.28677 0.695925,-0.0118 0.237045,-0.27445 0.229296,-0.3614 -0.0348,-0.39124 -0.530867,-0.0599 -0.660858,-0.24181 -0.393932,-0.55078 0.20192,-0.2338 0.301105,-0.22114 0.559501,0.0715 0.340554,0.38556 0.465325,0.31367 0.617566,-0.35547 0.04891,-0.21498 0.0268,-0.33506 -0.04923,-0.26681 -0.220673,0.19828 -0.718756,-0.28239 -0.525065,-0.50669 0.249484,-0.28888 0.521929,-0.21668 0.708219,0.18774 0.134793,0.29261 0.173193,0.29948 0.239099,0.0425 0.273524,-1.06339 0.308904,-1.08625 1.040406,-0.67203 0.889952,0.50391 2.411504,1.66239 3.120753,2.37553 0.57855,0.58191 0.562501,0.62142 -0.434926,1.07337 -0.192423,0.0872 -0.149512,0.16888 0.18162,0.3462 0.326969,0.17493 0.386767,0.28618 0.247071,0.44791 -0.2487,0.28796 -0.528445,0.23964 -0.694089,-0.11987 -0.101968,-0.22115 -0.240453,-0.23263 -0.561832,-0.0463 -0.234623,0.1361 -0.401986,0.31538 -0.371959,0.39834 0.03008,0.0828 0.104802,0.0929 0.166082,0.0216 0.06137,-0.0711 0.238009,-0.0328 0.392592,0.085 0.174878,0.13303 0.190785,0.31847 0.04206,0.49068 -0.260936,0.30214 -0.477838,0.21671 -0.648931,-0.25558 -0.08569,-0.23642 -0.176819,-0.22682 -0.410392,0.0437 -0.311513,0.36072 -0.220253,0.78873 0.140674,0.66035 0.159111,-0.0564 0.234431,-0.003 0.329137,0.23677 0.16232,0.41081 -0.340502,0.56465 -0.707198,0.21638 -0.17344,-0.16462 -0.604099,-0.25778 -1.076424,-0.23186 -0.772975,0.0419 -0.812275,0.0755 -2.159179,1.84202 -0.754521,0.98962 -2.997866,3.78122 -4.985192,6.20358 -3.976928,4.84749 -3.943811,4.78156 -3.006696,5.98222 0.686209,0.87922 0.74435,0.91205 1.946019,1.09926 1.218058,0.18981 1.221255,0.19149 1.413597,0.72236 0.219676,0.60636 -0.417919,1.16219 -1.671255,1.45684 -1.086987,0.25556 -1.468879,0.46074 -1.859536,0.99905 -0.09957,0.137 -0.01245,1.10449 0.19335,2.14983 0.489266,2.48485 0.33847,3.50944 -0.654996,4.4504 -1.610335,1.52521 -4.20818,1.29589 -7.6403941,-0.67447 -1.5568345,-0.89397 -3.5131983,-2.35936 -4.9506949,-3.70834 z"
       style="fill:#800000;stroke:none;stroke-width:0.30000001;stroke-miterlimit:4;stroke-dasharray:none" />
    <path
       style="fill:url(#linearGradient844);fill-opacity:1;stroke:none;stroke-width:1.13385832;stroke-miterlimit:4;stroke-dasharray:none"
       d="m 117.7207,12.308594 -2.28515,3.617187 -6.94727,3.363281 -6.27734,4.033204 -42.587893,49.986328 c 0,0 -1.120138,7.844896 3.138672,10.310547 4.258813,2.465612 -5.380155,4.481707 -3.138672,14.568359 2.241479,10.08669 1.793292,19.05377 -5.603592,18.82965 -17.178066,-3.07849 -9.218129,-0.18263 -29.011643,-7.05621 3.892825,3.04565 7.996773,5.88191 11.552735,7.92383 12.972148,7.44703 22.790648,8.3134 28.876953,2.54882 3.754832,-3.55638 4.325757,-7.42875 2.476562,-16.82031 -0.777826,-3.95089 -1.106796,-7.607203 -0.730468,-8.124999 1.476499,-2.034557 2.919046,-2.811447 7.027344,-3.777343 4.737017,-1.113638 7.146677,-3.214106 6.316406,-5.50586 -0.726962,-2.006438 -0.738113,-2.013077 -5.341797,-2.730469 -4.541741,-0.707565 -4.761923,-0.83126 -7.355469,-4.154297 -3.541852,-4.537927 -3.667627,-4.288153 11.363281,-22.609374 7.511154,-9.155377 15.990064,-19.70697 18.841797,-23.447266 5.090664,-6.676611 5.240634,-6.802575 8.162114,-6.960938 1.78516,-0.09797 3.41283,0.252815 4.06835,0.875 1.38594,1.316296 3.28537,0.736262 2.67188,-0.816406 -0.35794,-0.906217 -0.64278,-1.10965 -1.24414,-0.896484 -1.36413,0.485215 -1.70862,-1.132743 -0.53125,-2.496094 0.88279,-1.022438 1.22691,-1.057618 1.55078,-0.164062 0.64665,1.785033 1.46691,2.10679 2.45313,0.964843 0.56211,-0.650872 0.5008,-1.350725 -0.16016,-1.853515 -0.58425,-0.445229 -1.25047,-0.59099 -1.48242,-0.322266 -0.23161,0.26948 -0.51522,0.232867 -0.62891,-0.08008 -0.11349,-0.31355 0.51949,-0.991466 1.40625,-1.50586 1.21466,-0.704239 1.73766,-0.662014 2.12305,0.173829 0.62605,1.358778 1.68308,1.541477 2.62305,0.453125 0.52798,-0.611263 0.30219,-1.030254 -0.9336,-1.691407 -1.25152,-0.670185 -1.41281,-0.979019 -0.68555,-1.308593 3.76981,-1.708158 3.83118,-1.857296 1.64454,-4.056641 -0.38759,-0.389707 -0.85212,-0.822016 -1.35157,-1.269531 z"
       transform="matrix(0.26458334,0,0,0.26458334,0,263.13332)"
       id="path820"
       inkscape:connector-curvature="0"
       sodipodi:nodetypes="cccccccccccccccccsccccccccccccccccccc" />
    <path
       style="opacity:0.502;fill:url(#radialGradient836);stroke:none;stroke-width:1.13385832;stroke-miterlimit:4;stroke-dasharray:none;fill-opacity:1"
       d="M 113.43164,8.7929688 C 94.419879,26.392703 47.091956,90.22423 25.552734,91.240234 11.718049,91.892816 9.0746075,80.931226 9.2636719,71.648438 0.86385578,76.955343 4.1441567,91.009718 17.849609,103.87305 v -0.004 c 5.433058,5.09851 12.826839,10.63684 18.710938,14.01563 12.972148,7.44703 22.790648,8.3134 28.876953,2.54882 3.754832,-3.55638 4.325757,-7.42875 2.476562,-16.82031 -0.777826,-3.95089 -1.106796,-7.607203 -0.730468,-8.124999 1.476499,-2.034557 2.919046,-2.811447 7.027344,-3.777343 4.737017,-1.113638 7.146677,-3.214106 6.316406,-5.50586 -0.726962,-2.006438 -0.738113,-2.013077 -5.341797,-2.730469 -4.541741,-0.707565 -4.761923,-0.83126 -7.355469,-4.154297 -3.541852,-4.537927 -3.667627,-4.288153 11.363281,-22.609374 7.511154,-9.155377 15.990064,-19.70697 18.841797,-23.447266 5.090664,-6.676611 5.240634,-6.802575 8.162114,-6.960938 1.78516,-0.09797 3.41283,0.252815 4.06835,0.875 1.38594,1.316296 3.28537,0.736262 2.67188,-0.816406 -0.35794,-0.906217 -0.64278,-1.10965 -1.24414,-0.896484 -1.36413,0.485215 -1.70862,-1.132743 -0.53125,-2.496094 0.88279,-1.022438 1.22691,-1.057618 1.55078,-0.164062 0.64665,1.785033 1.46691,2.10679 2.45313,0.964843 0.56211,-0.650872 0.5008,-1.350725 -0.16016,-1.853515 -0.58425,-0.445229 -1.25047,-0.59099 -1.48242,-0.322266 -0.23161,0.26948 -0.51522,0.232867 -0.62891,-0.08008 -0.11349,-0.31355 0.51949,-0.991466 1.40625,-1.50586 1.21466,-0.704239 1.73766,-0.662014 2.12305,0.173829 0.62605,1.358778 1.68308,1.541477 2.62305,0.453125 0.52798,-0.611263 0.30219,-1.030254 -0.9336,-1.691407 -1.25152,-0.670185 -1.41281,-0.979019 -0.68555,-1.308593 3.76981,-1.708158 3.83118,-1.857296 1.64454,-4.056641 -1.33987,-1.347216 -3.4482,-3.116036 -5.64063,-4.7851562 z"
       transform="matrix(0.26458334,0,0,0.26458334,0,263.13332)"
       id="path825"
       inkscape:connector-curvature="0" />
  </g>
</svg>
