<?xml version="1.0" encoding="UTF-8" standalone="no"?>
<!-- Uploaded to: SVG Repo, www.svgrepo.com, Generator: SVG Repo Mixer Tools -->

<svg
   fill="#000000"
   width="64"
   height="64"
   viewBox="0 0 2.56 2.56"
   style="clip-rule:evenodd;fill-rule:evenodd;stroke-linejoin:round;stroke-miterlimit:2"
   version="1.1"
   xml:space="preserve"
   id="svg1"
   xmlns:xlink="http://www.w3.org/1999/xlink"
   xmlns="http://www.w3.org/2000/svg"
   xmlns:svg="http://www.w3.org/2000/svg"><defs
     id="defs1"><linearGradient
       id="linearGradient16"><stop
         style="stop-color:#d9700f;stop-opacity:1;"
         offset="0"
         id="stop16" /><stop
         style="stop-color:#fcaf3e;stop-opacity:1;"
         offset="1"
         id="stop17" /></linearGradient><linearGradient
       id="linearGradient7"><stop
         style="stop-color:#06169a;stop-opacity:1;"
         offset="0"
         id="stop4" /><stop
         style="stop-color:#94b9ee;stop-opacity:1;"
         offset="1"
         id="stop7" /></linearGradient><linearGradient
       id="linearGradient3"><stop
         style="stop-color:#2b40fa;stop-opacity:1;"
         offset="0"
         id="stop2" /><stop
         style="stop-color:#34bde2;stop-opacity:1;"
         offset="1"
         id="stop3" /></linearGradient><linearGradient
       id="linearGradient5"><stop
         style="stop-color:#ef2929;stop-opacity:1;"
         offset="0"
         id="stop19" /><stop
         style="stop-color:#ef2929;stop-opacity:0;"
         offset="1"
         id="stop20" /></linearGradient><linearGradient
       id="swatch18"><stop
         style="stop-color:#ef2929;stop-opacity:1;"
         offset="0"
         id="stop18" /></linearGradient><linearGradient
       id="swatch15"><stop
         style="stop-color:#3d0000;stop-opacity:1;"
         offset="0"
         id="stop15" /></linearGradient><linearGradient
       id="linearGradient3836-9"><stop
         style="stop-color:#a40000;stop-opacity:1"
         offset="0"
         id="stop3838-8" /><stop
         style="stop-color:#ef2929;stop-opacity:1"
         offset="1"
         id="stop3840-1" /></linearGradient><linearGradient
       gradientTransform="matrix(1.4901233,0,0,1.6118776,-21.644439,-42.14637)"
       xlink:href="#linearGradient3767"
       id="linearGradient3783"
       x1="55.357826"
       y1="54.890392"
       x2="49.745472"
       y2="35.868412"
       gradientUnits="userSpaceOnUse" /><linearGradient
       id="linearGradient3777"><stop
         style="stop-color:#4e9a06;stop-opacity:1"
         offset="0"
         id="stop3779" /><stop
         style="stop-color:#8ae234;stop-opacity:1"
         offset="1"
         id="stop3781" /></linearGradient><linearGradient
       gradientTransform="matrix(1.4901233,0,0,1.6118776,-21.644439,-42.14637)"
       xlink:href="#linearGradient7"
       id="linearGradient3773"
       x1="31.492367"
       y1="62.144432"
       x2="21.494629"
       y2="28.316137"
       gradientUnits="userSpaceOnUse" /><linearGradient
       id="linearGradient3767"><stop
         style="stop-color:#06169a;stop-opacity:1;"
         offset="0"
         id="stop3769" /><stop
         style="stop-color:#72a3ea;stop-opacity:1;"
         offset="1"
         id="stop3771" /></linearGradient><linearGradient
       id="linearGradient3794"><stop
         style="stop-color:#000000;stop-opacity:1"
         offset="0"
         id="stop3796" /><stop
         style="stop-color:#000000;stop-opacity:0"
         offset="1"
         id="stop3798" /></linearGradient><linearGradient
       id="linearGradient3864"><stop
         id="stop3866"
         offset="0"
         style="stop-color:#71b2f8;stop-opacity:1" /><stop
         id="stop3868"
         offset="1"
         style="stop-color:#002795;stop-opacity:1" /></linearGradient><linearGradient
       gradientTransform="translate(0,-4)"
       xlink:href="#linearGradient3767-6"
       id="linearGradient3773-5"
       x1="22.116516"
       y1="55.717518"
       x2="17.328547"
       y2="21.31134"
       gradientUnits="userSpaceOnUse" /><linearGradient
       id="linearGradient3767-6"><stop
         style="stop-color:#3465a4;stop-opacity:1"
         offset="0"
         id="stop3769-2" /><stop
         style="stop-color:#729fcf;stop-opacity:1"
         offset="1"
         id="stop3771-9" /></linearGradient><linearGradient
       gradientTransform="translate(0,-4)"
       xlink:href="#linearGradient3777-2"
       id="linearGradient3783-1"
       x1="53.896763"
       y1="51.179787"
       x2="47.502235"
       y2="21.83742"
       gradientUnits="userSpaceOnUse" /><linearGradient
       id="linearGradient3777-2"><stop
         style="stop-color:#204a87;stop-opacity:1"
         offset="0"
         id="stop3779-7" /><stop
         style="stop-color:#3465a4;stop-opacity:1"
         offset="1"
         id="stop3781-0" /></linearGradient><radialGradient
       xlink:href="#linearGradient3794"
       id="radialGradient3800"
       cx="1"
       cy="45"
       fx="1"
       fy="45"
       r="41"
       gradientTransform="matrix(0.93348213,-2.2905276e-8,0,0.28687573,0.06651751,32.090592)"
       gradientUnits="userSpaceOnUse" /><linearGradient
       id="linearGradient3836-0-3-3"><stop
         style="stop-color:#3465a4;stop-opacity:1"
         offset="0"
         id="stop3838-2" /><stop
         style="stop-color:#ffffff;stop-opacity:1"
         offset="1"
         id="stop3840-5" /></linearGradient><linearGradient
       xlink:href="#linearGradient16"
       id="linearGradient17"
       x1="25.992186"
       y1="23.403967"
       x2="10.114134"
       y2="7.3299737"
       gradientUnits="userSpaceOnUse" /><linearGradient
       gradientTransform="translate(0,-4)"
       xlink:href="#linearGradient3777-5"
       id="linearGradient3783-7"
       x1="53.896763"
       y1="51.179787"
       x2="47.502235"
       y2="21.83742"
       gradientUnits="userSpaceOnUse" /><linearGradient
       id="linearGradient3777-5"><stop
         style="stop-color:#ce5c00;stop-opacity:1"
         offset="0"
         id="stop3779-3" /><stop
         style="stop-color:#fcaf3e;stop-opacity:1"
         offset="1"
         id="stop3781-5" /></linearGradient><linearGradient
       gradientTransform="translate(0,-4)"
       xlink:href="#linearGradient3777-5"
       id="linearGradient3773-6"
       x1="22.116516"
       y1="55.717518"
       x2="17.328547"
       y2="21.31134"
       gradientUnits="userSpaceOnUse" /><linearGradient
       xlink:href="#linearGradient3836-0-3-3"
       id="linearGradient1731"
       x1="56.876698"
       y1="50.441162"
       x2="17.784973"
       y2="23.323475"
       gradientUnits="userSpaceOnUse" /></defs><g
     id="g2"
     transform="matrix(0.08082902,0,0,0.08082902,-0.02051184,0.01109576)"><path
       id="path1"
       style="fill:#fcaf3e;fill-opacity:1;stroke:#000000;stroke-width:1.17849"
       d="m 16.089375,1.6044531 c -4.328591,0 -8.6548169,0.5433135 -11.2486719,1.5815625 -1.3917958,0.558604 -2.3334133,1.3045913 -2.7553125,2.10125 -0.2922654,0.5503546 -0.4148856,1.2998541 -0.31,2.2167188 0.1178489,1.035892 0.526852,2.3499208 1.1573438,3.8253906 2.2685919,5.318522 7.4362736,12.957464 10.2717186,16.972578 0.0012,0 0.0012,0.0012 0.0012,0.0024 0.663489,0.933363 1.738258,1.488438 2.88375,1.488438 1.145492,0 2.220267,-0.555068 2.882578,-1.48961 v -7.8e-5 c 0.0012,-0.0012 0.0012,-0.0011 0.0012,-0.0023 2.836624,-4.013935 8.004377,-11.652962 10.272969,-16.971484 0.630491,-1.4754699 1.03941,-2.7894987 1.158437,-3.8253908 0.103685,-0.9168216 -0.01891,-1.666286 -0.31,-2.2166406 C 29.67151,4.4906289 28.729898,3.7446416 27.338103,3.1860376 24.744247,2.1477886 20.418023,1.6044751 16.089431,1.6044751 Z m 3.618984,2.9940625 -2.34e-4,7.032e-4 c 0.09951,0 0.18293,0.040092 0.250547,0.1199218 0.214705,0.3780008 0.240421,0.8977535 0.322422,1.2850781 0,0.1153517 -0.169149,0.7790084 -0.507266,1.9910157 -0.334143,1.2121091 -0.620401,2.3888616 -0.859062,3.5298436 0.903044,-1.411936 1.630758,-2.4840864 2.183671,-3.2166405 0.38651,-0.5013516 1.508326,-1.9796593 2.219297,-2.1484375 0.175035,0 0.362402,0.054772 0.453829,0.2367969 0.09546,0.1820456 0.143046,0.441805 0.143046,0.7792187 0,0.328528 -0.185215,1.1098407 -0.555156,2.3440625 -0.119407,0.4084589 -0.212366,0.7279519 -0.28,0.9588279 -0.147246,0.528294 -0.252578,0.935303 -0.316172,1.219453 -0.06359,0.279687 -0.146718,0.806836 -0.146718,0.931094 9.27e-4,0.142172 0.03377,0.389447 0.245156,0.365938 0.114332,-0.01543 0.234669,-0.08828 0.357968,-0.26586 0.165414,-0.305049 0.236882,0.323424 0.03164,0.589297 -3.052538,2.278908 -1.771717,-2.371302 -1.144375,-4.1115624 0.234688,-0.6659824 0.417757,-1.1881677 0.548985,-1.5655469 -0.405769,0.4218691 -1.165835,1.4693816 -2.27961,3.1432033 -0.52112,0.781477 -0.931118,1.391946 -1.229453,1.831484 -0.214797,0.310787 -0.423464,0.548477 -0.626328,0.712813 -0.1989,0.159764 -0.381928,0.239922 -0.548984,0.239922 -0.119255,0 -0.262163,-0.07773 -0.429219,-0.233047 -0.167077,-0.159832 -0.250547,-0.308555 -0.250547,-0.446172 0.103399,-0.528355 0.252115,-1.314451 0.447031,-2.357813 C 17.854189,9.9060313 17.999896,9.2685913 18.174921,8.6203906 18.35393,7.9722001 18.568457,7.2956048 18.819062,6.5896875 18.18259,7.3443643 17.552174,8.1657089 16.927655,9.0536719 16.303208,9.9371514 15.678669,10.894128 15.05414,11.924141 l -0.841328,1.371328 c -0.525604,0.971827 -1.688764,3.085965 -2.133907,4.090625 -0.655833,0.35222 -1.484177,0.906509 -2.1369529,0.758203 2.4602909,-3.198766 5.1697839,-8.089163 7.6662499,-11.3751564 1.101843,-1.4474081 1.801832,-2.170625 2.100156,-2.170625 z" /><path
       id="path11"
       style="fill:url(#linearGradient17);fill-opacity:1;stroke-width:1.17848;stroke-dasharray:none"
       d="m 16.089844,3.4160156 c -4.176837,0 -8.4251669,0.5901835 -10.5761721,1.4511719 C 4.3794421,5.3229294 3.807294,5.9085626 3.6875,6.1347656 l -0.00195,0.00195 C 3.614013,6.2714238 3.502167,6.6518807 3.576175,7.2988249 3.660155,8.0370076 4.0104625,9.2384613 4.5996125,10.617185 v 2.34e-4 2.34e-4 3.91e-4 2.34e-4 3.91e-4 2.34e-4 3.13e-4 c 2.1246622,4.98109 7.2768035,12.660816 10.0859375,16.638672 0.324319,0.453671 0.84551,0.722656 1.404297,0.722656 0.558581,0 1.078798,-0.267674 1.402344,-0.722656 v -0.002 c 2.810015,-3.976282 7.963311,-11.655823 10.08789,-16.636718 v -0.002 c 0.58819,-1.3765035 0.937776,-2.5748622 1.023438,-3.316407 V 7.296875 C 28.675331,6.652731 28.563862,6.2702821 28.492188,6.1347656 28.370368,5.906579 27.797128,5.3224603 26.664062,4.8671875 24.512767,4.0060823 20.266682,3.4160156 16.089844,3.4160156 Z m 3.618515,1.1825 -2.34e-4,7.032e-4 c 0.09951,0 0.18293,0.040092 0.250547,0.1199218 0.214705,0.3780008 0.240421,0.8977535 0.322422,1.2850781 0,0.1153517 -0.169149,0.7790084 -0.507266,1.9910157 -0.334143,1.2121091 -0.620401,2.3888616 -0.859062,3.5298436 0.903044,-1.411936 1.630758,-2.4840864 2.183671,-3.2166405 0.38651,-0.5013516 1.508326,-1.9796593 2.219297,-2.1484375 0.175035,0 0.362402,0.054772 0.453829,0.2367969 0.09546,0.1820456 0.143046,0.441805 0.143046,0.7792187 0,0.328528 -0.185215,1.1098407 -0.555156,2.3440625 -0.119407,0.4084589 -0.212366,0.7279519 -0.28,0.9588279 -0.147246,0.528294 -0.252578,0.935303 -0.316172,1.219453 -0.06359,0.279687 -0.146718,0.806836 -0.146718,0.931094 9.27e-4,0.142172 0.03377,0.389447 0.245156,0.365938 0.114332,-0.01543 0.234669,-0.08828 0.357968,-0.26586 0.165414,-0.305049 0.236882,0.323424 0.03164,0.589297 -3.052538,2.278908 -1.771717,-2.371302 -1.144375,-4.1115624 0.234688,-0.6659824 0.417757,-1.1881677 0.548985,-1.5655469 -0.405769,0.4218691 -1.165835,1.4693816 -2.27961,3.1432033 -0.52112,0.781477 -0.931118,1.391946 -1.229453,1.831484 -0.214797,0.310787 -0.423464,0.548477 -0.626328,0.712813 -0.1989,0.159764 -0.381928,0.239922 -0.548984,0.239922 -0.119255,0 -0.262163,-0.07773 -0.429219,-0.233047 -0.167077,-0.159832 -0.250547,-0.308555 -0.250547,-0.446172 0.103399,-0.528355 0.252115,-1.314451 0.447031,-2.357813 C 17.854189,9.9060313 17.999896,9.2685913 18.174921,8.6203906 18.35393,7.9722001 18.568457,7.2956048 18.819062,6.5896875 18.18259,7.3443643 17.552174,8.1657089 16.927655,9.0536719 16.303208,9.9371514 15.678669,10.894128 15.05414,11.924141 l -0.841328,1.371328 c -0.525604,0.971827 -1.688764,3.085965 -2.133907,4.090625 -0.655833,0.35222 -1.484177,0.906509 -2.1369529,0.758203 2.4602909,-3.198766 5.1697839,-8.089163 7.6662499,-11.3751564 1.101843,-1.4474081 1.801832,-2.170625 2.100156,-2.170625 z" /></g></svg>
