<?xml version="1.0" encoding="UTF-8" standalone="no"?>
<svg
   width="64"
   height="64"
   id="data"
   version="1.1"
   xmlns:xlink="http://www.w3.org/1999/xlink"
   xmlns="http://www.w3.org/2000/svg"
   xmlns:svg="http://www.w3.org/2000/svg">
  <defs
     id="defs1">
    <linearGradient
       id="lg1">
      <stop
         style="stop-color:#fba920;stop-opacity:1;"
         offset="0"
         id="stop8" />
      <stop
         style="stop-color:#fcd6a0;stop-opacity:1;"
         offset="1"
         id="stop9" />
    </linearGradient>
    <linearGradient
       id="lg2">
      <stop
         style="stop-color:#321900;stop-opacity:1"
         offset="0"
         id="stop5" />
      <stop
         style="stop-color:#ff8b2a;stop-opacity:1;"
         offset="1"
         id="stop6" />
    </linearGradient>
    <linearGradient
       xlink:href="#lg2"
       id="linearGradient6"
       x1="8.0579929"
       y1="2.0415614"
       x2="33.683685"
       y2="35.449669"
       gradientUnits="userSpaceOnUse"
       gradientTransform="matrix(1.8457858,0,0,1.8750635,2.3019049,2.5640451)" />
    <linearGradient
       xlink:href="#lg1"
       id="linearGradient9"
       x1="1.2453251"
       y1="2.2899935"
       x2="1.217081"
       y2="0.314614"
       gradientUnits="userSpaceOnUse"
       gradientTransform="matrix(26.927444,0,0,26.927444,-2.4671237,-2.39448)" />
  </defs>
  <path
     style="display:inline;fill:url(#linearGradient9);fill-opacity:1;stroke:#321900;stroke-width:2.15419;stroke-dasharray:none"
     d="m 31.999434,4.1430844 c -8.421811,0 -16.839019,1.0738503 -21.885686,3.1259348 -2.7079109,1.1040737 -4.5399446,2.5785047 -5.3608016,4.1530898 -0.5686376,1.087769 -0.8072121,2.569142 -0.6031424,4.381312 0.2292872,2.047425 1.0250551,4.644583 2.2517563,7.560827 4.4138267,10.511979 14.4681917,25.610235 19.9849017,33.546048 0.0023,0 0.0023,0.0024 0.0023,0.0047 1.290901,1.844772 3.381998,2.941875 5.610693,2.941875 2.228704,0 4.319806,-1.097078 5.608413,-2.944193 v -1.54e-4 c 0.0023,-0.0024 0.0023,-0.0022 0.0023,-0.0045 5.519,-7.933482 15.573503,-23.031907 19.987331,-33.543886 1.226699,-2.916245 2.0223,-5.513403 2.253881,-7.560829 C 60.053113,13.991225 59.81459,12.50992 59.248238,11.422152 58.42516,9.8475681 56.593135,8.3731352 53.885225,7.2690626 48.838559,5.2169789 40.421353,4.1431278 31.999541,4.1431278 Z"
     id="path1" />
  <path
     id="path6"
     style="clip-rule:evenodd;display:inline;fill:url(#linearGradient6);fill-opacity:1;fill-rule:evenodd;stroke:none;stroke-width:1.0771;stroke-linejoin:round;stroke-miterlimit:2;stroke-dasharray:none;stroke-opacity:1"
     d="m 31.999991,7.6280563 c -7.90471,0 -15.470946,0.9756001 -20.010838,2.8216187 -2.3165839,0.944521 -3.5620099,2.064011 -4.0450069,2.990505 -0.3012481,0.576271 -0.5102482,1.537702 -0.3501295,2.95961 0.1892461,1.689797 0.8584388,3.91478 1.9874904,6.598882 4.106616,9.780321 13.524958,23.935246 18.744202,31.443544 l 0.0041,0.0041 c 0.0017,0.0023 0.0026,0.006 0.0041,0.0082 0.844014,1.198782 2.213463,1.915402 3.666042,1.915402 1.444846,3e-6 2.80214,-0.711073 3.645451,-1.900996 l 0.0206,-0.02472 v -0.0041 C 40.886934,46.935213 50.313798,32.7793 54.420535,22.998683 55.549842,20.313986 56.214573,18.091027 56.405971,16.399801 56.563957,14.980345 56.35553,14.015748 56.055841,13.44018 55.57237,12.515363 54.327334,11.394997 52.008773,10.449675 47.47047,8.6043057 39.904707,7.6280563 31.999991,7.6280563 Z m 6.893404,2.8937047 c 0.189569,0 0.346933,0.07828 0.475754,0.232734 0.408947,0.731438 0.457551,1.736429 0.613758,2.485909 0,0.223202 -0.321891,1.508206 -0.965942,3.853467 -0.636484,2.345456 -1.180714,4.621729 -1.635303,6.829554 1.720125,-2.732127 3.105089,-4.806531 4.158286,-6.224039 0.736224,-0.970126 2.874045,-3.829634 4.228306,-4.156224 0.333389,0 0.690851,0.10499 0.865018,0.457228 0.182029,0.352262 0.271778,0.854707 0.271778,1.507611 0,0.635708 -0.353934,2.149001 -1.058625,4.537246 -0.227537,0.790374 -0.402539,1.406867 -0.531386,1.853621 -0.280477,1.02226 -0.482298,1.810439 -0.603471,2.360274 -0.120905,0.541201 -0.2801,1.561689 -0.2801,1.802127 0.0018,0.275064 0.0649,0.753995 0.467515,0.708488 0.217843,-0.02962 0.446834,-0.171259 0.681722,-0.51488 0.315078,-0.590276 0.452623,0.626548 0.06166,1.141024 -5.814602,4.409727 -3.376056,-4.588702 -2.181096,-7.956143 0.447022,-1.288691 0.796298,-2.299402 1.046265,-3.029637 -0.772925,0.816327 -2.22006,2.843047 -4.341584,6.081928 -0.992626,1.512172 -1.775542,2.694016 -2.343819,3.544527 -0.409162,0.601371 -0.806073,1.059838 -1.192508,1.377878 -0.37887,0.309154 -0.728038,0.465467 -1.046266,0.465467 -0.227268,0 -0.497377,-0.150524 -0.815606,-0.451061 -0.318255,-0.309289 -0.477827,-0.596658 -0.477827,-0.862971 0.19684,-1.022381 0.479308,-2.545093 0.850584,-4.564019 0.219728,-1.211476 0.498669,-2.444716 0.832058,-3.698998 0.340982,-1.254262 0.748098,-2.563708 1.225441,-3.929672 -1.212354,1.460316 -2.412618,3.049691 -3.602197,4.767919 -1.189439,1.709548 -2.379659,3.561576 -3.569246,5.554675 l -1.602345,2.654804 c -1.000834,1.880473 -3.215287,5.970867 -4.063197,7.91491 -1.249236,0.681553 -2.828369,1.753391 -4.071782,1.466417 4.686379,-6.189682 9.847107,-15.652222 14.602394,-22.010689 2.0988,-2.800766 3.433505,-4.199476 4.001757,-4.199475 z" />
</svg>
