<?xml version="1.0" encoding="UTF-8" standalone="no"?>
<svg
   version="1.1"
   id="svg2860"
   height="64px"
   width="64px"
   sodipodi:docname="data.svg"
   xml:space="preserve"
   inkscape:version="1.3.2 (091e20e, 2023-11-25)"
   xmlns:inkscape="http://www.inkscape.org/namespaces/inkscape"
   xmlns:sodipodi="http://sodipodi.sourceforge.net/DTD/sodipodi-0.dtd"
   xmlns:xlink="http://www.w3.org/1999/xlink"
   xmlns="http://www.w3.org/2000/svg"
   xmlns:svg="http://www.w3.org/2000/svg"
   xmlns:rdf="http://www.w3.org/1999/02/22-rdf-syntax-ns#"
   xmlns:cc="http://creativecommons.org/ns#"
   xmlns:dc="http://purl.org/dc/elements/1.1/"><sodipodi:namedview
     id="namedview1"
     pagecolor="#ffffff"
     bordercolor="#000000"
     borderopacity="0.25"
     inkscape:showpageshadow="2"
     inkscape:pageopacity="0.0"
     inkscape:pagecheckerboard="0"
     inkscape:deskcolor="#d1d1d1"
     inkscape:zoom="9.875"
     inkscape:cx="28.962025"
     inkscape:cy="38.379747"
     inkscape:window-width="1920"
     inkscape:window-height="1021"
     inkscape:window-x="1920"
     inkscape:window-y="0"
     inkscape:window-maximized="1"
     inkscape:current-layer="svg2860" /><defs
     id="defs2862"><linearGradient
       id="linearGradient8"
       inkscape:collect="always"><stop
         style="stop-color:#550000;stop-opacity:1;"
         offset="0"
         id="stop8" /><stop
         style="stop-color:#686868;stop-opacity:1;"
         offset="0.43959412"
         id="stop10" /><stop
         style="stop-color:#550000;stop-opacity:1;"
         offset="1"
         id="stop9" /></linearGradient><linearGradient
       id="linearGradient1"
       inkscape:collect="always"><stop
         style="stop-color:#464646;stop-opacity:1;"
         offset="0"
         id="stop1" /><stop
         style="stop-color:#fafafa;stop-opacity:1;"
         offset="1"
         id="stop2" /></linearGradient><linearGradient
       id="linearGradient3783"><stop
         id="stop3785"
         offset="0"
         style="stop-color:#d3d7cf;stop-opacity:1" /><stop
         id="stop3787"
         offset="1"
         style="stop-color:#ffffff;stop-opacity:1" /></linearGradient><radialGradient
       gradientUnits="userSpaceOnUse"
       r="19.467436"
       fy="28.869568"
       fx="45.883327"
       cy="28.869568"
       cx="45.883327"
       id="radialGradient3692"
       xlink:href="#linearGradient3377" /><radialGradient
       gradientTransform="matrix(0.97435,0.2250379,-0.4623105,2.0016728,48.487554,-127.99883)"
       r="19.467436"
       fy="97.369568"
       fx="135.38333"
       cy="97.369568"
       cx="135.38333"
       gradientUnits="userSpaceOnUse"
       id="radialGradient3703"
       xlink:href="#linearGradient3377" /><linearGradient
       id="linearGradient3377"><stop
         style="stop-color:#faff2b;stop-opacity:1;"
         offset="0"
         id="stop3379" /><stop
         style="stop-color:#ffaa00;stop-opacity:1;"
         offset="1"
         id="stop3381" /></linearGradient><radialGradient
       gradientTransform="matrix(1.3852588,-0.05136783,0.03705629,0.9993132,-60.392403,7.7040438)"
       r="19.467436"
       fy="81.869568"
       fx="148.88333"
       cy="81.869568"
       cx="148.88333"
       gradientUnits="userSpaceOnUse"
       id="radialGradient3705"
       xlink:href="#linearGradient3377" /><linearGradient
       gradientTransform="matrix(1,0,0,0.77777777,0,5.1111114)"
       gradientUnits="userSpaceOnUse"
       y2="5"
       x2="21"
       y1="58"
       x1="38"
       id="linearGradient3789"
       xlink:href="#linearGradient3783" /><linearGradient
       id="linearGradient2278"
       inkscape:swatch="solid"><stop
         style="stop-color:#0000ff;stop-opacity:1;"
         offset="0"
         id="stop2276" /></linearGradient><linearGradient
       inkscape:collect="always"
       xlink:href="#linearGradient1"
       id="linearGradient2"
       x1="32.67939"
       y1="1.3779885"
       x2="56.491817"
       y2="63.548836"
       gradientUnits="userSpaceOnUse"
       gradientTransform="rotate(12.832084,40.741325,31.449387)" /><linearGradient
       inkscape:collect="always"
       xlink:href="#linearGradient8"
       id="linearGradient9"
       x1="32.924221"
       y1="36.091511"
       x2="46.31171"
       y2="39.151867"
       gradientUnits="userSpaceOnUse" /></defs><metadata
     id="metadata2865"><rdf:RDF><cc:Work
         rdf:about=""><dc:format>image/svg+xml</dc:format><dc:type
           rdf:resource="http://purl.org/dc/dcmitype/StillImage" /><dc:creator><cc:Agent><dc:title>[triplus]</dc:title></cc:Agent></dc:creator><dc:title>SpreadsheetWorkbench</dc:title><dc:date>2016-02-26</dc:date><dc:relation>https://www.freecad.org/wiki/index.php?title=Artwork</dc:relation><dc:publisher><cc:Agent><dc:title>FreeCAD</dc:title></cc:Agent></dc:publisher><dc:identifier>FreeCAD/src/Mod/Spreadsheet/Gui/Resources/icons/SpreadsheetWorkbench.svg</dc:identifier><dc:rights><cc:Agent><dc:title>FreeCAD LGPL2+</dc:title></cc:Agent></dc:rights><cc:license>https://www.gnu.org/copyleft/lesser.html</cc:license><dc:contributor><cc:Agent><dc:title>[agryson] Alexander Gryson</dc:title></cc:Agent></dc:contributor></cc:Work></rdf:RDF></metadata><rect
     y="8"
     x="4"
     height="44"
     width="56"
     id="rect3002-9"
     style="color:#000000;display:inline;overflow:visible;visibility:visible;fill:#ffffff;stroke:#2e3436;stroke-width:4;stroke-linecap:butt;stroke-linejoin:round;stroke-miterlimit:4;stroke-dasharray:none;stroke-dashoffset:0;stroke-opacity:1;marker:none;enable-background:accumulate" /><rect
     y="9"
     x="5"
     height="42"
     width="54"
     id="rect3002-9-3"
     style="color:#000000;display:inline;overflow:visible;visibility:visible;fill:url(#linearGradient3789);fill-opacity:1;stroke:#ffffff;stroke-width:2;stroke-linecap:butt;stroke-linejoin:round;stroke-miterlimit:4;stroke-dasharray:none;stroke-dashoffset:0;stroke-opacity:1;marker:none;enable-background:accumulate" /><path
     style="opacity:0.673707;fill:#002255;stroke:#000000;stroke-width:3;stroke-linejoin:round;stroke-dasharray:none;paint-order:stroke fill markers"
     d="m 4.0069224,17.441085 31.4820266,0"
     id="path2"
     sodipodi:nodetypes="cc" /><path
     style="opacity:0.673707;fill:#002255;stroke:#000000;stroke-width:3;stroke-linejoin:round;stroke-dasharray:none;paint-order:stroke fill markers"
     d="m 4.0069224,25.441085 36.1504396,0"
     id="path3"
     sodipodi:nodetypes="cc" /><path
     style="opacity:0.673707;fill:#002255;stroke:#000000;stroke-width:3;stroke-linejoin:round;stroke-dasharray:none;paint-order:stroke fill markers"
     d="m 4.0069224,33.441085 31.4560666,0"
     id="path4"
     sodipodi:nodetypes="cc" /><path
     style="opacity:0.673707;fill:#002255;stroke:#000000;stroke-width:3;stroke-linejoin:round;stroke-dasharray:none;paint-order:stroke fill markers"
     d="M 4.0069224,41.670318 H 35.462989"
     id="path5"
     sodipodi:nodetypes="cc" /><path
     id="path9"
     style="fill:url(#linearGradient2);fill-opacity:1;stroke-width:2.60289;stroke-linejoin:round;paint-order:stroke fill markers"
     d="M 49.400739,1.339096 44.289611,0.23743402 A 0.80348283,0.80348283 0 0 0 43.336148,0.85240395 L 40.639895,13.275306 c -3.005556,0.163612 -5.20768,0.652099 -6.704899,1.555247 -1.61565,0.974588 -2.438604,2.434984 -2.717677,4.010983 -0.558146,3.151999 0.630531,6.844129 0.57131,10.493464 a 0.80348283,0.80348283 0 0 0 6.04e-4,0.05228 c 0.03516,0.736176 -0.385386,1.655877 -1.660448,2.793969 -4.599207,3.571034 -7.310015,7.07349 -8.605157,10.401219 -1.299611,3.339207 -1.145506,6.493539 -0.10118,9.197374 2.088652,5.407671 7.525777,9.055016 11.971804,10.078706 a 0.80348283,0.80348283 0 0 0 0.02776,0.0063 c 5.373789,1.03238 12.077584,0.479178 16.205347,-3.581167 2.063881,-2.030172 3.415133,-4.946324 3.542559,-8.795149 0.127426,-3.848827 -0.934902,-8.632028 -3.614496,-14.575746 a 0.80348283,0.80348283 0 0 0 -0.04935,-0.09467 c -0.312957,-0.503451 -0.367566,-0.727761 -0.359728,-0.920349 0.0078,-0.192588 0.114165,-0.490845 0.392309,-1.026434 1.783655,-3.366281 4.053771,-6.239641 4.412076,-9.343731 0.179257,-1.552952 -0.201255,-3.161821 -1.365061,-4.674005 -1.077367,-1.399875 -2.872647,-2.747396 -5.4107,-4.135619 L 50.015433,2.3029162 A 0.80348283,0.80348283 0 0 0 49.400739,1.3390886 Z" /><path
     id="path7"
     style="fill:url(#linearGradient9);stroke-width:2.5;stroke-linejoin:round;paint-order:stroke fill markers;fill-opacity:1"
     d="M 48.032112,3.8339891 44.539519,3.0825043 41.985683,14.848221 a 0.72065371,0.72065371 0 0 1 -0.680288,0.56818 c -3.12566,0.105169 -5.123278,0.620091 -6.330622,1.348383 -1.207344,0.72829 -1.697611,1.625462 -1.911907,2.835649 -0.426993,2.411339 0.622886,5.9995 0.569465,9.802943 0.06069,1.32022 -0.687385,2.611038 -2.089789,3.86281 a 0.72065371,0.72065371 0 0 1 -0.03915,0.03114 c -4.295375,3.326121 -6.708159,6.506403 -7.828995,9.386269 -1.120835,2.879866 -0.978763,5.468134 -0.0957,7.754442 1.764193,4.567622 6.675966,7.890689 10.428303,8.759444 4.827089,0.92418 10.803264,0.326147 14.223318,-3.038047 1.711582,-1.683627 2.845249,-4.053473 2.957143,-7.433174 0.111895,-3.379703 -0.829493,-7.767583 -3.340177,-13.336635 l 0.04532,0.08244 c -0.373475,-0.600808 -0.592521,-1.153466 -0.568968,-1.732124 0.02355,-0.578659 0.255704,-1.058503 0.543669,-1.612896 a 0.72065371,0.72065371 0 0 1 0.0033,-0.0053 c 1.783881,-3.368359 3.808196,-6.126471 4.076651,-8.452175 0.134229,-1.16285 -0.09649,-2.219776 -1.012175,-3.409561 -0.915679,-1.189784 -2.561053,-2.485516 -5.22275,-3.875883 a 0.72065371,0.72065371 0 0 1 -0.368835,-0.799141 z" /></svg>
