<?xml version="1.0" encoding="UTF-8" standalone="no"?>
<svg
   version="1.1"
   id="svg5821"
   height="64px"
   width="64px"
   sodipodi:docname="export_svg.svg"
   inkscape:version="1.3.2 (091e20e, 2023-11-25)"
   xmlns:inkscape="http://www.inkscape.org/namespaces/inkscape"
   xmlns:sodipodi="http://sodipodi.sourceforge.net/DTD/sodipodi-0.dtd"
   xmlns:xlink="http://www.w3.org/1999/xlink"
   xmlns="http://www.w3.org/2000/svg"
   xmlns:svg="http://www.w3.org/2000/svg"
   xmlns:rdf="http://www.w3.org/1999/02/22-rdf-syntax-ns#"
   xmlns:cc="http://creativecommons.org/ns#"
   xmlns:dc="http://purl.org/dc/elements/1.1/">
  <sodipodi:namedview
     id="namedview1"
     pagecolor="#ffffff"
     bordercolor="#000000"
     borderopacity="0.25"
     inkscape:showpageshadow="2"
     inkscape:pageopacity="0.0"
     inkscape:pagecheckerboard="0"
     inkscape:deskcolor="#d1d1d1"
     inkscape:zoom="6.9826795"
     inkscape:cx="25.634858"
     inkscape:cy="22.484205"
     inkscape:window-width="1920"
     inkscape:window-height="1021"
     inkscape:window-x="1920"
     inkscape:window-y="0"
     inkscape:window-maximized="1"
     inkscape:current-layer="svg5821" />
  <defs
     id="defs5823">
    <linearGradient
       id="linearGradient6349">
      <stop
         id="stop6351"
         offset="0"
         style="stop-color:#000000;stop-opacity:1;" />
      <stop
         id="stop6353"
         offset="1"
         style="stop-color:#000000;stop-opacity:0;" />
    </linearGradient>
    <linearGradient
       id="linearGradient3377">
      <stop
         id="stop3379"
         offset="0"
         style="stop-color:#0019a3;stop-opacity:1;" />
      <stop
         id="stop3381"
         offset="1"
         style="stop-color:#0069ff;stop-opacity:1;" />
    </linearGradient>
    <linearGradient
       gradientTransform="matrix(-1,0,0,1,2199.356,0)"
       gradientUnits="userSpaceOnUse"
       y2="1190.875"
       x2="1267.9062"
       y1="1190.875"
       x1="901.1875"
       id="linearGradient3383"
       xlink:href="#linearGradient3377" />
    <radialGradient
       gradientUnits="userSpaceOnUse"
       gradientTransform="matrix(-1.4307499,-1.3605156e-7,-1.202713e-8,0.1264801,2674.7488,1244.2826)"
       r="194.40614"
       fy="1424.4465"
       fx="1103.6399"
       cy="1424.4465"
       cx="1103.6399"
       id="radialGradient6355"
       xlink:href="#linearGradient6349" />
    <linearGradient
       id="linearGradient3836-0-3-3">
      <stop
         style="stop-color:#3465a4;stop-opacity:1"
         offset="0"
         id="stop3838-2" />
      <stop
         style="stop-color:#ffffff;stop-opacity:1"
         offset="1"
         id="stop3840-5" />
    </linearGradient>
  </defs>
  <metadata
     id="metadata5826">
    <rdf:RDF>
      <cc:Work
         rdf:about="">
        <dc:format>image/svg+xml</dc:format>
        <dc:type
           rdf:resource="http://purl.org/dc/dcmitype/StillImage" />
        <dc:creator>
          <cc:Agent>
            <dc:title>[triplus]</dc:title>
          </cc:Agent>
        </dc:creator>
        <dc:title>SketcherWorkbench</dc:title>
        <dc:date>2016-02-26</dc:date>
        <dc:relation>https://www.freecad.org/wiki/index.php?title=Artwork</dc:relation>
        <dc:publisher>
          <cc:Agent>
            <dc:title>FreeCAD</dc:title>
          </cc:Agent>
        </dc:publisher>
        <dc:identifier>FreeCAD/src/Mod/Sketcher/Gui/Resources/icons/SketcherWorkbench.svg</dc:identifier>
        <dc:rights>
          <cc:Agent>
            <dc:title>FreeCAD LGPL2+</dc:title>
          </cc:Agent>
        </dc:rights>
        <cc:license>https://www.gnu.org/copyleft/lesser.html</cc:license>
        <dc:contributor>
          <cc:Agent>
            <dc:title>[agryson] Alexander Gryson</dc:title>
          </cc:Agent>
        </dc:contributor>
      </cc:Work>
    </rdf:RDF>
  </metadata>
  <path
     id="rect3860-36"
     style="color:#000000;fill:#00ffff;stroke-linecap:round;stroke-linejoin:round;-inkscape-stroke:none"
     d="M 5 22 A 3.000295 3.000295 0 0 0 2 25 L 2 59 A 3.000295 3.000295 0 0 0 5 62 L 43 62 A 3.000295 3.000295 0 0 0 46 59 L 46 43.671875 L 40 43.671875 L 40 56 L 8 56 L 8 28 L 20.552734 28 L 20.552734 22 L 5 22 z " />
  <path
     style="color:#000000;fill:#0088aa;stroke-linecap:round;stroke-linejoin:round;-inkscape-stroke:none"
     d="m 5,24 a 1.000095,1.000095 0 0 0 -1,1 v 34 a 1.000095,1.000095 0 0 0 1,1 h 38 a 1.000095,1.000095 0 0 0 1,-1 V 43.671875 a 0.99999499,0.99999499 0 0 0 -1,-1 0.99999499,0.99999499 0 0 0 -1,1 V 58 H 6 V 26 h 14.552734 a 0.99999499,0.99999499 0 0 0 1,-1 0.99999499,0.99999499 0 0 0 -1,-1 z"
     id="rect3860-3" />
  <path
     style="color:#000000;fill:#00ffff;stroke-linejoin:round;-inkscape-stroke:none;paint-order:stroke fill markers"
     d="M 55.873047,9.8164063 37.650391,12.707031 a 1.950195,1.950195 0 0 0 -1.208985,3.154297 l 3.695313,4.556641 c -1.671539,1.399143 -3.414429,2.857033 -5.382813,4.560547 -2.795447,2.419286 -5.644534,4.955874 -7.939453,7.167968 -1.146686,1.105302 -2.155809,2.128434 -2.980469,3.058594 -0.7812,0.881139 -1.528055,1.718906 -2.019531,2.916016 -1.347007,3.280959 -0.109612,6.412603 0.972656,8.396484 1.097876,2.012495 2.417969,3.421875 2.417969,3.421875 a 1.950195,1.950195 0 0 0 2.751953,0.103516 l 2.201172,-2.03711 a 1.950195,1.950195 0 0 0 0.113281,-2.75 c 0,0 -0.792697,-0.873363 -1.429687,-2.041015 -0.606785,-1.112287 -0.685961,-2.247393 -0.63086,-2.429688 0.03077,-0.04487 0.05007,-0.07483 0.0918,-0.132812 0.163851,-0.227684 0.405698,-0.544428 0.695313,-0.871094 0.628612,-0.709029 1.537767,-1.636849 2.605469,-2.666016 2.136466,-2.059358 4.92088,-4.543914 7.664062,-6.917968 1.899957,-1.644294 3.588065,-3.055877 5.216797,-4.419922 l 3.589844,4.425781 a 1.950195,1.950195 0 0 0 3.335937,-0.53125 L 58,12.439453 A 1.950195,1.950195 0 0 0 55.873047,9.8164063 Z m -2.722656,4.3808597 -4.177735,10.923828 -2.714844,-3.347657 a 1.950195,1.950195 0 0 0 -1.542968,-0.644531 1.950195,1.950195 0 0 0 -0.347657,-1.685547 l -2.769531,-3.414062 z"
     id="path7" />
  <path
     style="color:#000000;fill:#0088aa;stroke-linejoin:round;-inkscape-stroke:none;paint-order:stroke fill markers;stroke:none"
     d="m 56.177734,11.742188 -18.222656,2.890624 4.898438,6.039063 c -1.948785,1.62163 -4.332265,3.624619 -6.824219,5.78125 -2.780786,2.406598 -5.610845,4.928394 -7.861328,7.097656 -1.125242,1.084631 -2.105043,2.078807 -2.875,2.947266 -0.769958,0.868458 -1.327821,1.520496 -1.673828,2.363281 -1.014665,2.47146 -0.08818,4.949915 0.878906,6.722656 0.967084,1.772743 2.134766,3.027344 2.134765,3.027344 l 2.201172,-2.037109 c 0,0 -0.936473,-1.020449 -1.703125,-2.425781 -0.76665,-1.405332 -1.203948,-3.007481 -0.736328,-4.146485 0.02456,-0.05983 0.459676,-0.741202 1.144531,-1.513672 0.684857,-0.772469 1.620142,-1.725916 2.710938,-2.777343 2.181591,-2.102855 4.984112,-4.601338 7.742188,-6.988282 2.462513,-2.131151 4.819213,-4.111862 6.751953,-5.720703 l 4.84375,5.972656 z"
     id="path8" />
</svg>
