<?xml version="1.0" encoding="UTF-8" standalone="no"?>
<svg
   version="1.1"
   id="export_svg"
   height="64px"
   width="64px"
   viewBox="0 0 64 64"
   xmlns="http://www.w3.org/2000/svg">
  <path
     id="r1"
     style="color:#000000;fill:#fcaf3e;stroke-width:0.997548;stroke-linecap:round;stroke-linejoin:round;-inkscape-stroke:none"
     d="M 7.8862197,17.626774 A 2.8865035,3.1032969 0 0 0 5,20.729766 v 35.16724 a 2.8865035,3.1032969 0 0 0 2.8862197,3.102992 H 44.445003 a 2.8865035,3.1032969 0 0 0 2.88622,-3.102992 V 40.042657 h -5.77244 V 52.794014 H 10.772439 V 23.832757 h 12.07665 v -6.205983 z" />
  <path
     style="color:#000000;fill:#321900;stroke-width:0.997548;stroke-linecap:round;stroke-linejoin:round;-inkscape-stroke:none"
     d="m 7.8862197,19.695435 c -0.5313176,5.4e-5 -0.9620229,0.463108 -0.9620732,1.034331 v 35.16724 c 5.03e-5,0.571223 0.4307556,1.034277 0.9620732,1.034331 H 44.445003 c 0.531318,-5.4e-5 0.962023,-0.463108 0.962073,-1.034331 V 43.858691 c 2e-6,-0.571246 -0.430734,-1.034333 -0.962073,-1.03433 -0.531339,-3e-6 -0.962075,0.463084 -0.962073,1.03433 V 54.862675 H 8.8482929 V 21.764096 h 9.7305011 c 0.531339,3e-6 0.962075,-0.463084 0.962073,-1.03433 3e-6,-0.571246 -0.430733,-1.034334 -0.962073,-1.034331 z"
     id="r2" />
  <path
     style="color:#000000;fill:#fcaf3e;stroke-width:0.997548;stroke-linejoin:round;-inkscape-stroke:none;paint-order:stroke fill markers"
     d="m 56.829817,5.02491 -17.53153,2.9898616 a 1.8762304,2.0171464 0 0 0 -1.163132,3.2625864 l 3.555162,4.713073 c -1.608143,1.447176 -3.284931,2.955116 -5.178661,4.717113 -2.689424,2.502342 -5.430455,5.126012 -7.638335,7.414049 -1.103196,1.143247 -2.074046,2.201504 -2.867429,3.163597 -0.751572,0.911389 -1.470101,1.777917 -1.942937,3.016125 -1.295919,3.393596 -0.105455,6.632751 0.935766,8.68474 1.056237,2.081585 2.326264,3.53935 2.326264,3.53935 a 1.8762304,2.0171464 0 0 0 2.64758,0.10707 l 2.117689,-2.107045 a 1.8762304,2.0171464 0 0 0 0.108984,-2.84441 c 0,0 -0.762632,-0.903346 -1.375463,-2.111084 -0.583772,-1.150472 -0.659945,-2.324547 -0.606934,-2.513101 0.0296,-0.04641 0.04817,-0.0774 0.08832,-0.137371 0.157637,-0.235501 0.390312,-0.563119 0.668942,-0.900999 0.604771,-0.733371 1.479445,-1.693043 2.506652,-2.757542 2.055437,-2.130057 4.734247,-4.699909 7.373389,-7.155466 1.827898,-1.700744 3.451982,-3.160787 5.018941,-4.571661 l 3.453693,4.577721 a 1.8762304,2.0171464 0 0 0 3.209416,-0.549488 L 58.876101,7.7380075 A 1.8762304,2.0171464 0 0 0 56.829817,5.02491 Z M 54.210422,9.5561673 50.191135,20.855017 47.579257,17.392433 a 1.8762304,2.0171464 0 0 0 -1.484449,-0.666658 1.8762304,2.0171464 0 0 0 -0.334471,-1.743413 l -2.664492,-3.531269 z"
     id="r3" />
  <path
     style="color:#000000;fill:#321900;stroke:none;stroke-width:0.997548;stroke-linejoin:round;-inkscape-stroke:none;paint-order:stroke fill markers"
     d="m 57.122948,7.016805 -17.53153,2.989861 4.712656,6.246387 c -1.874873,1.677302 -4.167956,3.749055 -6.565398,5.979724 -2.67532,2.489218 -5.398044,5.097589 -7.563173,7.341323 -1.082566,1.121867 -2.025206,2.150174 -2.765961,3.048447 -0.740756,0.898273 -1.277461,1.572696 -1.610345,2.444414 -0.976182,2.556307 -0.08484,5.119849 0.845572,6.953449 0.930406,1.833602 2.053801,3.131275 2.0538,3.131275 l 2.117689,-2.107045 c 0,0 -0.900956,-1.055481 -1.638531,-2.509059 -0.737574,-1.453578 -1.158286,-3.11073 -0.708402,-4.288836 0.02363,-0.06188 0.442242,-0.766648 1.101123,-1.565638 0.658883,-0.798988 1.558695,-1.785167 2.608121,-2.87269 2.09885,-2.175048 4.795081,-4.759305 7.448552,-7.228194 2.369118,-2.204315 4.636436,-4.253025 6.495873,-5.917099 l 4.660042,6.177701 z"
     id="r4" />
</svg>
