<?xml version="1.0" encoding="UTF-8" standalone="no"?>
<svg
   width="64"
   height="64"
   version="1.1"
   id="svg4921"
   xmlns="http://www.w3.org/2000/svg"
   xmlns:svg="http://www.w3.org/2000/svg">
  <defs
     id="defs1" />
  <path
     style="display:inline;fill:none;stroke:#fcaf3e;stroke-width:2.14832;stroke-linecap:round;stroke-linejoin:round;stroke-dasharray:none;paint-order:markers fill stroke"
     d="m 33.487052,5.5749483 5.202233,8.0818797"
     id="path12-3" />
  <path
     style="fill:none;stroke:#fcaf3e;stroke-width:2.14832;stroke-linecap:round;stroke-linejoin:round;stroke-dasharray:none;paint-order:markers fill stroke"
     d="m 22.840979,12.331609 5.202232,8.08188"
     id="path13-6" />
  <path
     style="fill:none;stroke:#fcaf3e;stroke-width:2.14832;stroke-linecap:round;stroke-linejoin:round;stroke-dasharray:none;paint-order:markers fill stroke"
     d="m 12.772996,18.772934 5.202232,8.08188"
     id="path14-3" />
  <path
     style="fill:none;stroke:#fcaf3e;stroke-width:2.14832;stroke-linecap:round;stroke-linejoin:round;stroke-dasharray:none;paint-order:markers fill stroke"
     d="M 58.32373,31.744626 50.77,26.796822"
     id="path15-5" />
  <path
     style="display:inline;fill:none;stroke:#fcaf3e;stroke-width:2.14832;stroke-linecap:round;stroke-linejoin:round;stroke-dasharray:none;paint-order:markers fill stroke"
     d="m 51.177811,42.215409 -7.55373,-4.947804"
     id="path16-9" />
  <path
     style="display:inline;fill:none;stroke:#fcaf3e;stroke-width:2.14832;stroke-linecap:round;stroke-linejoin:round;stroke-dasharray:none;paint-order:markers fill stroke"
     d="m 44.143269,52.512636 -7.55373,-4.947803"
     id="path17-1" />
  <path
     id="path18"
     style="font-variation-settings:normal;display:inline;vector-effect:none;fill:#fcaf3e;fill-opacity:1;stroke:none;stroke-width:6.98481;stroke-linecap:butt;stroke-linejoin:round;stroke-miterlimit:4;stroke-dasharray:none;stroke-dashoffset:0;stroke-opacity:1;-inkscape-stroke:none;paint-order:normal;stop-color:#000000"
     d="m 44.575886,11.592131 c -0.408583,-0.41497 -0.779652,-0.766037 -1.095412,-1.034225 L 12.406339,30.332541 C 11.709244,37.649537 9.9093779,41.713173 6.4785226,45.114227 l 5.7829264,6.214145 0.0013,-0.0012 5.829234,6.170032 C 21.65458,54.236587 25.78146,52.654673 33.068804,52.366069 L 54.410436,22.211881 C 53.419844,20.87961 51.158399,18.588326 48.839858,16.485478 47.375716,14.646616 45.80449,12.834319 44.577455,11.590636 Z" />
  <ellipse
     style="display:inline;fill:#fcaf3e;stroke:none;stroke-width:1.88143;stroke-linecap:round;stroke-linejoin:round;stroke-dasharray:none;paint-order:markers fill stroke"
     id="path4-04"
     cx="-1.4953651"
     cy="-66.446083"
     rx="3.5172796"
     ry="2.0602486"
     transform="matrix(-0.52762898,0.84947493,-0.86738978,-0.49762935,0,0)" />
  <ellipse
     style="display:inline;fill:#fcaf3e;stroke:none;stroke-width:1.88143;stroke-linecap:round;stroke-linejoin:round;stroke-dasharray:none;paint-order:markers fill stroke"
     id="ellipse7-5"
     cx="10.950282"
     cy="-65.989868"
     rx="3.5172796"
     ry="2.0602486"
     transform="matrix(-0.52762898,0.84947493,-0.86738978,-0.49762935,0,0)" />
  <ellipse
     style="display:inline;fill:#fcaf3e;stroke:none;stroke-width:1.88143;stroke-linecap:round;stroke-linejoin:round;stroke-dasharray:none;paint-order:markers fill stroke"
     id="ellipse8-4"
     cx="23.395933"
     cy="-65.53376"
     rx="3.5172796"
     ry="2.0602486"
     transform="matrix(-0.52762898,0.84947493,-0.86738978,-0.49762935,0,0)" />
  <ellipse
     style="fill:#fcaf3e;stroke:none;stroke-width:1.88165;stroke-linecap:round;stroke-linejoin:round;stroke-dasharray:none;paint-order:markers fill stroke"
     id="ellipse9-9"
     cx="-27.895828"
     cy="21.225485"
     rx="3.503828"
     ry="2.069313"
     transform="matrix(-0.87458317,0.48487552,0.44204757,0.89699161,0,0)" />
  <ellipse
     style="fill:#fcaf3e;stroke:none;stroke-width:1.88165;stroke-linecap:round;stroke-linejoin:round;stroke-dasharray:none;paint-order:markers fill stroke"
     id="ellipse10-2"
     cx="-15.497779"
     cy="21.68371"
     rx="3.503828"
     ry="2.069313"
     transform="matrix(-0.87458317,0.48487552,0.44204757,0.89699161,0,0)" />
  <ellipse
     style="fill:#fcaf3e;stroke:none;stroke-width:1.88165;stroke-linecap:round;stroke-linejoin:round;stroke-dasharray:none;paint-order:markers fill stroke"
     id="ellipse11-9"
     cx="-3.0997245"
     cy="22.141827"
     rx="3.503828"
     ry="2.069313"
     transform="matrix(-0.87458317,0.48487552,0.44204757,0.89699161,0,0)" />
</svg>
