<?xml version="1.0" encoding="UTF-8" standalone="no"?>
<svg
   version="1.1"
   id="svg5821"
   height="64px"
   width="64px"
   sodipodi:docname="import_svg.svg"
   inkscape:version="1.3.2 (091e20e, 2023-11-25)"
   xmlns:inkscape="http://www.inkscape.org/namespaces/inkscape"
   xmlns:sodipodi="http://sodipodi.sourceforge.net/DTD/sodipodi-0.dtd"
   xmlns:xlink="http://www.w3.org/1999/xlink"
   xmlns="http://www.w3.org/2000/svg"
   xmlns:svg="http://www.w3.org/2000/svg"
   xmlns:rdf="http://www.w3.org/1999/02/22-rdf-syntax-ns#"
   xmlns:cc="http://creativecommons.org/ns#"
   xmlns:dc="http://purl.org/dc/elements/1.1/">
  <sodipodi:namedview
     id="namedview1"
     pagecolor="#ffffff"
     bordercolor="#000000"
     borderopacity="0.25"
     inkscape:showpageshadow="2"
     inkscape:pageopacity="0.0"
     inkscape:pagecheckerboard="0"
     inkscape:deskcolor="#d1d1d1"
     inkscape:zoom="6.9826795"
     inkscape:cx="25.634858"
     inkscape:cy="22.484205"
     inkscape:window-width="1920"
     inkscape:window-height="1021"
     inkscape:window-x="1920"
     inkscape:window-y="0"
     inkscape:window-maximized="1"
     inkscape:current-layer="svg5821" />
  <defs
     id="defs5823">
    <linearGradient
       id="linearGradient6349">
      <stop
         id="stop6351"
         offset="0"
         style="stop-color:#000000;stop-opacity:1;" />
      <stop
         id="stop6353"
         offset="1"
         style="stop-color:#000000;stop-opacity:0;" />
    </linearGradient>
    <linearGradient
       id="linearGradient3377">
      <stop
         id="stop3379"
         offset="0"
         style="stop-color:#0019a3;stop-opacity:1;" />
      <stop
         id="stop3381"
         offset="1"
         style="stop-color:#0069ff;stop-opacity:1;" />
    </linearGradient>
    <linearGradient
       gradientTransform="matrix(-1,0,0,1,2199.356,0)"
       gradientUnits="userSpaceOnUse"
       y2="1190.875"
       x2="1267.9062"
       y1="1190.875"
       x1="901.1875"
       id="linearGradient3383"
       xlink:href="#linearGradient3377" />
    <radialGradient
       gradientUnits="userSpaceOnUse"
       gradientTransform="matrix(-1.4307499,-1.3605156e-7,-1.202713e-8,0.1264801,2674.7488,1244.2826)"
       r="194.40614"
       fy="1424.4465"
       fx="1103.6399"
       cy="1424.4465"
       cx="1103.6399"
       id="radialGradient6355"
       xlink:href="#linearGradient6349" />
    <linearGradient
       id="linearGradient3836-0-3-3">
      <stop
         style="stop-color:#3465a4;stop-opacity:1"
         offset="0"
         id="stop3838-2" />
      <stop
         style="stop-color:#ffffff;stop-opacity:1"
         offset="1"
         id="stop3840-5" />
    </linearGradient>
  </defs>
  <metadata
     id="metadata5826">
    <rdf:RDF>
      <cc:Work
         rdf:about="">
        <dc:format>image/svg+xml</dc:format>
        <dc:type
           rdf:resource="http://purl.org/dc/dcmitype/StillImage" />
        <dc:creator>
          <cc:Agent>
            <dc:title>[triplus]</dc:title>
          </cc:Agent>
        </dc:creator>
        <dc:date>2016-02-26</dc:date>
        <dc:relation>https://www.freecad.org/wiki/index.php?title=Artwork</dc:relation>
        <dc:publisher>
          <cc:Agent>
            <dc:title>FreeCAD</dc:title>
          </cc:Agent>
        </dc:publisher>
        <dc:identifier>FreeCAD/src/Mod/Sketcher/Gui/Resources/icons/SketcherWorkbench.svg</dc:identifier>
        <dc:rights>
          <cc:Agent>
            <dc:title>FreeCAD LGPL2+</dc:title>
          </cc:Agent>
        </dc:rights>
        <cc:license>https://www.gnu.org/copyleft/lesser.html</cc:license>
        <dc:contributor>
          <cc:Agent>
            <dc:title>[agryson] Alexander Gryson</dc:title>
          </cc:Agent>
        </dc:contributor>
      </cc:Work>
    </rdf:RDF>
  </metadata>
  <path
     id="rect3860-36"
     style="color:#000000;fill:#00ffff;stroke-linecap:round;stroke-linejoin:round;-inkscape-stroke:none"
     d="m 55.128783,22 a 3.000295,3.000295 0 0 1 3,3 v 34 a 3.000295,3.000295 0 0 1 -3,3 h -38 a 3.000295,3.000295 0 0 1 -3,-3 V 43.671875 h 6 V 56 h 32 V 28 H 39.576049 v -6 z" />
  <path
     style="color:#000000;fill:#0088aa;stroke-linecap:round;stroke-linejoin:round;-inkscape-stroke:none"
     d="m 55.128783,24 a 1.000095,1.000095 0 0 1 1,1 v 34 a 1.000095,1.000095 0 0 1 -1,1 h -38 a 1.000095,1.000095 0 0 1 -1,-1 V 43.671875 a 0.99999499,0.99999499 0 0 1 1,-1 0.99999499,0.99999499 0 0 1 1,1 V 58 h 36 V 26 H 39.576049 a 0.99999499,0.99999499 0 0 1 -1,-1 0.99999499,0.99999499 0 0 1 1,-1 z"
     id="rect3860-3" />
  <path
     id="path7"
     style="color:#000000;fill:#00ffff;stroke-linejoin:round;-inkscape-stroke:none;paint-order:stroke fill markers"
     d="M 10.297674,9.0098718 4.9402525,13.390731 c 0.048714,0.06556 0.095433,0.131388 0.1445313,0.197266 0.7428366,0.996721 1.6620825,2.100296 2.7109375,3.298828 2.099126,2.39868 4.7224467,5.168848 7.3027337,7.816406 1.816882,1.864249 3.429655,3.464191 4.976563,5 l -4.06836,4.226563 a 1.950195,1.950195 0 0 0 0.9375,3.246094 l 17.91211,4.425781 a 1.950195,1.950195 0 0 0 2.341797,-2.433594 L 32.092596,21.437607 A 1.950195,1.950195 0 0 0 28.813299,20.62706 l -3.951172,4.105468 C 23.354897,23.23532 21.79163,21.684313 20.037908,19.884872 17.505864,17.286815 14.943272,14.574964 12.98908,12.341903 12.01247,11.225928 11.184227,10.224716 10.617987,9.4649498 10.500058,9.3067168 10.394332,9.1548898 10.297674,9.0098718 Z M 29.278143,25.765731 32.514471,37.004013 21.159002,34.199325 24.20783,31.03331 a 1.950195,1.950195 0 0 0 0.490235,-1.650391 1.950195,1.950195 0 0 0 1.591797,-0.511719 z" />
  <path
     id="path8"
     style="color:#000000;fill:#0088aa;stroke:none;stroke-linejoin:round;-inkscape-stroke:none;paint-order:stroke fill markers"
     d="m 10.383612,12.293075 -2.2851567,1.941406 c 0.368985,0.441589 0.745588,0.890949 1.164063,1.369141 2.0584817,2.352235 4.6656667,5.104609 7.2324217,7.738281 2.300153,2.36012 4.504299,4.556893 6.308594,6.337891 l -5.392579,5.603516 17.91211,4.423828 -5.105469,-17.728516 -5.332031,5.541016 C 23.096173,25.752744 20.916355,23.578436 18.643377,21.2462 16.097585,18.634037 13.515797,15.907286 11.52033,13.62706 11.108154,13.156065 10.739563,12.71985 10.383612,12.293075 Z" />
</svg>
