<?xml version="1.0" encoding="UTF-8" standalone="no"?>
<!-- Created with Inkscape (http://www.inkscape.org/) -->

<svg
   width="64"
   height="64"
   version="1.1"
   id="svg8"
   xmlns:xlink="http://www.w3.org/1999/xlink"
   xmlns="http://www.w3.org/2000/svg"
   xmlns:svg="http://www.w3.org/2000/svg"
   xmlns:rdf="http://www.w3.org/1999/02/22-rdf-syntax-ns#"
   xmlns:cc="http://creativecommons.org/ns#"
   xmlns:dc="http://purl.org/dc/elements/1.1/">
  <defs
     id="defs2">
    <linearGradient
       xlink:href="#linearGradient2"
       id="linearGradient3"
       x1="2.8922069"
       y1="286.85306"
       x2="24.57309"
       y2="294.47119"
       gradientUnits="userSpaceOnUse"
       gradientTransform="matrix(1.5879118,-1.6396189,-1.5694786,-1.658876,461.60727,514.24719)" />
    <linearGradient
       id="linearGradient2">
      <stop
         style="stop-color:#cc0000;stop-opacity:1"
         offset="0"
         id="stop2" />
      <stop
         style="stop-color:#eeeeec;stop-opacity:1"
         offset="1"
         id="stop3" />
    </linearGradient>
    <linearGradient
       xlink:href="#linearGradient13"
       id="linearGradient20"
       gradientUnits="userSpaceOnUse"
       x1="1.1580003"
       y1="288.46912"
       x2="15.54092"
       y2="288.46912"
       gradientTransform="matrix(1.4887536,-0.02186588,-0.02028116,-1.4439041,30.986171,454.57881)" />
    <linearGradient
       id="linearGradient13">
      <stop
         style="stop-color:#555753;stop-opacity:1;"
         offset="0"
         id="stop13" />
      <stop
         style="stop-color:#888a85;stop-opacity:1;"
         offset="1"
         id="stop14" />
    </linearGradient>
    <linearGradient
       xlink:href="#linearGradient18"
       id="linearGradient19"
       x1="5.9358344"
       y1="287.68317"
       x2="17.624229"
       y2="289.08618"
       gradientUnits="userSpaceOnUse"
       gradientTransform="matrix(0.73661457,-0.79701621,-0.77942199,-0.75324247,270.88048,276.08631)" />
    <linearGradient
       id="linearGradient18">
      <stop
         style="stop-color:#a40000;stop-opacity:1;"
         offset="0"
         id="stop18" />
      <stop
         style="stop-color:#eeeeec;stop-opacity:1;"
         offset="1"
         id="stop19" />
    </linearGradient>
  </defs>
  <metadata
     id="metadata5">
    <rdf:RDF>
      <cc:Work
         rdf:about="">
        <dc:format>image/svg+xml</dc:format>
        <dc:type
           rdf:resource="http://purl.org/dc/dcmitype/StillImage" />
      </cc:Work>
    </rdf:RDF>
  </metadata>
  <path
     style="display:inline;fill:#ef2929;fill-opacity:1;stroke:#280000;stroke-width:2.13146;stroke-linecap:butt;stroke-linejoin:round;stroke-miterlimit:4;stroke-dasharray:none;stroke-opacity:1"
     d="m 30.674618,27.272404 -3.463284,3.336003 4.585636,4.581106 C 30.170357,41.562987 23.748816,42.28519 21.300844,35.034997 19.205881,30.941424 13.754795,33.331939 10.312932,31.479885 -2.0776377,24.340574 6.1320196,9.7213185 15.680534,5.3539572 20.208437,3.3074616 26.499871,3.3522426 29.726267,8.2698445 c 2.514449,3.3583555 1.751658,9.5662785 3.616427,13.1886195 2.167411,4.21022 6.325929,2.454231 6.432079,6.459266 -3.84945,-0.07048 -4.9147,1.018863 -6.452144,2.280393 z"
     id="path847" />
  <path
     style="font-variation-settings:normal;display:inline;vector-effect:none;fill:url(#linearGradient3);fill-opacity:1;stroke:#ef2929;stroke-width:2.13146;stroke-linecap:butt;stroke-linejoin:round;stroke-miterlimit:4;stroke-dasharray:none;stroke-dashoffset:0;stroke-opacity:1;-inkscape-stroke:none;stop-color:#000000"
     d="m 28.389988,37.281986 c 0.356384,-0.348312 0.697471,-0.852674 0.985848,-1.498326 l -5.209758,-5.208404 6.60954,-6.35718 2.782656,3.070756 c 0.525925,-0.35645 1.147392,-0.697393 1.944948,-0.970626 C 34.228247,25.686698 32.602955,24.618725 31.506828,22.489482 29.350592,18.300977 30.152551,12.373636 28.085184,9.6124145 l -0.03979,-0.055 -0.03979,-0.055 C 25.496266,5.6777504 20.370795,5.6045943 16.513121,7.3481449 8.4392479,11.041013 0.70881731,23.415221 11.288951,29.549669 c 2.488072,1.313529 9.176929,-0.756751 11.846525,4.459652 l 0.07634,0.14549 0.05455,0.154868 c 1.437534,4.257566 3.832922,4.235738 5.123573,2.97229 z"
     id="path21" />
  <path
     id="path3154"
     d="M 47.140558,48.840304 26.231342,31.914263 31.431846,26.812247 48.901803,47.118856 Z"
     style="font-variation-settings:normal;display:inline;fill:url(#linearGradient20);fill-opacity:1;stroke:#2e3436;stroke-width:2.13147;stroke-linecap:butt;stroke-linejoin:miter;stroke-miterlimit:4;stroke-dasharray:none;stroke-dashoffset:0;stroke-opacity:1;stop-color:#000000" />
  <path
     style="display:inline;fill:#ffffff;stroke:#2e3436;stroke-width:2.13147;stroke-linecap:round;stroke-linejoin:round;stroke-dasharray:none;paint-order:markers fill stroke"
     d="m 43.159959,45.457741 2.309235,-2.304997"
     id="path4-0" />
  <path
     style="display:inline;fill:#ffffff;stroke:#2e3436;stroke-width:2.13147;stroke-linecap:round;stroke-linejoin:round;stroke-dasharray:none;paint-order:markers fill stroke"
     d="m 39.949235,42.706554 2.607931,-2.603119"
     id="path5-2" />
  <path
     style="display:inline;fill:#ffffff;stroke:#2e3436;stroke-width:2.13147;stroke-linecap:round;stroke-linejoin:round;stroke-dasharray:none;paint-order:markers fill stroke"
     d="M 36.441936,40.097443 39.30605,37.281902"
     id="path6-7" />
  <path
     style="display:inline;fill:#ffffff;stroke:#2e3436;stroke-width:2.13147;stroke-linecap:round;stroke-linejoin:round;stroke-dasharray:none;paint-order:markers fill stroke"
     d="m 33.112036,37.014916 3.402643,-3.590567"
     id="path7-4" />
  <path
     style="display:inline;fill:#ffffff;stroke:#2e3436;stroke-width:2.13147;stroke-linecap:round;stroke-linejoin:round;stroke-dasharray:none;paint-order:markers fill stroke"
     d="m 29.661515,34.393417 4.180037,-4.172343"
     id="path8-8" />
  <path
     fill="#f5f8fa"
     d="m 19.00978,14.453347 c 2.802719,-2.046882 3.081104,-5.5668127 2.923825,-7.6152971 -0.06606,-0.8463221 0.81628,-1.4393888 1.539765,-1.0210364 4.031072,2.3337975 7.238,6.0733235 6.350944,12.5874395 -0.174581,1.178119 0.17458,3.393303 3.573388,3.856536 3.398809,0.464836 4.625588,1.761569 5.045524,2.380281 0.240638,0.354237 0.456111,1.333599 -0.490711,1.368862 -0.94525,0.03526 -3.293432,-0.714885 -5.396258,1.820875 -2.102826,2.535761 -2.451986,3.571223 -2.522762,3.96393 -0.07078,0.392706 -2.216067,5.921049 -3.971305,2.987773 -1.457981,-2.437984 -3.079532,-7.227399 -8.315364,-8.474441 -2.131136,-0.506511 -4.826906,-1.610898 -5.605439,-3.141651 -1.308565,-2.571024 0.723486,-4.367856 2.475579,-5.582841 1.753665,-1.213382 4.392814,-3.13043 4.392814,-3.13043 z"
     id="path3"
     style="display:none;stroke-width:1.58777" />
  <path
     fill="#292f33"
     d="m 23.839831,30.036574 2.223931,2.268079 5.561401,-5.666191 -2.223931,-2.266476 z m -7.038254,-7.171298 2.225504,2.266476 5.559828,-5.666191 -2.223932,-2.266476 z"
     id="path4"
     style="display:inline;fill:#2e3436;stroke-width:1.58777" />
  <path
     style="font-variation-settings:normal;display:inline;vector-effect:none;fill:none;fill-opacity:1;stroke:#ffffff;stroke-width:0.775923;stroke-linecap:butt;stroke-linejoin:miter;stroke-miterlimit:4;stroke-dasharray:none;stroke-dashoffset:0;stroke-opacity:1;-inkscape-stroke:none"
     d="M 47.054764,46.200794 15.968673,15.794243"
     id="path11" />
  <path
     style="font-variation-settings:normal;display:inline;vector-effect:none;fill:none;fill-opacity:1;stroke:#ffffff;stroke-width:0.775923;stroke-linecap:butt;stroke-linejoin:miter;stroke-miterlimit:4;stroke-dasharray:none;stroke-dashoffset:0;stroke-opacity:1;-inkscape-stroke:none"
     d="M 46.120175,47.15648 15.034084,16.749928"
     id="path19" />
  <path
     fill="#292f33"
     d="m 18.71724,15.750079 c 0.611817,-0.623522 0.611817,-1.642955 0,-2.266477 -0.611817,-0.623521 -1.612114,-0.623521 -2.223931,0 l -3.337469,3.399715 a 1.5775127,1.6076915 0 0 0 0,2.266476 h 0.0016 a 1.5775127,1.6076915 0 0 0 2.223932,0 z"
     id="path6"
     style="display:inline;stroke-width:1.58777" />
  <ellipse
     fill="#292f33"
     cx="23.770628"
     cy="-13.776931"
     id="circle6"
     style="display:inline;fill:#2e3436;stroke-width:1.58777"
     transform="scale(1,-1)"
     rx="1.5727943"
     ry="1.6028829" />
  <path
     fill="#292f33"
     d="m 25.999278,10.050227 a 1.078937,1.0995778 0 1 0 -2.157874,0 1.078937,1.0995778 0 0 0 2.157874,0 z"
     id="path7"
     style="display:inline;fill:#2e3436;stroke-width:1.58777" />
  <path
     style="display:inline;fill:#000000;stroke:#2e3436;stroke-width:0.286931;stroke-linecap:round;stroke-linejoin:round;stroke-dasharray:none;paint-order:markers fill stroke"
     d="m 52.664671,60.219563 1.57607,-2.48411"
     id="path12-3" />
  <path
     style="fill:#000000;stroke:#2e3436;stroke-width:0.286931;stroke-linecap:round;stroke-linejoin:round;stroke-dasharray:none;paint-order:markers fill stroke"
     d="m 49.439333,58.142783 1.57607,-2.484111"
     id="path13" />
  <path
     style="fill:#000000;stroke:#2e3436;stroke-width:0.286931;stroke-linecap:round;stroke-linejoin:round;stroke-dasharray:none;paint-order:markers fill stroke"
     d="m 46.389134,56.162926 1.57607,-2.48411"
     id="path14" />
  <path
     style="fill:#000000;stroke:#2e3436;stroke-width:0.286931;stroke-linecap:round;stroke-linejoin:round;stroke-dasharray:none;paint-order:markers fill stroke"
     d="m 60.189199,52.175845 -2.28848,1.520795"
     id="path15" />
  <path
     style="display:inline;fill:#000000;stroke:#2e3436;stroke-width:0.286931;stroke-linecap:round;stroke-linejoin:round;stroke-dasharray:none;paint-order:markers fill stroke"
     d="m 58.024269,48.957462 -2.28848,1.520796"
     id="path16" />
  <path
     style="display:inline;fill:#000000;stroke:#2e3436;stroke-width:0.286931;stroke-linecap:round;stroke-linejoin:round;stroke-dasharray:none;paint-order:markers fill stroke"
     d="m 55.893082,45.792425 -2.28848,1.520796"
     id="path17" />
  <path
     id="path18"
     style="font-variation-settings:normal;display:inline;fill:#ef2929;fill-opacity:1;stroke:#280000;stroke-width:2.13146;stroke-linecap:butt;stroke-linejoin:round;stroke-miterlimit:4;stroke-dasharray:none;stroke-dashoffset:0;stroke-opacity:1;paint-order:normal;stop-color:#000000"
     d="m 56.024158,58.370073 c -0.123785,0.127548 -0.236204,0.235455 -0.331867,0.317887 l -9.414229,-6.078088 c -0.211193,-2.249009 -0.75648,-3.498041 -1.795893,-4.543415 l 1.751997,-1.910029 3.97e-4,3.84e-4 1.766027,-1.896469 c 1.079322,1.002193 2.329603,1.488423 4.537379,1.577131 l 6.465667,9.268429 c -0.30011,0.409497 -0.985238,1.113764 -1.687664,1.760112 -0.443577,0.565207 -0.919596,1.122249 -1.291339,1.504517 z" />
  <path
     id="path20"
     style="font-variation-settings:normal;display:inline;fill:url(#linearGradient19);fill-opacity:1;stroke:#ef2929;stroke-width:2.13146;stroke-linecap:butt;stroke-linejoin:round;stroke-miterlimit:4;stroke-dasharray:none;stroke-dashoffset:0;stroke-opacity:1;paint-order:normal;stop-color:#000000"
     d="m 55.348474,55.917067 c 0.1079,-0.131117 0.215642,-0.262382 0.323848,-0.400216 l 0.105856,-0.13641 0.127213,-0.115771 c 0.131816,-0.12123 0.253263,-0.238746 0.373922,-0.35477 L 51.401149,47.917517 C 50.185916,47.79457 49.190344,47.534725 48.291465,47.072468 l -0.753999,0.812633 -0.291936,0.319068 c 0.502053,0.891622 0.811935,1.893383 1.00055,3.12713 z" />
  <ellipse
     style="display:inline;fill:#280000;stroke:none;stroke-width:0.573933;stroke-linecap:round;stroke-linejoin:round;stroke-dasharray:none;paint-order:markers fill stroke"
     id="path4-04"
     cx="-75.391846"
     cy="-24.130072"
     rx="1.0768054"
     ry="0.62643456"
     transform="matrix(-0.5221365,-0.85286193,-0.86425916,0.50304682,0,0)" />
  <ellipse
     style="display:inline;fill:#280000;stroke:none;stroke-width:0.573933;stroke-linecap:round;stroke-linejoin:round;stroke-dasharray:none;paint-order:markers fill stroke"
     id="ellipse7"
     cx="-71.58165"
     cy="-23.991354"
     rx="1.0768054"
     ry="0.62643456"
     transform="matrix(-0.5221365,-0.85286193,-0.86425916,0.50304682,0,0)" />
  <ellipse
     style="display:inline;fill:#280000;stroke:none;stroke-width:0.573933;stroke-linecap:round;stroke-linejoin:round;stroke-dasharray:none;paint-order:markers fill stroke"
     id="ellipse8"
     cx="-67.771446"
     cy="-23.852671"
     rx="1.0768054"
     ry="0.62643456"
     transform="matrix(-0.5221365,-0.85286193,-0.86425916,0.50304682,0,0)" />
  <ellipse
     style="fill:#280000;stroke:none;stroke-width:0.574383;stroke-linecap:round;stroke-linejoin:round;stroke-dasharray:none;paint-order:markers fill stroke"
     id="ellipse9"
     cx="-73.905174"
     cy="-26.689398"
     rx="1.0651718"
     ry="0.63426846"
     transform="matrix(-0.87158549,-0.49024354,0.43692595,-0.89949748,0,0)" />
  <ellipse
     style="fill:#280000;stroke:none;stroke-width:0.574383;stroke-linecap:round;stroke-linejoin:round;stroke-dasharray:none;paint-order:markers fill stroke"
     id="ellipse10"
     cx="-70.136131"
     cy="-26.548946"
     rx="1.0651718"
     ry="0.63426846"
     transform="matrix(-0.87158549,-0.49024354,0.43692595,-0.89949748,0,0)" />
  <ellipse
     style="fill:#280000;stroke:none;stroke-width:0.574383;stroke-linecap:round;stroke-linejoin:round;stroke-dasharray:none;paint-order:markers fill stroke"
     id="ellipse11"
     cx="-66.367096"
     cy="-26.408529"
     rx="1.0651718"
     ry="0.63426846"
     transform="matrix(-0.87158549,-0.49024354,0.43692595,-0.89949748,0,0)" />
</svg>
