<?xml version="1.0" encoding="UTF-8" standalone="no"?>
<svg
   id="neck"
   version="1.1"
   height="64"
   width="64"
   xmlns="http://www.w3.org/2000/svg"
   xmlns:svg="http://www.w3.org/2000/svg">
  <defs
     id="defs1" />
  <path
     id="path18"
     style="color:#000000;fill:#fcaf3e;stroke-linejoin:round;-inkscape-stroke:none"
     d="M 54.814453 2.5117188 A 0.49246023 0.49246023 0 0 0 54.498047 2.59375 L 37.738281 13.957031 A 0.49246023 0.49246023 0 0 0 37.525391 14.318359 C 37.150891 18.362273 36.477765 21.02938 34.820312 22.884766 L 3 49.962891 L 14.224609 61.492188 L 40.925781 29.75 L 40.919922 29.744141 C 42.736145 28.056598 45.22539 27.509977 49.017578 27.335938 A 0.49246023 0.49246023 0 0 0 49.40625 27.115234 L 60.917969 9.7832031 A 0.49246023 0.49246023 0 0 0 60.904297 9.2207031 C 60.305871 8.4057831 59.162047 7.1860402 57.96875 6.0292969 L 57.990234 6.0683594 A 0.49246023 0.49246023 0 0 0 57.960938 6.0195312 C 57.946108 6.0051643 57.938678 5.9948177 57.923828 5.9804688 A 0.49246023 0.49246023 0 0 0 57.894531 5.953125 L 57.935547 5.9863281 C 57.199307 5.0025202 56.423171 4.0483509 55.777344 3.3320312 A 0.49246023 0.49246023 0 0 0 55.726562 3.2832031 L 55.748047 3.3007812 L 55.605469 3.1464844 A 0.49246023 0.49246023 0 0 0 55.603516 3.1445312 C 55.424164 2.9506818 55.264504 2.7878027 55.113281 2.6445312 A 0.49246023 0.49246023 0 0 0 54.814453 2.5117188 z M 52.945312 5.3496094 C 53.134782 5.3620164 53.307086 5.4130121 53.447266 5.5039062 C 53.995585 5.8594437 53.788815 6.7597358 53.009766 7.4023438 C 52.703469 7.6550016 52.208927 7.8960251 51.857422 7.9667969 C 51.535933 8.0314758 51.377112 8.0312231 51.152344 7.9707031 C 50.389404 7.7652468 50.376106 6.9055308 51.123047 6.1464844 C 51.649246 5.6116507 52.376878 5.3124451 52.945312 5.3496094 z M 47.570312 8.9394531 C 47.847166 8.9394531 47.921193 8.953034 48.074219 9.0292969 C 48.664929 9.3236692 48.589627 10.127049 47.90625 10.806641 C 47.552903 11.158025 47.076591 11.429598 46.628906 11.535156 C 46.395662 11.590146 46.00944 11.601681 45.861328 11.556641 C 45.586726 11.473111 45.350267 11.251769 45.310547 11.041016 C 45.235077 10.638735 45.399684 10.189999 45.765625 9.7988281 C 46.28709 9.2413802 46.921266 8.9394531 47.570312 8.9394531 z M 56.740234 11.25 C 57.018154 11.2335 57.250655 11.352713 57.378906 11.613281 C 57.443726 11.745096 57.467553 11.855233 57.476562 12.101562 C 57.492122 12.517226 57.420286 12.817674 57.201172 13.265625 C 56.92661 13.82687 56.509671 14.276599 56.076172 14.476562 C 55.739 14.632098 55.38238 14.610466 55.173828 14.421875 C 54.984808 14.250881 54.889757 13.828902 54.943359 13.396484 C 55.014529 12.822271 55.380141 12.127676 55.833984 11.703125 C 56.140117 11.416757 56.462324 11.266506 56.740234 11.25 z M 42.337891 12.791016 C 42.625719 12.806326 42.869381 12.8992 43.011719 13.068359 C 43.474669 13.618543 42.913601 14.666491 41.886719 15.173828 C 41.711868 15.260208 41.477091 15.357481 41.361328 15.386719 C 41.106054 15.451179 40.662641 15.452955 40.488281 15.390625 C 40.037383 15.229467 39.874496 14.785133 40.070312 14.261719 C 40.250077 13.781243 40.808146 13.241975 41.390625 12.984375 C 41.716741 12.840141 42.050054 12.775702 42.337891 12.791016 z M 53.371094 16.121094 C 53.543488 16.125294 53.700648 16.185404 53.826172 16.314453 C 53.983866 16.476622 54.054688 16.711939 54.054688 17.064453 C 54.054688 17.915558 53.430146 18.96138 52.701172 19.330078 C 52.432548 19.465942 52.087648 19.500246 51.919922 19.408203 C 51.621856 19.244624 51.507489 19.000565 51.509766 18.533203 C 51.511566 18.152589 51.594275 17.81494 51.78125 17.441406 C 52.191778 16.621276 52.853919 16.108443 53.371094 16.121094 z M 49.396484 21.607422 C 49.676943 21.628632 49.880815 21.805286 49.974609 22.121094 C 50.231972 22.987769 49.536404 24.390168 48.634766 24.822266 C 48.232771 25.014929 47.903989 24.97866 47.675781 24.71875 C 47.516204 24.537035 47.469421 24.370925 47.472656 23.986328 C 47.475056 23.707516 47.494035 23.593266 47.587891 23.314453 C 47.739032 22.864722 47.977654 22.473231 48.298828 22.146484 C 48.601439 21.838592 48.791478 21.716876 49.091797 21.638672 C 49.200966 21.610252 49.302998 21.600342 49.396484 21.607422 z " />
</svg>
