<?xml version="1.0" encoding="UTF-8" standalone="no"?>
<svg
   id="nut"
   version="1.1"
   height="64"
   width="64"
   xmlns="http://www.w3.org/2000/svg">  
<path
     id="path11"
     style="color:#000000;fill:#fcaf3e;stroke-width:7.60477;stroke-linejoin:round;-inkscape-stroke:none"
     d="m 23.273812,61.006656 28.49381,-27.903517 a 7.2616969,7.4116025 0 0 0 7.115051,-1.831805 h 0.0064 a 7.2616969,7.4116025 0 0 0 0,-10.448852 L 43.526724,5.1492039 c -2.816343,-2.8744794 -7.422447,-2.8744794 -10.238781,0 -2.087177,2.1301523 -2.62384,5.2619681 -1.617648,7.9112151 L 3.0000127,41.148796 4.4978098,42.694907 32.771049,15.007763 c 0.160977,0.203981 0.331385,0.401083 0.516771,0.590297 l 2.531336,2.581748 -28.1303924,27.546399 1.5146009,1.54611 28.1240895,-27.550597 3.079617,3.142636 -28.012753,27.441366 1.499895,1.544009 28.019057,-27.447666 3.077515,3.142637 -27.905618,27.33843 1.497797,1.54611 27.922422,-27.34263 2.138505,2.184722 a 7.2616969,7.4116025 0 0 0 1.035641,0.863385 L 21.773918,59.460546 Z" />
</svg>
