<?xml version="1.0" encoding="UTF-8" standalone="no"?>
<svg
   width="64px"
   height="64px"
   viewBox="0 0 64 64"
   version="1.1"
   id="svg1"
   xmlns:xlink="http://www.w3.org/1999/xlink"
   xmlns="http://www.w3.org/2000/svg"
   xmlns:svg="http://www.w3.org/2000/svg">
  <defs
     id="m1">
    <linearGradient
       xlink:href="#lg1"
       id="lg2"
       x1="56.876698"
       y1="50.441162"
       x2="17.784973"
       y2="23.323475"
       gradientUnits="userSpaceOnUse"
       gradientTransform="matrix(0.6834654,0,0,0.68345926,18.277607,24.002804)" />
    <linearGradient
       id="lg1">
      <stop
         style="stop-color:#3465a4;stop-opacity:1"
         offset="0"
         id="s1" />
      <stop
         style="stop-color:#ffffff;stop-opacity:1"
         offset="1"
         id="s2" />
    </linearGradient>
  </defs>
  <g
     id="g5"
     style="stroke:#fcaf3e;stroke-opacity:1"
     transform="matrix(1.098381,0,0,1.098381,-3.1445512,-3.1278098)">
    <rect
       y="25.523359"
       x="7.7001467"
       height="30.451744"
       width="34.147728"
       id="r1"
       style="color:#000000;display:inline;overflow:visible;visibility:visible;fill:none;stroke:#321900;stroke-width:5.38278;stroke-linecap:round;stroke-linejoin:round;stroke-miterlimit:4;stroke-dasharray:none;stroke-dashoffset:0;stroke-opacity:1;marker:none;enable-background:accumulate" />
    <path
       d="m 56.225863,23.732078 c 0,8.903665 -7.644228,16.121511 -17.073864,16.121511 -9.429635,0 -17.073863,-7.217846 -17.073863,-16.121511 0,-8.903665 7.644228,-16.1215113 17.073863,-16.1215113 9.429636,0 17.073864,7.2178463 17.073864,16.1215113 z"
       id="r2"
       style="color:#000000;display:inline;overflow:visible;visibility:visible;fill:none;stroke:#321900;stroke-width:5.38278;stroke-linecap:round;stroke-linejoin:round;stroke-miterlimit:4;stroke-dasharray:none;stroke-dashoffset:0;stroke-opacity:1;marker:none;enable-background:accumulate" />
    <rect
       y="25.523359"
       x="7.7001467"
       height="30.451744"
       width="34.147728"
       id="r3"
       style="color:#000000;display:inline;overflow:visible;visibility:visible;fill:none;stroke:#fcaf3e;stroke-width:2.27607724;stroke-linecap:round;stroke-linejoin:round;stroke-miterlimit:4;stroke-dasharray:none;stroke-dashoffset:0;stroke-opacity:1;marker:none;enable-background:accumulate" />
    <path
       d="m 56.225866,23.732077 c 0,8.903666 -7.64423,16.121512 -17.073864,16.121512 -9.429635,0 -17.073865,-7.217846 -17.073865,-16.121512 0,-8.903664 7.64423,-16.1215104 17.073865,-16.1215104 9.429634,0 17.073864,7.2178464 17.073864,16.1215104 z"
       id="r4"
       style="color:#000000;display:inline;overflow:visible;visibility:visible;fill:none;stroke:#fcaf3e;stroke-width:2.27607724;stroke-linecap:round;stroke-linejoin:round;stroke-miterlimit:4;stroke-dasharray:none;stroke-dashoffset:0;stroke-opacity:1;marker:none;enable-background:accumulate" />
  </g>
  <path
     id="e1"
     d="m 40.148501,33.430459 c -8.014147,0 -14.921281,4.951886 -18.094197,12.097799 -0.09745,0.216541 -0.09745,0.469856 0,0.690486 3.172916,7.145913 10.08005,12.097797 18.094197,12.097797 8.014147,0 14.921281,-4.951884 18.094198,-12.097797 0.09744,-0.216543 0.09744,-0.469857 0,-0.690486 C 55.069782,38.382345 48.162648,33.430459 40.148501,33.430459"
     style="fill:url(#lg2);fill-opacity:1;stroke:#000000;stroke-width:1.36692;stroke-miterlimit:4;stroke-dasharray:none" />
  <path
     style="fill:none;stroke:#000000;stroke-width:1.5;stroke-linejoin:round;stroke-dasharray:none;paint-order:stroke fill markers"
     d="m 22.049453,46.078228 c 11.787387,2.467971 23.729072,2.344001 35.801048,-0.235057"
     id="path1" />
  <path
     style="fill:none;stroke:#000000;stroke-width:1.5;stroke-linejoin:round;stroke-dasharray:none;paint-order:stroke fill markers"
     d="m 26.32955,46.876595 -0.357083,3.125883"
     id="path2" />
  <path
     style="fill:none;stroke:#000000;stroke-width:1.5;stroke-linejoin:round;stroke-dasharray:none;paint-order:stroke fill markers"
     d="m 31.227595,47.70141 -0.0977,3.17725"
     id="path3" />
  <path
     style="fill:none;stroke:#000000;stroke-width:1.5;stroke-linejoin:round;stroke-dasharray:none;paint-order:stroke fill markers"
     d="m 37.164656,48.312093 -0.05595,2.987776"
     id="path4" />
  <path
     style="fill:none;stroke:#000000;stroke-width:1.5;stroke-linejoin:round;stroke-dasharray:none;paint-order:stroke fill markers"
     d="m 43.141583,48.367784 0.129772,2.758048"
     id="path5" />
  <path
     style="fill:none;stroke:#000000;stroke-width:1.5;stroke-linejoin:round;stroke-dasharray:none;paint-order:stroke fill markers"
     d="m 48.552227,47.757881 0.194004,3.133972"
     id="path6" />
  <path
     style="fill:none;stroke:#000000;stroke-width:1.5;stroke-linejoin:round;stroke-dasharray:none;paint-order:stroke fill markers"
     d="m 53.898248,46.87383 -0.190293,2.730147"
     id="path7" />
</svg>
