<?xml version="1.0" encoding="UTF-8" standalone="no"?>
<!-- Created with Inkscape (http://www.inkscape.org/) -->

<svg
   width="550.47858mm"
   height="401.18839mm"
   viewBox="0 0 550.47857 401.18838"
   version="1.1"
   id="svg98078"
   inkscape:version="1.3.2 (091e20ef0f, 2023-11-25)"
   sodipodi:docname="body.svg"
   xmlns:inkscape="http://www.inkscape.org/namespaces/inkscape"
   xmlns:sodipodi="http://sodipodi.sourceforge.net/DTD/sodipodi-0.dtd"
   xmlns="http://www.w3.org/2000/svg"
   xmlns:svg="http://www.w3.org/2000/svg">
  <sodipodi:namedview
     id="namedview98080"
     pagecolor="#ffffff"
     bordercolor="#00ff00"
     borderopacity="0"
     inkscape:showpageshadow="2"
     inkscape:pageopacity="1"
     inkscape:pagecheckerboard="0"
     inkscape:deskcolor="#000036"
     inkscape:document-units="mm"
     showgrid="false"
     showborder="true"
     inkscape:zoom="0.41635493"
     inkscape:cx="897.07116"
     inkscape:cy="682.11033"
     inkscape:window-width="1920"
     inkscape:window-height="1021"
     inkscape:window-x="0"
     inkscape:window-y="0"
     inkscape:window-maximized="1"
     inkscape:current-layer="layer1" />
  <defs
     id="defs98075">
    <clipPath
       clipPathUnits="userSpaceOnUse"
       id="clipPath19427">
      <g
         id="g19431">
        <path
           d="M -5.0620427e-6,1299.9999 H 1299.9998 V 2.236658e-5 H -5.0620427e-6 Z"
           id="path19429"
           style="stroke-width:0.352778" />
      </g>
    </clipPath>
    <clipPath
       clipPathUnits="userSpaceOnUse"
       id="clipPath19421">
      <g
         id="g19425">
        <path
           d="M -5.0620427e-6,1299.9999 H 1299.9998 V 2.236658e-5 H -5.0620427e-6 Z"
           id="path19423"
           style="stroke-width:0.352778" />
      </g>
    </clipPath>
    <clipPath
       clipPathUnits="userSpaceOnUse"
       id="clipPath19415">
      <g
         id="g19419">
        <path
           d="M -5.0620427e-6,1299.9999 H 1299.9998 V 2.236658e-5 H -5.0620427e-6 Z"
           id="path19417"
           style="stroke-width:0.352778" />
      </g>
    </clipPath>
    <clipPath
       clipPathUnits="userSpaceOnUse"
       id="clipPath19409">
      <g
         id="g19413">
        <path
           d="M -5.0620427e-6,1299.9999 H 1299.9998 V 2.236658e-5 H -5.0620427e-6 Z"
           id="path19411"
           style="stroke-width:0.352778" />
      </g>
    </clipPath>
    <clipPath
       clipPathUnits="userSpaceOnUse"
       id="clipPath19397">
      <g
         id="g19401">
        <path
           d="M -5.0620427e-6,1299.9999 H 1299.9998 V 2.236658e-5 H -5.0620427e-6 Z"
           id="path19399"
           style="stroke-width:0.352778" />
      </g>
    </clipPath>
    <clipPath
       clipPathUnits="userSpaceOnUse"
       id="clipPath19391">
      <g
         id="g19395">
        <path
           d="M -5.0620427e-6,1299.9999 H 1299.9998 V 2.236658e-5 H -5.0620427e-6 Z"
           id="path19393"
           style="stroke-width:0.352778" />
      </g>
    </clipPath>
    <clipPath
       clipPathUnits="userSpaceOnUse"
       id="clipPath19385">
      <g
         id="g19389">
        <path
           d="M -5.0620427e-6,1299.9999 H 1299.9998 V 2.236658e-5 H -5.0620427e-6 Z"
           id="path19387"
           style="stroke-width:0.352778" />
      </g>
    </clipPath>
    <clipPath
       clipPathUnits="userSpaceOnUse"
       id="clipPath19379">
      <g
         id="g19383">
        <path
           d="M -5.0620427e-6,1299.9999 H 1299.9998 V 2.236658e-5 H -5.0620427e-6 Z"
           id="path19381"
           style="stroke-width:0.352778" />
      </g>
    </clipPath>
    <clipPath
       clipPathUnits="userSpaceOnUse"
       id="clipPath19373">
      <g
         id="g19377">
        <path
           d="M -5.0620427e-6,1299.9999 H 1299.9998 V 2.236658e-5 H -5.0620427e-6 Z"
           id="path19375"
           style="stroke-width:0.352778" />
      </g>
    </clipPath>
    <clipPath
       clipPathUnits="userSpaceOnUse"
       id="clipPath19367">
      <g
         id="g19371">
        <path
           d="M -5.0620427e-6,1299.9999 H 1299.9998 V 2.236658e-5 H -5.0620427e-6 Z"
           id="path19369"
           style="stroke-width:0.352778" />
      </g>
    </clipPath>
    <clipPath
       clipPathUnits="userSpaceOnUse"
       id="clipPath19361">
      <g
         id="g19365">
        <path
           d="M -5.0620427e-6,1299.9999 H 1299.9998 V 2.236658e-5 H -5.0620427e-6 Z"
           id="path19363"
           style="stroke-width:0.352778" />
      </g>
    </clipPath>
    <clipPath
       clipPathUnits="userSpaceOnUse"
       id="clipPath19355">
      <g
         id="g19359">
        <path
           d="M -5.0620427e-6,1299.9999 H 1299.9998 V 2.236658e-5 H -5.0620427e-6 Z"
           id="path19357"
           style="stroke-width:0.352778" />
      </g>
    </clipPath>
    <clipPath
       clipPathUnits="userSpaceOnUse"
       id="clipPath19349">
      <g
         id="g19353">
        <path
           d="M -5.0620427e-6,1299.9999 H 1299.9998 V 2.236658e-5 H -5.0620427e-6 Z"
           id="path19351"
           style="stroke-width:0.352778" />
      </g>
    </clipPath>
    <clipPath
       clipPathUnits="userSpaceOnUse"
       id="clipPath19343">
      <g
         id="g19347">
        <path
           d="M -5.0620427e-6,1299.9999 H 1299.9998 V 2.236658e-5 H -5.0620427e-6 Z"
           id="path19345"
           style="stroke-width:0.352778" />
      </g>
    </clipPath>
    <clipPath
       clipPathUnits="userSpaceOnUse"
       id="clipPath19331">
      <g
         id="g19335">
        <path
           d="M -5.0620427e-6,1299.9999 H 1299.9998 V 2.236658e-5 H -5.0620427e-6 Z"
           id="path19333"
           style="stroke-width:0.352778" />
      </g>
    </clipPath>
    <clipPath
       clipPathUnits="userSpaceOnUse"
       id="clipPath19325">
      <g
         id="g19329">
        <path
           d="M -5.0620427e-6,1299.9999 H 1299.9998 V 2.236658e-5 H -5.0620427e-6 Z"
           id="path19327"
           style="stroke-width:0.352778" />
      </g>
    </clipPath>
    <clipPath
       clipPathUnits="userSpaceOnUse"
       id="clipPath19313">
      <g
         id="g19317">
        <path
           d="M -5.0620427e-6,1299.9999 H 1299.9998 V 2.236658e-5 H -5.0620427e-6 Z"
           id="path19315"
           style="stroke-width:0.352778" />
      </g>
    </clipPath>
    <clipPath
       clipPathUnits="userSpaceOnUse"
       id="clipPath19307">
      <g
         id="g19311">
        <path
           d="M -5.0620427e-6,1299.9999 H 1299.9998 V 2.236658e-5 H -5.0620427e-6 Z"
           id="path19309"
           style="stroke-width:0.352778" />
      </g>
    </clipPath>
    <clipPath
       clipPathUnits="userSpaceOnUse"
       id="clipPath19295">
      <g
         id="g19299">
        <path
           d="M -5.0620427e-6,1299.9999 H 1299.9998 V 2.236658e-5 H -5.0620427e-6 Z"
           id="path19297"
           style="stroke-width:0.352778" />
      </g>
    </clipPath>
    <clipPath
       clipPathUnits="userSpaceOnUse"
       id="clipPath19289">
      <g
         id="g19293">
        <path
           d="M -5.0620427e-6,1299.9999 H 1299.9998 V 2.236658e-5 H -5.0620427e-6 Z"
           id="path19291"
           style="stroke-width:0.352778" />
      </g>
    </clipPath>
    <clipPath
       clipPathUnits="userSpaceOnUse"
       id="clipPath19277">
      <g
         id="g19281">
        <path
           d="M -5.0620427e-6,1299.9999 H 1299.9998 V 2.236658e-5 H -5.0620427e-6 Z"
           id="path19279"
           style="stroke-width:0.352778" />
      </g>
    </clipPath>
    <clipPath
       clipPathUnits="userSpaceOnUse"
       id="clipPath19271">
      <g
         id="g19275">
        <path
           d="M -5.0620427e-6,1299.9999 H 1299.9998 V 2.236658e-5 H -5.0620427e-6 Z"
           id="path19273"
           style="stroke-width:0.352778" />
      </g>
    </clipPath>
    <clipPath
       clipPathUnits="userSpaceOnUse"
       id="clipPath19259">
      <g
         id="g19263">
        <path
           d="M -5.0620427e-6,1299.9999 H 1299.9998 V 2.236658e-5 H -5.0620427e-6 Z"
           id="path19261"
           style="stroke-width:0.352778" />
      </g>
    </clipPath>
    <clipPath
       clipPathUnits="userSpaceOnUse"
       id="clipPath19253">
      <g
         id="g19257">
        <path
           d="M -5.0620427e-6,1299.9999 H 1299.9998 V 2.236658e-5 H -5.0620427e-6 Z"
           id="path19255"
           style="stroke-width:0.352778" />
      </g>
    </clipPath>
    <clipPath
       clipPathUnits="userSpaceOnUse"
       id="clipPath19235">
      <g
         id="g19239">
        <path
           d="M -5.0620427e-6,1299.9999 H 1299.9998 V 2.236658e-5 H -5.0620427e-6 Z"
           id="path19237"
           style="stroke-width:0.352778" />
      </g>
    </clipPath>
    <clipPath
       clipPathUnits="userSpaceOnUse"
       id="clipPath19229">
      <g
         id="g19233">
        <path
           d="M -5.0620427e-6,1299.9999 H 1299.9998 V 2.236658e-5 H -5.0620427e-6 Z"
           id="path19231"
           style="stroke-width:0.352778" />
      </g>
    </clipPath>
    <clipPath
       clipPathUnits="userSpaceOnUse"
       id="clipPath19223">
      <g
         id="g19227">
        <path
           d="M -5.0620427e-6,1299.9999 H 1299.9998 V 2.236658e-5 H -5.0620427e-6 Z"
           id="path19225"
           style="stroke-width:0.352778" />
      </g>
    </clipPath>
    <clipPath
       clipPathUnits="userSpaceOnUse"
       id="clipPath19217">
      <g
         id="g19221">
        <path
           d="M -5.0620427e-6,1299.9999 H 1299.9998 V 2.236658e-5 H -5.0620427e-6 Z"
           id="path19219"
           style="stroke-width:0.352778" />
      </g>
    </clipPath>
    <clipPath
       clipPathUnits="userSpaceOnUse"
       id="clipPath19211">
      <g
         id="g19215">
        <path
           d="M -5.0620427e-6,1299.9999 H 1299.9998 V 2.236658e-5 H -5.0620427e-6 Z"
           id="path19213"
           style="stroke-width:0.352778" />
      </g>
    </clipPath>
    <clipPath
       clipPathUnits="userSpaceOnUse"
       id="clipPath19205">
      <g
         id="g19209">
        <path
           d="M -5.0620427e-6,1299.9999 H 1299.9998 V 2.236658e-5 H -5.0620427e-6 Z"
           id="path19207"
           style="stroke-width:0.352778" />
      </g>
    </clipPath>
    <clipPath
       clipPathUnits="userSpaceOnUse"
       id="clipPath18707">
      <g
         id="g18711">
        <path
           d="M -5.0620427e-6,1299.9999 H 1299.9998 V 2.236658e-5 H -5.0620427e-6 Z"
           id="path18709"
           style="stroke-width:0.352778" />
      </g>
    </clipPath>
    <clipPath
       clipPathUnits="userSpaceOnUse"
       id="clipPath18701">
      <g
         id="g18705">
        <path
           d="M -5.0620427e-6,1299.9999 H 1299.9998 V 2.236658e-5 H -5.0620427e-6 Z"
           id="path18703"
           style="stroke-width:0.352778" />
      </g>
    </clipPath>
    <clipPath
       clipPathUnits="userSpaceOnUse"
       id="clipPath18449">
      <g
         id="g18453">
        <path
           d="M -5.0620427e-6,1299.9999 H 1299.9998 V 2.236658e-5 H -5.0620427e-6 Z"
           id="path18451"
           style="stroke-width:0.352778" />
      </g>
    </clipPath>
    <clipPath
       clipPathUnits="userSpaceOnUse"
       id="clipPath18443">
      <g
         id="g18447">
        <path
           d="M -5.0620427e-6,1299.9999 H 1299.9998 V 2.236658e-5 H -5.0620427e-6 Z"
           id="path18445"
           style="stroke-width:0.352778" />
      </g>
    </clipPath>
    <clipPath
       clipPathUnits="userSpaceOnUse"
       id="clipPath18437">
      <g
         id="g18441">
        <path
           d="M -5.0620427e-6,1299.9999 H 1299.9998 V 2.236658e-5 H -5.0620427e-6 Z"
           id="path18439"
           style="stroke-width:0.352778" />
      </g>
    </clipPath>
    <clipPath
       clipPathUnits="userSpaceOnUse"
       id="clipPath18431">
      <g
         id="g18435">
        <path
           d="M -5.0620427e-6,1299.9999 H 1299.9998 V 2.236658e-5 H -5.0620427e-6 Z"
           id="path18433"
           style="stroke-width:0.352778" />
      </g>
    </clipPath>
    <clipPath
       clipPathUnits="userSpaceOnUse"
       id="clipPath18425">
      <g
         id="g18429">
        <path
           d="M -5.0620427e-6,1299.9999 H 1299.9998 V 2.236658e-5 H -5.0620427e-6 Z"
           id="path18427"
           style="stroke-width:0.352778" />
      </g>
    </clipPath>
    <clipPath
       clipPathUnits="userSpaceOnUse"
       id="clipPath18419">
      <g
         id="g18423">
        <path
           d="M -5.0620427e-6,1299.9999 H 1299.9998 V 2.236658e-5 H -5.0620427e-6 Z"
           id="path18421"
           style="stroke-width:0.352778" />
      </g>
    </clipPath>
    <clipPath
       clipPathUnits="userSpaceOnUse"
       id="clipPath23568">
      <g
         id="g23574">
        <g
           id="g23572"
           transform="translate(-2.9976925e-6,-2.1316796e-5)">
          <path
             d="M -5.0620427e-6,1299.9999 H 1299.9998 V 2.236658e-5 H -5.0620427e-6 Z"
             id="path23570"
             style="stroke-width:0.352778" />
        </g>
      </g>
    </clipPath>
    <clipPath
       clipPathUnits="userSpaceOnUse"
       id="clipPath18407">
      <g
         id="g18411">
        <path
           d="M -5.0620427e-6,1299.9999 H 1299.9998 V 2.236658e-5 H -5.0620427e-6 Z"
           id="path18409"
           style="stroke-width:0.352778" />
      </g>
    </clipPath>
    <clipPath
       clipPathUnits="userSpaceOnUse"
       id="clipPath18389">
      <g
         id="g18393">
        <path
           d="M -5.0620427e-6,1299.9999 H 1299.9998 V 2.236658e-5 H -5.0620427e-6 Z"
           id="path18391"
           style="stroke-width:0.352778" />
      </g>
    </clipPath>
    <clipPath
       clipPathUnits="userSpaceOnUse"
       id="clipPath18383">
      <g
         id="g18387">
        <path
           d="M -5.0620427e-6,1299.9999 H 1299.9998 V 2.236658e-5 H -5.0620427e-6 Z"
           id="path18385"
           style="stroke-width:0.352778" />
      </g>
    </clipPath>
    <clipPath
       clipPathUnits="userSpaceOnUse"
       id="clipPath18377">
      <g
         id="g18381">
        <path
           d="M -5.0620427e-6,1299.9999 H 1299.9998 V 2.236658e-5 H -5.0620427e-6 Z"
           id="path18379"
           style="stroke-width:0.352778" />
      </g>
    </clipPath>
    <clipPath
       clipPathUnits="userSpaceOnUse"
       id="clipPath18371">
      <g
         id="g18375">
        <path
           d="M -5.0620427e-6,1299.9999 H 1299.9998 V 2.236658e-5 H -5.0620427e-6 Z"
           id="path18373"
           style="stroke-width:0.352778" />
      </g>
    </clipPath>
    <clipPath
       clipPathUnits="userSpaceOnUse"
       id="clipPath18365">
      <g
         id="g18369">
        <path
           d="M -5.0620427e-6,1299.9999 H 1299.9998 V 2.236658e-5 H -5.0620427e-6 Z"
           id="path18367"
           style="stroke-width:0.352778" />
      </g>
    </clipPath>
    <clipPath
       clipPathUnits="userSpaceOnUse"
       id="clipPath24108">
      <g
         id="g24114">
        <g
           id="g24112"
           transform="translate(2.4139445e-6,-1.4724658e-5)">
          <path
             d="M -5.0620427e-6,1299.9999 H 1299.9998 V 2.236658e-5 H -5.0620427e-6 Z"
             id="path24110"
             style="stroke-width:0.352778" />
        </g>
      </g>
    </clipPath>
    <clipPath
       clipPathUnits="userSpaceOnUse"
       id="clipPath23643">
      <g
         id="g23649">
        <g
           id="g23647"
           transform="translate(0,1.2654336e-5)">
          <path
             d="M -5.0620427e-6,1299.9999 H 1299.9998 V 2.236658e-5 H -5.0620427e-6 Z"
             id="path23645"
             style="stroke-width:0.352778" />
        </g>
      </g>
    </clipPath>
    <clipPath
       clipPathUnits="userSpaceOnUse"
       id="clipPath24168">
      <g
         id="g24174">
        <g
           id="g24172"
           transform="translate(0,1.2654336e-5)">
          <path
             d="M -5.0620427e-6,1299.9999 H 1299.9998 V 2.236658e-5 H -5.0620427e-6 Z"
             id="path24170"
             style="stroke-width:0.352778" />
        </g>
      </g>
    </clipPath>
    <clipPath
       clipPathUnits="userSpaceOnUse"
       id="clipPath24258">
      <g
         id="g24264">
        <g
           id="g24262"
           transform="translate(0,1.2654336e-5)">
          <path
             d="M -5.0620427e-6,1299.9999 H 1299.9998 V 2.236658e-5 H -5.0620427e-6 Z"
             id="path24260"
             style="stroke-width:0.352778" />
        </g>
      </g>
    </clipPath>
    <clipPath
       clipPathUnits="userSpaceOnUse"
       id="clipPath23493">
      <g
         id="g23499">
        <g
           id="g23497"
           transform="translate(0,1.2654336e-5)">
          <path
             d="M -5.0620427e-6,1299.9999 H 1299.9998 V 2.236658e-5 H -5.0620427e-6 Z"
             id="path23495"
             style="stroke-width:0.352778" />
        </g>
      </g>
    </clipPath>
    <clipPath
       clipPathUnits="userSpaceOnUse"
       id="clipPath23673">
      <g
         id="g23679">
        <g
           id="g23677"
           transform="translate(0,1.2654336e-5)">
          <path
             d="M -5.0620427e-6,1299.9999 H 1299.9998 V 2.236658e-5 H -5.0620427e-6 Z"
             id="path23675"
             style="stroke-width:0.352778" />
        </g>
      </g>
    </clipPath>
    <clipPath
       clipPathUnits="userSpaceOnUse"
       id="clipPath24243">
      <g
         id="g24249">
        <g
           id="g24247"
           transform="translate(0,1.2654336e-5)">
          <path
             d="M -5.0620427e-6,1299.9999 H 1299.9998 V 2.236658e-5 H -5.0620427e-6 Z"
             id="path24245"
             style="stroke-width:0.352778" />
        </g>
      </g>
    </clipPath>
    <clipPath
       clipPathUnits="userSpaceOnUse"
       id="clipPath23523">
      <g
         id="g23529">
        <g
           id="g23527"
           transform="translate(0,1.2654336e-5)">
          <path
             d="M -5.0620427e-6,1299.9999 H 1299.9998 V 2.236658e-5 H -5.0620427e-6 Z"
             id="path23525"
             style="stroke-width:0.352778" />
        </g>
      </g>
    </clipPath>
    <clipPath
       clipPathUnits="userSpaceOnUse"
       id="clipPath23598">
      <g
         id="g23604">
        <g
           id="g23602"
           transform="translate(0,1.2654336e-5)">
          <path
             d="M -5.0620427e-6,1299.9999 H 1299.9998 V 2.236658e-5 H -5.0620427e-6 Z"
             id="path23600"
             style="stroke-width:0.352778" />
        </g>
      </g>
    </clipPath>
    <clipPath
       clipPathUnits="userSpaceOnUse"
       id="clipPath18275">
      <g
         id="g18279">
        <path
           d="M -5.0620427e-6,1299.9999 H 1299.9998 V 2.236658e-5 H -5.0620427e-6 Z"
           id="path18277"
           style="stroke-width:0.352778" />
      </g>
    </clipPath>
    <clipPath
       clipPathUnits="userSpaceOnUse"
       id="clipPath18269">
      <g
         id="g18273">
        <path
           d="M -5.0620427e-6,1299.9999 H 1299.9998 V 2.236658e-5 H -5.0620427e-6 Z"
           id="path18271"
           style="stroke-width:0.352778" />
      </g>
    </clipPath>
    <clipPath
       clipPathUnits="userSpaceOnUse"
       id="clipPath18263">
      <g
         id="g18267">
        <path
           d="M -5.0620427e-6,1299.9999 H 1299.9998 V 2.236658e-5 H -5.0620427e-6 Z"
           id="path18265"
           style="stroke-width:0.352778" />
      </g>
    </clipPath>
    <clipPath
       clipPathUnits="userSpaceOnUse"
       id="clipPath16535">
      <g
         id="g16539">
        <path
           d="M -5.0620427e-6,1299.9999 H 1299.9998 V 2.236658e-5 H -5.0620427e-6 Z"
           id="path16537"
           style="stroke-width:0.352778" />
      </g>
    </clipPath>
    <clipPath
       clipPathUnits="userSpaceOnUse"
       id="clipPath16529">
      <g
         id="g16533">
        <path
           d="M -5.0620427e-6,1299.9999 H 1299.9998 V 2.236658e-5 H -5.0620427e-6 Z"
           id="path16531"
           style="stroke-width:0.352778" />
      </g>
    </clipPath>
    <clipPath
       clipPathUnits="userSpaceOnUse"
       id="clipPath13289">
      <g
         id="g13293">
        <path
           d="M -5.0620427e-6,1299.9999 H 1299.9998 V 2.236658e-5 H -5.0620427e-6 Z"
           id="path13291"
           style="stroke-width:0.352778" />
      </g>
    </clipPath>
    <clipPath
       clipPathUnits="userSpaceOnUse"
       id="clipPath13283">
      <g
         id="g13287">
        <path
           d="M -5.0620427e-6,1299.9999 H 1299.9998 V 2.236658e-5 H -5.0620427e-6 Z"
           id="path13285"
           style="stroke-width:0.352778" />
      </g>
    </clipPath>
    <clipPath
       clipPathUnits="userSpaceOnUse"
       id="clipPath13265">
      <g
         id="g13269">
        <path
           d="M -5.0620427e-6,1299.9999 H 1299.9998 V 2.236658e-5 H -5.0620427e-6 Z"
           id="path13267"
           style="stroke-width:0.352778" />
      </g>
    </clipPath>
    <clipPath
       clipPathUnits="userSpaceOnUse"
       id="clipPath13259">
      <g
         id="g13263">
        <path
           d="M -5.0620427e-6,1299.9999 H 1299.9998 V 2.236658e-5 H -5.0620427e-6 Z"
           id="path13261"
           style="stroke-width:0.352778" />
      </g>
    </clipPath>
    <clipPath
       clipPathUnits="userSpaceOnUse"
       id="clipPath13253">
      <g
         id="g13257">
        <path
           d="M -5.0620427e-6,1299.9999 H 1299.9998 V 2.236658e-5 H -5.0620427e-6 Z"
           id="path13255"
           style="stroke-width:0.352778" />
      </g>
    </clipPath>
    <clipPath
       clipPathUnits="userSpaceOnUse"
       id="clipPath13247">
      <g
         id="g13251">
        <path
           d="M -5.0620427e-6,1299.9999 H 1299.9998 V 2.236658e-5 H -5.0620427e-6 Z"
           id="path13249"
           style="stroke-width:0.352778" />
      </g>
    </clipPath>
    <clipPath
       clipPathUnits="userSpaceOnUse"
       id="clipPath13241">
      <g
         id="g13245">
        <path
           d="M -5.0620427e-6,1299.9999 H 1299.9998 V 2.236658e-5 H -5.0620427e-6 Z"
           id="path13243"
           style="stroke-width:0.352778" />
      </g>
    </clipPath>
  </defs>
  <g
     inkscape:label="Layer 1"
     inkscape:groupmode="layer"
     id="layer1"
     transform="translate(132.8087,29.543991)">
    <rect
       style="opacity:1;fill:#f9f9f9;stroke:#008000;stroke-width:0.4;stroke-linecap:round;stroke-linejoin:round;stroke-dasharray:1.2, 0.4;paint-order:markers fill stroke"
       id="rect1"
       width="550.47858"
       height="401.18839"
       x="-132.8087"
       y="-29.543991"
       sodipodi:insensitive="true" />
    <path
       id="h00_0_5000"
       clip-path="none"
       style="fill:none;stroke:#d45500;stroke-width:0.4;stroke-linecap:butt;stroke-linejoin:bevel;stroke-miterlimit:22.9256;stroke-dasharray:none;stroke-dashoffset:0;stroke-opacity:1"
       d="m 287.35809,741.0856 c -1.09061,0 -1.97455,0.88429 -1.97455,1.97507 0,1.09043 0.88394,1.97404 1.97455,1.97404 1.09079,0 1.97508,-0.88361 1.97508,-1.97404 0,-1.09078 -0.88429,-1.97507 -1.97508,-1.97507 z m 0,10.58282 c -1.09061,0 -1.97455,0.88412 -1.97455,1.97455 0,1.09079 0.88394,1.97508 1.97455,1.97508 1.09079,0 1.97508,-0.88429 1.97508,-1.97508 0,-1.09043 -0.88429,-1.97455 -1.97508,-1.97455 z m 0,10.54819 c -1.09061,0 -1.97455,0.88465 -1.97455,1.97507 0,1.09079 0.88394,1.97456 1.97455,1.97456 1.09079,0 1.97508,-0.88377 1.97508,-1.97456 0,-1.09042 -0.88429,-1.97507 -1.97508,-1.97507 z m 0,10.58385 c -1.09061,0 -1.97455,0.88412 -1.97455,1.97456 0,1.09079 0.88394,1.97455 1.97455,1.97455 1.09079,0 1.97508,-0.88376 1.97508,-1.97455 0,-1.09044 -0.88429,-1.97456 -1.97508,-1.97456 z m 0,10.54768 c -1.09061,0 -1.97455,0.88413 -1.97455,1.97455 0,1.09079 0.88394,1.97508 1.97455,1.97508 1.09079,0 1.97508,-0.88429 1.97508,-1.97508 0,-1.09042 -0.88429,-1.97455 -1.97508,-1.97455 z m 0,10.5978 c -1.09061,0 -1.97455,0.88412 -1.97455,1.97456 0,1.09079 0.88394,1.97507 1.97455,1.97507 1.09079,0 1.97508,-0.88428 1.97508,-1.97507 0,-1.09079 -0.88429,-1.97456 -1.97508,-1.97456 z"
       transform="translate(-243.28393,-577.25276)" />
    <path
       d="m 601.38518,660.14744 c 5.81554,0.11536 11.47339,-4.34376 3.96381,-11.01231 -37.35846,-33.17311 -89.90717,-10.29829 -130.68864,5.10469 -24.89693,9.40329 -47.34242,12.43612 -75.47962,1.47426 -44.96188,-17.51612 -91.06393,-44.40978 -134.37594,-43.72857 -24.00452,0.37747 -53.08861,7.21713 -74.5581,34.28541 -16.00239,20.17572 -19.45629,50.11209 -19.4243,83.10916 l 0.0389,40.1701 0.0388,40.1701 c 0.0714,73.92493 27.8494,117.08483 107.31661,109.90686 26.8701,-2.42676 60.15288,-21.83942 91.65526,-36.03096 33.29058,-14.99694 49.88878,-14.7133 94.8062,6.55849 28.9179,13.69448 61.11134,19.6088 78.3971,3.62444 2.62573,-2.42817 5.00274,-8.59367 -3.23497,-8.59367 -28.72493,0 -71.90563,-15.64181 -73.49384,-49.46579 0.0643,-53.2035 89.55392,-18.24604 88.99193,-66.35853 -0.28716,-24.40244 -26.40527,-27.12095 -38.4787,-29.51459 -29.54574,-5.85766 -28.20004,-81.93391 84.5255,-79.69909 z"
       style="fill:none;stroke:#800000;stroke-width:0.4;stroke-linecap:butt;stroke-linejoin:miter;stroke-miterlimit:22.9256;stroke-dasharray:none;stroke-opacity:1"
       id="contour"
       clip-path="none"
       transform="translate(-243.28393,-577.25276)"
       sodipodi:nodetypes="scccccccscccssccss" />
    <path
       d="m 217.39269,841.85516 118.0291,0.93768 c 4.20889,0.0335 11.76087,4.70323 11.67949,13.25951 -0.0814,8.55662 -7.4095,12.91308 -11.92862,12.87744 L 217.1436,867.99176 c -4.20773,-0.0356 -10.87642,-3.83752 -10.7919,-12.70565 0.0844,-8.86777 6.52018,-13.46694 11.04099,-13.43095 z"
       style="fill:none;stroke:#d45500;stroke-width:0.4;stroke-linecap:butt;stroke-linejoin:miter;stroke-miterlimit:22.9256;stroke-dasharray:none;stroke-dashoffset:0;stroke-opacity:1"
       id="hb1_0_5000"
       clip-path="none"
       transform="translate(-243.28393,-577.25276)" />
    <path
       d="m 207.89997,837.45919 136.30172,1.0915 c 5.57869,0.0444 15.58823,6.23358 15.48028,17.57433 -0.10795,11.34075 -9.82109,17.11572 -15.81041,17.06774 l -136.30179,-1.09149 c -5.5766,-0.0448 -14.4157,-5.08671 -14.3039,-16.8402 0.11201,-11.7535 8.6421,-17.84985 14.6341,-17.80188 z"
       style="fill:none;stroke:#d45500;stroke-width:0.4;stroke-linecap:butt;stroke-linejoin:miter;stroke-miterlimit:22.9256;stroke-dasharray:0.8,0.4;stroke-dashoffset:0;stroke-opacity:1"
       id="hb510_3800_5000"
       clip-path="none"
       transform="translate(-243.28393,-577.25276)" />
    <path
       d="m 421.48652,733.25287 h 9.71902 l 2.12196,-6.27838 c 0.64241,-1.90112 1.42769,-3.48086 3.9236,-3.48298 2.4959,-0.004 3.09209,1.25765 3.79024,3.25755 l 2.27118,6.50381 9.93458,0.004 c 1.7279,3.5e-4 3.6449,1.95756 3.64596,3.68406 l 0.0469,65.00142 c 0,1.94486 -1.96779,3.58281 -3.91301,3.58281 h -9.70844 l -1.83092,6.43185 c -0.58526,2.05669 -1.9057,3.37467 -4.22486,3.37185 -2.31952,-0.004 -3.3969,-1.26118 -4.05236,-3.37185 l -1.99672,-6.43291 h -9.66364 c -1.94487,0 -3.98816,-1.89053 -3.98745,-3.83681 l 0.0279,-64.79822 c 0,-1.81786 2.07821,-3.63643 3.89608,-3.63643 z"
       style="fill:none;fill-opacity:1;fill-rule:evenodd;stroke:#d45500;stroke-width:0.4;stroke-linecap:butt;stroke-linejoin:miter;stroke-miterlimit:22.9256;stroke-dasharray:none;stroke-opacity:1"
       id="h3_0_3000"
       clip-path="none"
       transform="translate(-243.28393,-577.25276)" />
    <path
       id="hb5_3500_1000"
       clip-path="none"
       style="fill:none;stroke:#d45500;stroke-width:0.4;stroke-linecap:butt;stroke-linejoin:miter;stroke-miterlimit:22.9256;stroke-dasharray:0.79731898,1.99682005;stroke-dashoffset:0;stroke-opacity:1"
       transform="translate(-243.28393,-577.25276)"
       d="m 516.68254,773.3817 c 4.28201,0 7.75299,3.47098 7.75299,7.75264 0,4.28202 -3.47098,7.753 -7.75299,7.753 -4.28167,0 -7.75265,-3.47098 -7.75265,-7.753 0,-4.28166 3.47098,-7.75264 7.75265,-7.75264 z m 14.55208,-23.46819 c 4.28201,0 7.75299,3.47098 7.75299,7.75299 0,4.28167 -3.47098,7.75265 -7.75299,7.75265 -4.28167,0 -7.75265,-3.47098 -7.75265,-7.75265 0,-4.28201 3.47098,-7.75299 7.75265,-7.75299 z m -53.85329,25.34391 c 4.28202,0 7.75264,3.47098 7.75264,7.75264 0,4.28202 -3.47062,7.753 -7.75264,7.753 -4.28202,0 -7.753,-3.47098 -7.753,-7.753 0,-4.28166 3.47098,-7.75264 7.753,-7.75264 z m 0,-27.1907 c 4.28202,0 7.75264,3.47098 7.75264,7.75299 0,4.28167 -3.47062,7.75265 -7.75264,7.75265 -4.28202,0 -7.753,-3.47098 -7.753,-7.75265 0,-4.28201 3.47098,-7.75299 7.753,-7.75299 z" />
    <path
       d="m 333.15149,733.25287 h 9.7191 l 2.12168,-6.27838 c 0.64241,-1.90112 1.42772,-3.48086 3.9237,-3.48298 2.49601,-0.004 3.09202,1.25765 3.79042,3.25755 l 2.27093,6.50381 9.93493,0.004 c 1.72755,3.5e-4 3.64455,1.95756 3.64596,3.68406 l 0.0466,65.00142 c 0,1.94486 -1.9678,3.58281 -3.91301,3.58281 h -9.7081 l -1.83127,6.43185 c -0.58532,2.05669 -1.90552,3.37467 -4.22483,3.37185 -2.3193,-0.004 -3.397,-1.26118 -4.05218,-3.37185 l -1.9969,-6.43291 h -9.6635 c -1.9449,0 -3.98833,-1.89053 -3.98751,-3.83681 l 0.0278,-64.79822 c 7.1e-4,-1.81786 2.07839,-3.63643 3.89622,-3.63643 z"
       style="fill:none;fill-opacity:1;fill-rule:evenodd;stroke:#d45500;stroke-width:0.4;stroke-linecap:butt;stroke-linejoin:miter;stroke-miterlimit:22.9256;stroke-dasharray:none;stroke-opacity:1"
       id="h2_0_3000"
       clip-path="none"
       transform="translate(-243.28393,-577.25276)" />
    <path
       id="ht1_0_10000"
       style="opacity:0.691454;fill:none;stroke:#d45500;stroke-width:0.4;stroke-linecap:square;stroke-dasharray:none"
       d="m -18.157182,272.79467 a 5,5 0 0 0 -5.000212,4.99969 5,5 0 0 0 5.000212,5.00021 5,5 0 0 0 4.999695,-5.00021 5,5 0 0 0 -4.999695,-4.99969 z m 51.550858,0 a 5,5 0 0 0 -4.999695,4.99969 5,5 0 0 0 4.999695,5.00021 5,5 0 0 0 5.000212,-5.00021 5,5 0 0 0 -5.000212,-4.99969 z m 51.010324,0 a 5,5 0 0 0 -4.999695,4.99969 5,5 0 0 0 4.999695,5.00021 5,5 0 0 0 5.000211,-5.00021 5,5 0 0 0 -5.000211,-4.99969 z" />
    <path
       id="hb123_0_5000"
       style="opacity:0.691454;fill:none;stroke:#d45500;stroke-width:0.4;stroke-linecap:square;stroke-dasharray:none"
       d="m 234.09926,176.06465 a 2.5,2.5 0 0 0 -2.50011,2.50011 2.5,2.5 0 0 0 2.50011,2.5001 2.5,2.5 0 0 0 2.49959,-2.5001 2.5,2.5 0 0 0 -2.49959,-2.50011 z m 53.85356,1.84692 a 2.5,2.5 0 0 0 -2.50011,2.5001 2.5,2.5 0 0 0 2.50011,2.50011 2.5,2.5 0 0 0 2.5001,-2.50011 2.5,2.5 0 0 0 -2.5001,-2.5001 z m -14.55209,23.46833 a 2.5,2.5 0 0 0 -2.5001,2.50011 2.5,2.5 0 0 0 2.5001,2.49959 2.5,2.5 0 0 0 2.50011,-2.49959 2.5,2.5 0 0 0 -2.50011,-2.50011 z m -39.30147,1.87534 a 2.5,2.5 0 0 0 -2.50011,2.50011 2.5,2.5 0 0 0 2.50011,2.5001 2.5,2.5 0 0 0 2.49959,-2.5001 2.5,2.5 0 0 0 -2.49959,-2.50011 z" />
    <text
       xml:space="preserve"
       style="font-weight:bold;font-size:18.0678px;font-family:sans-serif;-inkscape-font-specification:'sans-serif, Bold';text-align:center;text-anchor:middle;opacity:0.691454;fill:#000000;stroke:none;stroke-width:0.651826;stroke-linecap:square;stroke-dasharray:none"
       x="52.7841"
       y="12.15843"
       id="text108951"><tspan
         sodipodi:role="line"
         id="tspan108949"
         style="fill:#000000;stroke:none;stroke-width:0.651826"
         x="52.7841"
         y="12.15843">Custom Body Shape</tspan></text>
    <path
       d="M 610.7225,769.48244 H 113.33719"
       style="fill:#ff0000;stroke:#ff0000;stroke-width:0.45112444;stroke-linecap:butt;stroke-linejoin:miter;stroke-miterlimit:22.9256;stroke-dasharray:0.89922248,2.25204077;stroke-dashoffset:0;stroke-opacity:1"
       id="midline"
       clip-path="none"
       transform="matrix(0.78618955,0,0,1,-112.70507,-577.25276)" />
    <path
       style="fill:#000000;stroke:#008000;stroke-width:0.4;stroke-linecap:square;stroke-dasharray:none"
       d="M 62.096363,130.25132 V 248.89853"
       id="bridge" />
    <path
       style="fill:none;stroke:#008000;stroke-width:0.4;stroke-linecap:round;stroke-linejoin:round;stroke-dasharray:none"
       d="M -119.3109,150.55659 C -57.495961,131.18211 -12.94819,121.15647 108.63392,31.098362"
       id="ect_8"
       sodipodi:nodetypes="cc"
       inkscape:label="ect_8" />
    <path
       style="fill:none;stroke:#008000;stroke-width:0.4;stroke-linecap:round;stroke-linejoin:round;stroke-dasharray:none"
       d="m 14.079007,24.279086 c 7.946061,1.179306 17.127465,6.819276 27.947426,12.015217 28.35826,13.61815 65.168977,107.427157 133.418497,115.604907 42.86724,5.13641 97.91084,-88.094251 108.6532,-92.882892 7.45259,-3.322155 34.50979,-14.288006 34.50979,-14.288006"
       id="ecb_6"
       sodipodi:nodetypes="csssc"
       inkscape:label="ecb_6" />
    <path
       style="fill:none;stroke:#fc6f03;stroke-width:0.4;stroke-linecap:round;stroke-linejoin:round;stroke-dasharray:none"
       d="M 168.34865,163.59201 182.79223,56.102344"
       id="ecb_6_1500"
       sodipodi:nodetypes="cc"
       inkscape:label="ecb_6_1500" />
    <path
       style="fill:none;stroke:#fc6f03;stroke-width:0.4;stroke-linecap:round;stroke-linejoin:round;stroke-dasharray:none"
       d="M 21.673171,127.79274 -37.84076,34.323155"
       id="ect_8_1500"
       sodipodi:nodetypes="cc"
       inkscape:label="ect_8_1500" />
    <path
       style="fill:none;stroke:#008000;stroke-width:0.4;stroke-linecap:round;stroke-linejoin:round;stroke-dasharray:none"
       d="m 293.37186,226.19178 c -61.83169,-3.74361 -93.10132,9.11438 -88.96388,32.06425 5.79859,32.16407 69.38953,44.68094 69.38953,44.68094"
       id="ect_10"
       sodipodi:nodetypes="csc"
       inkscape:label="ect_10" />
    <path
       style="fill:none;stroke:#fc6f03;stroke-width:0.4;stroke-linecap:round;stroke-linejoin:round;stroke-dasharray:none"
       d="m 189.08044,253.49449 91.92456,3.13599"
       id="ect_10_1000"
       inkscape:label="ect_10_1000"
       sodipodi:nodetypes="cc" />
  </g>
</svg>
