<?xml version="1.0" encoding="UTF-8" standalone="no"?>
<!-- Created with Inkscape (http://www.inkscape.org/) -->

<svg
   width="300mm"
   height="150mm"
   viewBox="0 0 300.00001 150.00001"
   version="1.1"
   id="svg103676"
   inkscape:version="1.3.2 (091e20e, 2023-11-25)"
   sodipodi:docname="headstock.svg"
   xmlns:inkscape="http://www.inkscape.org/namespaces/inkscape"
   xmlns:sodipodi="http://sodipodi.sourceforge.net/DTD/sodipodi-0.dtd"
   xmlns="http://www.w3.org/2000/svg"
   xmlns:svg="http://www.w3.org/2000/svg">
  <sodipodi:namedview
     id="namedview103678"
     pagecolor="#000036"
     bordercolor="#ffffff"
     borderopacity="1"
     inkscape:showpageshadow="2"
     inkscape:pageopacity="1"
     inkscape:pagecheckerboard="0"
     inkscape:deskcolor="#000036"
     inkscape:document-units="mm"
     showgrid="false"
     showborder="true"
     inkscape:zoom="0.52724989"
     inkscape:cx="388.80994"
     inkscape:cy="548.12719"
     inkscape:window-width="1920"
     inkscape:window-height="1021"
     inkscape:window-x="0"
     inkscape:window-y="0"
     inkscape:window-maximized="1"
     inkscape:current-layer="layer1" />
  <defs
     id="defs103673">
    <clipPath
       clipPathUnits="userSpaceOnUse"
       id="clipPath16511">
      <g
         id="g16515">
        <path
           d="M -5.0620427e-6,1299.9999 H 1299.9998 V 2.236658e-5 H -5.0620427e-6 Z"
           id="path16513"
           style="stroke-width:0.352778" />
      </g>
    </clipPath>
    <clipPath
       clipPathUnits="userSpaceOnUse"
       id="clipPath24498">
      <g
         id="g24504">
        <g
           id="g24502"
           transform="translate(0,-1.2911198e-5)">
          <path
             d="M -5.0620427e-6,1299.9999 H 1299.9998 V 2.236658e-5 H -5.0620427e-6 Z"
             id="path24500"
             style="stroke-width:0.352778" />
        </g>
      </g>
    </clipPath>
    <clipPath
       clipPathUnits="userSpaceOnUse"
       id="clipPath24318">
      <g
         id="g24324">
        <g
           id="g24322"
           transform="translate(0,-1.2911198e-5)">
          <path
             d="M -5.0620427e-6,1299.9999 H 1299.9998 V 2.236658e-5 H -5.0620427e-6 Z"
             id="path24320"
             style="stroke-width:0.352778" />
        </g>
      </g>
    </clipPath>
    <clipPath
       clipPathUnits="userSpaceOnUse"
       id="clipPath13517">
      <g
         id="g13521">
        <path
           d="M -5.0620427e-6,1299.9999 H 1299.9998 V 2.236658e-5 H -5.0620427e-6 Z"
           id="path13519"
           style="stroke-width:0.352778" />
      </g>
    </clipPath>
    <clipPath
       clipPathUnits="userSpaceOnUse"
       id="clipPath13511">
      <g
         id="g13515">
        <path
           d="M -5.0620427e-6,1299.9999 H 1299.9998 V 2.236658e-5 H -5.0620427e-6 Z"
           id="path13513"
           style="stroke-width:0.352778" />
      </g>
    </clipPath>
    <clipPath
       clipPathUnits="userSpaceOnUse"
       id="clipPath13505">
      <g
         id="g13509">
        <path
           d="M -5.0620427e-6,1299.9999 H 1299.9998 V 2.236658e-5 H -5.0620427e-6 Z"
           id="path13507"
           style="stroke-width:0.352778" />
      </g>
    </clipPath>
    <clipPath
       clipPathUnits="userSpaceOnUse"
       id="clipPath13499">
      <g
         id="g13503">
        <path
           d="M -5.0620427e-6,1299.9999 H 1299.9998 V 2.236658e-5 H -5.0620427e-6 Z"
           id="path13501"
           style="stroke-width:0.352778" />
      </g>
    </clipPath>
    <clipPath
       clipPathUnits="userSpaceOnUse"
       id="clipPath13493">
      <g
         id="g13497">
        <path
           d="M -5.0620427e-6,1299.9999 H 1299.9998 V 2.236658e-5 H -5.0620427e-6 Z"
           id="path13495"
           style="stroke-width:0.352778" />
      </g>
    </clipPath>
    <clipPath
       clipPathUnits="userSpaceOnUse"
       id="clipPath13487">
      <g
         id="g13491">
        <path
           d="M -5.0620427e-6,1299.9999 H 1299.9998 V 2.236658e-5 H -5.0620427e-6 Z"
           id="path13489"
           style="stroke-width:0.352778" />
      </g>
    </clipPath>
    <clipPath
       clipPathUnits="userSpaceOnUse"
       id="clipPath13415">
      <g
         id="g13419">
        <path
           d="M -5.0620427e-6,1299.9999 H 1299.9998 V 2.236658e-5 H -5.0620427e-6 Z"
           id="path13417"
           style="stroke-width:0.352778" />
      </g>
    </clipPath>
    <clipPath
       clipPathUnits="userSpaceOnUse"
       id="clipPath13409">
      <g
         id="g13413">
        <path
           d="M -5.0620427e-6,1299.9999 H 1299.9998 V 2.236658e-5 H -5.0620427e-6 Z"
           id="path13411"
           style="stroke-width:0.352778" />
      </g>
    </clipPath>
    <clipPath
       clipPathUnits="userSpaceOnUse"
       id="clipPath13391">
      <g
         id="g13395">
        <path
           d="M -5.0620427e-6,1299.9999 H 1299.9998 V 2.236658e-5 H -5.0620427e-6 Z"
           id="path13393"
           style="stroke-width:0.352778" />
      </g>
    </clipPath>
    <clipPath
       clipPathUnits="userSpaceOnUse"
       id="clipPath13385">
      <g
         id="g13389">
        <path
           d="M -5.0620427e-6,1299.9999 H 1299.9998 V 2.236658e-5 H -5.0620427e-6 Z"
           id="path13387"
           style="stroke-width:0.352778" />
      </g>
    </clipPath>
    <clipPath
       clipPathUnits="userSpaceOnUse"
       id="clipPath13367">
      <g
         id="g13371">
        <path
           d="M -5.0620427e-6,1299.9999 H 1299.9998 V 2.236658e-5 H -5.0620427e-6 Z"
           id="path13369"
           style="stroke-width:0.352778" />
      </g>
    </clipPath>
    <clipPath
       clipPathUnits="userSpaceOnUse"
       id="clipPath13361">
      <g
         id="g13365">
        <path
           d="M -5.0620427e-6,1299.9999 H 1299.9998 V 2.236658e-5 H -5.0620427e-6 Z"
           id="path13363"
           style="stroke-width:0.352778" />
      </g>
    </clipPath>
    <clipPath
       clipPathUnits="userSpaceOnUse"
       id="clipPath13343">
      <g
         id="g13347">
        <path
           d="M -5.0620427e-6,1299.9999 H 1299.9998 V 2.236658e-5 H -5.0620427e-6 Z"
           id="path13345"
           style="stroke-width:0.352778" />
      </g>
    </clipPath>
    <clipPath
       clipPathUnits="userSpaceOnUse"
       id="clipPath13337">
      <g
         id="g13341">
        <path
           d="M -5.0620427e-6,1299.9999 H 1299.9998 V 2.236658e-5 H -5.0620427e-6 Z"
           id="path13339"
           style="stroke-width:0.352778" />
      </g>
    </clipPath>
    <clipPath
       clipPathUnits="userSpaceOnUse"
       id="clipPath13319">
      <g
         id="g13323">
        <path
           d="M -5.0620427e-6,1299.9999 H 1299.9998 V 2.236658e-5 H -5.0620427e-6 Z"
           id="path13321"
           style="stroke-width:0.352778" />
      </g>
    </clipPath>
    <clipPath
       clipPathUnits="userSpaceOnUse"
       id="clipPath13313">
      <g
         id="g13317">
        <path
           d="M -5.0620427e-6,1299.9999 H 1299.9998 V 2.236658e-5 H -5.0620427e-6 Z"
           id="path13315"
           style="stroke-width:0.352778" />
      </g>
    </clipPath>
    <clipPath
       clipPathUnits="userSpaceOnUse"
       id="clipPath13223">
      <g
         id="g13227">
        <path
           d="M -5.0620427e-6,1299.9999 H 1299.9998 V 2.236658e-5 H -5.0620427e-6 Z"
           id="path13225"
           style="stroke-width:0.352778" />
      </g>
    </clipPath>
    <clipPath
       clipPathUnits="userSpaceOnUse"
       id="clipPath13211">
      <g
         id="g13215">
        <path
           d="M -5.0620427e-6,1299.9999 H 1299.9998 V 2.236658e-5 H -5.0620427e-6 Z"
           id="path13213"
           style="stroke-width:0.352778" />
      </g>
    </clipPath>
  </defs>
  <g
     inkscape:label="Layer 1"
     inkscape:groupmode="layer"
     id="layer1"
     transform="translate(82.81919,-53.633731)">
    <rect
       style="fill:#f9f9f9;stroke:#1a1a1a;stroke-width:0.529167;stroke-linecap:round;stroke-linejoin:round;paint-order:markers fill stroke;fill-opacity:1"
       id="rect1"
       width="300"
       height="150"
       x="-82.819191"
       y="53.633732" />
    <path
       id="h2_900_2000"
       clip-path="none"
       style="fill:none;fill-opacity:1;fill-rule:nonzero;stroke:#008000;stroke-width:0.19999;stroke-linecap:butt;stroke-linejoin:miter;stroke-miterlimit:2;stroke-dasharray:none;stroke-opacity:1"
       d="m 728.61959,700.97167 0.42219,0.0501 0.38603,0.21705 0.32452,0.28835 0.17519,0.38602 0.0822,0.40928 -0.0506,0.42271 -0.21549,0.38499 -0.28991,0.32608 -0.38602,0.17363 -0.40876,0.0822 -0.42168,-0.0501 -0.38602,-0.21549 -0.28422,-0.28112 -0.21601,-0.39481 -0.0822,-0.40876 0.0506,-0.42219 0.216,-0.38603 0.28061,-0.28422 0.39429,-0.21549 z m 23.16189,7.28327 0.42168,0.0501 0.38602,0.21704 0.32556,0.28836 0.17467,0.38602 0.0822,0.40876 -0.0506,0.42323 -0.21549,0.38499 -0.2899,0.32608 -0.38551,0.17415 -0.40928,0.0822 -0.42168,-0.0506 -0.38654,-0.21549 -0.28422,-0.2806 -0.21497,-0.39481 -0.0827,-0.40928 0.0506,-0.42168 0.21549,-0.38654 0.2806,-0.28422 0.39533,-0.21549 z m 23.1252,7.33496 0.42168,0.0501 0.38603,0.21704 0.32556,0.28836 0.17466,0.38602 0.0822,0.40876 -0.0506,0.42323 -0.21549,0.38499 -0.28991,0.32608 -0.38551,0.17415 -0.40927,0.0822 -0.42168,-0.0507 -0.38654,-0.21601 -0.28422,-0.28008 -0.21549,-0.39481 -0.0822,-0.40928 0.0501,-0.42219 0.21601,-0.38603 0.2806,-0.28422 0.39532,-0.21549 z m 23.15363,7.38714 0.42168,0.0501 0.38602,0.21704 0.32556,0.28836 0.17415,0.38602 0.0827,0.40876 -0.0506,0.42323 -0.21549,0.38499 -0.2899,0.32608 -0.38603,0.17415 -0.40876,0.0822 -0.42168,-0.0506 -0.38654,-0.21601 -0.28422,-0.28009 -0.21549,-0.3948 -0.0822,-0.40928 0.0501,-0.4222 0.21601,-0.38602 0.2806,-0.28422 0.39481,-0.21549 z m 23.14484,7.38457 0.4222,0.0506 0.3855,0.21652 0.32556,0.28836 0.17519,0.38602 0.0822,0.40928 -0.0512,0.42271 -0.21549,0.38499 -0.2899,0.32608 -0.38551,0.17363 -0.40876,0.0827 -0.4222,-0.0506 -0.38602,-0.21549 -0.28474,-0.28112 -0.21497,-0.39481 -0.0827,-0.40876 0.0506,-0.42219 0.21601,-0.38603 0.28008,-0.28422 0.39533,-0.21549 z m 23.23992,7.43727 0.4222,0.0501 0.38602,0.21653 0.32453,0.28887 0.17519,0.38602 0.0822,0.40928 -0.0506,0.42271 -0.21549,0.38499 -0.28991,0.32608 -0.38602,0.17363 -0.40876,0.0827 -0.42168,-0.0507 -0.38602,-0.21549 -0.28422,-0.28112 -0.21601,-0.39481 -0.0822,-0.40927 0.0507,-0.42117 0.216,-0.38654 0.28061,-0.28422 0.3948,-0.21549 z"
       transform="matrix(-1,0,0,1,856.28428,-577.78707)" />
    <path
       id="h1_0_2000"
       clip-path="none"
       style="fill:none;fill-opacity:1;fill-rule:evenodd;stroke:#008000;stroke-width:0.19999;stroke-linecap:butt;stroke-linejoin:miter;stroke-miterlimit:22.9256;stroke-dasharray:none;stroke-opacity:1"
       d="m 721.67996,694.99529 c 2.74884,0.0279 4.95451,2.31995 4.92631,5.11958 -0.0282,2.79965 -2.27978,5.0462 -5.02863,5.0183 -2.74884,-0.0275 -4.95452,-2.31943 -4.92632,-5.11907 0.0282,-2.79964 2.27979,-5.04671 5.02864,-5.01881 z m 23.16189,7.28328 c 2.74885,0.0275 4.95452,2.31942 4.92632,5.11906 -0.0282,2.8 -2.27997,5.04723 -5.02915,5.01933 -2.74885,-0.0279 -4.954,-2.31959 -4.9258,-5.11958 0.0286,-2.79965 2.27944,-5.04671 5.02863,-5.01881 z m 23.12521,7.33495 c 2.74919,0.0275 4.95451,2.31943 4.92631,5.11907 -0.0286,2.79964 -2.27944,5.04723 -5.02863,5.01933 -2.74884,-0.0279 -4.95452,-2.31994 -4.92632,-5.11959 0.0282,-2.79963 2.2798,-5.04671 5.02864,-5.01881 z m 23.15362,7.38714 c 2.74885,0.0275 4.95452,2.31943 4.92632,5.11907 -0.0286,2.79964 -2.27996,5.04723 -5.02916,5.01933 -2.74883,-0.0279 -4.95399,-2.31994 -4.92579,-5.11958 0.0282,-2.79965 2.27944,-5.04672 5.02863,-5.01882 z m 23.14484,7.38457 c 2.74884,0.0275 4.95452,2.31958 4.92632,5.11958 -0.0282,2.79964 -2.27945,5.0462 -5.02864,5.0183 -2.74885,-0.0275 -4.95451,-2.31959 -4.92631,-5.11959 0.0282,-2.79928 2.27943,-5.04619 5.02863,-5.01829 z m 23.23993,7.43727 c 2.74884,0.0279 4.95451,2.31994 4.92631,5.11958 -0.0282,2.79964 -2.2798,5.04632 -5.02863,5.01882 -2.74885,-0.0279 -4.95452,-2.31995 -4.92632,-5.11959 0.0282,-2.79964 2.2798,-5.04671 5.02864,-5.01881 z"
       transform="matrix(-1,0,0,1,856.28428,-577.78707)" />
    <path
       d="m 722.77354,693.81902 -2.28847,12.49186"
       style="fill:none;stroke:#008000;stroke-width:0.19999;stroke-linecap:butt;stroke-linejoin:miter;stroke-miterlimit:2;stroke-dasharray:0.398639, 0.998361;stroke-dashoffset:0;stroke-opacity:1"
       id="path4140"
       clip-path="none"
       transform="matrix(-1,0,0,1,856.28428,-577.78707)" />
    <path
       d="m 715.38284,698.92019 12.49187,2.28846"
       style="fill:none;stroke:#008000;stroke-width:0.19999;stroke-linecap:butt;stroke-linejoin:miter;stroke-miterlimit:2;stroke-dasharray:0.398639, 0.998361;stroke-dashoffset:0;stroke-opacity:1"
       id="path4142"
       clip-path="none"
       transform="matrix(-1,0,0,1,856.28428,-577.78707)" />
    <path
       d="m 745.93516,701.10212 -2.28811,12.49221"
       style="fill:none;stroke:#008000;stroke-width:0.19999;stroke-linecap:butt;stroke-linejoin:miter;stroke-miterlimit:2;stroke-dasharray:0.398639, 0.998361;stroke-dashoffset:0;stroke-opacity:1"
       id="path4148"
       clip-path="none"
       transform="matrix(-1,0,0,1,856.28428,-577.78707)" />
    <path
       d="m 738.54447,706.20364 12.49221,2.28811"
       style="fill:none;stroke:#008000;stroke-width:0.19999;stroke-linecap:butt;stroke-linejoin:miter;stroke-miterlimit:2;stroke-dasharray:0.398639, 0.998361;stroke-dashoffset:0;stroke-opacity:1"
       id="path4150"
       clip-path="none"
       transform="matrix(-1,0,0,1,856.28427,-577.78707)" />
    <path
       d="m 769.06045,708.43707 -2.28812,12.49222"
       style="fill:none;stroke:#008000;stroke-width:0.19999;stroke-linecap:butt;stroke-linejoin:miter;stroke-miterlimit:2;stroke-dasharray:0.398639, 0.998361;stroke-dashoffset:0;stroke-opacity:1"
       id="path4156"
       clip-path="none"
       transform="matrix(-1,0,0,1,856.28428,-577.78707)" />
    <path
       d="m 761.66976,713.53859 12.49221,2.28812"
       style="fill:none;stroke:#008000;stroke-width:0.19999;stroke-linecap:butt;stroke-linejoin:miter;stroke-miterlimit:2;stroke-dasharray:0.398639, 0.998361;stroke-dashoffset:0;stroke-opacity:1"
       id="path4158"
       clip-path="none"
       transform="matrix(-1,0,0,1,856.28428,-577.78707)" />
    <path
       d="m 792.21396,715.82424 -2.28812,12.49221"
       style="fill:none;stroke:#008000;stroke-width:0.19999;stroke-linecap:butt;stroke-linejoin:miter;stroke-miterlimit:2;stroke-dasharray:0.398639, 0.998361;stroke-dashoffset:0;stroke-opacity:1"
       id="path4164"
       clip-path="none"
       transform="matrix(-1,0,0,1,856.28428,-577.78707)" />
    <path
       d="m 784.82327,720.92576 12.49221,2.28811"
       style="fill:none;stroke:#008000;stroke-width:0.19999;stroke-linecap:butt;stroke-linejoin:miter;stroke-miterlimit:2;stroke-dasharray:0.398639, 0.998361;stroke-dashoffset:0;stroke-opacity:1"
       id="path4166"
       clip-path="none"
       transform="matrix(-1,0,0,1,856.28428,-577.78707)" />
    <path
       d="m 815.359,723.20894 -2.28811,12.49186"
       style="fill:none;stroke:#008000;stroke-width:0.19999;stroke-linecap:butt;stroke-linejoin:miter;stroke-miterlimit:2;stroke-dasharray:0.398639, 0.998361;stroke-dashoffset:0;stroke-opacity:1"
       id="path4172"
       clip-path="none"
       transform="matrix(-1,0,0,1,856.28428,-577.78707)" />
    <path
       d="m 807.96831,728.3101 12.49221,2.28812"
       style="fill:none;stroke:#008000;stroke-width:0.19999;stroke-linecap:butt;stroke-linejoin:miter;stroke-miterlimit:2;stroke-dasharray:0.398639, 0.998361;stroke-dashoffset:0;stroke-opacity:1"
       id="path4174"
       clip-path="none"
       transform="matrix(-1,0,0,1,856.28428,-577.78707)" />
    <path
       d="m 838.59894,730.6462 -2.28846,12.49186"
       style="fill:none;stroke:#008000;stroke-width:0.19999;stroke-linecap:butt;stroke-linejoin:miter;stroke-miterlimit:2;stroke-dasharray:0.398639, 0.998361;stroke-dashoffset:0;stroke-opacity:1"
       id="path4180"
       clip-path="none"
       transform="matrix(-1,0,0,1,856.28428,-577.78707)" />
    <path
       d="m 831.2079,735.74736 12.49221,2.28847"
       style="fill:none;stroke:#008000;stroke-width:0.19999;stroke-linecap:butt;stroke-linejoin:miter;stroke-miterlimit:2;stroke-dasharray:0.398639, 0.998361;stroke-dashoffset:0;stroke-opacity:1"
       id="path4182"
       clip-path="none"
       transform="matrix(-1,0,0,1,856.28428,-577.78707)" />
    <path
       d="M 952.41105,715.92513 H 876.54821"
       style="fill:none;stroke:#ff0000;stroke-width:0.4;stroke-linecap:butt;stroke-linejoin:miter;stroke-miterlimit:22.9256;stroke-dasharray:1.2, 0.4;stroke-dashoffset:0;stroke-opacity:1"
       id="midline"
       clip-path="none"
       transform="matrix(-0.22802583,0,0,1,179.6117,-577.78707)"
       sodipodi:nodetypes="cc" />
    <path
       style="opacity:0.691454;fill:none;stroke:#ff6600;stroke-width:0.4;stroke-linecap:square"
       d="M 15.454327,100.6108 7.2884516,183.74317"
       id="transition"
       sodipodi:nodetypes="cc" />
    <path
       d="m 853.23428,749.11305 c -2.93052,3.5553 -4.32858,4.40373 -10.35402,2.49802 L 677.29978,699.2465 c -4.59281,-1.45273 -3.84104,-7.31237 1.27741,-7.38046 15.50211,-0.20602 32.56844,-7.26299 42.03276,-14.20389 3.3394,-2.44863 6.3493,-2.09233 9.85485,0.34396 22.71853,15.78716 92.69256,50.41657 109.20009,14.57823 1.05233,-2.28459 3.02119,-2.55764 5.35305,-2.27154 20.57389,3.45261 25.01348,4.05197 39.40152,4.19837 v 42.71 c -21.04178,-0.21414 -25.08671,4.49343 -31.18518,11.89188 z"
       style="fill:none;stroke:#0000ff;stroke-width:0.4;stroke-linecap:butt;stroke-linejoin:round;stroke-miterlimit:22.9256;stroke-dasharray:none;stroke-opacity:1"
       id="contour"
       clip-path="none"
       transform="matrix(-1,0,0,1,856.26798,-577.79693)"
       sodipodi:nodetypes="ccccccscccc" />
    <text
       xml:space="preserve"
       style="font-weight:bold;font-size:11.0875px;font-family:sans-serif;-inkscape-font-specification:'sans-serif, Bold';text-align:center;text-anchor:middle;opacity:0.691454;fill:#000000;stroke:none;stroke-width:0.4;stroke-linecap:square;stroke-dasharray:none"
       x="15.360701"
       y="75.691132"
       id="text108951"><tspan
         sodipodi:role="line"
         id="tspan108949"
         style="fill:#000000;stroke:none;stroke-width:0.4"
         x="15.360701"
         y="75.691132">Custom Headstoch Shape</tspan></text>
  </g>
</svg>
