<?xml version="1.0" encoding="UTF-8" standalone="no"?>
<!-- Created with Inkscape (http://www.inkscape.org/) -->

<svg
   width="500.00021mm"
   height="431.67499mm"
   viewBox="0 0 500.00021 431.67499"
   version="1.1"
   id="svg1"
   inkscape:version="1.3.2 (091e20ef0f, 2023-11-25)"
   sodipodi:docname="body.svg"
   xmlns:inkscape="http://www.inkscape.org/namespaces/inkscape"
   xmlns:sodipodi="http://sodipodi.sourceforge.net/DTD/sodipodi-0.dtd"
   xmlns="http://www.w3.org/2000/svg"
   xmlns:svg="http://www.w3.org/2000/svg">
  <sodipodi:namedview
     id="namedview1"
     pagecolor="#ffffff"
     bordercolor="#000000"
     borderopacity="0.25"
     inkscape:showpageshadow="2"
     inkscape:pageopacity="0.0"
     inkscape:pagecheckerboard="0"
     inkscape:deskcolor="#d1d1d1"
     inkscape:document-units="mm"
     inkscape:zoom="0.18084315"
     inkscape:cx="1329.8817"
     inkscape:cy="1625.7182"
     inkscape:window-width="1920"
     inkscape:window-height="1021"
     inkscape:window-x="1920"
     inkscape:window-y="0"
     inkscape:window-maximized="1"
     inkscape:current-layer="layer1" />
  <defs
     id="defs1" />
  <g
     inkscape:label="Layer 1"
     inkscape:groupmode="layer"
     id="layer1"
     transform="translate(112.71251,11.112515)">
    <rect
       style="vector-effect:non-scaling-stroke;fill:#ffffff;stroke:#000000;stroke-width:0.264583;stroke-linecap:round;stroke-linejoin:round;-inkscape-stroke:hairline"
       id="rect6"
       width="500.00018"
       height="431.67496"
       x="-112.71251"
       y="-11.112515"
       sodipodi:insensitive="true" />
    <path
       id="h42_0_2635"
       clip-path="none"
       style="fill:none;stroke:#008000;stroke-width:1.0;stroke-linecap:round;stroke-linejoin:round;stroke-miterlimit:10;stroke-dasharray:none;stroke-opacity:1;vector-effect:non-scaling-stroke;-inkscape-stroke:hairline"
       d="M 162.486 169.331 h -6.32494 v -3.8251 c 0 -1.75359 -1.42169 -3.17493 -3.175 -3.17493 h -8.65008 c -1.75327 0 -3.17497 1.42134 -3.17497 3.175 v 3.8251 l -6.32498 -7e-05 c -1.75334 0 -3.17504 1.42134 -3.17504 3.175 v 64.65 c 0 1.75363 1.4217 3.17497 3.175 3.17497 h 6.32499 l 3e-05 3.82509 c 0 1.75357 1.4217 3.17491 3.175 3.17491 h 8.65008 c 1.75328 0 3.17497 -1.42134 3.17497 -3.175 v -3.82508 l 6.32495 8e-05 c 1.75365 0 3.17499 -1.42134 3.17503 -3.175 v -64.65 c -4e-05 -1.75363 -1.42138 -3.17497 -3.17504 -3.17497 z"
       sodipodi:nodetypes="cccccccccccccccccsccc"
       inkscape:label="h42_0_2635" />
    <path
       id="path2314"
       d="M 0,0 H -91.555"
       style="fill:none;stroke:#0000ff;stroke-width:0.709;stroke-linecap:round;stroke-linejoin:round;stroke-miterlimit:10;stroke-dasharray:none;stroke-opacity:1"
       transform="matrix(0.35277776,0,0,-0.35277776,165.66094,233.65581)"
       clip-path="none" />
    <path
       id="path2316"
       d="M 0,0 -4.823,-5.748"
       style="fill:none;stroke:#0000ff;stroke-width:0.709;stroke-linecap:round;stroke-linejoin:round;stroke-miterlimit:10;stroke-dasharray:none;stroke-opacity:1"
       transform="matrix(0.35277776,0,0,-0.35277776,133.36238,233.65581)"
       clip-path="none" />
    <path
       id="path2320"
       d="m 0,0 c 4.97,0 9,4.029 9,9 0,4.971 -4.03,9 -9,9"
       style="fill:none;stroke:#0000ff;stroke-width:0.709;stroke-linecap:round;stroke-linejoin:round;stroke-miterlimit:10;stroke-dasharray:none;stroke-opacity:1"
       transform="matrix(0.35277776,0,0,-0.35277776,264.32348,240.00581)"
       clip-path="none" />
    <path
       id="path2322"
       d="M 0,0 H 73.38"
       style="fill:none;stroke:#0000ff;stroke-width:0.709;stroke-linecap:round;stroke-linejoin:round;stroke-miterlimit:10;stroke-dasharray:none;stroke-opacity:1"
       transform="matrix(0.35277776,0,0,-0.35277776,238.43659,240.00581)"
       clip-path="none" />
    <path
       id="path2324"
       d="M 0,0 H -78.413"
       style="fill:none;stroke:#0000ff;stroke-width:0.709;stroke-linecap:round;stroke-linejoin:round;stroke-miterlimit:10;stroke-dasharray:none;stroke-opacity:1"
       transform="matrix(0.35277776,0,0,-0.35277776,264.3234,233.65581)"
       clip-path="none" />
    <path
       id="path2328"
       d="M 0,0 H 78.128"
       style="fill:none;stroke:#0000ff;stroke-width:0.709;stroke-linecap:round;stroke-linejoin:round;stroke-miterlimit:10;stroke-dasharray:none;stroke-opacity:1"
       transform="matrix(0.35277776,0,0,-0.35277776,136.32346,240.00581)"
       clip-path="none" />
    <path
       id="path2330"
       d="M 0,0 0.773,0.921"
       style="fill:none;stroke:#0000ff;stroke-width:0.709;stroke-linecap:round;stroke-linejoin:round;stroke-miterlimit:10;stroke-dasharray:none;stroke-opacity:1"
       transform="matrix(0.35277776,0,0,-0.35277776,136.05073,240.33082)"
       clip-path="none" />
    <path
       id="h41_0_2635"
       clip-path="none"
       style="fill:none;stroke:#008000;stroke-width:1.0;stroke-linecap:round;stroke-linejoin:round;stroke-miterlimit:10;stroke-dasharray:none;stroke-opacity:1;vector-effect:non-scaling-stroke;-inkscape-stroke:hairline"
       transform="matrix(0.35277776,0,0,-0.35277776,270.66099,188.9558)"
       d="M -9.00023 55.6298 l -17.929 0 l 1.8e-05 10.8428 c 0 4.9708 -4.03 8.9998 -9 8.9998 h -24.5199 c -4.96991 0 -8.99991 -4.029 -8.99991 -9 l -1e-06 -10.8428 l -17.9291 0.000197 c -4.97009 0 -9.00009 -4.029 -9.0001 -9 l 0 -183.26 c 0 -4.9709 4.03 -8.9999 9 -8.9999 l 17.9291 -1e-05 l 9.6e-05 -10.8428 c 0 -4.97076 4.03 -8.99976 9 -8.99976 h 24.5199 c 4.96991 0 8.99991 4.029 8.99991 9 v 10.8428 l 17.929 -0.00024 c 4.97098 0 8.99998 4.029 9.0001 9.00001 l 2.2677e-07 183.26 C -0.000226772 51.6008 -4.02923 55.6298 -9.00023 55.6298 Z"
       sodipodi:nodetypes="cccccccccccccccccsccc"
       inkscape:label="h41_0_2635" />
    <path
       id="h43_0_2635"
       d="M 0 0 c 0 8.689 7.044 15.732 15.732 15.732 c 8.689 0 15.733 -7.043 15.733 -15.732 c 0 -8.689 -7.044 -15.732 -15.733 -15.732 C 7.044 -15.732 0 -8.689 0 0 Z"
       style="fill:none;stroke:#008000;stroke-width:1.0;stroke-linecap:round;stroke-linejoin:round;stroke-miterlimit:10;stroke-dasharray:none;stroke-opacity:1;vector-effect:non-scaling-stroke;-inkscape-stroke:hairline"
       transform="matrix(0.35277776,0,0,-0.35277776,100.52343,168.0729)"
       clip-path="none"
       inkscape:label="h43_0_2635" />
    <path
       id="h44_0_2635"
       d="M 0 0 c 0 8.689 7.044 15.732 15.732 15.732 c 8.689 0 15.733 -7.043 15.733 -15.732 c 0 -8.689 -7.044 -15.732 -15.733 -15.732 C 7.044 -15.732 0 -8.689 0 0 Z"
       style="fill:none;stroke:#008000;stroke-width:1.0;stroke-linecap:round;stroke-linejoin:round;stroke-miterlimit:10;stroke-dasharray:none;stroke-opacity:1;vector-effect:non-scaling-stroke;-inkscape-stroke:hairline"
       transform="matrix(0.35277776,0,0,-0.35277776,102.11093,241.58875)"
       clip-path="none"
       inkscape:label="h44_0_2635" />
    <path
       id="h46_0_2635"
       d="M 0 0 c 0 8.454 6.853 15.307 15.307 15.307 c 8.454 0 15.307 -6.853 15.307 -15.307 c 0 -8.454 -6.853 -15.307 -15.307 -15.307 C 6.853 -15.307 0 -8.454 0 0 Z"
       style="fill:none;stroke:#008000;stroke-width:1.0;stroke-linecap:round;stroke-linejoin:round;stroke-miterlimit:10;stroke-dasharray:none;stroke-opacity:1;vector-effect:non-scaling-stroke;-inkscape-stroke:hairline"
       transform="matrix(0.35277776,0,0,-0.35277776,62.260979,245.7058)"
       clip-path="none"
       inkscape:label="h46_0_2635" />
    <path
       id="h45_0_2635"
       d="M 0 0 c 0 8.454 6.853 15.307 15.307 15.307 c 8.454 0 15.307 -6.853 15.307 -15.307 c 0 -8.454 -6.853 -15.307 -15.307 -15.307 C 6.853 -15.307 0 -8.454 0 0 Z"
       style="fill:none;stroke:#008000;stroke-width:1.0;stroke-linecap:round;stroke-linejoin:round;stroke-miterlimit:10;stroke-dasharray:none;stroke-opacity:1;vector-effect:non-scaling-stroke;-inkscape-stroke:hairline"
       transform="matrix(0.35277776,0,0,-0.35277776,62.260979,163.95585)"
       clip-path="none"
       inkscape:label="h45_0_2635" />
    <path
       id="contour"
       clip-path="none"
       style="vector-effect:non-scaling-stroke;fill:none;stroke:#008000;stroke-width:0.352778;stroke-linecap:round;stroke-linejoin:round;stroke-miterlimit:10;stroke-dasharray:none;stroke-opacity:1;-inkscape-stroke:hairline"
       d="m 306.78557,306.79435 c 4.28482,-13.3269 -3.66988,-26.44398 -6.01009,-39.54838 -5.63768,-12.90381 -2.1141,-27.58673 6.88547,-37.09147 -2e-5,-17.60797 3e-5,-35.21594 -5e-5,-52.82391 -14.93595,-10.36657 -12.02803,-33.97547 3.09805,-42.64807 9.72812,-9.80098 25.07031,-16.13446 27.68151,-30.87445 C 340.33747,88.382461 323.61602,78.542902 310.18597,83.111942 283.57156,86.557503 261.7986,106.84648 234.6018,107.23291 211.02664,104.62223 194.33677,85.605935 175.99081,72.529699 144.04942,46.893746 105.19242,24.931756 62.929993,27.283525 15.386057,30.251938 -26.56227,62.682266 -47.947464,104.27785 -76.70813,157.62641 -81.331353,223.32624 -59.408896,279.9416 c 14.942255,42.03855 46.06614,80.08679 88.95057,95.33404 34.051107,13.41834 72.766196,6.91917 104.341276,-10.04061 29.87657,-14.97358 53.16909,-39.74463 81.56549,-56.93326 14.905,-9.20549 33.25748,-5.99517 48.24464,1.19923 12.07291,4.9917 26.65263,15.34012 38.50387,3.77577 l 2.58538,-2.96112 2.00324,-3.52123 z"
       inkscape:label="contour" />
    <path
       id="path2446"
       d="M 0,0 H 211.327"
       style="fill:none;stroke:#0000ff;stroke-width:0.709;stroke-linecap:round;stroke-linejoin:round;stroke-miterlimit:10;stroke-dasharray:3.6, 1.8;stroke-dashoffset:0;stroke-opacity:1"
       transform="matrix(0.35277776,0,0,-0.35277776,163.88524,240.00581)"
       clip-path="none" />
    <path
       id="path2454"
       d="M 0,0 H -201.26"
       style="fill:none;stroke:#0000ff;stroke-width:0.709;stroke-linecap:round;stroke-linejoin:round;stroke-miterlimit:10;stroke-dasharray:3.6, 1.8;stroke-dashoffset:0;stroke-opacity:1"
       transform="matrix(0.35277776,0,0,-0.35277776,236.6609,233.65581)"
       clip-path="none" />
    <path
       id="path2456"
       d="M 0,0 -131.82,-157.097"
       style="fill:none;stroke:#0000ff;stroke-width:0.709;stroke-linecap:round;stroke-linejoin:round;stroke-miterlimit:10;stroke-dasharray:3.6, 1.8;stroke-dashoffset:0;stroke-opacity:1"
       transform="matrix(0.35277776,0,0,-0.35277776,131.66092,235.68355)"
       clip-path="none" />
    <path
       id="path2460"
       d="M 0,0 -35.599,-42.426"
       style="fill:none;stroke:#0000ff;stroke-width:0.709;stroke-linecap:round;stroke-linejoin:round;stroke-miterlimit:10;stroke-dasharray:3.6, 1.8;stroke-dashoffset:0;stroke-opacity:1"
       transform="matrix(0.35277776,0,0,-0.35277776,65.885718,314.07136)"
       clip-path="none" />
    <path
       id="h49_0_2635"
       d="M 0 0 c 2.099 27.257 -18.297 51.055 -45.554 53.154 c -27.258 2.098 -51.055 -18.297 -53.154 -45.555 c -2.098 -27.257 18.297 -51.055 45.554 -53.153 c 23.051 -1.775 44.26 12.642 51.09 34.728 Z"
       style="fill:none;stroke:#008000;stroke-width:1.0;stroke-linecap:round;stroke-linejoin:round;stroke-miterlimit:10;stroke-dasharray:none;stroke-dashoffset:0;stroke-opacity:1;vector-effect:non-scaling-stroke;-inkscape-stroke:hairline"
       transform="matrix(0.35277776,0,0,-0.35277776,53.327005,329.03823)"
       clip-path="none"
       inkscape:label="h49_0_2635" />
    <path
       id="path2464"
       d="m 0,0 c 2.2,-4.457 7.596,-6.288 12.054,-4.088 1.118,0.552 2.109,1.33 2.911,2.286"
       style="fill:none;stroke:#0000ff;stroke-width:0.709;stroke-linecap:round;stroke-linejoin:round;stroke-miterlimit:10;stroke-dasharray:3.6, 1.8;stroke-dashoffset:0;stroke-opacity:1"
       transform="matrix(0.35277776,0,0,-0.35277776,52.598925,332.85728)"
       clip-path="none" />
    <path
       id="path2466"
       d="M 0,0 48.485,57.782"
       style="fill:none;stroke:#0000ff;stroke-width:0.709;stroke-linecap:round;stroke-linejoin:round;stroke-miterlimit:10;stroke-dasharray:3.6, 1.8;stroke-dashoffset:0;stroke-opacity:1"
       transform="matrix(0.35277776,0,0,-0.35277776,57.878341,333.49307)"
       clip-path="none" />
    <path
       id="path2470"
       d="M 0,0 142.473,169.793"
       style="fill:none;stroke:#0000ff;stroke-width:0.709;stroke-linecap:round;stroke-linejoin:round;stroke-miterlimit:10;stroke-dasharray:3.6, 1.8;stroke-dashoffset:0;stroke-opacity:1"
       transform="matrix(0.35277776,0,0,-0.35277776,85.789422,300.22992)"
       clip-path="none" />
    <path
       id="hb51_0_2635"
       d="M 0 0 C 0 27.338 22.162 49.5 49.5 49.5 C 76.838 49.5 99 27.338 99 0 C 99 -27.338 76.838 -49.5 49.5 -49.5 C 22.162 -49.5 0 -27.338 0 0 Z"
       style="fill:none;stroke:#008000;stroke-width:1.0;stroke-linecap:round;stroke-linejoin:round;stroke-miterlimit:10;stroke-dasharray:none;stroke-dashoffset:0;stroke-opacity:1;vector-effect:non-scaling-stroke;-inkscape-stroke:hairline"
       transform="matrix(0.35277776,0,0,-0.35277776,245.19847,269.8308)"
       clip-path="none"
       inkscape:label="hb51_0_2635" />
    <path
       id="hb52_0_2635"
       clip-path="none"
       style="fill:none;stroke:#008000;stroke-width:1.0;stroke-linecap:round;stroke-linejoin:round;stroke-miterlimit:10;stroke-dasharray:none;stroke-dashoffset:0;stroke-opacity:1;vector-effect:non-scaling-stroke;-inkscape-stroke:hairline"
       transform="matrix(0.35277776,0,0,-0.35277776,216.81299,289.70292)"
       d="M -259.695 -71.2288 c 0 -27.3379 22.162 -49.4999 49.5 -49.4999 c 9.161 0 18.141 2.542 25.9429 7.34295 L 11.6415 7.1641 C 23.283 14.328 30.542 44.817 16.214 68.1 C 7.205 82.739 -8.753 91.657 -25.943 91.6571 l -184.252 6.9e-05 c -27.338 0 -49.5 -22.162 -49.5 -49.5 z"
       sodipodi:nodetypes="csccccccc"
       inkscape:label="hb52_0_2635" />
    <path
       id="hb53_0_2635"
       clip-path="none"
       style="fill:none;stroke:#008000;stroke-width:1.0;stroke-linecap:round;stroke-linejoin:round;stroke-miterlimit:10;stroke-dasharray:none;stroke-dashoffset:0;stroke-opacity:1;vector-effect:non-scaling-stroke;-inkscape-stroke:hairline"
       transform="matrix(0.35277776,0,0,-0.35277776,151.81296,79.95874)"
       d="M -75.4428 -155.543 c 0 -27.3379 22.162 -49.4999 49.5001 -49.4999 H 158.309 c 27.338 0 49.5 22.162 49.5 49.5 c 0 17.189 -8.918 33.148 -23.5571 42.1571 L 3.14142e-05 8.37572e-05 C -23.283 14.328 -53.772 7.068 -68.1 -16.214 c -4.801 -7.802 -7.343 -16.783 -7.3429 -25.9431 z"
       sodipodi:nodetypes="cccsccccc"
       inkscape:label="hb53_0_2635" />
    <path
       id="hb54_0_2635"
       clip-path="none"
       style="fill:none;stroke:#008000;stroke-width:1.0;stroke-linecap:round;stroke-linejoin:round;stroke-miterlimit:10;stroke-dasharray:none;stroke-dashoffset:0;stroke-opacity:1;vector-effect:non-scaling-stroke;-inkscape-stroke:hairline"
       transform="matrix(0.35277776,0,0,-0.35277776,79.443285,150.2389)"
       d="M -0.000191451 -8.37572e-05 C 24.122 -12.865 54.106 -3.74 66.971 20.382 c 3.823 7.169 5.823 15.17 5.82313 23.2942 l 0.000129 184.252 c 0 27.338 -22.162 49.5 -49.5 49.5 c -5.32 0 -10.606 -0.858 -15.6532 -2.54013 L -204.957 204.022 c -25.9352 -8.64503 -39.9522 -36.678 -31.3072 -62.613 c 4.009 -12.027 12.48 -22.057 23.666 -28.0232 z"
       sodipodi:nodetypes="ccccsccscc"
       inkscape:label="hb54_0_2635" />
    <path
       id="h50_0_2635"
       d="M 0 0 C 0 27.338 22.162 49.5 49.5 49.5 C 76.838 49.5 99 27.338 99 0 C 99 -27.338 76.838 -49.5 49.5 -49.5 C 22.162 -49.5 0 -27.338 0 0 Z"
       style="fill:none;stroke:#008000;stroke-width:1.0;stroke-linecap:round;stroke-linejoin:round;stroke-miterlimit:10;stroke-dasharray:none;stroke-dashoffset:0;stroke-opacity:1;vector-effect:non-scaling-stroke;-inkscape-stroke:hairline"
       transform="matrix(0.35277776,0,0,-0.35277776,74.947141,340.83081)"
       clip-path="none"
       inkscape:label="h50_0_2635" />
    <path
       id="h47_0_2635"
       d="M 0 0 C 0 27.338 22.162 49.5 49.5 49.5 C 76.838 49.5 99 27.338 99 0 C 99 -27.338 76.838 -49.5 49.5 -49.5 C 22.162 -49.5 0 -27.338 0 0 Z"
       style="fill:none;stroke:#008000;stroke-width:1.0;stroke-linecap:round;stroke-linejoin:round;stroke-miterlimit:10;stroke-dasharray:none;stroke-dashoffset:0;stroke-opacity:1;vector-effect:non-scaling-stroke;-inkscape-stroke:hairline"
       transform="matrix(0.35277776,0,0,-0.35277776,-5.2951356,283.69783)"
       clip-path="none"
       inkscape:label="h47_0_2635" />
    <path
       id="path2516"
       d="M 0,0 C 1.089,3.52 1.781,7.151 2.064,10.826"
       style="fill:none;stroke:#0000ff;stroke-width:0.709;stroke-linecap:round;stroke-linejoin:round;stroke-miterlimit:10;stroke-dasharray:3.6, 1.8;stroke-dashoffset:0;stroke-opacity:1"
       transform="matrix(0.35277776,0,0,-0.35277776,52.598925,332.85728)"
       clip-path="none" />
    <path
       id="h48_0_2635"
       clip-path="none"
       style="fill:none;stroke:#008000;stroke-width:1.0;stroke-linecap:round;stroke-linejoin:round;stroke-miterlimit:10;stroke-dasharray:none;stroke-dashoffset:0;stroke-opacity:1;vector-effect:non-scaling-stroke;-inkscape-stroke:hairline"
       transform="matrix(0.35277776,0,0,-0.35277776,65.885718,314.07138)"
       d="M -8.3669 95.6335 c -25.826 -8.966 -39.494 -37.17 -30.529 -62.996 c 5.973 -17.207 20.914 -29.743 38.8959 -32.6373 C 8.685 -1.398 17.586 -0.456 25.7869 2.72824 C 41.5697 8.85749 53.1247 22.6285 56.4198 39.2356 C 58.132 47.8646 57.514 56.7936 54.629 65.1046 C 45.6631 90.9305 17.4591 104.599 -8.3669 95.6335 Z"
       sodipodi:nodetypes="csccccc"
       inkscape:label="h48_0_2635" />
    <path
       id="path2520"
       d="M 0,0 H 5.669"
       style="fill:none;stroke:#0000ff;stroke-width:0.709;stroke-linecap:round;stroke-linejoin:round;stroke-miterlimit:10;stroke-dasharray:none;stroke-opacity:1"
       transform="matrix(0.35277776,0,0,-0.35277776,66.660947,163.95585)"
       clip-path="none" />
    <path
       id="path2522"
       d="M 0,0 V 5.669"
       style="fill:none;stroke:#0000ff;stroke-width:0.709;stroke-linecap:round;stroke-linejoin:round;stroke-miterlimit:10;stroke-dasharray:none;stroke-opacity:1"
       transform="matrix(0.35277776,0,0,-0.35277776,67.66094,164.95582)"
       clip-path="none" />
    <path
       id="path2524"
       d="M 0,0 H 12.472"
       style="fill:none;stroke:#0000ff;stroke-width:0.709;stroke-linecap:round;stroke-linejoin:round;stroke-miterlimit:10;stroke-dasharray:none;stroke-opacity:1"
       transform="matrix(0.35277776,0,0,-0.35277776,69.660951,163.95585)"
       clip-path="none" />
    <path
       id="path2526"
       d="M 0,0 H -12.472"
       style="fill:none;stroke:#0000ff;stroke-width:0.709;stroke-linecap:round;stroke-linejoin:round;stroke-miterlimit:10;stroke-dasharray:none;stroke-opacity:1"
       transform="matrix(0.35277776,0,0,-0.35277776,65.660928,163.95585)"
       clip-path="none" />
    <path
       id="path2528"
       d="M 0,0 V 12.472"
       style="fill:none;stroke:#0000ff;stroke-width:0.709;stroke-linecap:round;stroke-linejoin:round;stroke-miterlimit:10;stroke-dasharray:none;stroke-opacity:1"
       transform="matrix(0.35277776,0,0,-0.35277776,67.66094,161.95581)"
       clip-path="none" />
    <path
       id="path2530"
       d="M 0,0 V -12.472"
       style="fill:none;stroke:#0000ff;stroke-width:0.709;stroke-linecap:round;stroke-linejoin:round;stroke-miterlimit:10;stroke-dasharray:none;stroke-opacity:1"
       transform="matrix(0.35277776,0,0,-0.35277776,67.66094,165.95581)"
       clip-path="none" />
    <path
       id="path2532"
       d="M 0,0 H 5.669"
       style="fill:none;stroke:#0000ff;stroke-width:0.709;stroke-linecap:round;stroke-linejoin:round;stroke-miterlimit:10;stroke-dasharray:none;stroke-opacity:1"
       transform="matrix(0.35277776,0,0,-0.35277776,105.07342,168.0729)"
       clip-path="none" />
    <path
       id="path2534"
       d="M 0,0 V 5.669"
       style="fill:none;stroke:#0000ff;stroke-width:0.709;stroke-linecap:round;stroke-linejoin:round;stroke-miterlimit:10;stroke-dasharray:none;stroke-opacity:1"
       transform="matrix(0.35277776,0,0,-0.35277776,106.07344,169.07289)"
       clip-path="none" />
    <path
       id="path2536"
       d="M 0,0 H 12.898"
       style="fill:none;stroke:#0000ff;stroke-width:0.709;stroke-linecap:round;stroke-linejoin:round;stroke-miterlimit:10;stroke-dasharray:none;stroke-opacity:1"
       transform="matrix(0.35277776,0,0,-0.35277776,108.07348,168.0729)"
       clip-path="none" />
    <path
       id="path2538"
       d="M 0,0 H -12.898"
       style="fill:none;stroke:#0000ff;stroke-width:0.709;stroke-linecap:round;stroke-linejoin:round;stroke-miterlimit:10;stroke-dasharray:none;stroke-opacity:1"
       transform="matrix(0.35277776,0,0,-0.35277776,104.07343,168.0729)"
       clip-path="none" />
    <path
       id="path2540"
       d="M 0,0 V 12.898"
       style="fill:none;stroke:#0000ff;stroke-width:0.709;stroke-linecap:round;stroke-linejoin:round;stroke-miterlimit:10;stroke-dasharray:none;stroke-opacity:1"
       transform="matrix(0.35277776,0,0,-0.35277776,106.07344,166.07289)"
       clip-path="none" />
    <path
       id="path2542"
       d="M 0,0 V -12.898"
       style="fill:none;stroke:#0000ff;stroke-width:0.709;stroke-linecap:round;stroke-linejoin:round;stroke-miterlimit:10;stroke-dasharray:none;stroke-opacity:1"
       transform="matrix(0.35277776,0,0,-0.35277776,106.07344,170.07291)"
       clip-path="none" />
    <path
       id="path2544"
       d="M 0,0 H 5.669"
       style="fill:none;stroke:#0000ff;stroke-width:0.709;stroke-linecap:round;stroke-linejoin:round;stroke-miterlimit:10;stroke-dasharray:none;stroke-opacity:1"
       transform="matrix(0.35277776,0,0,-0.35277776,66.660947,245.7058)"
       clip-path="none" />
    <path
       id="path2546"
       d="M 0,0 V 5.669"
       style="fill:none;stroke:#0000ff;stroke-width:0.709;stroke-linecap:round;stroke-linejoin:round;stroke-miterlimit:10;stroke-dasharray:none;stroke-opacity:1"
       transform="matrix(0.35277776,0,0,-0.35277776,67.66094,246.70582)"
       clip-path="none" />
    <path
       id="path2548"
       d="M 0,0 H 12.472"
       style="fill:none;stroke:#0000ff;stroke-width:0.709;stroke-linecap:round;stroke-linejoin:round;stroke-miterlimit:10;stroke-dasharray:none;stroke-opacity:1"
       transform="matrix(0.35277776,0,0,-0.35277776,69.660951,245.7058)"
       clip-path="none" />
    <path
       id="path2550"
       d="M 0,0 H -12.472"
       style="fill:none;stroke:#0000ff;stroke-width:0.709;stroke-linecap:round;stroke-linejoin:round;stroke-miterlimit:10;stroke-dasharray:none;stroke-opacity:1"
       transform="matrix(0.35277776,0,0,-0.35277776,65.660928,245.7058)"
       clip-path="none" />
    <path
       id="path2552"
       d="M 0,0 V 12.472"
       style="fill:none;stroke:#0000ff;stroke-width:0.709;stroke-linecap:round;stroke-linejoin:round;stroke-miterlimit:10;stroke-dasharray:none;stroke-opacity:1"
       transform="matrix(0.35277776,0,0,-0.35277776,67.66094,243.70582)"
       clip-path="none" />
    <path
       id="path2554"
       d="M 0,0 V -12.472"
       style="fill:none;stroke:#0000ff;stroke-width:0.709;stroke-linecap:round;stroke-linejoin:round;stroke-miterlimit:10;stroke-dasharray:none;stroke-opacity:1"
       transform="matrix(0.35277776,0,0,-0.35277776,67.66094,247.70582)"
       clip-path="none" />
    <path
       id="path2556"
       d="M 0,0 H 5.669"
       style="fill:none;stroke:#0000ff;stroke-width:0.709;stroke-linecap:round;stroke-linejoin:round;stroke-miterlimit:10;stroke-dasharray:none;stroke-opacity:1"
       transform="matrix(0.35277776,0,0,-0.35277776,106.66092,241.58875)"
       clip-path="none" />
    <path
       id="path2558"
       d="M 0,0 V 5.669"
       style="fill:none;stroke:#0000ff;stroke-width:0.709;stroke-linecap:round;stroke-linejoin:round;stroke-miterlimit:10;stroke-dasharray:none;stroke-opacity:1"
       transform="matrix(0.35277776,0,0,-0.35277776,107.66094,242.58875)"
       clip-path="none" />
    <path
       id="path2560"
       d="M 0,0 H 12.898"
       style="fill:none;stroke:#0000ff;stroke-width:0.709;stroke-linecap:round;stroke-linejoin:round;stroke-miterlimit:10;stroke-dasharray:none;stroke-opacity:1"
       transform="matrix(0.35277776,0,0,-0.35277776,109.66098,241.58875)"
       clip-path="none" />
    <path
       id="path2562"
       d="M 0,0 H -12.898"
       style="fill:none;stroke:#0000ff;stroke-width:0.709;stroke-linecap:round;stroke-linejoin:round;stroke-miterlimit:10;stroke-dasharray:none;stroke-opacity:1"
       transform="matrix(0.35277776,0,0,-0.35277776,105.66093,241.58875)"
       clip-path="none" />
    <path
       id="path2564"
       d="M 0,0 V 12.898"
       style="fill:none;stroke:#0000ff;stroke-width:0.709;stroke-linecap:round;stroke-linejoin:round;stroke-miterlimit:10;stroke-dasharray:none;stroke-opacity:1"
       transform="matrix(0.35277776,0,0,-0.35277776,107.66094,239.58874)"
       clip-path="none" />
    <path
       id="path2566"
       d="M 0,0 V -12.898"
       style="fill:none;stroke:#0000ff;stroke-width:0.709;stroke-linecap:round;stroke-linejoin:round;stroke-miterlimit:10;stroke-dasharray:none;stroke-opacity:1"
       transform="matrix(0.35277776,0,0,-0.35277776,107.66094,243.58877)"
       clip-path="none" />
    <path
       id="path2568"
       d="M 0,0 H 5.669"
       style="fill:none;stroke:#0000ff;stroke-width:0.709;stroke-linecap:round;stroke-linejoin:round;stroke-miterlimit:10;stroke-dasharray:none;stroke-opacity:1"
       transform="matrix(0.35277776,0,0,-0.35277776,11.167345,283.69783)"
       clip-path="none" />
    <path
       id="path2570"
       d="M 0,0 V 5.669"
       style="fill:none;stroke:#0000ff;stroke-width:0.709;stroke-linecap:round;stroke-linejoin:round;stroke-miterlimit:10;stroke-dasharray:none;stroke-opacity:1"
       transform="matrix(0.35277776,0,0,-0.35277776,12.167364,284.69782)"
       clip-path="none" />
    <path
       id="xxx"
       d="M 0 0 H 46.665 Z"
       style="fill:none;stroke:#008000;stroke-width:1.0;stroke-linecap:round;stroke-linejoin:round;stroke-miterlimit:10;stroke-dasharray:none;stroke-opacity:1;vector-effect:non-scaling-stroke;-inkscape-stroke:hairline"
       transform="matrix(0.35277776,0,0,-0.35277776,14.16735,283.69783)"
       clip-path="none"
       inkscape:label="xxxxxx" />
    <path
       id="path2574"
       d="M 0,0 H -46.665"
       style="fill:none;stroke:#0000ff;stroke-width:0.709;stroke-linecap:round;stroke-linejoin:round;stroke-miterlimit:10;stroke-dasharray:none;stroke-opacity:1"
       transform="matrix(0.35277776,0,0,-0.35277776,10.167379,283.69783)"
       clip-path="none" />
    <path
       id="path2576"
       d="M 0,0 V 46.665"
       style="fill:none;stroke:#0000ff;stroke-width:0.709;stroke-linecap:round;stroke-linejoin:round;stroke-miterlimit:10;stroke-dasharray:none;stroke-opacity:1"
       transform="matrix(0.35277776,0,0,-0.35277776,12.167364,281.69781)"
       clip-path="none" />
    <path
       id="path2578"
       d="M 0,0 V -46.665"
       style="fill:none;stroke:#0000ff;stroke-width:0.709;stroke-linecap:round;stroke-linejoin:round;stroke-miterlimit:10;stroke-dasharray:none;stroke-opacity:1"
       transform="matrix(0.35277776,0,0,-0.35277776,12.167364,285.69784)"
       clip-path="none" />
    <path
       id="path2580"
       d="M 0,0 H 5.669"
       style="fill:none;stroke:#0000ff;stroke-width:0.709;stroke-linecap:round;stroke-linejoin:round;stroke-miterlimit:10;stroke-dasharray:none;stroke-opacity:1"
       transform="matrix(0.35277776,0,0,-0.35277776,67.66094,296.83082)"
       clip-path="none" />
    <path
       id="path2582"
       d="M 0,0 V 5.669"
       style="fill:none;stroke:#0000ff;stroke-width:0.709;stroke-linecap:round;stroke-linejoin:round;stroke-miterlimit:10;stroke-dasharray:none;stroke-opacity:1"
       transform="matrix(0.35277776,0,0,-0.35277776,68.660959,297.83081)"
       clip-path="none" />
    <path
       id="path2584"
       d="M 0,0 H 46.665"
       style="fill:none;stroke:#0000ff;stroke-width:0.709;stroke-linecap:round;stroke-linejoin:round;stroke-miterlimit:10;stroke-dasharray:none;stroke-opacity:1"
       transform="matrix(0.35277776,0,0,-0.35277776,70.660918,296.83082)"
       clip-path="none" />
    <path
       id="path2586"
       d="M 0,0 H -46.665"
       style="fill:none;stroke:#0000ff;stroke-width:0.709;stroke-linecap:round;stroke-linejoin:round;stroke-miterlimit:10;stroke-dasharray:none;stroke-opacity:1"
       transform="matrix(0.35277776,0,0,-0.35277776,66.660947,296.83082)"
       clip-path="none" />
    <path
       id="path2588"
       d="M 0,0 V 46.665"
       style="fill:none;stroke:#0000ff;stroke-width:0.709;stroke-linecap:round;stroke-linejoin:round;stroke-miterlimit:10;stroke-dasharray:none;stroke-opacity:1"
       transform="matrix(0.35277776,0,0,-0.35277776,68.660959,294.83083)"
       clip-path="none" />
    <path
       id="path2590"
       d="M 0,0 V -46.665"
       style="fill:none;stroke:#0000ff;stroke-width:0.709;stroke-linecap:round;stroke-linejoin:round;stroke-miterlimit:10;stroke-dasharray:none;stroke-opacity:1"
       transform="matrix(0.35277776,0,0,-0.35277776,68.660959,298.83083)"
       clip-path="none" />
    <path
       id="path2592"
       d="M 0,0 H 5.669"
       style="fill:none;stroke:#0000ff;stroke-width:0.709;stroke-linecap:round;stroke-linejoin:round;stroke-miterlimit:10;stroke-dasharray:none;stroke-opacity:1"
       transform="matrix(0.35277776,0,0,-0.35277776,34.916027,327.69782)"
       clip-path="none" />
    <path
       id="path2594"
       d="M 0,0 V 5.669"
       style="fill:none;stroke:#0000ff;stroke-width:0.709;stroke-linecap:round;stroke-linejoin:round;stroke-miterlimit:10;stroke-dasharray:none;stroke-opacity:1"
       transform="matrix(0.35277776,0,0,-0.35277776,35.916046,328.69782)"
       clip-path="none" />
    <path
       id="path2596"
       d="M 0,0 H 46.665"
       style="fill:none;stroke:#0000ff;stroke-width:0.709;stroke-linecap:round;stroke-linejoin:round;stroke-miterlimit:10;stroke-dasharray:none;stroke-opacity:1"
       transform="matrix(0.35277776,0,0,-0.35277776,37.916058,327.69782)"
       clip-path="none" />
    <path
       id="path2598"
       d="M 0,0 H -46.665"
       style="fill:none;stroke:#0000ff;stroke-width:0.709;stroke-linecap:round;stroke-linejoin:round;stroke-miterlimit:10;stroke-dasharray:none;stroke-opacity:1"
       transform="matrix(0.35277776,0,0,-0.35277776,33.916061,327.69782)"
       clip-path="none" />
    <path
       id="path2600"
       d="M 0,0 V 46.665"
       style="fill:none;stroke:#0000ff;stroke-width:0.709;stroke-linecap:round;stroke-linejoin:round;stroke-miterlimit:10;stroke-dasharray:none;stroke-opacity:1"
       transform="matrix(0.35277776,0,0,-0.35277776,35.916046,325.69781)"
       clip-path="none" />
    <path
       id="path2602"
       d="M 0,0 V -46.665"
       style="fill:none;stroke:#0000ff;stroke-width:0.709;stroke-linecap:round;stroke-linejoin:round;stroke-miterlimit:10;stroke-dasharray:none;stroke-opacity:1"
       transform="matrix(0.35277776,0,0,-0.35277776,35.916046,329.69783)"
       clip-path="none" />
    <path
       id="path2604"
       d="M 0,0 H 5.669"
       style="fill:none;stroke:#0000ff;stroke-width:0.709;stroke-linecap:round;stroke-linejoin:round;stroke-miterlimit:10;stroke-dasharray:none;stroke-opacity:1"
       transform="matrix(0.35277776,0,0,-0.35277776,91.409622,340.83081)"
       clip-path="none" />
    <path
       id="path2606"
       d="M 0,0 V 5.669"
       style="fill:none;stroke:#0000ff;stroke-width:0.709;stroke-linecap:round;stroke-linejoin:round;stroke-miterlimit:10;stroke-dasharray:none;stroke-opacity:1"
       transform="matrix(0.35277776,0,0,-0.35277776,92.409641,341.83081)"
       clip-path="none" />
    <path
       id="path2608"
       d="M 0,0 H 46.665"
       style="fill:none;stroke:#0000ff;stroke-width:0.709;stroke-linecap:round;stroke-linejoin:round;stroke-miterlimit:10;stroke-dasharray:none;stroke-opacity:1"
       transform="matrix(0.35277776,0,0,-0.35277776,94.409653,340.83081)"
       clip-path="none" />
    <path
       id="path2610"
       d="M 0,0 H -46.665"
       style="fill:none;stroke:#0000ff;stroke-width:0.709;stroke-linecap:round;stroke-linejoin:round;stroke-miterlimit:10;stroke-dasharray:none;stroke-opacity:1"
       transform="matrix(0.35277776,0,0,-0.35277776,90.409629,340.83081)"
       clip-path="none" />
    <path
       id="path2612"
       d="M 0,0 V 46.665"
       style="fill:none;stroke:#0000ff;stroke-width:0.709;stroke-linecap:round;stroke-linejoin:round;stroke-miterlimit:10;stroke-dasharray:none;stroke-opacity:1"
       transform="matrix(0.35277776,0,0,-0.35277776,92.409641,338.83083)"
       clip-path="none" />
    <path
       id="path2614"
       d="M 0,0 V -46.665"
       style="fill:none;stroke:#0000ff;stroke-width:0.709;stroke-linecap:round;stroke-linejoin:round;stroke-miterlimit:10;stroke-dasharray:none;stroke-opacity:1"
       transform="matrix(0.35277776,0,0,-0.35277776,92.409641,342.83082)"
       clip-path="none" />
    <path
       style="vector-effect:non-scaling-stroke;fill:none;stroke:#008000;stroke-width:1.0;stroke-linecap:round;stroke-linejoin:round;-inkscape-stroke:hairline;stroke-dasharray:none"
       d="M 239.938 233.656 H 133.362 l -78.9839 94.042 c -7.24893 8.45531 -3.30995 13.0079 3.49981 5.79516 L 136.323 240.006 H 241.713 c 2.2517 -3.14995 0.46601 -4.8328 -1.77554 -6.35 z"
       id="hb55_0_2635"
       sodipodi:nodetypes="ccccccc"
       inkscape:label="hb55_0_2635" />
    <path
       style="vector-effect:non-scaling-stroke;fill:none;stroke:#008000;stroke-width:1.0;stroke-linecap:round;stroke-linejoin:round;-inkscape-stroke:hairline;stroke-dasharray:none"
       d="M 12.6437 283.753 L 35.6733 328.584 L 92.2387 340.526 L 67.6799 296.784 Z"
       id="h56_0_2635"
       inkscape:label="h56_0_2635" />
    <path
       style="vector-effect:non-scaling-stroke;fill:none;stroke:#008000;stroke-width:1.0;stroke-linecap:round;stroke-linejoin:round;-inkscape-stroke:hairline;stroke-dasharray:none"
       d="M 353.56988,204.76703 -4.8062932,204.2007"
       id="midline"
       sodipodi:nodetypes="cc"
       inkscape:label="midline" />
    <path
       style="vector-effect:non-scaling-stroke;fill:none;stroke:#008000;stroke-width:1.0;stroke-linecap:round;stroke-linejoin:round;-inkscape-stroke:hairline;stroke-dasharray:none"
       d="m 106.07337,168.0729 1.5875,73.51585"
       id="bridge"
       inkscape:label="bridge" />
  </g>
</svg>
