<?xml version="1.0" encoding="UTF-8" standalone="no"?>
<!-- Created with Inkscape (http://www.inkscape.org/) -->

<svg
   width="210mm"
   height="127.92874mm"
   viewBox="0 0 210 127.92874"
   version="1.1"
   id="svg1"
   inkscape:version="1.3.2 (091e20ef0f, 2023-11-25)"
   sodipodi:docname="headstock.svg"
   xmlns:inkscape="http://www.inkscape.org/namespaces/inkscape"
   xmlns:sodipodi="http://sodipodi.sourceforge.net/DTD/sodipodi-0.dtd"
   xmlns="http://www.w3.org/2000/svg"
   xmlns:svg="http://www.w3.org/2000/svg">
  <sodipodi:namedview
     id="namedview1"
     pagecolor="#ffffff"
     bordercolor="#000000"
     borderopacity="0.25"
     inkscape:showpageshadow="2"
     inkscape:pageopacity="0.0"
     inkscape:pagecheckerboard="0"
     inkscape:deskcolor="#d1d1d1"
     inkscape:document-units="mm"
     inkscape:zoom="0.72337262"
     inkscape:cx="149.99185"
     inkscape:cy="269.57061"
     inkscape:window-width="1920"
     inkscape:window-height="1021"
     inkscape:window-x="1920"
     inkscape:window-y="0"
     inkscape:window-maximized="1"
     inkscape:current-layer="layer1" />
  <defs
     id="defs1">
    <clipPath
       clipPathUnits="userSpaceOnUse"
       id="clipPath263">
      <path
         d="M 0,2299.68 H 3134.16 V 0 H 0 Z"
         transform="translate(-2882.409,-1395.6549)"
         id="path263" />
    </clipPath>
    <clipPath
       clipPathUnits="userSpaceOnUse"
       id="clipPath253">
      <path
         d="M 0,2299.68 H 3134.16 V 0 H 0 Z"
         transform="translate(-2601.2275,-1450.2421)"
         id="path253" />
    </clipPath>
    <clipPath
       clipPathUnits="userSpaceOnUse"
       id="clipPath235">
      <path
         d="M 0,2299.68 H 3134.16 V 0 H 0 Z"
         transform="translate(-2486.485,-1402.0531)"
         id="path235" />
    </clipPath>
    <clipPath
       clipPathUnits="userSpaceOnUse"
       id="clipPath241">
      <path
         d="M 0,2299.68 H 3134.16 V 0 H 0 Z"
         transform="translate(-2486.485,-1333.5255)"
         id="path241" />
    </clipPath>
    <clipPath
       clipPathUnits="userSpaceOnUse"
       id="clipPath247">
      <path
         d="M 0,2299.68 H 3134.16 V 0 H 0 Z"
         transform="translate(-2486.485,-1282.998)"
         id="path247" />
    </clipPath>
    <clipPath
       clipPathUnits="userSpaceOnUse"
       id="clipPath271">
      <path
         d="M 0,2299.68 H 3134.16 V 0 H 0 Z"
         transform="translate(-2601.2275,-1234.8091)"
         id="path271" />
    </clipPath>
    <clipPath
       clipPathUnits="userSpaceOnUse"
       id="clipPath265">
      <path
         d="M 0,2299.68 H 3134.16 V 0 H 0 Z"
         transform="translate(-2922.4585,-1345.4973)"
         id="path265" />
    </clipPath>
    <clipPath
       clipPathUnits="userSpaceOnUse"
       id="clipPath267">
      <path
         d="M 0,2299.68 H 3134.16 V 0 H 0 Z"
         transform="translate(-2922.4585,-1339.554)"
         id="path267" />
    </clipPath>
    <clipPath
       clipPathUnits="userSpaceOnUse"
       id="clipPath269">
      <path
         d="M 0,2299.68 H 3134.16 V 0 H 0 Z"
         transform="translate(-2882.409,-1289.3962)"
         id="path269" />
    </clipPath>
    <clipPath
       clipPathUnits="userSpaceOnUse"
       id="clipPath873">
      <path
         d="M 0,2299.68 H 3134.16 V 0 H 0 Z"
         transform="translate(-2647.1638,-1407.7224)"
         id="path873" />
    </clipPath>
    <clipPath
       clipPathUnits="userSpaceOnUse"
       id="clipPath763">
      <path
         d="M 0,2299.68 H 3134.16 V 0 H 0 Z"
         transform="translate(-2736.7147,-1377.9586)"
         id="path763" />
    </clipPath>
    <clipPath
       clipPathUnits="userSpaceOnUse"
       id="clipPath749">
      <path
         d="M 0,2299.68 H 3134.16 V 0 H 0 Z"
         transform="translate(-2745.2581,-1392.1318)"
         id="path749" />
    </clipPath>
    <clipPath
       clipPathUnits="userSpaceOnUse"
       id="clipPath841">
      <path
         d="M 0,2299.68 H 3134.16 V 0 H 0 Z"
         transform="translate(-2806.5018,-1376.5413)"
         id="path841" />
    </clipPath>
    <clipPath
       clipPathUnits="userSpaceOnUse"
       id="clipPath825">
      <path
         d="M 0,2299.68 H 3134.16 V 0 H 0 Z"
         transform="translate(-2834.8087,-1362.3681)"
         id="path825" />
    </clipPath>
    <clipPath
       clipPathUnits="userSpaceOnUse"
       id="clipPath811">
      <path
         d="M 0,2299.68 H 3134.16 V 0 H 0 Z"
         transform="translate(-2843.3521,-1376.5413)"
         id="path811" />
    </clipPath>
    <clipPath
       clipPathUnits="userSpaceOnUse"
       id="clipPath1059">
      <path
         d="M 0,2299.68 H 3134.16 V 0 H 0 Z"
         transform="translate(-2843.3521,-1308.5098)"
         id="path1059" />
    </clipPath>
    <clipPath
       clipPathUnits="userSpaceOnUse"
       id="clipPath935">
      <path
         d="M 0,2299.68 H 3134.16 V 0 H 0 Z"
         transform="translate(-2745.2581,-1292.9193)"
         id="path935" />
    </clipPath>
    <clipPath
       clipPathUnits="userSpaceOnUse"
       id="clipPath1027">
      <path
         d="M 0,2299.68 H 3134.16 V 0 H 0 Z"
         transform="translate(-2610.3136,-1277.3287)"
         id="path1027" />
    </clipPath>
    <clipPath
       clipPathUnits="userSpaceOnUse"
       id="clipPath997">
      <path
         d="M 0,2299.68 H 3134.16 V 0 H 0 Z"
         transform="translate(-2647.1638,-1277.3287)"
         id="path997" />
    </clipPath>
  </defs>
  <g
     inkscape:label="Layer 1"
     inkscape:groupmode="layer"
     id="layer1"
     transform="translate(0,-42.260155)">
    <rect
       style="vector-effect:non-scaling-stroke;fill:#ffffff;stroke:#000000;stroke-width:0.264583;stroke-linecap:round;stroke-linejoin:round;-inkscape-stroke:hairline"
       id="rect6"
       width="210"
       height="127.92874"
       x="0"
       y="42.260155" />
    <path
       id="contour"
       clip-path="url(#clipPath271)"
       style="fill:none;stroke:#008000;stroke-width:1.0;stroke-linecap:round;stroke-linejoin:round;stroke-miterlimit:10;stroke-dasharray:none;stroke-opacity:1;vector-effect:non-scaling-stroke;-inkscape-stroke:hairline"
       transform="matrix(0.36956203,0,0,-0.35277776,63.431771,143.06462)"
       d="m -114.743 48.1892 l 12.701 -0.326253 l 12.636 -1.378 l 12.49 -2.422 l 12.264 -3.449 l 11.962 -4.455 l 11.582 -5.433 l 11.129 -6.376 l 10.606 -7.277 l 10.014 -8.135 l 7.30158 -6.97326 C -0.844341 0.920206 0.706085 0.282944 3.03986 0.590064 L 281.181 54.587 l 7.29123 2.03004 l 6.905 3.169 l 6.356 4.235 l 5.656 5.198 l 4.823 6.04 l 3.874 6.738 l 2.835 7.276 l 1.729 7.643 l 0.58077 7.82891 l -0.00022 5.94304 l -0.581 7.82812 l -1.728 7.643 l -2.835 7.277 l -3.875 6.738 l -4.822 6.04 l -5.657 5.198 l -6.356 4.234 l -6.905 3.17 l -7.29078 2.02983 l -278.749 54.1148 c -1.92064 0.28617 -2.73157 0.068 -3.6098 -0.65271 L -9.359 206.495 l -10.014 -8.135 l -10.605 -7.277 l -11.129 -6.376 l -11.583 -5.433 l -11.961 -4.455 l -12.265 -3.449 l -12.49 -2.421 l -12.636 -1.379 l -12.7008 -0.326 z"
       sodipodi:nodetypes="ccccccccccccccccccccccccccccccccccccccccccccc"
       inkscape:label="contour" />
    <path
       id="path748"
       d="m 0,0 -0.493,-2.908 -1.42,-2.558 -2.174,-1.899 -2.668,-1.01 h -2.839 l -2.668,1.01 -2.175,1.899 -1.419,2.558 -0.493,2.908 0.493,2.909 1.419,2.557 2.175,1.899 2.668,1.01 h 2.839 L -4.087,7.365 -1.913,5.466 -0.493,2.909 0,0"
       style="fill:none;stroke:#000000;stroke-width:0.709;stroke-linecap:round;stroke-linejoin:round;stroke-miterlimit:10;stroke-dasharray:none;stroke-opacity:1"
       transform="matrix(0.35277776,0,0,-0.35277776,113.37503,87.564672)"
       clip-path="url(#clipPath749)" />
    <path
       id="path810"
       d="m 0,0 -0.493,-2.908 -1.419,-2.558 -2.175,-1.899 -2.668,-1.01 h -2.839 l -2.668,1.01 -2.175,1.899 -1.419,2.558 -0.493,2.908 0.493,2.909 1.419,2.557 2.175,1.899 2.668,1.01 h 2.839 L -4.087,7.365 -1.912,5.466 -0.493,2.909 0,0"
       style="fill:none;stroke:#000000;stroke-width:0.709;stroke-linecap:round;stroke-linejoin:round;stroke-miterlimit:10;stroke-dasharray:none;stroke-opacity:1"
       transform="matrix(0.35277776,0,0,-0.35277776,149.03875,93.064645)"
       clip-path="url(#clipPath811)" />
    <path
       id="path872"
       d="m 0,0 -0.493,-2.909 -1.419,-2.557 -2.175,-1.899 -2.668,-1.01 h -2.839 l -2.668,1.01 -2.175,1.899 -1.419,2.557 -0.493,2.909 0.493,2.909 1.419,2.557 2.175,1.899 2.668,1.01 h 2.839 L -4.087,7.365 -1.912,5.466 -0.493,2.909 0,0"
       style="fill:none;stroke:#000000;stroke-width:0.709;stroke-linecap:round;stroke-linejoin:round;stroke-miterlimit:10;stroke-dasharray:none;stroke-opacity:1"
       transform="matrix(0.35277776,0,0,-0.35277776,77.711202,82.064646)"
       clip-path="url(#clipPath873)" />
    <path
       id="path934"
       d="m 0,0 -0.493,2.908 -1.42,2.558 -2.174,1.899 -2.668,1.01 H -9.594 L -12.262,7.365 -14.437,5.466 -15.856,2.908 -16.349,0 l 0.493,-2.909 1.419,-2.557 2.175,-1.899 2.668,-1.01 h 2.839 l 2.668,1.01 2.174,1.899 1.42,2.557 L 0,0"
       style="fill:none;stroke:#000000;stroke-width:0.709;stroke-linecap:round;stroke-linejoin:round;stroke-miterlimit:10;stroke-dasharray:none;stroke-opacity:1"
       transform="matrix(0.35277776,0,0,-0.35277776,113.37503,122.56463)"
       clip-path="url(#clipPath935)" />
    <path
       id="path996"
       d="m 0,0 -0.493,2.908 -1.419,2.558 -2.175,1.899 -2.668,1.01 H -9.594 L -12.262,7.365 -14.437,5.466 -15.856,2.908 -16.349,0 l 0.493,-2.909 1.419,-2.557 2.175,-1.899 2.668,-1.01 h 2.839 l 2.668,1.01 2.175,1.899 1.419,2.557 L 0,0"
       style="fill:none;stroke:#000000;stroke-width:0.709;stroke-linecap:round;stroke-linejoin:round;stroke-miterlimit:10;stroke-dasharray:none;stroke-opacity:1"
       transform="matrix(0.35277776,0,0,-0.35277776,77.711202,128.06465)"
       clip-path="url(#clipPath997)" />
    <path
       id="path1058"
       d="m 0,0 -0.493,2.909 -1.419,2.557 -2.175,1.899 -2.668,1.01 H -9.594 L -12.262,7.365 -14.437,5.466 -15.856,2.909 -16.349,0 l 0.493,-2.908 1.419,-2.558 2.175,-1.899 2.668,-1.01 h 2.839 l 2.668,1.01 2.175,1.899 1.419,2.558 L 0,0"
       style="fill:none;stroke:#000000;stroke-width:0.709;stroke-linecap:round;stroke-linejoin:round;stroke-miterlimit:10;stroke-dasharray:none;stroke-opacity:1"
       transform="matrix(0.35277776,0,0,-0.35277776,149.03875,117.06465)"
       clip-path="url(#clipPath1059)" />
    <path
       style="vector-effect:non-scaling-stroke;fill:none;stroke:#008000;stroke-width:1.0;stroke-linecap:round;stroke-linejoin:round;-inkscape-stroke:hairline;stroke-dasharray:none"
       d="m 63.113253,58.552792 0.07839,94.587028"
       id="transition"
       sodipodi:nodetypes="cc"
       inkscape:label="transition" />
    <path
       id="h3_0_4000"
       style="vector-effect:non-scaling-stroke;fill:none;stroke:#008000;stroke-width:1.0;stroke-linecap:round;stroke-linejoin:round;-inkscape-stroke:hairline;stroke-dasharray:none"
       d="M 151.155 93.0646 a 5 5 0 0 1 -5 5 a 5 5 0 0 1 -5 -5 a 5 5 0 0 1 5 -5 a 5 5 0 0 1 5 5 z"
       inkscape:label="h3_0_4000" />
    <path
       id="h2_0_4000"
       style="vector-effect:non-scaling-stroke;fill:none;stroke:#008000;stroke-width:1.0;stroke-linecap:round;stroke-linejoin:round;-inkscape-stroke:hairline;stroke-dasharray:none"
       d="M 115.491 87.5647 a 5 5 0 0 1 -5 5 a 5 5 0 0 1 -5 -5 a 5 5 0 0 1 5 -5 a 5 5 0 0 1 5 5 z"
       inkscape:label="h2_0_4000" />
    <path
       id="h1_0_4000"
       style="vector-effect:non-scaling-stroke;fill:none;stroke:#008000;stroke-width:1.0;stroke-linecap:round;stroke-linejoin:round;-inkscape-stroke:hairline;stroke-dasharray:none"
       d="M 79.8274 82.0646 a 5 5 0 0 1 -5 5 a 5 5 0 0 1 -5 -5 a 5 5 0 0 1 5 -5 a 5 5 0 0 1 5 5 z"
       inkscape:label="h1_0_4000" />
    <path
       id="h6_0_4000"
       style="vector-effect:non-scaling-stroke;fill:none;stroke:#008000;stroke-width:1.0;stroke-linecap:round;stroke-linejoin:round;-inkscape-stroke:hairline;stroke-dasharray:none"
       d="M 79.8274 128.065 a 5 5 0 0 1 -5 5 a 5 5 0 0 1 -5 -5 a 5 5 0 0 1 5 -5 a 5 5 0 0 1 5 5 z"
       inkscape:label="h6_0_4000" />
    <path
       id="h5_0_4000"
       style="vector-effect:non-scaling-stroke;fill:none;stroke:#008000;stroke-width:1.0;stroke-linecap:round;stroke-linejoin:round;-inkscape-stroke:hairline;stroke-dasharray:none"
       d="M 115.491 122.565 a 5 5 0 0 1 -5 5 a 5 5 0 0 1 -5 -5 a 5 5 0 0 1 5 -5 a 5 5 0 0 1 5 5 z"
       inkscape:label="h5_0_4000" />
    <path
       id="h4_0_4000"
       style="vector-effect:non-scaling-stroke;fill:none;stroke:#008000;stroke-width:1.0;stroke-linecap:round;stroke-linejoin:round;-inkscape-stroke:hairline;stroke-dasharray:none"
       d="M 151.155 117.065 a 5 5 0 0 1 -5 5 a 5 5 0 0 1 -5 -5 a 5 5 0 0 1 5 -5 a 5 5 0 0 1 5 5 z"
       inkscape:label="h4_0_4000" />
    <path
       style="vector-effect:non-scaling-stroke;fill:none;stroke:#008000;stroke-width:1.0;stroke-linecap:round;stroke-linejoin:round;-inkscape-stroke:hairline;stroke-dasharray:none"
       d="m 7.5922927,105.84631 47.8528523,0"
       id="midline"
       sodipodi:nodetypes="cc"
       inkscape:label="midline" />
  </g>
</svg>
