<?xml version="1.0" encoding="UTF-8" standalone="no"?>
<!-- Created with Inkscape (http://www.inkscape.org/) -->

<svg
   width="127.22194mm"
   height="74.258972mm"
   viewBox="0 0 127.22194 74.258971"
   version="1.1"
   id="svg1"
   inkscape:version="1.3.2 (091e20ef0f, 2023-11-25)"
   sodipodi:docname="inlays.svg"
   xmlns:inkscape="http://www.inkscape.org/namespaces/inkscape"
   xmlns:sodipodi="http://sodipodi.sourceforge.net/DTD/sodipodi-0.dtd"
   xmlns="http://www.w3.org/2000/svg"
   xmlns:svg="http://www.w3.org/2000/svg">
  <sodipodi:namedview
     id="namedview1"
     pagecolor="#ffffff"
     bordercolor="#000000"
     borderopacity="0.25"
     inkscape:showpageshadow="2"
     inkscape:pageopacity="0.0"
     inkscape:pagecheckerboard="0"
     inkscape:deskcolor="#d1d1d1"
     inkscape:document-units="mm"
     inkscape:zoom="0.98087917"
     inkscape:cx="378.74186"
     inkscape:cy="144.76809"
     inkscape:window-width="1920"
     inkscape:window-height="1021"
     inkscape:window-x="1920"
     inkscape:window-y="0"
     inkscape:window-maximized="1"
     inkscape:current-layer="layer1" />
  <defs
     id="defs1">
    <clipPath
       clipPathUnits="userSpaceOnUse"
       id="clipPath263">
      <path
         d="M 0,2299.68 H 3134.16 V 0 H 0 Z"
         transform="translate(-2882.409,-1395.6549)"
         id="path263" />
    </clipPath>
    <clipPath
       clipPathUnits="userSpaceOnUse"
       id="clipPath253">
      <path
         d="M 0,2299.68 H 3134.16 V 0 H 0 Z"
         transform="translate(-2601.2275,-1450.2421)"
         id="path253" />
    </clipPath>
    <clipPath
       clipPathUnits="userSpaceOnUse"
       id="clipPath235">
      <path
         d="M 0,2299.68 H 3134.16 V 0 H 0 Z"
         transform="translate(-2486.485,-1402.0531)"
         id="path235" />
    </clipPath>
    <clipPath
       clipPathUnits="userSpaceOnUse"
       id="clipPath241">
      <path
         d="M 0,2299.68 H 3134.16 V 0 H 0 Z"
         transform="translate(-2486.485,-1333.5255)"
         id="path241" />
    </clipPath>
    <clipPath
       clipPathUnits="userSpaceOnUse"
       id="clipPath247">
      <path
         d="M 0,2299.68 H 3134.16 V 0 H 0 Z"
         transform="translate(-2486.485,-1282.998)"
         id="path247" />
    </clipPath>
    <clipPath
       clipPathUnits="userSpaceOnUse"
       id="clipPath271">
      <path
         d="M 0,2299.68 H 3134.16 V 0 H 0 Z"
         transform="translate(-2601.2275,-1234.8091)"
         id="path271" />
    </clipPath>
    <clipPath
       clipPathUnits="userSpaceOnUse"
       id="clipPath265">
      <path
         d="M 0,2299.68 H 3134.16 V 0 H 0 Z"
         transform="translate(-2922.4585,-1345.4973)"
         id="path265" />
    </clipPath>
    <clipPath
       clipPathUnits="userSpaceOnUse"
       id="clipPath267">
      <path
         d="M 0,2299.68 H 3134.16 V 0 H 0 Z"
         transform="translate(-2922.4585,-1339.554)"
         id="path267" />
    </clipPath>
    <clipPath
       clipPathUnits="userSpaceOnUse"
       id="clipPath269">
      <path
         d="M 0,2299.68 H 3134.16 V 0 H 0 Z"
         transform="translate(-2882.409,-1289.3962)"
         id="path269" />
    </clipPath>
    <clipPath
       clipPathUnits="userSpaceOnUse"
       id="clipPath873">
      <path
         d="M 0,2299.68 H 3134.16 V 0 H 0 Z"
         transform="translate(-2647.1638,-1407.7224)"
         id="path873" />
    </clipPath>
    <clipPath
       clipPathUnits="userSpaceOnUse"
       id="clipPath763">
      <path
         d="M 0,2299.68 H 3134.16 V 0 H 0 Z"
         transform="translate(-2736.7147,-1377.9586)"
         id="path763" />
    </clipPath>
    <clipPath
       clipPathUnits="userSpaceOnUse"
       id="clipPath749">
      <path
         d="M 0,2299.68 H 3134.16 V 0 H 0 Z"
         transform="translate(-2745.2581,-1392.1318)"
         id="path749" />
    </clipPath>
    <clipPath
       clipPathUnits="userSpaceOnUse"
       id="clipPath841">
      <path
         d="M 0,2299.68 H 3134.16 V 0 H 0 Z"
         transform="translate(-2806.5018,-1376.5413)"
         id="path841" />
    </clipPath>
    <clipPath
       clipPathUnits="userSpaceOnUse"
       id="clipPath825">
      <path
         d="M 0,2299.68 H 3134.16 V 0 H 0 Z"
         transform="translate(-2834.8087,-1362.3681)"
         id="path825" />
    </clipPath>
    <clipPath
       clipPathUnits="userSpaceOnUse"
       id="clipPath811">
      <path
         d="M 0,2299.68 H 3134.16 V 0 H 0 Z"
         transform="translate(-2843.3521,-1376.5413)"
         id="path811" />
    </clipPath>
    <clipPath
       clipPathUnits="userSpaceOnUse"
       id="clipPath1059">
      <path
         d="M 0,2299.68 H 3134.16 V 0 H 0 Z"
         transform="translate(-2843.3521,-1308.5098)"
         id="path1059" />
    </clipPath>
    <clipPath
       clipPathUnits="userSpaceOnUse"
       id="clipPath935">
      <path
         d="M 0,2299.68 H 3134.16 V 0 H 0 Z"
         transform="translate(-2745.2581,-1292.9193)"
         id="path935" />
    </clipPath>
    <clipPath
       clipPathUnits="userSpaceOnUse"
       id="clipPath1027">
      <path
         d="M 0,2299.68 H 3134.16 V 0 H 0 Z"
         transform="translate(-2610.3136,-1277.3287)"
         id="path1027" />
    </clipPath>
    <clipPath
       clipPathUnits="userSpaceOnUse"
       id="clipPath997">
      <path
         d="M 0,2299.68 H 3134.16 V 0 H 0 Z"
         transform="translate(-2647.1638,-1277.3287)"
         id="path997" />
    </clipPath>
  </defs>
  <g
     inkscape:label="Layer 1"
     inkscape:groupmode="layer"
     id="layer1"
     transform="translate(0,-42.260155)">
    <rect
       style="vector-effect:non-scaling-stroke;fill:#ffffff;stroke:#000000;stroke-width:0.1569;stroke-linecap:round;stroke-linejoin:round;-inkscape-stroke:hairline"
       id="rect6"
       width="127.22194"
       height="74.258972"
       x="0"
       y="42.260155" />
    <path
       id="f3_"
       style="vector-effect:non-scaling-stroke;fill:none;stroke:#008000;stroke-width:0.75;stroke-linecap:round;stroke-linejoin:round;stroke-dasharray:none;-inkscape-stroke:hairline"
       d="m 88.41561,57.716152 a 3,3 0 0 1 -3,3 3,3 0 0 1 -3,-3 3,3 0 0 1 3,-3 3,3 0 0 1 3,3 z"
       inkscape:label="f3_" />
    <path
       id="f5_"
       style="vector-effect:non-scaling-stroke;fill:none;stroke:#008000;stroke-width:0.75;stroke-linecap:round;stroke-linejoin:round;stroke-dasharray:none;-inkscape-stroke:hairline"
       d="m 77.12342,57.716152 a 3,3 0 0 1 -3,3 3,3 0 0 1 -3,-3 3,3 0 0 1 3,-3 3,3 0 0 1 3,3 z"
       inkscape:label="f5_" />
    <path
       id="f7_"
       style="vector-effect:non-scaling-stroke;fill:none;stroke:#008000;stroke-width:0.75;stroke-linecap:round;stroke-linejoin:round;stroke-dasharray:none;-inkscape-stroke:hairline"
       d="m 54.53902,57.716152 a 3,3 0 0 1 -3,3 3,3 0 0 1 -3,-3 3,3 0 0 1 3,-3 3,3 0 0 1 3,3 z"
       inkscape:label="f7_" />
    <path
       id="f9_"
       style="vector-effect:non-scaling-stroke;fill:none;stroke:#008000;stroke-width:0.75;stroke-linecap:round;stroke-linejoin:round;stroke-dasharray:none;-inkscape-stroke:hairline"
       d="m 111,57.716152 a 3,3 0 0 1 -3,3 3,3 0 0 1 -3,-3 3,3 0 0 1 3,-3 3,3 0 0 1 3,3 z"
       inkscape:label="f9_" />
    <path
       id="f13_"
       style="vector-effect:non-scaling-stroke;fill:none;stroke:#008000;stroke-width:0.75;stroke-linecap:round;stroke-linejoin:round;stroke-dasharray:none;-inkscape-stroke:hairline"
       d="m 99.70781,57.716152 a 3,3 0 0 1 -3,3 3,3 0 0 1 -3,-3 3,3 0 0 1 3,-3 3,3 0 0 1 3,3 z"
       inkscape:label="f13_" />
    <path
       id="f15_"
       style="vector-effect:non-scaling-stroke;fill:none;stroke:#008000;stroke-width:0.75;stroke-linecap:round;stroke-linejoin:round;stroke-dasharray:none;-inkscape-stroke:hairline"
       d="m 20.662437,57.716152 a 3,3 0 0 1 -3,3 3,3 0 0 1 -3,-3 3,3 0 0 1 3,-3 3,3 0 0 1 3,3 z"
       inkscape:label="f15_" />
    <path
       id="f17_"
       style="vector-effect:non-scaling-stroke;fill:none;stroke:#008000;stroke-width:0.75;stroke-linecap:round;stroke-linejoin:round;stroke-dasharray:none;-inkscape-stroke:hairline"
       d="m 31.95463,57.716152 a 3,3 0 0 1 -3,3 3,3 0 0 1 -3,-3 3,3 0 0 1 3,-3 3,3 0 0 1 3,3 z"
       inkscape:label="f17_" />
    <path
       id="f19_"
       style="vector-effect:non-scaling-stroke;fill:none;stroke:#008000;stroke-width:0.75;stroke-linecap:round;stroke-linejoin:round;stroke-dasharray:none;-inkscape-stroke:hairline"
       d="m 43.24683,57.716152 a 3,3 0 0 1 -3,3 3,3 0 0 1 -3,-3 3,3 0 0 1 3,-3 3,3 0 0 1 3,3 z"
       inkscape:label="f19_" />
    <path
       id="f21_"
       style="vector-effect:non-scaling-stroke;fill:none;stroke:#008000;stroke-width:0.75;stroke-linecap:round;stroke-linejoin:round;stroke-dasharray:none;-inkscape-stroke:hairline"
       d="m 65.83122,57.716152 a 3,3 0 0 1 -3,3 3,3 0 0 1 -3,-3 3,3 0 0 1 3,-3 3,3 0 0 1 3,3 z"
       inkscape:label="f21_" />
    <path
       id="f12_"
       style="vector-effect:non-scaling-stroke;fill:none;stroke:#008000;stroke-width:1;stroke-linecap:round;stroke-linejoin:round;stroke-dasharray:none;-inkscape-stroke:hairline"
       inkscape:label="f12_"
       d="m 66.61097,97.846541 a 3,3 0 0 1 -3,2.999999 3,3 0 0 1 -3,-2.999999 3,3 0 0 1 3,-3 3,3 0 0 1 3,3 z m 0,-15.4569 a 3,3 0 0 1 -3,3 3,3 0 0 1 -3,-3 3,3 0 0 1 3,-3 3,3 0 0 1 3,3 z" />
  </g>
</svg>
