<?xml version="1.0" encoding="UTF-8" standalone="no"?>
<!-- Created with Inkscape (http://www.inkscape.org/) -->

<svg
   xmlns:dc="http://purl.org/dc/elements/1.1/"
   xmlns:cc="http://creativecommons.org/ns#"
   xmlns:rdf="http://www.w3.org/1999/02/22-rdf-syntax-ns#"
   xmlns:svg="http://www.w3.org/2000/svg"
   xmlns="http://www.w3.org/2000/svg"
   xmlns:xlink="http://www.w3.org/1999/xlink"
   xmlns:sodipodi="http://sodipodi.sourceforge.net/DTD/sodipodi-0.dtd"
   xmlns:inkscape="http://www.inkscape.org/namespaces/inkscape"
   width="128"
   height="128"
   viewBox="0 0 33.866666 33.866668"
   version="1.1"
   id="svg8"
   inkscape:version="0.92.4 (unknown)"
   sodipodi:docname="create_instrument.svg">
  <defs
     id="defs2">
    <linearGradient
       inkscape:collect="always"
       id="linearGradient819">
      <stop
         style="stop-color:#164450;stop-opacity:1"
         offset="0"
         id="stop815" />
      <stop
         id="stop823"
         offset="0.45247868"
         style="stop-color:#afe9dd;stop-opacity:1" />
      <stop
         style="stop-color:#164450;stop-opacity:1"
         offset="1"
         id="stop817" />
    </linearGradient>
    <linearGradient
       inkscape:collect="always"
       xlink:href="#linearGradient819"
       id="linearGradient821"
       x1="16.803699"
       y1="293.0351"
       x2="9.6290865"
       y2="278.30826"
       gradientUnits="userSpaceOnUse" />
  </defs>
  <sodipodi:namedview
     id="base"
     pagecolor="#ffffff"
     bordercolor="#666666"
     borderopacity="1.0"
     inkscape:pageopacity="0.0"
     inkscape:pageshadow="2"
     inkscape:zoom="1.401353"
     inkscape:cx="35.127807"
     inkscape:cy="-79.488837"
     inkscape:document-units="px"
     inkscape:current-layer="layer1"
     showgrid="false"
     units="px"
     inkscape:window-width="1920"
     inkscape:window-height="1023"
     inkscape:window-x="0"
     inkscape:window-y="0"
     inkscape:window-maximized="1" />
  <metadata
     id="metadata5">
    <rdf:RDF>
      <cc:Work
         rdf:about="">
        <dc:format>image/svg+xml</dc:format>
        <dc:type
           rdf:resource="http://purl.org/dc/dcmitype/StillImage" />
        <dc:title />
      </cc:Work>
    </rdf:RDF>
  </metadata>
  <g
     inkscape:label="Layer 1"
     inkscape:groupmode="layer"
     id="layer1"
     transform="translate(0,-263.13332)">
    <path
       style="fill:#008080;stroke:#008080;stroke-width:1.55000007;stroke-miterlimit:4;stroke-dasharray:none"
       d="M 4.722871,290.61645 C 0.58075089,286.72884 0.03734033,282.4298 3.5881136,281.639 c 0.6013908,-0.13393 1.7820445,-0.2514 2.6236914,-0.26104 1.7745474,-0.0203 2.5688095,-0.14502 2.8270039,-0.44402 0.1012333,-0.11721 0.2168464,-0.66105 0.2569479,-1.20853 0.1090392,-1.48859 0.5021953,-2.0819 1.5320752,-2.31202 1.043168,-0.2331 2.435489,0.16867 3.99854,1.15383 l 1.095303,0.69032 2.412584,-2.5642 c 7.291236,-7.74946 7.348452,-7.81711 7.239048,-8.5614 -0.05486,-0.3731 -0.277395,-0.8406 -0.494547,-1.03895 -0.533208,-0.48692 -0.1002,-0.76756 0.447095,-0.28977 0.330489,0.28858 0.438334,0.28677 0.695925,-0.0118 0.237045,-0.27445 0.229296,-0.3614 -0.0348,-0.39124 -0.530867,-0.0599 -0.660858,-0.24181 -0.393932,-0.55078 0.20192,-0.2338 0.301105,-0.22114 0.559501,0.0715 0.340554,0.38556 0.465325,0.31367 0.617566,-0.35547 0.04891,-0.21498 0.0268,-0.33506 -0.04923,-0.26681 -0.220673,0.19828 -0.718756,-0.28239 -0.525065,-0.50669 0.249484,-0.28888 0.521929,-0.21668 0.708219,0.18774 0.134793,0.29261 0.173193,0.29948 0.239099,0.0425 0.273524,-1.06339 0.308904,-1.08625 1.040406,-0.67203 0.889952,0.50391 2.411504,1.66239 3.120753,2.37553 0.57855,0.58191 0.562501,0.62142 -0.434926,1.07337 -0.192423,0.0872 -0.149512,0.16888 0.18162,0.3462 0.326969,0.17493 0.386767,0.28618 0.247071,0.44791 -0.2487,0.28796 -0.528445,0.23964 -0.694089,-0.11987 -0.101968,-0.22115 -0.240453,-0.23263 -0.561832,-0.0463 -0.234623,0.1361 -0.401986,0.31538 -0.371959,0.39834 0.03008,0.0828 0.104802,0.0929 0.166082,0.0216 0.06137,-0.0711 0.238009,-0.0328 0.392592,0.085 0.174878,0.13303 0.190785,0.31847 0.04206,0.49068 -0.260936,0.30214 -0.477838,0.21671 -0.648931,-0.25558 -0.08569,-0.23642 -0.176819,-0.22682 -0.410392,0.0437 -0.311513,0.36072 -0.220253,0.78873 0.140674,0.66035 0.159111,-0.0564 0.234431,-0.003 0.329137,0.23677 0.16232,0.41081 -0.340502,0.56465 -0.707198,0.21638 -0.17344,-0.16462 -0.604099,-0.25778 -1.076424,-0.23186 -0.772975,0.0419 -0.812275,0.0755 -2.159179,1.84202 -0.754521,0.98962 -2.997866,3.78122 -4.985192,6.20358 -3.976928,4.84749 -3.943811,4.78156 -3.006696,5.98222 0.686209,0.87922 0.74435,0.91205 1.946019,1.09926 1.218058,0.18981 1.221255,0.19149 1.413597,0.72236 0.219676,0.60636 -0.417919,1.16219 -1.671255,1.45684 -1.086987,0.25556 -1.468879,0.46074 -1.859536,0.99905 -0.09957,0.137 -0.01245,1.10449 0.19335,2.14983 0.489266,2.48485 0.33847,3.50944 -0.654996,4.4504 -1.610335,1.52521 -4.20818,1.29589 -7.6403941,-0.67447 -1.5568345,-0.89397 -3.5131983,-2.35936 -4.9506949,-3.70834 z"
       id="path854"
       inkscape:connector-curvature="0" />
    <path
       inkscape:connector-curvature="0"
       id="path2964"
       d="M 4.722871,290.61645 C 0.58075089,286.72884 0.03734033,282.4298 3.5881136,281.639 c 0.6013908,-0.13393 1.7820445,-0.2514 2.6236914,-0.26104 1.7745474,-0.0203 2.5688095,-0.14502 2.8270039,-0.44402 0.1012333,-0.11721 0.2168464,-0.66105 0.2569479,-1.20853 0.1090392,-1.48859 0.5021953,-2.0819 1.5320752,-2.31202 1.043168,-0.2331 2.435489,0.16867 3.99854,1.15383 l 1.095303,0.69032 2.412584,-2.5642 c 7.291236,-7.74946 7.348452,-7.81711 7.239048,-8.5614 -0.05486,-0.3731 -0.277395,-0.8406 -0.494547,-1.03895 -0.533208,-0.48692 -0.1002,-0.76756 0.447095,-0.28977 0.330489,0.28858 0.438334,0.28677 0.695925,-0.0118 0.237045,-0.27445 0.229296,-0.3614 -0.0348,-0.39124 -0.530867,-0.0599 -0.660858,-0.24181 -0.393932,-0.55078 0.20192,-0.2338 0.301105,-0.22114 0.559501,0.0715 0.340554,0.38556 0.465325,0.31367 0.617566,-0.35547 0.04891,-0.21498 0.0268,-0.33506 -0.04923,-0.26681 -0.220673,0.19828 -0.718756,-0.28239 -0.525065,-0.50669 0.249484,-0.28888 0.521929,-0.21668 0.708219,0.18774 0.134793,0.29261 0.173193,0.29948 0.239099,0.0425 0.273524,-1.06339 0.308904,-1.08625 1.040406,-0.67203 0.889952,0.50391 2.411504,1.66239 3.120753,2.37553 0.57855,0.58191 0.562501,0.62142 -0.434926,1.07337 -0.192423,0.0872 -0.149512,0.16888 0.18162,0.3462 0.326969,0.17493 0.386767,0.28618 0.247071,0.44791 -0.2487,0.28796 -0.528445,0.23964 -0.694089,-0.11987 -0.101968,-0.22115 -0.240453,-0.23263 -0.561832,-0.0463 -0.234623,0.1361 -0.401986,0.31538 -0.371959,0.39834 0.03008,0.0828 0.104802,0.0929 0.166082,0.0216 0.06137,-0.0711 0.238009,-0.0328 0.392592,0.085 0.174878,0.13303 0.190785,0.31847 0.04206,0.49068 -0.260936,0.30214 -0.477838,0.21671 -0.648931,-0.25558 -0.08569,-0.23642 -0.176819,-0.22682 -0.410392,0.0437 -0.311513,0.36072 -0.220253,0.78873 0.140674,0.66035 0.159111,-0.0564 0.234431,-0.003 0.329137,0.23677 0.16232,0.41081 -0.340502,0.56465 -0.707198,0.21638 -0.17344,-0.16462 -0.604099,-0.25778 -1.076424,-0.23186 -0.772975,0.0419 -0.812275,0.0755 -2.159179,1.84202 -0.754521,0.98962 -2.997866,3.78122 -4.985192,6.20358 -3.976928,4.84749 -3.943811,4.78156 -3.006696,5.98222 0.686209,0.87922 0.74435,0.91205 1.946019,1.09926 1.218058,0.18981 1.221255,0.19149 1.413597,0.72236 0.219676,0.60636 -0.417919,1.16219 -1.671255,1.45684 -1.086987,0.25556 -1.468879,0.46074 -1.859536,0.99905 -0.09957,0.137 -0.01245,1.10449 0.19335,2.14983 0.489266,2.48485 0.33847,3.50944 -0.654996,4.4504 -1.610335,1.52521 -4.20818,1.29589 -7.6403941,-0.67447 -1.5568345,-0.89397 -3.5131983,-2.35936 -4.9506949,-3.70834 z"
       style="fill:#ffffff;stroke:#ffffff;stroke-width:0.30000001;stroke-miterlimit:4;stroke-dasharray:none" />
    <path
       style="fill:url(#linearGradient821);stroke:none;stroke-width:0.89958334;stroke-miterlimit:4;stroke-dasharray:none;fill-opacity:1"
       d="m 28.218823,264.84155 c -0.0059,0.0535 -0.05831,0.13202 -0.164006,0.5428 -0.01855,0.0723 -0.03325,0.1326 -0.06826,0.20524 -0.01748,0.0361 -0.03468,0.0763 -0.09494,0.13023 -0.02451,0.0219 -0.143149,0.0157 -0.197106,0.0388 -0.008,0.0451 0.0027,0.1083 -0.009,0.15941 -0.08024,0.35254 -0.0485,0.58585 -0.395347,0.78366 -0.03721,0.0212 -0.138885,-0.0326 -0.198791,-0.0247 0.0021,0.0131 0.02227,0.0378 0.02336,0.0491 0.01859,0.20503 -0.04076,0.26586 -0.08533,0.33987 -0.0446,0.0741 -0.0973,0.14063 -0.16251,0.21609 -0.142806,0.1653 -0.217148,0.35068 -0.646503,0.35773 -0.05101,9.6e-4 -0.105663,-0.0404 -0.162405,-0.0501 0.1125,0.24267 0.200196,0.4917 0.236275,0.73714 0.02849,0.19372 0.0437,0.49294 -0.08584,0.78209 -0.129551,0.28913 -0.367653,0.61938 -0.830497,1.16664 -0.925664,1.09449 -2.760721,3.0447 -6.406353,6.91948 l -2.412361,2.56535 c -0.168847,0.17999 -0.5375,0.15707 -0.87224,-0.0542 l -1.096363,-0.69227 c -1.402094,-0.88379 -2.495849,-1.17531 -3.324294,-0.99018 -0.437739,0.0978 -0.68702,0.24499 -0.879568,0.53536 -0.192543,0.29038 -0.316148,0.74768 -0.368358,1.46043 -0.02141,0.29211 -0.05942,0.58021 -0.1099049,0.81878 -0.05049,0.23855 -0.05466,0.39061 -0.2237106,0.58635 -0.4379966,0.50715 -1.3513129,0.55642 -3.1557229,0.57702 -0.7866669,0.008 -1.9793466,0.12908 -2.5033285,0.24571 -1.5789445,0.35165 -2.2215138,1.44702 -2.0347993,2.92457 0.1867237,1.47758 1.2378469,3.3426 3.1607515,5.14736 1.3536412,1.27043 3.2771321,2.70655 4.7111798,3.53004 1.6131339,0.92603 2.9601559,1.40515 4.0708279,1.50335 1.110681,0.0981 2.022006,-0.17178 2.758396,-0.86926 0.920286,-0.87165 1.041711,-1.6683 0.56219,-4.10363 -0.106373,-0.54026 -0.182257,-1.05838 -0.219067,-1.47134 -0.01841,-0.20648 -0.0291,-0.38596 -0.02581,-0.53813 0.0033,-0.15214 -0.03571,-0.25243 0.10407,-0.44476 0.425221,-0.58596 0.959886,-0.87175 2.079451,-1.13495 0.57669,-0.13568 0.99241,-0.33171 1.216095,-0.52685 0.195325,-0.17041 0.189149,-0.28792 0.182687,-0.34795 -0.0944,-0.0163 -0.105769,-0.0189 -0.509067,-0.0818 -0.60656,-0.0944 -1.010023,-0.12747 -1.53767,-0.42599 -0.527628,-0.29854 -0.802761,-0.67958 -1.150829,-1.12556 -0.229452,-0.29388 -0.506211,-0.62123 -0.631988,-1.03323 -0.12577,-0.41198 -0.0471,-0.7701 0.158401,-1.17923 0.411007,-0.81826 1.393933,-1.99498 3.382242,-4.41855 1.985806,-2.4205 4.234099,-5.21591 4.979369,-6.19339 0.673756,-0.88366 1.010617,-1.33629 1.339788,-1.61727 0.329171,-0.28095 -2.847325,2.92067 1.131817,-0.37124 l 4.75e-4,0.003 c 0.259313,-0.0146 0.513161,0.007 0.770808,0.0552 -0.0623,-0.35914 0.04447,-0.5787 0.241471,-0.80683 0.06417,-0.0742 0.120651,-0.13596 0.187779,-0.19165 0.04691,-0.0391 0.142727,-0.0716 0.237227,-0.10327 0.01069,-0.0195 -0.0064,-0.0851 0.002,-0.10225 0.03583,-0.0725 0.07891,-0.12424 0.126907,-0.17563 0.09598,-0.10297 0.218325,-0.19684 0.363654,-0.28118 0.171928,-0.0998 0.289765,-0.19008 0.632428,-0.17633 0.0032,-0.10976 -0.04185,-0.25523 -0.0015,-0.30636 0.07567,-0.0956 0.154071,-0.13012 0.228687,-0.16391 0.378365,-0.17143 0.433088,-0.22358 0.484839,-0.23793 -0.563923,-0.56327 -2.106351,-1.73835 -2.810061,-2.13955 z m 1.826207,5.62111 c -0.03389,0.0118 -0.128851,-0.0271 -0.169643,-0.016 0.01798,0.003 0.05473,0.0247 0.0677,0.0255 0.09689,0.003 0.109952,-0.0118 0.102091,-0.008 z"
       id="path2966"
       inkscape:connector-curvature="0"
       sodipodi:nodetypes="ccccccccccccccccccccsccccccscccsccccccccccscscscccccccccccccccccccc" />
  </g>
</svg>
