<?xml version="1.0" encoding="UTF-8" standalone="no"?>
<!-- Created with Inkscape (http://www.inkscape.org/) -->

<svg
   xmlns:dc="http://purl.org/dc/elements/1.1/"
   xmlns:cc="http://creativecommons.org/ns#"
   xmlns:rdf="http://www.w3.org/1999/02/22-rdf-syntax-ns#"
   xmlns:svg="http://www.w3.org/2000/svg"
   xmlns="http://www.w3.org/2000/svg"
   xmlns:sodipodi="http://sodipodi.sourceforge.net/DTD/sodipodi-0.dtd"
   xmlns:inkscape="http://www.inkscape.org/namespaces/inkscape"
   width="128"
   height="128"
   viewBox="0 0 33.866666 33.866668"
   version="1.1"
   id="svg8"
   inkscape:version="0.92.4 (unknown)"
   sodipodi:docname="create_neck.svg">
  <defs
     id="defs2" />
  <sodipodi:namedview
     id="base"
     pagecolor="#ffffff"
     bordercolor="#666666"
     borderopacity="1.0"
     inkscape:pageopacity="0.0"
     inkscape:pageshadow="2"
     inkscape:zoom="2.2014223"
     inkscape:cx="-60.062312"
     inkscape:cy="-5.1137907"
     inkscape:document-units="px"
     inkscape:current-layer="layer1"
     showgrid="false"
     units="px"
     inkscape:window-width="1920"
     inkscape:window-height="1023"
     inkscape:window-x="0"
     inkscape:window-y="0"
     inkscape:window-maximized="1" />
  <metadata
     id="metadata5">
    <rdf:RDF>
      <cc:Work
         rdf:about="">
        <dc:format>image/svg+xml</dc:format>
        <dc:type
           rdf:resource="http://purl.org/dc/dcmitype/StillImage" />
        <dc:title />
      </cc:Work>
    </rdf:RDF>
  </metadata>
  <g
     inkscape:label="Layer 1"
     inkscape:groupmode="layer"
     id="layer1"
     transform="translate(0,-263.13332)">
    <g
       id="g3112"
       transform="matrix(1.0840087,0.12501118,-0.12501118,1.0840087,31.325115,-25.952427)">
      <path
         id="path854"
         transform="matrix(0.26458334,0,0,0.26458334,0,263.13332)"
         d="m 105.56641,4.7382812 c -1.17133,0.00954 -1.76518,1.4037329 -3.38477,5.6152348 -0.56835,1.479647 -0.73786,1.48801 -1.05859,0.05273 -0.4433,-1.9837984 -1.626153,-2.0526324 -3.074222,-0.179688 -1.124341,1.454249 0.678439,3.483088 1.900391,2.138672 0.420851,-0.462841 0.399951,0.165568 -0.04687,1.396485 -1.390866,3.831307 -2.040284,4.370798 -3.214844,2.673828 -0.891008,-1.288252 -1.335796,-1.238474 -2.507812,0.277344 -1.549142,2.003149 -1.137192,2.840542 1.25,2.535156 1.187663,-0.151862 1.133632,0.312509 -0.242188,2.091797 -1.494951,1.933228 -1.993237,2.071122 -3.220703,0.890625 -2.032989,-1.954092 -4.319762,0.09229 -2.361328,2.113281 0.797718,0.823068 1.343662,3.108538 1.21289,5.078125 C 90.55732,33.35103 90.223312,33.787135 48.617193,84.74023 L 36.261719,99.875 l 9.52539,7.69922 c 3.214174,-4.43538 7.579783,-10.260703 13.425782,-18.072267 11.659362,-15.579477 24.880267,-33.478924 29.378906,-39.775391 8.030441,-11.239445 8.246617,-11.469408 11.855473,-12.61914 2.20543,-0.701518 4.09586,-0.706901 4.72656,-0.01563 1.33326,1.462677 3.81055,0.02581 3.48437,-2.021485 -0.19163,-1.190097 -0.48302,-1.396541 -1.27539,-0.898437 -1.7972,1.130306 -1.7768,-1.095049 0.0312,-3.433594 1.35556,-1.753171 1.78568,-1.916232 1.9375,-0.728515 0.30337,2.37222 1.21597,2.579796 2.73047,0.621093 0.8631,-1.116321 0.98034,-2.107582 0.31055,-2.625 -0.59204,-0.458834 -1.36655,-0.456629 -1.72266,0.0039 -0.35471,0.459099 -0.69089,0.494213 -0.74414,0.07813 -0.0532,-0.416618 0.90267,-1.593251 2.125,-2.615235 1.67421,-1.39937 2.3022,-1.500967 2.54492,-0.416015 0.39419,1.763792 1.63467,1.693031 3.07813,-0.173829 0.8141,-1.052862 0.6484,-1.583511 -0.67969,-2.148437 -1.34517,-0.572674 -1.45973,-0.967107 -0.48242,-1.671875 5.06599,-3.653216 5.18122,-3.887932 3.11133,-6.373047 C 117.08613,11.643147 111.25871,7.1374511 107.67183,5.4492118 106.7505,5.0154992 106.09878,4.73394 105.56636,4.7382742 Z"
         style="fill:#800000;stroke:#000000;stroke-width:4.16059256;stroke-miterlimit:4;stroke-dasharray:none"
         inkscape:connector-curvature="0" />
      <path
         id="path2964"
         transform="matrix(0.26458334,0,0,0.26458334,0,263.13332)"
         d="m 105.56641,4.7382812 c -1.17133,0.00954 -1.76518,1.4037329 -3.38477,5.6152348 -0.56835,1.479647 -0.73786,1.48801 -1.05859,0.05273 -0.4433,-1.9837984 -1.626153,-2.0526324 -3.074222,-0.179688 -1.124341,1.454249 0.678439,3.483088 1.900391,2.138672 0.420851,-0.462841 0.399951,0.165568 -0.04687,1.396485 -1.390866,3.831307 -2.040284,4.370798 -3.214844,2.673828 -0.891008,-1.288252 -1.335796,-1.238474 -2.507812,0.277344 -1.549142,2.003149 -1.137192,2.840542 1.25,2.535156 1.187663,-0.151862 1.133632,0.312509 -0.242188,2.091797 -1.494951,1.933228 -1.993237,2.071122 -3.220703,0.890625 -2.032989,-1.954092 -4.319762,0.09229 -2.361328,2.113281 0.797718,0.823068 1.343662,3.108538 1.21289,5.078125 C 90.55732,33.35103 90.223312,33.787135 48.617193,84.74023 L 36.261719,99.875 l 9.52539,7.69922 c 3.214174,-4.43538 7.579783,-10.260703 13.425782,-18.072267 11.659362,-15.579477 24.880267,-33.478924 29.378906,-39.775391 8.030441,-11.239445 8.246617,-11.469408 11.855473,-12.61914 2.20543,-0.701518 4.09586,-0.706901 4.72656,-0.01563 1.33326,1.462677 3.81055,0.02581 3.48437,-2.021485 -0.19163,-1.190097 -0.48302,-1.396541 -1.27539,-0.898437 -1.7972,1.130306 -1.7768,-1.095049 0.0312,-3.433594 1.35556,-1.753171 1.78568,-1.916232 1.9375,-0.728515 0.30337,2.37222 1.21597,2.579796 2.73047,0.621093 0.8631,-1.116321 0.98034,-2.107582 0.31055,-2.625 -0.59204,-0.458834 -1.36655,-0.456629 -1.72266,0.0039 -0.35471,0.459099 -0.69089,0.494213 -0.74414,0.07813 -0.0532,-0.416618 0.90267,-1.593251 2.125,-2.615235 1.67421,-1.39937 2.3022,-1.500967 2.54492,-0.416015 0.39419,1.763792 1.63467,1.693031 3.07813,-0.173829 0.8141,-1.052862 0.6484,-1.583511 -0.67969,-2.148437 -1.34517,-0.572674 -1.45973,-0.967107 -0.48242,-1.671875 5.06599,-3.653216 5.18122,-3.887932 3.11133,-6.373047 C 117.08613,11.643147 111.25871,7.1374511 107.67183,5.4492118 106.7505,5.0154992 106.09878,4.73394 105.56636,4.7382742 Z"
         style="fill:#008080;stroke:#800000;stroke-width:0;stroke-miterlimit:4;stroke-dasharray:none"
         inkscape:connector-curvature="0" />
      <path
         id="path2966"
         transform="matrix(0.26458334,0,0,0.26458334,0,263.13332)"
         d="m 105.9082,6.9003906 c -0.0474,0.1368189 -0.75355,1.3377596 -1.8457,4.1777344 -0.15371,0.400214 -0.27671,0.721651 -0.46484,1.070313 -0.0941,0.174236 -0.19345,0.361904 -0.42188,0.613281 -0.16539,0.181795 -0.63875,0.374702 -1.09961,0.53125 -0.0842,0.362456 -0.12702,0.732854 -0.27929,1.152343 -0.71914,1.980964 -0.96465,3.165999 -2.289068,4.273438 -0.320352,0.267969 -0.89249,0.09395 -1.423828,0.169922 0.08304,0.325795 0.2193,0.676066 0.191407,0.914062 -0.0895,0.763352 -0.338516,1.103226 -0.583985,1.5 -0.24548,0.396775 -0.542424,0.796486 -0.908203,1.269532 -0.800077,1.034645 -1.319932,1.922984 -2.767578,2.324218 -0.716443,0.198426 -1.563861,0.04852 -2.125,-0.228515 0.174917,0.443792 0.519218,0.829388 0.634766,1.314453 0.267439,1.122709 0.389653,2.351478 0.308593,3.572266 -0.06697,1.00834 -0.243935,2.317391 -1.076172,3.927734 -0.83224,1.610305 -2.247745,3.671431 -4.93164,7.189453 -5.367787,7.036044 -15.841362,19.870957 -36.644531,45.347656 l -12.34961,15.124999 6.376953,5.1543 C 47.433601,101.85194 51.777079,96.065347 57.59375,88.292969 69.247398,72.721126 82.488276,54.803066 86.951172,48.556641 c 4.016349,-5.621292 6.050701,-8.492745 7.751953,-10.304688 1.701248,-1.811981 3.297865,-2.488933 5.128906,-3.072265 1.260719,-0.401046 2.456129,-0.615891 3.566409,-0.619141 0.27152,-7.56e-4 0.54343,0.06484 0.81836,0.08789 -0.0902,-0.318993 -0.19371,-0.644129 -0.19141,-0.914063 0.0132,-1.557543 0.70355,-2.818853 1.79492,-4.230469 0.36125,-0.467225 0.66718,-0.847039 0.98828,-1.18164 0.32111,-0.334489 0.59089,-0.672242 1.32227,-0.945313 0.002,-6.42e-4 0.004,6.8e-4 0.006,0 0.08,-0.192 0.0759,-0.554828 0.15625,-0.701172 0.19105,-0.348094 0.40296,-0.641753 0.64844,-0.943359 0.49095,-0.603213 1.11215,-1.219781 1.8164,-1.808594 0.91336,-0.763427 1.45679,-1.362566 2.76758,-1.580078 0.12495,-0.0189 0.28349,0.127521 0.42969,0.132812 -0.2154,-0.804283 0.0844,-1.68728 0.40625,-2.126953 0.32636,-0.44587 0.64171,-0.683235 0.97265,-0.921875 2.3347,-1.683628 3.22736,-2.610732 3.33008,-2.658203 -0.12514,-0.184063 -0.23037,-0.357516 -0.58984,-0.789062 -2.19074,-2.630665 -8.16129,-7.2534763 -11.25781,-8.7109378 -0.51329,-0.2415118 -0.70346,-0.2961957 -0.90821,-0.3691406 z m 2.61524,28.9472654 c -0.009,0.0053 -0.071,0.02135 -0.11719,0.03516 0.0206,-3.65e-4 0.0427,8.33e-4 0.0566,-0.0078 0.0485,-0.03005 0.0746,-0.0358 0.0605,-0.02734 z m -0.11719,0.03516 c -0.0335,5.94e-4 -0.0684,-9.68e-4 -0.0918,0.01367 0.005,-9.07e-4 0.017,0.0078 0.0215,0.0078 0.0442,-0.0099 0.0425,-0.01319 0.0703,-0.02148 z"
         style="fill:#00ffff;stroke:#ffff00;stroke-width:0;stroke-miterlimit:4;stroke-dasharray:none"
         inkscape:connector-curvature="0" />
      <path
         sodipodi:nodetypes="ccccc"
         inkscape:connector-curvature="0"
         id="path3106"
         d="m 9.5942472,289.55858 -3.5921466,4.0859 2.8356377,2.26851 3.2767677,-4.31732 z"
         style="fill:#008080;stroke:#000000;stroke-width:1.0583334;stroke-linecap:butt;stroke-linejoin:miter;stroke-miterlimit:4;stroke-dasharray:none;stroke-opacity:1" />
    </g>
  </g>
</svg>
