<?xml version="1.0" encoding="UTF-8" standalone="no"?>
<!-- Created with Inkscape (http://www.inkscape.org/) -->

<svg
   xmlns:dc="http://purl.org/dc/elements/1.1/"
   xmlns:cc="http://creativecommons.org/ns#"
   xmlns:rdf="http://www.w3.org/1999/02/22-rdf-syntax-ns#"
   xmlns:svg="http://www.w3.org/2000/svg"
   xmlns="http://www.w3.org/2000/svg"
   xmlns:xlink="http://www.w3.org/1999/xlink"
   xmlns:sodipodi="http://sodipodi.sourceforge.net/DTD/sodipodi-0.dtd"
   xmlns:inkscape="http://www.inkscape.org/namespaces/inkscape"
   width="64"
   height="64"
   viewBox="0 0 16.933333 16.933334"
   version="1.1"
   id="svg897"
   inkscape:version="0.92.4 (unknown)"
   sodipodi:docname="import_headstock_shape.svg">
  <defs
     id="defs891">
    <linearGradient
       id="linearGradient903"
       x1="203.07001"
       x2="228.03"
       y1="181.45"
       y2="182.8"
       gradientTransform="matrix(0.24136963,0.10837456,-0.10837456,0.24136963,23.979175,77.136622)"
       gradientUnits="userSpaceOnUse">
      <stop
         stop-color="#00224d"
         offset="0"
         id="stop13" />
      <stop
         stop-color="#2d9921"
         offset="1"
         id="stop15" />
    </linearGradient>
    <linearGradient
       inkscape:collect="always"
       xlink:href="#linearGradient3806"
       id="linearGradient3012"
       gradientUnits="userSpaceOnUse"
       gradientTransform="matrix(1.4500001,0,0,1.4705882,-27.45,-15.05882)"
       x1="39.263832"
       y1="20.978374"
       x2="43.478561"
       y2="42.076672" />
    <linearGradient
       id="linearGradient3806">
      <stop
         style="stop-color:#8ae234;stop-opacity:1"
         offset="0"
         id="stop3808" />
      <stop
         style="stop-color:#4e9a06;stop-opacity:1"
         offset="1"
         id="stop3810" />
    </linearGradient>
  </defs>
  <sodipodi:namedview
     id="base"
     pagecolor="#ffffff"
     bordercolor="#666666"
     borderopacity="1.0"
     inkscape:pageopacity="0.0"
     inkscape:pageshadow="2"
     inkscape:zoom="7.9764499"
     inkscape:cx="-6.6138924"
     inkscape:cy="45.418147"
     inkscape:document-units="mm"
     inkscape:current-layer="layer1"
     showgrid="false"
     inkscape:snap-global="false"
     units="px"
     inkscape:window-width="1920"
     inkscape:window-height="1023"
     inkscape:window-x="0"
     inkscape:window-y="0"
     inkscape:window-maximized="1" />
  <metadata
     id="metadata894">
    <rdf:RDF>
      <cc:Work
         rdf:about="">
        <dc:format>image/svg+xml</dc:format>
        <dc:type
           rdf:resource="http://purl.org/dc/dcmitype/StillImage" />
        <dc:title></dc:title>
      </cc:Work>
    </rdf:RDF>
  </metadata>
  <g
     inkscape:label="Layer 1"
     inkscape:groupmode="layer"
     id="layer1"
     transform="translate(0,-280.06665)">
    <path
       style="fill:#ffffff;stroke:none;stroke-width:0.30233923px;stroke-linecap:butt;stroke-linejoin:miter;stroke-opacity:1"
       d="m 5.4677634,282.86932 -3.9847833,10.84678 -0.043313,0.63024 0.8662573,1.02829 0.649693,0.79609 4.8943538,0.16585 0.3898156,-1.79121 1.6892016,-1.59219 1.4293246,-1.02828 -2.2955818,-5.9707 1.0828218,-1.22732 1.386011,-1.55901 -0.476441,-1.45951 -2.4255203,-0.8956 -2.4688335,0.53073 z"
       id="path2240"
       inkscape:connector-curvature="0" />
    <path
       style="color:#000000;font-style:normal;font-variant:normal;font-weight:normal;font-stretch:normal;font-size:medium;line-height:normal;font-family:sans-serif;font-variant-ligatures:normal;font-variant-position:normal;font-variant-caps:normal;font-variant-numeric:normal;font-variant-alternates:normal;font-feature-settings:normal;text-indent:0;text-align:start;text-decoration:none;text-decoration-line:none;text-decoration-style:solid;text-decoration-color:#000000;letter-spacing:normal;word-spacing:normal;text-transform:none;writing-mode:lr-tb;direction:ltr;text-orientation:mixed;dominant-baseline:auto;baseline-shift:baseline;text-anchor:start;white-space:normal;shape-padding:0;clip-rule:nonzero;display:inline;overflow:visible;visibility:visible;opacity:1;isolation:auto;mix-blend-mode:normal;color-interpolation:sRGB;color-interpolation-filters:linearRGB;solid-color:#000000;solid-opacity:1;vector-effect:none;fill:#ffffff;fill-opacity:1;fill-rule:nonzero;stroke:#000000;stroke-width:0.529;stroke-linecap:butt;stroke-linejoin:miter;stroke-miterlimit:4;stroke-dasharray:none;stroke-dashoffset:0;stroke-opacity:1;paint-order:stroke fill markers;color-rendering:auto;image-rendering:auto;shape-rendering:auto;text-rendering:auto;enable-background:accumulate"
       d="m 8.0371316,280.53494 c -0.9282991,0.0239 -1.8526989,0.33082 -2.4361162,0.93377 l -0.024682,0.0265 -0.6417327,0.93378 -3.8306507,10.45869 0.00987,-0.0208 c -0.22977117,0.52482 -0.35865833,0.93256 -0.26903419,1.34207 0.0896243,0.40952 0.40926629,0.73815 0.83918899,1.05287 l 0.5356,0.39127 0.012346,0.75609 h 6.0791834 l 0.0074,-0.42341 c 0.019653,-0.9925 0.095619,-1.218 0.3381438,-1.59914 0.2073839,-0.32596 0.8028234,-0.89251 1.1452459,-1.09633 0.2619581,-0.15593 0.5082471,-0.29973 0.7009701,-0.5236 0.192723,-0.22387 0.284371,-0.50763 0.286311,-0.82415 0.0039,-0.63305 -0.259329,-1.4977 -0.757738,-3.19261 -0.4761251,-1.61916 -0.7025256,-2.45372 -0.708374,-2.80512 -0.0029,-0.17569 0.023075,-0.18642 0.039491,-0.20225 0.016416,-0.0159 0.1130651,-0.0724 0.3332075,-0.16635 1.1351995,-0.48426 1.8738885,-1.16801 2.0486075,-1.95261 0.17472,-0.7846 -0.2394,-1.60485 -1.120563,-2.3042 -0.6967861,-0.55304 -1.6583519,-0.80831 -2.586677,-0.78445 z m 0.037023,0.85817 c 0.6332107,-0.0163 1.2877272,0.16071 1.742551,0.5217 0.7061904,0.56049 0.9246084,1.09098 0.8194434,1.56324 -0.105167,0.47225 -0.559226,0.9514 -1.4883263,1.34773 -0.2247399,0.0959 -0.4597328,0.18493 -0.6639465,0.38184 -0.2042138,0.1969 -0.2885534,0.46556 -0.2838434,0.74852 0.00942,0.56595 0.2592462,1.36313 0.7355242,2.9828 0.497831,1.69295 0.7331711,2.57848 0.730588,2.99981 -0.00127,0.21067 -0.037647,0.28154 -0.1011986,0.35537 -0.063553,0.0738 -0.2027386,0.16938 -0.4516813,0.31756 -0.5656863,0.33673 -1.1457085,0.89327 -1.4661122,1.39689 -0.2330515,0.36625 -0.2992833,0.90158 -0.3554212,1.54054 H 3.3401416 l -0.00495,-0.26841 -0.8762121,-0.63891 c -0.3576019,-0.26178 -0.4713937,-0.40531 -0.5084496,-0.57463 -0.037056,-0.16932 0.016875,-0.4461 0.2270746,-0.92622 l 0.00247,-0.0113 3.8035006,-10.38119 0.5281954,-0.76933 c 0.353536,-0.36186 0.9319295,-0.56972 1.5623723,-0.58597 z"
       id="path46"
       inkscape:connector-curvature="0" />
    <g
       style="display:inline"
       inkscape:label="Layer 1"
       id="layer1-3"
       transform="matrix(-0.15450498,0,0,0.12319418,15.667447,285.62292)">
      <path
         inkscape:export-ydpi="4.1683898"
         inkscape:export-xdpi="4.1683898"
         inkscape:export-filename="/home/yorik/Documents/Lab/Draft/icons/changeprop.png"
         sodipodi:nodetypes="cccccccc"
         id="path3343"
         d="M 35.907323,8.8968626 V 23.000001 H 3 l 10e-8,23.505231 H 35.907323 V 60.60837 L 64.1136,34.752616 Z"
         style="fill:url(#linearGradient3012);fill-opacity:1;fill-rule:evenodd;stroke:#172a04;stroke-width:4.31504345;stroke-linecap:butt;stroke-linejoin:round;stroke-miterlimit:4;stroke-dasharray:none;stroke-opacity:1"
         inkscape:connector-curvature="0" />
      <path
         inkscape:export-ydpi="4.1683898"
         inkscape:export-xdpi="4.1683898"
         inkscape:export-filename="/home/yorik/Documents/Lab/Draft/icons/changeprop.png"
         sodipodi:nodetypes="cccccccc"
         id="path3343-2"
         d="m 39.668159,17.515447 v 8.618585 H 7.0742394 V 43.371201 H 39.668159 v 8.618585 l 18.33408,-17.23717 z"
         style="fill:none;stroke:#8ae234;stroke-width:3.74775577;stroke-linecap:butt;stroke-linejoin:miter;stroke-miterlimit:4;stroke-dasharray:none;stroke-opacity:1"
         inkscape:connector-curvature="0" />
    </g>
  </g>
</svg>
