<?xml version="1.0" encoding="UTF-8" standalone="no"?>
<!-- Created with Inkscape (http://www.inkscape.org/) -->

<svg
   xmlns:dc="http://purl.org/dc/elements/1.1/"
   xmlns:cc="http://creativecommons.org/ns#"
   xmlns:rdf="http://www.w3.org/1999/02/22-rdf-syntax-ns#"
   xmlns:svg="http://www.w3.org/2000/svg"
   xmlns="http://www.w3.org/2000/svg"
   xmlns:xlink="http://www.w3.org/1999/xlink"
   xmlns:sodipodi="http://sodipodi.sourceforge.net/DTD/sodipodi-0.dtd"
   xmlns:inkscape="http://www.inkscape.org/namespaces/inkscape"
   width="128"
   height="128"
   viewBox="0 0 33.866666 33.866668"
   version="1.1"
   id="svg8"
   inkscape:version="0.92.4 (unknown)"
   sodipodi:docname="instrument_feature.svg">
  <defs
     id="defs2">
    <linearGradient
       inkscape:collect="always"
       id="linearGradient819">
      <stop
         style="stop-color:#008080;stop-opacity:1;"
         offset="0"
         id="stop815" />
      <stop
         id="stop823"
         offset="0.46377417"
         style="stop-color:#00ffff;stop-opacity:1" />
      <stop
         style="stop-color:#008080;stop-opacity:1"
         offset="1"
         id="stop817" />
    </linearGradient>
    <inkscape:perspective
       sodipodi:type="inkscape:persp3d"
       inkscape:vp_x="0 : 16.933334 : 1"
       inkscape:vp_y="0 : 1000 : 0"
       inkscape:vp_z="33.866666 : 16.933334 : 1"
       inkscape:persp3d-origin="16.933333 : 11.288889 : 1"
       id="perspective819" />
    <linearGradient
       inkscape:collect="always"
       xlink:href="#linearGradient819"
       id="linearGradient821"
       x1="19.461649"
       y1="271.46188"
       x2="7.8611455"
       y2="281.66013"
       gradientUnits="userSpaceOnUse" />
  </defs>
  <sodipodi:namedview
     id="base"
     pagecolor="#ffffff"
     bordercolor="#000000"
     borderopacity="1"
     inkscape:pageopacity="0"
     inkscape:pageshadow="2"
     inkscape:zoom="6.2265625"
     inkscape:cx="64"
     inkscape:cy="64"
     inkscape:document-units="px"
     inkscape:current-layer="layer1"
     showgrid="false"
     units="px"
     inkscape:window-width="1920"
     inkscape:window-height="1023"
     inkscape:window-x="0"
     inkscape:window-y="0"
     inkscape:window-maximized="1"
     inkscape:snap-global="false" />
  <metadata
     id="metadata5">
    <rdf:RDF>
      <cc:Work
         rdf:about="">
        <dc:format>image/svg+xml</dc:format>
        <dc:type
           rdf:resource="http://purl.org/dc/dcmitype/StillImage" />
        <dc:title />
      </cc:Work>
    </rdf:RDF>
  </metadata>
  <g
     inkscape:label="Layer 1"
     inkscape:groupmode="layer"
     id="layer1"
     transform="translate(0,-263.13332)">
    <path
       style="fill:url(#linearGradient821);stroke:#000000;stroke-width:0.53094041;stroke-miterlimit:4;stroke-dasharray:none;fill-opacity:1"
       d="m 7.2346275,265.77567 c 4.5377855,-3.27047 9.0573585,-2.96399 9.4379485,0.64 0.0645,0.6104 0.04034,1.78056 -0.05361,2.60027 -0.198103,1.72836 -0.166936,2.52442 0.110798,2.83333 0.108905,0.12107 0.657857,0.33908 1.219938,0.48431 1.528234,0.39493 2.094168,0.89221 2.205358,1.93762 0.112615,1.05897 -0.475401,2.33398 -1.688756,3.66163 l -0.850232,0.93033 2.357831,2.8422 c 7.125744,8.58967 7.188749,8.65839 7.973098,8.69656 0.393192,0.0192 0.904908,-0.10559 1.137103,-0.27893 0.570187,-0.42353 0.807329,0.0516 0.244906,0.49074 -0.339662,0.2651 -0.351173,0.37026 -0.07401,0.67848 0.255015,0.28355 0.345984,0.29295 0.409486,0.042 0.12755,-0.50425 0.331945,-0.59526 0.619068,-0.27573 0.217251,0.24161 0.191862,0.33552 -0.143098,0.52984 -0.44135,0.25642 -0.382449,0.39119 0.291867,0.66913 0.216643,0.0891 0.343735,0.0912 0.282424,0.003 -0.178134,-0.25294 0.381222,-0.64363 0.589646,-0.41184 0.268411,0.29854 0.159968,0.54927 -0.28189,0.65179 -0.319703,0.0744 -0.331439,0.10915 -0.07368,0.22407 1.06756,0.47225 1.086834,0.51108 0.567514,1.1415 -0.631786,0.76695 -2.019417,2.0207 -2.845678,2.57138 -0.674228,0.44916 -0.71307,0.42599 -1.057964,-0.63101 -0.06658,-0.20392 -0.156485,-0.17804 -0.381104,0.11079 -0.22148,0.28376 -0.343178,0.32136 -0.494432,0.1533 -0.26753,-0.29761 -0.18295,-0.56004 0.209952,-0.65121 0.241732,-0.0569 0.270639,-0.18879 0.1172,-0.53702 -0.112032,-0.2544 -0.277002,-0.45185 -0.366621,-0.43876 -0.08973,0.0134 -0.108578,0.0844 -0.04295,0.15719 0.06606,0.0732 0.0045,0.23769 -0.136352,0.36504 -0.159435,0.14402 -0.353383,0.12361 -0.513413,-0.0545 -0.280748,-0.31213 -0.165473,-0.50641 0.344905,-0.58099 0.255399,-0.0375 0.256682,-0.12777 0.0053,-0.40724 -0.33512,-0.37275 -0.789699,-0.36714 -0.701246,0.009 0.03886,0.16561 -0.02659,0.22824 -0.286099,0.27359 -0.445404,0.0774 -0.54277,-0.4405 -0.1368,-0.72922 0.192024,-0.13672 0.341524,-0.53701 0.373979,-1.00104 0.05206,-0.75934 0.02211,-0.804 -1.641151,-2.45579 -0.931785,-0.92532 -3.546017,-3.6472 -5.809417,-6.04864 -4.52943,-4.80563 -4.465252,-4.76066 -5.82447,-4.08304 -0.995327,0.4961 -1.036499,0.54622 -1.378764,1.67763 -0.347026,1.14679 -0.349136,1.14956 -0.922694,1.23344 -0.6551699,0.0961 -1.1520305,-0.63172 -1.3024646,-1.90685 -0.1304296,-1.10589 -0.2958135,-1.51685 -0.8050952,-2.00096 -0.1296224,-0.12346 -1.1423528,-0.22651 -2.2504213,-0.22946 -2.6339596,-0.007 -3.6764741,-0.35232 -4.5283439,-1.50039 -1.38081934,-1.86096 -0.82253075,-4.3409 1.6419127,-7.29366 1.1181214,-1.33935 2.8773715,-2.95597 4.4520534,-4.09093 z"
       id="path854"
       inkscape:connector-curvature="0" />
    <path
       sodipodi:nodetypes="ccccccccccccsccccccccsccscsccccsscccccccscsccccsccscccccccsccccccccccccccccccccscscccccsscccscccccccsccccccccsccccccccsccc"
       inkscape:connector-curvature="0"
       id="path2396"
       d="m 12.150705,283.30602 c -0.26084,-0.0546 -1.005113,0.44991 -2.2331068,1.51415 -2.7834191,2.4171 -6.046399,6.1982 -8.7822188,8.54574 0.5436826,0.24903 1.369334,-0.0843 2.0071428,-0.27249 0.5728366,-0.79715 1.976304,-2.43315 2.6134576,-3.18692 l 0.9862427,-1.04542 c 0.73433,-0.78655 1.455334,-1.5092 2.1628772,-2.16761 0.7083729,-0.66231 1.4097113,-1.26527 2.1041653,-1.80893 -0.348129,0.57146 -0.659346,1.12388 -0.934333,1.65795 -0.2715015,0.5348 -0.5154316,1.06565 -0.7307139,1.59196 -0.3611095,0.87671 -0.6347511,1.53691 -0.8217146,1.98 -0.025166,0.12038 0.020669,0.26566 0.1375505,0.43595 0.1176773,0.16639 0.2284028,0.26038 0.3326892,0.28217 0.1461168,0.0304 0.3207518,-0.006 0.5238698,-0.10947 0.2073941,-0.10666 0.433355,-0.27628 0.677954,-0.50881 0.341232,-0.32979 0.811261,-0.78874 1.409718,-1.37677 1.279815,-1.26005 2.135878,-2.0372 2.56774,-2.33187 -0.183726,0.306 -0.439208,0.72913 -0.766128,1.26858 -0.866574,1.40706 -2.836424,5.2392 0.249285,3.80443 -0.0097,0.13712 -0.01053,0.27428 0.0098,0.4123 0.03756,0.22672 0.09355,0.41741 0.16913,0.5718 0.07563,0.15432 0.147813,0.2388 0.216697,0.25317 0.144143,0.0298 0.352163,-0.0502 0.624141,-0.24133 0.272787,-0.19463 0.697309,-0.52749 1.272866,-0.99812 -0.288084,0.48698 -0.460982,0.86858 -0.518694,1.14473 -0.03645,0.17475 -0.03896,0.31102 -0.0071,0.40886 0.03429,0.10189 0.112524,0.16535 0.234646,0.19088 0.341324,0.0713 1.318407,-0.6032 2.008393,-1.11769 0.536558,-0.40012 0.671928,-0.46868 0.868586,-0.69211 -0.100235,-0.0924 -0.21863,-0.0979 -0.35183,-0.0326 -0.08799,0.10973 -0.09687,0.15674 -0.450215,0.40581 -0.389961,0.27499 -0.953441,0.51744 -1.172651,0.47164 -0.212932,-0.0445 -0.292172,-0.19596 -0.23812,-0.45459 0.03289,-0.15728 0.09061,-0.28463 0.172757,-0.38056 0.08531,-0.0952 0.226985,-0.24 0.424776,-0.43576 0.201671,-0.1986 0.310957,-0.33976 0.328492,-0.42363 0.0073,-0.12955 0.0075,-0.29152 -0.03361,-0.37952 -0.04677,-0.0957 -0.170282,-0.034 -0.252424,-8.3e-4 -0.08215,0.033 -0.07814,0.0258 -0.131716,0.0724 -0.638171,0.62619 -1.430568,1.29282 -2.281876,1.63622 -0.09791,0.0305 -0.164102,0.0422 -0.198487,0.0348 -0.05949,-0.0126 -0.09893,-0.0571 -0.118692,-0.13431 -0.01907,-0.0806 -0.0174,-0.1768 0.006,-0.28864 0.06427,-0.30757 0.29884,-0.57043 0.70395,-0.78854 0.40822,-0.21747 1.0633,-0.44871 1.964387,-0.69448 l 0.269342,-0.0698 c 0.118419,-0.0191 0.202179,-0.0381 0.251813,-0.0568 0.05027,-0.0223 0.08243,-0.0652 0.09581,-0.12782 0.0081,-0.0385 0.0027,-0.10147 -0.0149,-0.18902 -0.01448,-0.0869 -0.0434,-0.16593 -0.0873,-0.23719 -0.04323,-0.0747 -0.09781,-0.11889 -0.163507,-0.13278 -0.244251,-0.0511 -0.614645,-0.006 -1.111376,0.13478 -0.998495,0.336 -1.888165,0.84358 -2.409049,1.61745 -0.140235,0.13277 -0.258809,0.17439 -0.361582,0.16701 -0.189152,-0.018 -0.172631,-0.24027 -0.147476,-0.36475 0.02267,-0.10866 0.191714,-0.55439 0.29843,-0.78733 0.107547,-0.23683 0.274076,-0.57347 0.499362,-1.00854 0.101343,-0.18951 0.240953,-0.45195 0.420011,-0.78729 0.549039,-1.01165 0.853791,-1.66094 0.913825,-1.94823 0.06167,-0.29502 0.06755,-0.53089 0.01734,-0.70752 -0.04667,-0.1759 -0.200499,-0.25801 -0.353542,-0.28999 -0.65254,0.0177 -1.90365,1.10538 -2.333227,1.4731 -0.617334,0.53953 -1.449709,1.34401 -2.497286,2.41354 0.417211,-0.95412 0.882562,-1.93075 1.396251,-2.92953 0.517156,-0.99806 0.786327,-1.5474 0.807419,-1.64834 -9.17e-4,-0.35369 0.07162,-0.81284 -0.04704,-1.18263 -0.04455,-0.0821 -0.110169,-0.13239 -0.197154,-0.15067 z m 8.243726,7.04993 c -0.169023,-0.0356 -0.588309,-0.0649 -1.256801,-0.0878 l -0.621835,-0.0249 c -0.09679,0.0933 -0.186435,0.19286 -0.268694,0.29867 -0.134102,0.17263 -0.214014,0.3218 -0.240302,0.4476 -0.09846,0.39706 0.364841,0.27926 0.721101,0.28098 0.06886,-8.2e-4 0.166593,6.3e-4 0.293857,0.002 0.127328,0.001 0.247809,0.003 0.361805,0.005 0.114755,-0.002 0.218414,-0.004 0.310489,-0.007 -0.212734,0.18899 -0.410352,0.38366 -0.592489,0.58264 -0.178265,0.19625 -0.322129,0.38267 -0.431189,0.56049 -0.108992,0.17784 -0.179406,0.34201 -0.210832,0.49231 -0.05333,0.25516 -0.05082,0.45992 0.0084,0.61458 0.05992,0.15112 0.156121,0.24052 0.287643,0.26802 0.112875,0.0233 0.251796,2.1e-4 0.417064,-0.0712 0.165997,-0.0748 0.351357,-0.18212 0.557001,-0.32148 0.587549,-0.45906 1.224166,-0.84492 1.719805,-1.37165 -0.08025,-0.0611 -0.169752,-0.0912 -0.274849,-0.0689 -0.163625,0.20411 -0.258623,0.29983 -0.5777,0.50541 -0.38963,0.25106 -0.940757,0.48155 -1.131773,0.44164 -0.181707,-0.0377 -0.255405,-0.13875 -0.221069,-0.30302 0.02488,-0.11879 0.11816,-0.28376 0.279745,-0.49438 0.161745,-0.2106 0.346057,-0.39792 0.553669,-0.56248 0.175223,-0.13484 0.300287,-0.2387 0.374224,-0.31073 0.07761,-0.0749 0.124222,-0.14869 0.139556,-0.22213 0.02415,-0.11537 0.0306,-0.23475 0.02027,-0.3573 -0.01032,-0.12251 -0.03863,-0.20445 -0.08525,-0.247 -0.02189,-0.0198 -0.06567,-0.0362 -0.131498,-0.0497 z m 3.084384,0.67677 c -0.797052,-0.002 -1.241039,-0.0144 -1.930399,-0.0759 -0.0722,0.0553 -0.141858,0.1144 -0.208861,0.17697 -0.151591,0.14708 -0.238696,0.27412 -0.261342,0.38246 -0.02706,0.12944 0.04413,0.22663 0.213575,0.29124 0,0 6e-6,-10e-6 0,0 l 1.8e-5,-6e-5 c 0.345774,0.0854 0.735664,0.10195 1.041828,0.10714 0.264621,5e-4 0.494791,-1e-4 0.691423,-0.003 -0.246992,0.1201 -0.471357,0.23126 -0.67457,0.33404 l -0.673921,0.0339 0.308893,0.1539 c -0.678661,0.35554 -1.029366,0.5817 -1.04937,0.67743 -0.02562,0.12239 0.03792,0.23218 0.190779,0.32976 3.524781,0.28965 -2.172359,3.6574 -1.211892,3.10122 1.493594,-0.56194 4.639989,-2.65566 1.867708,-3.58795 0.257521,-0.14758 0.468611,-0.26171 0.637976,-0.34694 l 0.663807,-0.0333 -0.294984,-0.14693 c 0.08806,-0.0414 0.178408,-0.0829 0.271836,-0.12481 0.208681,-0.0914 0.335892,-0.15384 0.382202,-0.18794 0.05007,-0.037 0.08095,-0.0803 0.09108,-0.1289 0.01095,-0.0524 0.0245,-0.28476 0.04196,-0.69695 0.0064,-0.15554 -0.02614,-0.24095 -0.09826,-0.25603 z"
       style="font-style:normal;font-variant:normal;font-weight:normal;font-stretch:normal;font-size:8.16654396px;line-height:125%;font-family:'Brush455 BT';-inkscape-font-specification:'Brush455 BT, Normal';font-variant-ligatures:normal;font-variant-caps:normal;font-variant-numeric:normal;font-feature-settings:normal;text-align:start;letter-spacing:0.05988793px;word-spacing:0px;writing-mode:lr-tb;text-anchor:start;fill:#000000;fill-opacity:1;stroke:#ffffff;stroke-width:0;stroke-linecap:butt;stroke-linejoin:miter;stroke-miterlimit:4;stroke-dasharray:none;stroke-opacity:1;paint-order:stroke fill markers" />
  </g>
</svg>
