<?xml version="1.0" encoding="UTF-8" standalone="no"?>
<!-- Created with Inkscape (http://www.inkscape.org/) -->

<svg
   xmlns:dc="http://purl.org/dc/elements/1.1/"
   xmlns:cc="http://creativecommons.org/ns#"
   xmlns:rdf="http://www.w3.org/1999/02/22-rdf-syntax-ns#"
   xmlns:svg="http://www.w3.org/2000/svg"
   xmlns="http://www.w3.org/2000/svg"
   xmlns:xlink="http://www.w3.org/1999/xlink"
   xmlns:sodipodi="http://sodipodi.sourceforge.net/DTD/sodipodi-0.dtd"
   xmlns:inkscape="http://www.inkscape.org/namespaces/inkscape"
   width="128"
   height="128"
   viewBox="0 0 33.866666 33.866668"
   version="1.1"
   id="svg8"
   inkscape:version="0.92.4 (unknown)"
   sodipodi:docname="workbench.svg">
  <defs
     id="defs2">
    <linearGradient
       inkscape:collect="always"
       id="linearGradient1043">
      <stop
         style="stop-color:#2c89a0;stop-opacity:1;"
         offset="0"
         id="stop1039" />
      <stop
         style="stop-color:#2c89a0;stop-opacity:0;"
         offset="1"
         id="stop1041" />
    </linearGradient>
    <inkscape:perspective
       sodipodi:type="inkscape:persp3d"
       inkscape:vp_x="-2.3139105 : 61.459235 : 1"
       inkscape:vp_y="0 : 3779.5274 : 0"
       inkscape:vp_z="125.68609 : 61.459235 : 1"
       inkscape:persp3d-origin="61.686089 : 40.1259 : 1"
       id="perspective975" />
    <linearGradient
       inkscape:collect="always"
       id="linearGradient878">
      <stop
         style="stop-color:#008080;stop-opacity:1"
         offset="0"
         id="stop874" />
      <stop
         id="stop882"
         offset="0.41995171"
         style="stop-color:#00ffff;stop-opacity:1" />
      <stop
         style="stop-color:#008080;stop-opacity:1"
         offset="1"
         id="stop876" />
    </linearGradient>
    <inkscape:perspective
       sodipodi:type="inkscape:persp3d"
       inkscape:vp_x="0 : 16.933334 : 1"
       inkscape:vp_y="0 : 1000 : 0"
       inkscape:vp_z="33.866666 : 16.933334 : 1"
       inkscape:persp3d-origin="16.933333 : 11.288889 : 1"
       id="perspective819" />
    <linearGradient
       inkscape:collect="always"
       xlink:href="#linearGradient878"
       id="linearGradient880"
       x1="14.017262"
       y1="282.40576"
       x2="17.653902"
       y2="294.65894"
       gradientUnits="userSpaceOnUse"
       gradientTransform="matrix(1.2273238,-0.1888397,0.1888397,1.2273238,-58.958681,-64.613855)" />
    <filter
       inkscape:collect="always"
       style="color-interpolation-filters:sRGB"
       id="filter928"
       x="-0.032941754"
       width="1.0658835"
       y="-0.039684201"
       height="1.0793684">
      <feGaussianBlur
         inkscape:collect="always"
         stdDeviation="0.25657192"
         id="feGaussianBlur930" />
    </filter>
    <linearGradient
       inkscape:collect="always"
       xlink:href="#linearGradient1043"
       id="linearGradient1045"
       x1="19.720247"
       y1="280.37302"
       x2="31.004301"
       y2="280.37302"
       gradientUnits="userSpaceOnUse" />
  </defs>
  <sodipodi:namedview
     id="base"
     pagecolor="#ffffff"
     bordercolor="#000000"
     borderopacity="1"
     inkscape:pageopacity="0"
     inkscape:pageshadow="2"
     inkscape:zoom="5.831578"
     inkscape:cx="66.607282"
     inkscape:cy="61.424583"
     inkscape:document-units="px"
     inkscape:current-layer="layer1"
     showgrid="false"
     units="px"
     inkscape:window-width="1920"
     inkscape:window-height="1023"
     inkscape:window-x="0"
     inkscape:window-y="0"
     inkscape:window-maximized="1"
     inkscape:snap-global="false" />
  <metadata
     id="metadata5">
    <rdf:RDF>
      <cc:Work
         rdf:about="">
        <dc:format>image/svg+xml</dc:format>
        <dc:type
           rdf:resource="http://purl.org/dc/dcmitype/StillImage" />
        <dc:title></dc:title>
      </cc:Work>
    </rdf:RDF>
  </metadata>
  <g
     inkscape:label="Layer 1"
     inkscape:groupmode="layer"
     id="layer1"
     transform="translate(0,-263.13332)">
    <path
       style="font-variant-ligatures:normal;font-variant-caps:normal;font-variant-numeric:normal;font-feature-settings:normal;fill:#000000;stroke-width:0.14935163"
       d="m 15.344086,263.36635 c -0.437243,0 -1.463121,1.0599 -3.078044,3.18131 -3.6589662,4.81614 -7.6301388,11.98395 -11.2360846,16.67226 0.9567465,0.21735 2.1707815,-0.59517 3.1320087,-1.1114 0.6524275,-1.47249 2.3572766,-4.57098 3.1276329,-5.99536 l 1.2330261,-2.01013 c 0.9153458,-1.50963 1.8308589,-2.91204 2.7460869,-4.20691 0.91533,-1.30147 1.839197,-2.50519 2.772047,-3.61128 -0.3673,1.03463 -0.681875,2.0262 -0.94424,2.97624 -0.256526,0.95004 -0.47004,1.88418 -0.639121,2.8018 -0.28568,1.52922 -0.503615,2.6814 -0.655163,3.45579 0,0.20171 0.122377,0.41975 0.367254,0.654 0.244845,0.22763 0.454416,0.34158 0.629202,0.34158 0.244846,0 0.512994,-0.11762 0.804515,-0.3518 0.297329,-0.24085 0.603169,-0.58907 0.917987,-1.04458 0.437257,-0.64421 1.038061,-1.53886 1.801845,-2.68424 1.632415,-2.45325 2.746442,-3.98853 3.34116,-4.60686 -0.192335,0.55311 -0.460543,1.31814 -0.804516,2.29424 -0.895728,2.48477 -2.697788,9.01314 1.345916,6.26081 l 0.235111,-1.03146 c -0.163317,0.21117 -0.322748,0.30239 -0.47489,0.32292 -0.309816,0.0344 -0.358019,-0.32806 -0.359379,-0.53644 0,-0.18212 0.12207,-0.95466 0.215277,-1.36459 0.0932,-0.41646 0.24741,-1.01297 0.463223,-1.78727 0.09914,-0.33838 0.235416,-0.80675 0.410426,-1.40542 0.542205,-1.80893 0.813557,-2.95387 0.813557,-3.43536 0,-0.49454 -0.06953,-0.87549 -0.209441,-1.14232 -0.134001,-0.26679 -0.408541,-0.34683 -0.665081,-0.34683 -1.042042,0.24737 -2.686284,2.41412 -3.252774,3.14892 -0.810383,1.07368 -1.877005,2.6448 -3.200559,4.71421 0.349797,-1.67229 0.769249,-3.39681 1.258987,-5.17334 0.495564,-1.77639 0.743549,-2.74913 0.743549,-2.9182 -0.120184,-0.56768 -0.157873,-1.3295 -0.472558,-1.88352 -0.0991,-0.117 -0.22141,-0.1759 -0.367253,-0.1759 z"
       id="path22"
       inkscape:connector-curvature="0" />
    <path
       style="fill:url(#linearGradient880);fill-opacity:1;stroke:#808080;stroke-width:0.93634206;stroke-miterlimit:4;stroke-dasharray:none;paint-order:stroke fill markers"
       d="m 2.0447244,292.05069 c -2.35754216,-3.35203 -1.43889793,-7.47422 1.9183669,-8.60813 0.5685979,-0.19206 1.6378038,-0.42771 2.3759259,-0.52366 1.5563578,-0.20221 2.2904412,-0.40535 2.6128014,-0.72243 0.1263815,-0.12432 0.4036344,-0.66478 0.6160653,-1.20098 0.5776411,-1.45791 1.1133001,-2.07497 2.0872701,-2.40463 0.986596,-0.33389 2.072342,-0.0866 3.118125,0.70997 l 0.732854,0.55817 2.937977,-2.74031 c 8.879075,-8.28174 8.950952,-8.35336 9.096606,-9.06545 0.07305,-0.35696 0.03028,-0.78843 -0.09532,-0.95883 -0.307801,-0.4184 0.16124,-0.73567 0.484395,-0.32762 0.195009,0.2465 0.289857,0.23361 0.611519,-0.0824 0.295936,-0.29113 0.317359,-0.37482 0.09639,-0.37665 -0.444236,-0.004 -0.498808,-0.16692 -0.165457,-0.49477 0.252124,-0.24802 0.334618,-0.24589 0.465498,0.0118 0.17274,0.33962 0.304658,0.25705 0.654515,-0.40898 0.112426,-0.21399 0.131996,-0.32841 0.04331,-0.2542 -0.256988,0.21542 -0.536188,-0.20049 -0.294325,-0.43845 0.311533,-0.30645 0.526042,-0.26427 0.557671,0.10959 0.02311,0.27045 0.05333,0.27336 0.195009,0.0169 0.583511,-1.0616 0.621814,-1.08744 1.126417,-0.76013 0.613902,0.39812 1.567313,1.36743 1.955358,1.98777 0.316651,0.50606 0.289877,0.54607 -0.727677,1.08794 -0.1963,0.10467 -0.185314,0.17948 0.04757,0.31757 0.228818,0.13634 0.245723,0.23764 0.07058,0.40992 -0.310517,0.30544 -0.539151,0.28726 -0.567271,-0.0452 -0.018,-0.20434 -0.134866,-0.20124 -0.475739,0.013 -0.248998,0.15641 -0.453273,0.34788 -0.453908,0.4254 6.51e-4,0.0773 0.06191,0.0791 0.138076,0.004 0.07659,-0.0753 0.21849,-0.0563 0.315382,0.0421 0.109601,0.11137 0.06333,0.28994 -0.122291,0.47258 -0.325782,0.32048 -0.487552,0.25982 -0.483896,-0.18169 0.0019,-0.22101 -0.08086,-0.20222 -0.372551,0.0846 -0.388951,0.38264 -0.44796,0.78921 -0.0912,0.62729 0.157359,-0.0713 0.205455,-0.0264 0.210873,0.19607 0.0086,0.38256 -0.480357,0.58381 -0.687733,0.28308 -0.09815,-0.14221 -0.444046,-0.18833 -0.86482,-0.1154 -0.68868,0.12033 -0.733852,0.157 -2.482635,2.01237 -0.979681,1.03945 -3.843525,3.98334 -6.364161,6.54203 -5.044118,5.12034 -4.993841,5.05287 -4.564507,6.12331 0.314317,0.78388 0.354462,0.80979 1.343235,0.86811 1.002248,0.0592 1.004492,0.0605 1.000433,0.55659 -0.0047,0.56669 -0.741606,1.17246 -1.931678,1.58782 -1.032101,0.36019 -1.432126,0.59891 -1.947765,1.16228 -0.131379,0.14348 -0.368807,1.07469 -0.52785,2.06944 -0.377985,2.36464 -0.841723,3.3759 -2.014288,4.3926 -1.9006404,1.64803 -4.0950847,1.69244 -6.4539977,0.13071 -1.0699117,-0.70864 -2.3035602,-1.9315 -3.1217058,-3.09471 z"
       id="path854"
       inkscape:connector-curvature="0" />
    <path
       style="fill:#808080;stroke:none;stroke-width:0.26458335px;stroke-linecap:butt;stroke-linejoin:miter;stroke-opacity:1;filter:url(#filter928)"
       d="M 27.766929,273.45254 9.8454628,288.96936 9.0741595,288.06194 Z"
       id="path918"
       inkscape:connector-curvature="0"
       transform="matrix(1.0799945,-0.08716647,0.08716647,1.0799945,-26.061707,-23.232038)" />
    <g
       inkscape:corner7="-0.37168184 : -0.0011450911 : 0.16070005 : 1"
       inkscape:corner0="-0.29713561 : 0.0010284415 : 0 : 1"
       inkscape:perspectiveID="#perspective975"
       style="opacity:1;fill:#000000;fill-opacity:1;stroke:none;stroke-width:3.22900009;stroke-linecap:round;stroke-linejoin:round;stroke-miterlimit:4;stroke-dasharray:none;paint-order:stroke fill markers"
       id="g971"
       sodipodi:type="inkscape:box3d">
      <path
         points="88.742063,272.05027 95.61695,265.25624 95.61695,255.74343 88.742063,260.36249 "
         d="m 88.742063,260.36249 v 11.68778 l 6.874887,-6.79403 v -9.51281 z"
         inkscape:box3dsidetype="6"
         style="fill:#353564;fill-rule:evenodd;stroke:none;stroke-linejoin:round"
         id="path959"
         sodipodi:type="inkscape:box3dside" />
      <path
         points="99.545315,276.38191 104.86943,268.06375 95.61695,265.25624 88.742063,272.05027 "
         d="m 88.742063,272.05027 10.803252,4.33164 5.324115,-8.31816 -9.25248,-2.80751 z"
         inkscape:box3dsidetype="13"
         style="fill:#afafde;fill-rule:evenodd;stroke:none;stroke-linejoin:round"
         id="path961"
         sodipodi:type="inkscape:box3dside" />
      <path
         points="104.86943,257.65217 104.86943,268.06375 95.61695,265.25624 95.61695,255.74343 "
         d="m 95.61695,255.74343 9.25248,1.90874 v 10.41158 l -9.25248,-2.80751 z"
         inkscape:box3dsidetype="11"
         style="fill:#e9e9ff;fill-rule:evenodd;stroke:none;stroke-linejoin:round"
         id="path963"
         sodipodi:type="inkscape:box3dside" />
      <path
         points="99.545315,263.30744 104.86943,257.65217 95.61695,255.74343 88.742063,260.36249 "
         d="m 88.742063,260.36249 10.803252,2.94495 5.324115,-5.65527 -9.25248,-1.90874 z"
         inkscape:box3dsidetype="5"
         style="fill:#4d4d9f;fill-rule:evenodd;stroke:none;stroke-linejoin:round"
         id="path965"
         sodipodi:type="inkscape:box3dside" />
      <path
         points="99.545315,276.38191 104.86943,268.06375 104.86943,257.65217 99.545315,263.30744 "
         d="m 99.545315,263.30744 v 13.07447 l 5.324115,-8.31816 v -10.41158 z"
         inkscape:box3dsidetype="14"
         style="fill:#d7d7ff;fill-rule:evenodd;stroke:none;stroke-linejoin:round"
         id="path967"
         sodipodi:type="inkscape:box3dside" />
      <path
         points="99.545315,263.30744 99.545315,276.38191 88.742063,272.05027 88.742063,260.36249 "
         d="m 88.742063,260.36249 10.803252,2.94495 v 13.07447 l -10.803252,-4.33164 z"
         inkscape:box3dsidetype="3"
         style="fill:#8686bf;fill-rule:evenodd;stroke:none;stroke-linejoin:round"
         id="path969"
         sodipodi:type="inkscape:box3dside" />
    </g>
    <path
       sodipodi:type="star"
       style="opacity:1;fill:url(#linearGradient1045);fill-opacity:1;stroke:#53676c;stroke-width:1.48933959;stroke-linecap:round;stroke-linejoin:round;stroke-miterlimit:4;stroke-dasharray:none;paint-order:stroke fill markers"
       id="path1037"
       sodipodi:sides="3"
       sodipodi:cx="25.362274"
       sodipodi:cy="281.7554"
       sodipodi:r1="5.6568122"
       sodipodi:r2="2.8284061"
       sodipodi:arg1="0.52359878"
       sodipodi:arg2="1.5707963"
       inkscape:flatsided="true"
       inkscape:rounded="0.01"
       inkscape:randomized="0"
       d="m 30.261217,284.58381 c -0.04899,0.0848 -9.748896,0.0848 -9.797886,0 -0.04899,-0.0849 4.800964,-8.48522 4.898943,-8.48522 0.09798,0 4.947933,8.40037 4.898943,8.48522 z"
       inkscape:transform-center-y="-1.2338513e-06"
       transform="rotate(90,22.934936,285.58923)"
       inkscape:transform-center-x="-1.3823818" />
  </g>
</svg>
