<?xml version="1.0" encoding="UTF-8" standalone="no"?>
<!-- Created with Inkscape (http://www.inkscape.org/) -->

<svg
   width="210mm"
   height="297mm"
   viewBox="0 0 210 297"
   version="1.1"
   id="svg119067"
   inkscape:version="1.2.2 (b0a8486, 2022-12-01)"
   sodipodi:docname="Fret-Inlays.svg"
   xmlns:inkscape="http://www.inkscape.org/namespaces/inkscape"
   xmlns:sodipodi="http://sodipodi.sourceforge.net/DTD/sodipodi-0.dtd"
   xmlns="http://www.w3.org/2000/svg"
   xmlns:svg="http://www.w3.org/2000/svg">
  <sodipodi:namedview
     id="namedview119069"
     pagecolor="#000036"
     bordercolor="#000000"
     borderopacity="0.25"
     inkscape:showpageshadow="2"
     inkscape:pageopacity="0"
     inkscape:pagecheckerboard="0"
     inkscape:deskcolor="#000036"
     inkscape:document-units="mm"
     showgrid="false"
     showborder="false"
     inkscape:zoom="3.108143"
     inkscape:cx="-421.15179"
     inkscape:cy="7.0781813"
     inkscape:window-width="1920"
     inkscape:window-height="1011"
     inkscape:window-x="0"
     inkscape:window-y="1080"
     inkscape:window-maximized="1"
     inkscape:current-layer="layer1" />
  <defs
     id="defs119064" />
  <g
     inkscape:label="Layer 1"
     inkscape:groupmode="layer"
     id="layer1">
    <path
       id="f12_"
       style="opacity:0.691454;fill:none;stroke:#ffffff;stroke-width:0.1;stroke-linecap:square;stroke-dasharray:none"
       d="m -103.03169,-0.0232544 a 2.9748465,2.9748465 0 0 0 -0.0722,0.0027307 3.0645649,3.0070569 0 0 1 0.0722,0.64764674 3.0645649,3.0070569 0 0 1 -2.89635,3.00085026 2.9748465,2.9748465 0 0 0 2.89635,2.2984694 2.9748465,2.9748465 0 0 0 2.97489,-2.974879 2.9748465,2.9748465 0 0 0 -2.97489,-2.9748181 z m 0,14.1485894 a 2.9748465,2.9748465 0 0 0 -0.0722,0.0028 3.0645649,3.0070569 0 0 1 0.0722,0.647586 3.0645649,3.0070569 0 0 1 -2.89635,3.00091 2.9748465,2.9748465 0 0 0 2.89635,2.29847 2.9748465,2.9748465 0 0 0 2.97489,-2.974878 2.9748465,2.9748465 0 0 0 -2.97489,-2.974819 z" />
    <path
       id="f15_"
       style="opacity:0.691454;fill:none;stroke:#ffffff;stroke-width:0.1;stroke-linecap:square;stroke-dasharray:none"
       d="m -110.99243,14.125348 a 2.9748465,2.9748465 0 0 0 -0.0722,0.0028 3.0645649,3.0070569 0 0 1 0.0722,0.647616 3.0645649,3.0070569 0 0 1 -2.89639,3.000864 2.9748465,2.9748465 0 0 0 2.89639,2.298469 2.9748465,2.9748465 0 0 0 2.97484,-2.974833 2.9748465,2.9748465 0 0 0 -2.97484,-2.974832 z" />
    <path
       id="f17_"
       style="opacity:0.691454;fill:none;stroke:#ffffff;stroke-width:0.1;stroke-linecap:square;stroke-dasharray:none"
       d="m -119.0604,14.125348 a 2.9748465,2.9748465 0 0 0 -0.0722,0.0028 3.0645649,3.0070569 0 0 1 0.0722,0.647616 3.0645649,3.0070569 0 0 1 -2.89641,3.000864 2.9748465,2.9748465 0 0 0 2.89641,2.298469 2.9748465,2.9748465 0 0 0 2.97483,-2.974833 2.9748465,2.9748465 0 0 0 -2.97483,-2.974832 z" />
    <path
       id="f19_"
       style="opacity:0.691454;fill:none;stroke:#ffffff;stroke-width:0.1;stroke-linecap:square;stroke-dasharray:none"
       d="m -126.5992,14.125348 a 2.9748465,2.9748465 0 0 0 -0.0722,0.0028 3.0645649,3.0070569 0 0 1 0.0722,0.647616 3.0645649,3.0070569 0 0 1 -2.89641,3.000864 2.9748465,2.9748465 0 0 0 2.89641,2.298469 2.9748465,2.9748465 0 0 0 2.97482,-2.974833 2.9748465,2.9748465 0 0 0 -2.97482,-2.974832 z" />
    <path
       id="f21_"
       style="opacity:0.691454;fill:none;stroke:#ffffff;stroke-width:0.1;stroke-linecap:square;stroke-dasharray:none"
       d="m -134.32638,14.125348 a 2.9748465,2.9748465 0 0 0 -0.0722,0.0028 3.0645649,3.0070569 0 0 1 0.0722,0.647616 3.0645649,3.0070569 0 0 1 -2.8964,3.000864 2.9748465,2.9748465 0 0 0 2.8964,2.298469 2.9748465,2.9748465 0 0 0 2.97482,-2.974833 2.9748465,2.9748465 0 0 0 -2.97482,-2.974832 z" />
    <path
       id="f23_"
       style="opacity:0.691454;fill:none;stroke:#ffffff;stroke-width:0.1;stroke-linecap:square;stroke-dasharray:none"
       d="m -141.86518,14.125348 a 2.9748465,2.9748465 0 0 0 -0.0722,0.0028 3.0645649,3.0070569 0 0 1 0.0722,0.647616 3.0645649,3.0070569 0 0 1 -2.89641,3.000864 2.9748465,2.9748465 0 0 0 2.89641,2.298469 2.9748465,2.9748465 0 0 0 2.97482,-2.974833 2.9748465,2.9748465 0 0 0 -2.97482,-2.974832 z" />
    <path
       id="f3_"
       style="opacity:0.691454;fill:none;stroke:#ffffff;stroke-width:0.1;stroke-linecap:square;stroke-dasharray:none"
       d="m -71.228835,14.125348 a 2.9748465,2.9748465 0 0 0 -0.07218,0.0028 3.0645649,3.0070569 0 0 1 0.07218,0.647616 3.0645649,3.0070569 0 0 1 -2.896398,3.000864 2.9748465,2.9748465 0 0 0 2.896398,2.298469 2.9748465,2.9748465 0 0 0 2.974834,-2.974833 2.9748465,2.9748465 0 0 0 -2.974834,-2.974832 z" />
    <path
       id="f5_"
       style="opacity:0.691454;fill:none;stroke:#ffffff;stroke-width:0.1;stroke-linecap:square;stroke-dasharray:none"
       d="m -78.767638,14.125348 a 2.9748465,2.9748465 0 0 0 -0.07218,0.0028 3.0645649,3.0070569 0 0 1 0.07218,0.647616 3.0645649,3.0070569 0 0 1 -2.896397,3.000858 2.9748465,2.9748465 0 0 0 2.896397,2.298469 2.9748465,2.9748465 0 0 0 2.974833,-2.974832 2.9748465,2.9748465 0 0 0 -2.974833,-2.974833 z" />
    <path
       id="f7_"
       style="opacity:0.691454;fill:none;stroke:#ffffff;stroke-width:0.1;stroke-linecap:square;stroke-dasharray:none"
       d="m -86.306441,14.125348 a 2.9748465,2.9748465 0 0 0 -0.07218,0.0028 3.0645649,3.0070569 0 0 1 0.07218,0.647616 3.0645649,3.0070569 0 0 1 -2.896396,3.000858 2.9748465,2.9748465 0 0 0 2.896396,2.298469 2.9748465,2.9748465 0 0 0 2.974834,-2.974832 2.9748465,2.9748465 0 0 0 -2.974834,-2.974833 z" />
    <path
       id="f9_"
       style="opacity:0.691454;fill:none;stroke:#ffffff;stroke-width:0.1;stroke-linecap:square;stroke-dasharray:none"
       d="m -93.504452,14.125348 a 2.9748465,2.9748465 0 0 0 -0.07219,0.0028 3.0645649,3.0070569 0 0 1 0.07219,0.647616 3.0645649,3.0070569 0 0 1 -2.896398,3.000841 2.9748465,2.9748465 0 0 0 2.896398,2.298469 2.9748465,2.9748465 0 0 0 2.974833,-2.974833 2.9748465,2.9748465 0 0 0 -2.974833,-2.974832 z" />
    <text
       xml:space="preserve"
       style="font-weight:bold;font-size:7.95908px;font-family:sans-serif;-inkscape-font-specification:'sans-serif, Bold';text-align:center;text-anchor:middle;opacity:0.691454;fill:#00ffff;stroke:none;stroke-width:0.287138;stroke-linecap:square;stroke-dasharray:none"
       x="-105.91599"
       y="-9.1986647"
       id="text108951"><tspan
         sodipodi:role="line"
         id="tspan108949"
         style="fill:#00ffff;stroke:none;stroke-width:0.287138"
         x="-105.91599"
         y="-9.1986647">Custom Fret Inlays</tspan></text>
    <text
       xml:space="preserve"
       style="font-weight:bold;font-size:2.93736px;font-family:sans-serif;-inkscape-font-specification:'sans-serif, Bold';text-align:start;text-anchor:start;opacity:0.691454;fill:#ffffff;stroke:none;stroke-width:0.0264925;stroke-linecap:square;stroke-dasharray:none"
       x="-143.60692"
       y="24.563944"
       id="text121356"><tspan
         sodipodi:role="line"
         id="tspan121354"
         style="text-align:start;text-anchor:start;fill:#ffffff;stroke:none;stroke-width:0.0264925"
         x="-143.60692"
         y="24.563944">23    21   19    17   15     12     9      7     5     3</tspan></text>
  </g>
</svg>
